<svg width="500" height="500" viewBox="0 0 500 500" fill="none" xmlns="http://www.w3.org/2000/svg">
<path d="M382.8 104.1C380 146.3 349.9 170.7 341.2 212.6C336.8 234.9 342.8 248.9 342.8 248.9" stroke="black" stroke-width="7.9" stroke-miterlimit="10" stroke-linecap="square"/>
<path d="M322.9 454.2C322.9 454.2 306.1 465.8 280 466.4C253.9 467 239 459.9 239 459.9" stroke="black" stroke-width="8.3" stroke-miterlimit="10" stroke-linecap="square"/>
<path d="M228.4 351.6C228.4 351.6 233.9 359.6 236.1 383.8C238.5 408 238.6 445.1 238.6 445.1" stroke="black" stroke-width="8.3" stroke-miterlimit="10" stroke-linecap="square"/>
<path d="M157.2 152.3C157.2 152.3 129.5 210.4 173.6 247C217.9 284 273.6 204.3 273.6 204.3" stroke="black" stroke-width="8" stroke-miterlimit="10" stroke-linecap="square"/>
<path d="M193.2 175.4C193.2 175.4 193.9 177.8 197.2 182.8C200.8 188.4 203.5 190.5 203.5 190.5" fill="white"/>
<path d="M193.2 175.4C193.2 175.4 193.9 177.8 197.2 182.8C200.8 188.4 203.5 190.5 203.5 190.5" stroke="black" stroke-width="8" stroke-miterlimit="10" stroke-linecap="square"/>
<path d="M216.6 160.6C216.6 160.6 217.3 163 220.6 168C224.2 173.6 226.9 175.7 226.9 175.7" fill="white"/>
<path d="M216.6 160.6C216.6 160.6 217.3 163 220.6 168C224.2 173.6 226.9 175.7 226.9 175.7" stroke="black" stroke-width="8" stroke-miterlimit="10" stroke-linecap="square"/>
<path d="M285.2 108.4C285.2 108.4 293.9 92.4998 307.1 95.8998C321.3 99.5998 326.5 113 325 123.1C322.4 140.5 304.3 143.3 304.3 143.3" stroke="black" stroke-width="8" stroke-miterlimit="10" stroke-linecap="square"/>
<path d="M150.4 207.7C150.4 207.7 129.5 209 136.5 228C146.8 256.4 167 245.9 167 245.9" stroke="black" stroke-width="8" stroke-miterlimit="10" stroke-linecap="square"/>
<path d="M284.3 184.3L325.5 231.3" stroke="black" stroke-width="8" stroke-miterlimit="10" stroke-linecap="square"/>
<path d="M261.8 231.9L276.2 248.8" stroke="black" stroke-width="8" stroke-miterlimit="10" stroke-linecap="square"/>
<path d="M180.1 123.9L176.3 145.6" stroke="black" stroke-width="8" stroke-miterlimit="10" stroke-linecap="square"/>
<path d="M198.7 110.1L206.1 120" stroke="black" stroke-width="8" stroke-miterlimit="10" stroke-linecap="square"/>
<path d="M223 101.4L247.6 116.7" stroke="black" stroke-width="8" stroke-miterlimit="10" stroke-linecap="square"/>
<path d="M138.2 89.8999C138.2 89.8999 108.2 98.8999 99.9 131.4C88.7 174.9 120.6 210.7 120.6 210.7" stroke="black" stroke-width="8" stroke-miterlimit="10" stroke-linecap="square"/>
<path d="M183.9 69.8999C183.9 69.8999 217.5 25.7999 254.9 49.0999C277.4 71.8999 288.6 101.5 288.6 101.5" stroke="black" stroke-width="8" stroke-miterlimit="10" stroke-linecap="square"/>
<path d="M254.9 248.5C254.9 248.5 203.4 281.5 222.8 336.7" stroke="black" stroke-width="8.3" stroke-miterlimit="10" stroke-linecap="square"/>
<path d="M117.2 278C117.2 278 144 258.1 174.3 260.2C204.6 262.3 218.4 270.8 218.4 270.8" stroke="black" stroke-width="7.7" stroke-miterlimit="10" stroke-linecap="square"/>
<path d="M97.5 289.5C97.5 289.5 102.8 281.7 106.6 266C111.5 245.7 102.3 215.4 106.6 196.8" stroke="black" stroke-width="7.7" stroke-miterlimit="10" stroke-linecap="square"/>
<path d="M86.7001 134.7C86.7001 134.7 42.0001 265 49.1001 289.5C56.2001 314 75.0001 327.7 143.1 322.5C211.1 317.3 203.5 313.4 203.5 313.4" stroke="black" stroke-width="7.7" stroke-miterlimit="10" stroke-linecap="square"/>
<path d="M93.9 91.0998C93.9 91.0998 121.9 47.9998 157.1 55.6998C192.3 63.3998 182.3 82.9998 182.3 82.9998C182.3 82.9998 154.6 72.2998 138.7 78.3998" stroke="black" stroke-width="8" stroke-miterlimit="10" stroke-linecap="square"/>
<path d="M143 65.4998C143 65.4998 167.7 60.8998 179.3 71.2998" stroke="black" stroke-width="8" stroke-miterlimit="10" stroke-linecap="square"/>
<path d="M382.8 289.5C382.8 289.5 434.5 163 436.7 119.3C438.8 75.5999 438.1 53.3999 414.5 49.7999C390.9 46.1999 317.3 144.4 305 160.5C292.7 176.6 305 204.5 305 204.5C305 204.5 309.9 194.5 311.8 194.5C313.7 194.5 316.5 196.1 316.5 196.1C316.5 196.1 320.3 192.6 322.3 192.6C324.3 192.6 326.3 194.4 326.3 194.4C326.3 194.4 328.6 191.2 331.7 190.9C334.8 190.6 337.1 192.4 337.1 192.4C337.1 192.4 340.4 188.1 342.5 188.1C344.6 188.1 348.1 190.2 348.1 190.2" stroke="black" stroke-width="8" stroke-miterlimit="10" stroke-linecap="square"/>
<path d="M335.3 165C335.3 165 350.7 166 349.7 183" stroke="black" stroke-width="8" stroke-miterlimit="10" stroke-linecap="square"/>
<path d="M311 214.7C311 214.7 319.9 219.3 328.9 218.5C337.9 217.7 342.5 209 342.5 209" stroke="black" stroke-width="8" stroke-miterlimit="10" stroke-linecap="square"/>
<path d="M382.8 303.5C382.8 303.5 391.3 341.5 385.7 367.1C380.1 392.7 368.5 454.2 368.5 454.2" stroke="black" stroke-width="8.3" stroke-miterlimit="10" stroke-linecap="square"/>
</svg>
