<svg width="174" height="410" viewBox="0 0 174 410" fill="none" xmlns="http://www.w3.org/2000/svg">
<path d="M103.3 173.4C103.3 173.4 109.1 167.7 121.3 167.7C131.2 168.3 137.9 172 137.9 172" stroke="white" stroke-width="5.6" stroke-miterlimit="10" stroke-linecap="square"/>
<path d="M125.5 143.3C125.5 143.3 148.1 145.7 153.8 182.3C158.2 213.5 145 238.1 153.2 268" stroke="white" stroke-width="5.6" stroke-miterlimit="10" stroke-linecap="square"/>
<path d="M118.9 286.2C118.9 286.2 107.6 294 90 294.4C72.4 294.8 62.4 290 62.4 290" stroke="white" stroke-width="5.6" stroke-miterlimit="10" stroke-linecap="square"/>
<path d="M55.3 217.1C55.3 217.1 59 222.5 60.5 238.8C62.1 255.1 62.2 280.1 62.2 280.1" stroke="white" stroke-width="5.6" stroke-miterlimit="10" stroke-linecap="square"/>
<path d="M57.1 45.7998C57.1 45.7998 18.8 66.0998 28 103.6C37.1 141.4 99.2 120.6 99.2 120.6" stroke="white" stroke-width="5.4" stroke-miterlimit="10" stroke-linecap="square"/>
<path d="M67.3 72.7C67.3 72.7 66.7 74.3 66.5 78.3C66.2 82.8 66.8 85 66.8 85" fill="white"/>
<path d="M67.3 72.7C67.3 72.7 66.7 74.3 66.5 78.3C66.2 82.8 66.8 85 66.8 85" stroke="white" stroke-width="5.4" stroke-miterlimit="10" stroke-linecap="square"/>
<path d="M85.9 74.0999C85.9 74.0999 85.3 75.6999 85.1 79.6999C84.8 84.1999 85.4 86.3998 85.4 86.3998" fill="white"/>
<path d="M85.9 74.0999C85.9 74.0999 85.3 75.6999 85.1 79.6999C84.8 84.1999 85.4 86.3998 85.4 86.3998" stroke="white" stroke-width="5.4" stroke-miterlimit="10" stroke-linecap="square"/>
<path d="M144 84.4C144 84.4 154.1 77.5 161 83.6C168.4 90.2 167.4 99.8 163.4 105.4C156.5 115 144.8 111.2 144.8 111.2" stroke="white" stroke-width="5.4" stroke-miterlimit="10" stroke-linecap="square"/>
<path d="M31.2 72.9999C31.2 72.9999 19.4 65.2999 15.5 78.3999C9.69998 97.8999 24.8 100.3 24.8 100.3" stroke="white" stroke-width="5.4" stroke-miterlimit="10" stroke-linecap="square"/>
<path d="M113 114.1L114.9 137.5" stroke="white" stroke-width="5.4" stroke-miterlimit="10" stroke-linecap="square"/>
<path d="M81.7 130.8L82.7 145.7" stroke="white" stroke-width="5.4" stroke-miterlimit="10" stroke-linecap="square"/>
<path d="M80.9 39.5999L70.1 49.7999" stroke="white" stroke-width="5.4" stroke-miterlimit="10" stroke-linecap="square"/>
<path d="M96.5 39.5999V47.8999" stroke="white" stroke-width="5.4" stroke-miterlimit="10" stroke-linecap="square"/>
<path d="M113.1 44.7L120.3 62.8" stroke="white" stroke-width="5.4" stroke-miterlimit="10" stroke-linecap="square"/>
<path d="M90.7 11.4999C90.7 11.4999 58 -7.70011 34.5 11.4999C11 30.4999 13.9 62.6999 13.9 62.6999" stroke="white" stroke-width="5.4" stroke-miterlimit="10" stroke-linecap="square"/>
<path d="M104.6 11.8998C104.6 11.8998 155.3 7.2998 166.2 34.8998C174.8 56.7998 169.7 77.9998 169.7 77.9998" stroke="white" stroke-width="5.4" stroke-miterlimit="10" stroke-linecap="square"/>
<path d="M73.1 147.7C73.1 147.7 38.4 169.9 51.5 207.1" stroke="white" stroke-width="5.6" stroke-miterlimit="10" stroke-linecap="square"/>
<path d="M103.1 195.2C103.1 195.2 103.1 199.3 105.1 214.9C107.1 230.5 119.9 255.9 119.9 255.9C119.9 255.9 117.3 283.6 122 295.4C126.7 307.2 130.6 343.9 129.7 360.7" stroke="white" stroke-width="5.6" stroke-miterlimit="10" stroke-linecap="square"/>
<path d="M153.1 277.5C153.1 277.5 153.6 298.4 153.3 311.6C153 324.8 149.8 358.9 149.8 358.9" stroke="white" stroke-width="5.6" stroke-miterlimit="10" stroke-linecap="square"/>
<path d="M130.4 369.1C130.4 369.1 125.6 374 123.8 379.8C122 385.6 123.6 401.4 123.6 401.4C123.6 401.4 126.6 406.8 129.6 407C132.6 407.2 134.6 404.5 134.6 404.5C134.6 404.5 137.1 406.1 139.7 405.7C142.3 405.3 144 402 144 402C144 402 147.6 403 149.2 402.5C150.8 402 152.2 399.5 152.2 399.5C152.2 399.5 154.7 400.5 156.4 399.9C158.1 399.3 160 389.6 158.7 382.7C157.4 375.8 152.3 368.8 146.6 365.9" stroke="white" stroke-width="5.6" stroke-miterlimit="10" stroke-linecap="square"/>
<path d="M120.6 173.4V157" stroke="white" stroke-width="5.6" stroke-miterlimit="10" stroke-linecap="square"/>
<path d="M112.6 160L120.2 151.2L128.8 160" stroke="white" stroke-width="5.6" stroke-miterlimit="10" stroke-linecap="square"/>
<path d="M101.4 164.8L98 175.8L109.4 178.7" stroke="white" stroke-width="5.6" stroke-miterlimit="10" stroke-linecap="square"/>
<path d="M139.6 163.6L142.9 174.6L131.5 177.5" stroke="white" stroke-width="5.6" stroke-miterlimit="10" stroke-linecap="square"/>
<path d="M9.39996 154.1C9.39996 154.1 15.2 148.4 27.4 148.4C37.3 149 44 152.7 44 152.7" stroke="white" stroke-width="5.6" stroke-miterlimit="10" stroke-linecap="square"/>
<path d="M26.7 154.1V137.7" stroke="white" stroke-width="5.6" stroke-miterlimit="10" stroke-linecap="square"/>
<path d="M18.7 140.8L26.3 131.9L34.8999 140.8" stroke="white" stroke-width="5.6" stroke-miterlimit="10" stroke-linecap="square"/>
<path d="M7.49997 145.5L4.09998 156.6L15.5 159.4" stroke="white" stroke-width="5.6" stroke-miterlimit="10" stroke-linecap="square"/>
<path d="M45.7 144.3L49.1 155.4L37.6 158.2" stroke="white" stroke-width="5.6" stroke-miterlimit="10" stroke-linecap="square"/>
</svg>
