<svg width="398" height="433" viewBox="0 0 398 433" fill="none" xmlns="http://www.w3.org/2000/svg">
<path d="M338.8 66.0999C336 108.3 305.9 132.7 297.2 174.6C292.8 196.9 298.8 210.9 298.8 210.9" stroke="white" stroke-width="7.9" stroke-miterlimit="10" stroke-linecap="square"/>
<path d="M278.9 416.2C278.9 416.2 262.1 427.8 236 428.4C209.9 429 195 421.9 195 421.9" stroke="white" stroke-width="8.3" stroke-miterlimit="10" stroke-linecap="square"/>
<path d="M184.4 313.6C184.4 313.6 189.9 321.6 192.1 345.8C194.5 370 194.6 407.1 194.6 407.1" stroke="white" stroke-width="8.3" stroke-miterlimit="10" stroke-linecap="square"/>
<path d="M113.2 114.3C113.2 114.3 85.5 172.4 129.6 209C173.9 246 229.6 166.3 229.6 166.3" stroke="white" stroke-width="8" stroke-miterlimit="10" stroke-linecap="square"/>
<path d="M149.2 137.4C149.2 137.4 149.9 139.8 153.2 144.8C156.8 150.4 159.5 152.5 159.5 152.5" fill="white"/>
<path d="M149.2 137.4C149.2 137.4 149.9 139.8 153.2 144.8C156.8 150.4 159.5 152.5 159.5 152.5" stroke="white" stroke-width="8" stroke-miterlimit="10" stroke-linecap="square"/>
<path d="M172.6 122.6C172.6 122.6 173.3 125 176.6 130C180.2 135.6 182.9 137.7 182.9 137.7" fill="white"/>
<path d="M172.6 122.6C172.6 122.6 173.3 125 176.6 130C180.2 135.6 182.9 137.7 182.9 137.7" stroke="white" stroke-width="8" stroke-miterlimit="10" stroke-linecap="square"/>
<path d="M241.2 70.3998C241.2 70.3998 249.9 54.4998 263.1 57.8998C277.3 61.5998 282.5 74.9998 281 85.0998C278.4 102.5 260.3 105.3 260.3 105.3" stroke="white" stroke-width="8" stroke-miterlimit="10" stroke-linecap="square"/>
<path d="M106.4 169.7C106.4 169.7 85.5001 171 92.5001 190C102.8 218.4 123 207.9 123 207.9" stroke="white" stroke-width="8" stroke-miterlimit="10" stroke-linecap="square"/>
<path d="M240.3 146.3L281.5 193.3" stroke="white" stroke-width="8" stroke-miterlimit="10" stroke-linecap="square"/>
<path d="M217.8 193.9L232.2 210.8" stroke="white" stroke-width="8" stroke-miterlimit="10" stroke-linecap="square"/>
<path d="M136.1 85.8999L132.3 107.6" stroke="white" stroke-width="8" stroke-miterlimit="10" stroke-linecap="square"/>
<path d="M154.7 72.0999L162.1 81.9999" stroke="white" stroke-width="8" stroke-miterlimit="10" stroke-linecap="square"/>
<path d="M179 63.3999L203.6 78.6999" stroke="white" stroke-width="8" stroke-miterlimit="10" stroke-linecap="square"/>
<path d="M94.2 51.8999C94.2 51.8999 64.2 60.8999 55.9 93.3999C44.7 136.9 76.6 172.7 76.6 172.7" stroke="white" stroke-width="8" stroke-miterlimit="10" stroke-linecap="square"/>
<path d="M139.9 31.8999C139.9 31.8999 173.5 -12.2001 210.9 11.0999C233.4 33.8999 244.6 63.4999 244.6 63.4999" stroke="white" stroke-width="8" stroke-miterlimit="10" stroke-linecap="square"/>
<path d="M210.9 210.5C210.9 210.5 159.4 243.5 178.8 298.7" stroke="white" stroke-width="8.3" stroke-miterlimit="10" stroke-linecap="square"/>
<path d="M73.2001 240C73.2001 240 100 220.1 130.3 222.2C160.6 224.3 174.4 232.8 174.4 232.8" stroke="white" stroke-width="7.7" stroke-miterlimit="10" stroke-linecap="square"/>
<path d="M53.5 251.5C53.5 251.5 58.8 243.7 62.6 228C67.5 207.7 58.3 177.4 62.6 158.8" stroke="white" stroke-width="7.7" stroke-miterlimit="10" stroke-linecap="square"/>
<path d="M42.7001 96.7C42.7001 96.7 -1.99995 227 5.10005 251.5C12.2001 276 31.0001 289.7 99.1001 284.5C167.1 279.3 159.5 275.4 159.5 275.4" stroke="white" stroke-width="7.7" stroke-miterlimit="10" stroke-linecap="square"/>
<path d="M49.9 53.0998C49.9 53.0998 77.9 9.9998 113.1 17.6998C148.3 25.3998 138.3 44.9998 138.3 44.9998C138.3 44.9998 110.6 34.2998 94.7 40.3998" stroke="white" stroke-width="8" stroke-miterlimit="10" stroke-linecap="square"/>
<path d="M99 27.4998C99 27.4998 123.7 22.8998 135.3 33.2998" stroke="white" stroke-width="8" stroke-miterlimit="10" stroke-linecap="square"/>
<path d="M338.8 251.5C338.8 251.5 390.5 125 392.7 81.2999C394.8 37.5999 394.1 15.3999 370.5 11.7999C346.9 8.19989 273.3 106.4 261 122.5C248.7 138.6 261 166.5 261 166.5C261 166.5 265.9 156.5 267.8 156.5C269.7 156.5 272.5 158.1 272.5 158.1C272.5 158.1 276.3 154.6 278.3 154.6C280.3 154.6 282.3 156.4 282.3 156.4C282.3 156.4 284.6 153.2 287.7 152.9C290.8 152.6 293.1 154.4 293.1 154.4C293.1 154.4 296.4 150.1 298.5 150.1C300.6 150.1 304.1 152.2 304.1 152.2" stroke="white" stroke-width="8" stroke-miterlimit="10" stroke-linecap="square"/>
<path d="M291.3 127C291.3 127 306.7 128 305.7 145" stroke="white" stroke-width="8" stroke-miterlimit="10" stroke-linecap="square"/>
<path d="M267 176.7C267 176.7 275.9 181.3 284.9 180.5C293.9 179.7 298.5 171 298.5 171" stroke="white" stroke-width="8" stroke-miterlimit="10" stroke-linecap="square"/>
<path d="M338.8 265.5C338.8 265.5 347.3 303.5 341.7 329.1C336.1 354.7 324.5 416.2 324.5 416.2" stroke="white" stroke-width="8.3" stroke-miterlimit="10" stroke-linecap="square"/>
</svg>
