<svg width="500" height="500" viewBox="0 0 500 500" fill="none" xmlns="http://www.w3.org/2000/svg">
<path d="M250.3 218.4C250.3 218.4 256.1 212.7 268.3 212.7C278.2 213.3 284.9 217 284.9 217" stroke="black" stroke-width="5.6" stroke-miterlimit="10" stroke-linecap="square"/>
<path d="M272.5 188.3C272.5 188.3 295.1 190.7 300.8 227.3C305.2 258.5 292 283.1 300.2 313" stroke="black" stroke-width="5.6" stroke-miterlimit="10" stroke-linecap="square"/>
<path d="M265.9 331.2C265.9 331.2 254.6 339 237 339.4C219.4 339.8 209.4 335 209.4 335" stroke="black" stroke-width="5.6" stroke-miterlimit="10" stroke-linecap="square"/>
<path d="M202.3 262.1C202.3 262.1 206 267.5 207.5 283.8C209.1 300.1 209.2 325.1 209.2 325.1" stroke="black" stroke-width="5.6" stroke-miterlimit="10" stroke-linecap="square"/>
<path d="M204.1 90.7998C204.1 90.7998 165.8 111.1 175 148.6C184.1 186.4 246.2 165.6 246.2 165.6" stroke="black" stroke-width="5.4" stroke-miterlimit="10" stroke-linecap="square"/>
<path d="M214.3 117.7C214.3 117.7 213.7 119.3 213.5 123.3C213.2 127.8 213.8 130 213.8 130" fill="white"/>
<path d="M214.3 117.7C214.3 117.7 213.7 119.3 213.5 123.3C213.2 127.8 213.8 130 213.8 130" stroke="black" stroke-width="5.4" stroke-miterlimit="10" stroke-linecap="square"/>
<path d="M232.9 119.1C232.9 119.1 232.3 120.7 232.1 124.7C231.8 129.2 232.4 131.4 232.4 131.4" fill="white"/>
<path d="M232.9 119.1C232.9 119.1 232.3 120.7 232.1 124.7C231.8 129.2 232.4 131.4 232.4 131.4" stroke="black" stroke-width="5.4" stroke-miterlimit="10" stroke-linecap="square"/>
<path d="M291 129.4C291 129.4 301.1 122.5 308 128.6C315.4 135.2 314.4 144.8 310.4 150.4C303.5 160 291.8 156.2 291.8 156.2" stroke="black" stroke-width="5.4" stroke-miterlimit="10" stroke-linecap="square"/>
<path d="M178.2 118C178.2 118 166.4 110.3 162.5 123.4C156.7 142.9 171.8 145.3 171.8 145.3" stroke="black" stroke-width="5.4" stroke-miterlimit="10" stroke-linecap="square"/>
<path d="M260 159.1L261.9 182.5" stroke="black" stroke-width="5.4" stroke-miterlimit="10" stroke-linecap="square"/>
<path d="M228.7 175.8L229.7 190.7" stroke="black" stroke-width="5.4" stroke-miterlimit="10" stroke-linecap="square"/>
<path d="M227.9 84.5999L217.1 94.7999" stroke="black" stroke-width="5.4" stroke-miterlimit="10" stroke-linecap="square"/>
<path d="M243.5 84.5999V92.8999" stroke="black" stroke-width="5.4" stroke-miterlimit="10" stroke-linecap="square"/>
<path d="M260.1 89.7L267.3 107.8" stroke="black" stroke-width="5.4" stroke-miterlimit="10" stroke-linecap="square"/>
<path d="M237.7 56.4999C237.7 56.4999 205 37.2999 181.5 56.4999C158 75.4999 160.9 107.7 160.9 107.7" stroke="black" stroke-width="5.4" stroke-miterlimit="10" stroke-linecap="square"/>
<path d="M251.6 56.8998C251.6 56.8998 302.3 52.2998 313.2 79.8998C321.8 101.8 316.7 123 316.7 123" stroke="black" stroke-width="5.4" stroke-miterlimit="10" stroke-linecap="square"/>
<path d="M220.1 192.7C220.1 192.7 185.4 214.9 198.5 252.1" stroke="black" stroke-width="5.6" stroke-miterlimit="10" stroke-linecap="square"/>
<path d="M250.1 240.2C250.1 240.2 250.1 244.3 252.1 259.9C254.1 275.5 266.9 300.9 266.9 300.9C266.9 300.9 264.3 328.6 269 340.4C273.7 352.2 277.6 388.9 276.7 405.7" stroke="black" stroke-width="5.6" stroke-miterlimit="10" stroke-linecap="square"/>
<path d="M300.1 322.5C300.1 322.5 300.6 343.4 300.3 356.6C300 369.8 296.8 403.9 296.8 403.9" stroke="black" stroke-width="5.6" stroke-miterlimit="10" stroke-linecap="square"/>
<path d="M277.4 414.1C277.4 414.1 272.6 419 270.8 424.8C269 430.6 270.6 446.4 270.6 446.4C270.6 446.4 273.6 451.8 276.6 452C279.6 452.2 281.6 449.5 281.6 449.5C281.6 449.5 284.1 451.1 286.7 450.7C289.3 450.3 291 447 291 447C291 447 294.6 448 296.2 447.5C297.8 447 299.2 444.5 299.2 444.5C299.2 444.5 301.7 445.5 303.4 444.9C305.1 444.3 307 434.6 305.7 427.7C304.4 420.8 299.3 413.8 293.6 410.9" stroke="black" stroke-width="5.6" stroke-miterlimit="10" stroke-linecap="square"/>
<path d="M267.6 218.4V202" stroke="black" stroke-width="5.6" stroke-miterlimit="10" stroke-linecap="square"/>
<path d="M259.6 205L267.2 196.2L275.8 205" stroke="black" stroke-width="5.6" stroke-miterlimit="10" stroke-linecap="square"/>
<path d="M248.4 209.8L245 220.8L256.4 223.7" stroke="black" stroke-width="5.6" stroke-miterlimit="10" stroke-linecap="square"/>
<path d="M286.6 208.6L289.9 219.6L278.5 222.5" stroke="black" stroke-width="5.6" stroke-miterlimit="10" stroke-linecap="square"/>
<path d="M156.4 199.1C156.4 199.1 162.2 193.4 174.4 193.4C184.3 194 191 197.7 191 197.7" stroke="black" stroke-width="5.6" stroke-miterlimit="10" stroke-linecap="square"/>
<path d="M173.7 199.1V182.7" stroke="black" stroke-width="5.6" stroke-miterlimit="10" stroke-linecap="square"/>
<path d="M165.7 185.8L173.3 176.9L181.9 185.8" stroke="black" stroke-width="5.6" stroke-miterlimit="10" stroke-linecap="square"/>
<path d="M154.5 190.5L151.1 201.6L162.5 204.4" stroke="black" stroke-width="5.6" stroke-miterlimit="10" stroke-linecap="square"/>
<path d="M192.7 189.3L196.1 200.4L184.6 203.2" stroke="black" stroke-width="5.6" stroke-miterlimit="10" stroke-linecap="square"/>
</svg>
