<svg width="284" height="341" viewBox="0 0 284 341" fill="none" xmlns="http://www.w3.org/2000/svg">
<path d="M44.19 49.74V57H41.22V49.68L32.88 36H36.09L42.81 47.07L49.56 36H52.53L44.19 49.74ZM60.1767 57.18C58.5967 57.18 57.1767 56.83 55.9167 56.13C54.6567 55.43 53.6667 54.47 52.9467 53.25C52.2467 52.01 51.8967 50.61 51.8967 49.05C51.8967 47.49 52.2467 46.1 52.9467 44.88C53.6667 43.64 54.6567 42.68 55.9167 42C57.1767 41.3 58.5967 40.95 60.1767 40.95C61.7567 40.95 63.1667 41.3 64.4067 42C65.6667 42.68 66.6467 43.64 67.3467 44.88C68.0667 46.1 68.4267 47.49 68.4267 49.05C68.4267 50.61 68.0667 52.01 67.3467 53.25C66.6467 54.47 65.6667 55.43 64.4067 56.13C63.1667 56.83 61.7567 57.18 60.1767 57.18ZM60.1767 54.66C61.1967 54.66 62.1067 54.43 62.9067 53.97C63.7267 53.49 64.3667 52.83 64.8267 51.99C65.2867 51.13 65.5167 50.15 65.5167 49.05C65.5167 47.95 65.2867 46.98 64.8267 46.14C64.3667 45.28 63.7267 44.62 62.9067 44.16C62.1067 43.7 61.1967 43.47 60.1767 43.47C59.1567 43.47 58.2367 43.7 57.4167 44.16C56.6167 44.62 55.9767 45.28 55.4967 46.14C55.0367 46.98 54.8067 47.95 54.8067 49.05C54.8067 50.15 55.0367 51.13 55.4967 51.99C55.9767 52.83 56.6167 53.49 57.4167 53.97C58.2367 54.43 59.1567 54.66 60.1767 54.66ZM87.2297 41.1V57H84.4997V54.6C83.9197 55.42 83.1497 56.06 82.1897 56.52C81.2497 56.96 80.2197 57.18 79.0997 57.18C76.9797 57.18 75.3097 56.6 74.0897 55.44C72.8697 54.26 72.2597 52.53 72.2597 50.25V41.1H75.1397V49.92C75.1397 51.46 75.5097 52.63 76.2497 53.43C76.9897 54.21 78.0497 54.6 79.4297 54.6C80.9497 54.6 82.1497 54.14 83.0297 53.22C83.9097 52.3 84.3497 51 84.3497 49.32V41.1H87.2297ZM107.699 57.18C106.079 57.18 104.629 56.83 103.349 56.13C102.089 55.43 101.099 54.47 100.379 53.25C99.6591 52.01 99.2991 50.61 99.2991 49.05C99.2991 47.49 99.6591 46.1 100.379 44.88C101.099 43.64 102.089 42.68 103.349 42C104.629 41.3 106.079 40.95 107.699 40.95C109.139 40.95 110.419 41.24 111.539 41.82C112.679 42.4 113.559 43.24 114.179 44.34L111.989 45.75C111.489 44.99 110.869 44.42 110.129 44.04C109.389 43.66 108.569 43.47 107.669 43.47C106.629 43.47 105.689 43.7 104.849 44.16C104.029 44.62 103.379 45.28 102.899 46.14C102.439 46.98 102.209 47.95 102.209 49.05C102.209 50.17 102.439 51.16 102.899 52.02C103.379 52.86 104.029 53.51 104.849 53.97C105.689 54.43 106.629 54.66 107.669 54.66C108.569 54.66 109.389 54.47 110.129 54.09C110.869 53.71 111.489 53.14 111.989 52.38L114.179 53.76C113.559 54.86 112.679 55.71 111.539 56.31C110.419 56.89 109.139 57.18 107.699 57.18ZM123.698 40.95C125.898 40.95 127.578 41.49 128.738 42.57C129.918 43.65 130.508 45.26 130.508 47.4V57H127.778V54.9C127.298 55.64 126.608 56.21 125.708 56.61C124.828 56.99 123.778 57.18 122.558 57.18C120.778 57.18 119.348 56.75 118.268 55.89C117.208 55.03 116.678 53.9 116.678 52.5C116.678 51.1 117.188 49.98 118.208 49.14C119.228 48.28 120.848 47.85 123.068 47.85H127.628V47.28C127.628 46.04 127.268 45.09 126.548 44.43C125.828 43.77 124.768 43.44 123.368 43.44C122.428 43.44 121.508 43.6 120.608 43.92C119.708 44.22 118.948 44.63 118.328 45.15L117.128 42.99C117.948 42.33 118.928 41.83 120.068 41.49C121.208 41.13 122.418 40.95 123.698 40.95ZM123.038 54.96C124.138 54.96 125.088 54.72 125.888 54.24C126.688 53.74 127.268 53.04 127.628 52.14V49.92H123.188C120.748 49.92 119.528 50.74 119.528 52.38C119.528 53.18 119.838 53.81 120.458 54.27C121.078 54.73 121.938 54.96 123.038 54.96ZM144.327 40.95C146.347 40.95 147.947 41.54 149.127 42.72C150.327 43.88 150.927 45.59 150.927 47.85V57H148.047V48.18C148.047 46.64 147.677 45.48 146.937 44.7C146.197 43.92 145.137 43.53 143.757 43.53C142.197 43.53 140.967 43.99 140.067 44.91C139.167 45.81 138.717 47.11 138.717 48.81V57H135.837V41.1H138.597V43.5C139.177 42.68 139.957 42.05 140.937 41.61C141.937 41.17 143.067 40.95 144.327 40.95ZM172.744 40.95C174.284 40.95 175.664 41.29 176.884 41.97C178.104 42.65 179.054 43.6 179.734 44.82C180.434 46.04 180.784 47.45 180.784 49.05C180.784 50.65 180.434 52.07 179.734 53.31C179.054 54.53 178.104 55.48 176.884 56.16C175.664 56.84 174.284 57.18 172.744 57.18C171.604 57.18 170.554 56.96 169.594 56.52C168.654 56.08 167.854 55.44 167.194 54.6V62.82H164.314V41.1H167.074V43.62C167.714 42.74 168.524 42.08 169.504 41.64C170.484 41.18 171.564 40.95 172.744 40.95ZM172.504 54.66C173.524 54.66 174.434 54.43 175.234 53.97C176.054 53.49 176.694 52.83 177.154 51.99C177.634 51.13 177.874 50.15 177.874 49.05C177.874 47.95 177.634 46.98 177.154 46.14C176.694 45.28 176.054 44.62 175.234 44.16C174.434 43.7 173.524 43.47 172.504 43.47C171.504 43.47 170.594 43.71 169.774 44.19C168.974 44.65 168.334 45.3 167.854 46.14C167.394 46.98 167.164 47.95 167.164 49.05C167.164 50.15 167.394 51.13 167.854 51.99C168.314 52.83 168.954 53.49 169.774 53.97C170.594 54.43 171.504 54.66 172.504 54.66ZM187.523 43.77C188.023 42.85 188.763 42.15 189.743 41.67C190.723 41.19 191.913 40.95 193.313 40.95V43.74C193.153 43.72 192.933 43.71 192.653 43.71C191.093 43.71 189.863 44.18 188.963 45.12C188.083 46.04 187.643 47.36 187.643 49.08V57H184.763V41.1H187.523V43.77ZM211.086 49.14C211.086 49.36 211.066 49.65 211.026 50.01H198.126C198.306 51.41 198.916 52.54 199.956 53.4C201.016 54.24 202.326 54.66 203.886 54.66C205.786 54.66 207.316 54.02 208.476 52.74L210.066 54.6C209.346 55.44 208.446 56.08 207.366 56.52C206.306 56.96 205.116 57.18 203.796 57.18C202.116 57.18 200.626 56.84 199.326 56.16C198.026 55.46 197.016 54.49 196.296 53.25C195.596 52.01 195.246 50.61 195.246 49.05C195.246 47.51 195.586 46.12 196.266 44.88C196.966 43.64 197.916 42.68 199.116 42C200.336 41.3 201.706 40.95 203.226 40.95C204.746 40.95 206.096 41.3 207.276 42C208.476 42.68 209.406 43.64 210.066 44.88C210.746 46.12 211.086 47.54 211.086 49.14ZM203.226 43.38C201.846 43.38 200.686 43.8 199.746 44.64C198.826 45.48 198.286 46.58 198.126 47.94H208.326C208.166 46.6 207.616 45.51 206.676 44.67C205.756 43.81 204.606 43.38 203.226 43.38ZM219.645 57.18C218.345 57.18 217.095 57.01 215.895 56.67C214.695 56.31 213.755 55.86 213.075 55.32L214.275 53.04C214.975 53.54 215.825 53.94 216.825 54.24C217.825 54.54 218.835 54.69 219.855 54.69C222.375 54.69 223.635 53.97 223.635 52.53C223.635 52.05 223.465 51.67 223.125 51.39C222.785 51.11 222.355 50.91 221.835 50.79C221.335 50.65 220.615 50.5 219.675 50.34C218.395 50.14 217.345 49.91 216.525 49.65C215.725 49.39 215.035 48.95 214.455 48.33C213.875 47.71 213.585 46.84 213.585 45.72C213.585 44.28 214.185 43.13 215.385 42.27C216.585 41.39 218.195 40.95 220.215 40.95C221.275 40.95 222.335 41.08 223.395 41.34C224.455 41.6 225.325 41.95 226.005 42.39L224.775 44.67C223.475 43.83 221.945 43.41 220.185 43.41C218.965 43.41 218.035 43.61 217.395 44.01C216.755 44.41 216.435 44.94 216.435 45.6C216.435 46.12 216.615 46.53 216.975 46.83C217.335 47.13 217.775 47.35 218.295 47.49C218.835 47.63 219.585 47.79 220.545 47.97C221.825 48.19 222.855 48.43 223.635 48.69C224.435 48.93 225.115 49.35 225.675 49.95C226.235 50.55 226.515 51.39 226.515 52.47C226.515 53.91 225.895 55.06 224.655 55.92C223.435 56.76 221.765 57.18 219.645 57.18ZM234.675 57.18C233.375 57.18 232.125 57.01 230.925 56.67C229.725 56.31 228.785 55.86 228.105 55.32L229.305 53.04C230.005 53.54 230.855 53.94 231.855 54.24C232.855 54.54 233.865 54.69 234.885 54.69C237.405 54.69 238.665 53.97 238.665 52.53C238.665 52.05 238.495 51.67 238.155 51.39C237.815 51.11 237.385 50.91 236.865 50.79C236.365 50.65 235.645 50.5 234.705 50.34C233.425 50.14 232.375 49.91 231.555 49.65C230.755 49.39 230.065 48.95 229.485 48.33C228.905 47.71 228.615 46.84 228.615 45.72C228.615 44.28 229.215 43.13 230.415 42.27C231.615 41.39 233.225 40.95 235.245 40.95C236.305 40.95 237.365 41.08 238.425 41.34C239.485 41.6 240.355 41.95 241.035 42.39L239.805 44.67C238.505 43.83 236.975 43.41 235.215 43.41C233.995 43.41 233.065 43.61 232.425 44.01C231.785 44.41 231.465 44.94 231.465 45.6C231.465 46.12 231.645 46.53 232.005 46.83C232.365 47.13 232.805 47.35 233.325 47.49C233.865 47.63 234.615 47.79 235.575 47.97C236.855 48.19 237.885 48.43 238.665 48.69C239.465 48.93 240.145 49.35 240.705 49.95C241.265 50.55 241.545 51.39 241.545 52.47C241.545 53.91 240.925 55.06 239.685 55.92C238.465 56.76 236.795 57.18 234.675 57.18ZM44.67 93.07C44.25 93.43 43.73 93.71 43.11 93.91C42.49 94.09 41.85 94.18 41.19 94.18C39.59 94.18 38.35 93.75 37.47 92.89C36.59 92.03 36.15 90.8 36.15 89.2V80.47H33.45V78.1H36.15V74.62H39.03V78.1H43.59V80.47H39.03V89.08C39.03 89.94 39.24 90.6 39.66 91.06C40.1 91.52 40.72 91.75 41.52 91.75C42.4 91.75 43.15 91.5 43.77 91L44.67 93.07ZM56.6419 77.95C58.6619 77.95 60.2619 78.54 61.4419 79.72C62.6419 80.88 63.2419 82.59 63.2419 84.85V94H60.3619V85.18C60.3619 83.64 59.9919 82.48 59.2519 81.7C58.5119 80.92 57.4519 80.53 56.0719 80.53C54.5119 80.53 53.2819 80.99 52.3819 81.91C51.4819 82.81 51.0319 84.11 51.0319 85.81V94H48.1519V71.74H51.0319V80.35C51.6319 79.59 52.4119 79 53.3719 78.58C54.3519 78.16 55.4419 77.95 56.6419 77.95ZM83.0297 86.14C83.0297 86.36 83.0097 86.65 82.9697 87.01H70.0697C70.2497 88.41 70.8597 89.54 71.8997 90.4C72.9597 91.24 74.2697 91.66 75.8297 91.66C77.7297 91.66 79.2597 91.02 80.4197 89.74L82.0097 91.6C81.2897 92.44 80.3897 93.08 79.3097 93.52C78.2497 93.96 77.0597 94.18 75.7397 94.18C74.0597 94.18 72.5697 93.84 71.2697 93.16C69.9697 92.46 68.9597 91.49 68.2397 90.25C67.5397 89.01 67.1897 87.61 67.1897 86.05C67.1897 84.51 67.5297 83.12 68.2097 81.88C68.9097 80.64 69.8597 79.68 71.0597 79C72.2797 78.3 73.6497 77.95 75.1697 77.95C76.6897 77.95 78.0397 78.3 79.2197 79C80.4197 79.68 81.3497 80.64 82.0097 81.88C82.6897 83.12 83.0297 84.54 83.0297 86.14ZM75.1697 80.38C73.7897 80.38 72.6297 80.8 71.6897 81.64C70.7697 82.48 70.2297 83.58 70.0697 84.94H80.2697C80.1097 83.6 79.5597 82.51 78.6197 81.67C77.6997 80.81 76.5497 80.38 75.1697 80.38ZM103.515 77.95C105.055 77.95 106.435 78.29 107.655 78.97C108.875 79.65 109.825 80.6 110.505 81.82C111.205 83.04 111.555 84.45 111.555 86.05C111.555 87.65 111.205 89.07 110.505 90.31C109.825 91.53 108.875 92.48 107.655 93.16C106.435 93.84 105.055 94.18 103.515 94.18C102.335 94.18 101.255 93.95 100.275 93.49C99.2955 93.03 98.4855 92.36 97.8455 91.48V94H95.0855V71.74H97.9655V80.5C98.6055 79.66 99.4055 79.03 100.365 78.61C101.325 78.17 102.375 77.95 103.515 77.95ZM103.275 91.66C104.295 91.66 105.205 91.43 106.005 90.97C106.825 90.49 107.465 89.83 107.925 88.99C108.405 88.13 108.645 87.15 108.645 86.05C108.645 84.95 108.405 83.98 107.925 83.14C107.465 82.28 106.825 81.62 106.005 81.16C105.205 80.7 104.295 80.47 103.275 80.47C102.275 80.47 101.365 80.7 100.545 81.16C99.7255 81.62 99.0855 82.28 98.6255 83.14C98.1655 83.98 97.9355 84.95 97.9355 86.05C97.9355 87.15 98.1655 88.13 98.6255 88.99C99.0855 89.83 99.7255 90.49 100.545 90.97C101.365 91.43 102.275 91.66 103.275 91.66ZM130.355 78.1V94H127.625V91.6C127.045 92.42 126.275 93.06 125.315 93.52C124.375 93.96 123.345 94.18 122.225 94.18C120.105 94.18 118.435 93.6 117.215 92.44C115.995 91.26 115.385 89.53 115.385 87.25V78.1H118.265V86.92C118.265 88.46 118.635 89.63 119.375 90.43C120.115 91.21 121.175 91.6 122.555 91.6C124.075 91.6 125.275 91.14 126.155 90.22C127.035 89.3 127.475 88 127.475 86.32V78.1H130.355ZM144.777 93.07C144.357 93.43 143.837 93.71 143.217 93.91C142.597 94.09 141.957 94.18 141.297 94.18C139.697 94.18 138.457 93.75 137.577 92.89C136.697 92.03 136.257 90.8 136.257 89.2V80.47H133.557V78.1H136.257V74.62H139.137V78.1H143.697V80.47H139.137V89.08C139.137 89.94 139.347 90.6 139.767 91.06C140.207 91.52 140.827 91.75 141.627 91.75C142.507 91.75 143.257 91.5 143.877 91L144.777 93.07ZM156.818 93.07C156.398 93.43 155.878 93.71 155.258 93.91C154.638 94.09 153.998 94.18 153.338 94.18C151.738 94.18 150.498 93.75 149.618 92.89C148.738 92.03 148.298 90.8 148.298 89.2V80.47H145.598V78.1H148.298V74.62H151.178V78.1H155.738V80.47H151.178V89.08C151.178 89.94 151.388 90.6 151.808 91.06C152.248 91.52 152.868 91.75 153.668 91.75C154.548 91.75 155.298 91.5 155.918 91L156.818 93.07ZM166.583 94.18C165.003 94.18 163.583 93.83 162.323 93.13C161.063 92.43 160.073 91.47 159.353 90.25C158.653 89.01 158.303 87.61 158.303 86.05C158.303 84.49 158.653 83.1 159.353 81.88C160.073 80.64 161.063 79.68 162.323 79C163.583 78.3 165.003 77.95 166.583 77.95C168.163 77.95 169.573 78.3 170.813 79C172.073 79.68 173.053 80.64 173.753 81.88C174.473 83.1 174.833 84.49 174.833 86.05C174.833 87.61 174.473 89.01 173.753 90.25C173.053 91.47 172.073 92.43 170.813 93.13C169.573 93.83 168.163 94.18 166.583 94.18ZM166.583 91.66C167.603 91.66 168.513 91.43 169.313 90.97C170.133 90.49 170.773 89.83 171.233 88.99C171.693 88.13 171.923 87.15 171.923 86.05C171.923 84.95 171.693 83.98 171.233 83.14C170.773 82.28 170.133 81.62 169.313 81.16C168.513 80.7 167.603 80.47 166.583 80.47C165.563 80.47 164.643 80.7 163.823 81.16C163.023 81.62 162.383 82.28 161.903 83.14C161.443 83.98 161.213 84.95 161.213 86.05C161.213 87.15 161.443 88.13 161.903 88.99C162.383 89.83 163.023 90.49 163.823 90.97C164.643 91.43 165.563 91.66 166.583 91.66ZM187.306 77.95C189.326 77.95 190.926 78.54 192.106 79.72C193.306 80.88 193.906 82.59 193.906 84.85V94H191.026V85.18C191.026 83.64 190.656 82.48 189.916 81.7C189.176 80.92 188.116 80.53 186.736 80.53C185.176 80.53 183.946 80.99 183.046 81.91C182.146 82.81 181.696 84.11 181.696 85.81V94H178.816V78.1H181.576V80.5C182.156 79.68 182.936 79.05 183.916 78.61C184.916 78.17 186.046 77.95 187.306 77.95ZM216.233 93.07C215.813 93.43 215.293 93.71 214.673 93.91C214.053 94.09 213.413 94.18 212.753 94.18C211.153 94.18 209.913 93.75 209.033 92.89C208.153 92.03 207.713 90.8 207.713 89.2V80.47H205.013V78.1H207.713V74.62H210.593V78.1H215.153V80.47H210.593V89.08C210.593 89.94 210.803 90.6 211.223 91.06C211.663 91.52 212.283 91.75 213.083 91.75C213.963 91.75 214.713 91.5 215.333 91L216.233 93.07ZM225.997 94.18C224.417 94.18 222.997 93.83 221.737 93.13C220.477 92.43 219.487 91.47 218.767 90.25C218.067 89.01 217.717 87.61 217.717 86.05C217.717 84.49 218.067 83.1 218.767 81.88C219.487 80.64 220.477 79.68 221.737 79C222.997 78.3 224.417 77.95 225.997 77.95C227.577 77.95 228.987 78.3 230.227 79C231.487 79.68 232.467 80.64 233.167 81.88C233.887 83.1 234.247 84.49 234.247 86.05C234.247 87.61 233.887 89.01 233.167 90.25C232.467 91.47 231.487 92.43 230.227 93.13C228.987 93.83 227.577 94.18 225.997 94.18ZM225.997 91.66C227.017 91.66 227.927 91.43 228.727 90.97C229.547 90.49 230.187 89.83 230.647 88.99C231.107 88.13 231.337 87.15 231.337 86.05C231.337 84.95 231.107 83.98 230.647 83.14C230.187 82.28 229.547 81.62 228.727 81.16C227.927 80.7 227.017 80.47 225.997 80.47C224.977 80.47 224.057 80.7 223.237 81.16C222.437 81.62 221.797 82.28 221.317 83.14C220.857 83.98 220.627 84.95 220.627 86.05C220.627 87.15 220.857 88.13 221.317 88.99C221.797 89.83 222.437 90.49 223.237 90.97C224.057 91.43 224.977 91.66 225.997 91.66ZM50.94 115.1V128.84C50.94 131.62 50.25 133.67 48.87 134.99C47.49 136.33 45.43 137 42.69 137C41.19 137 39.76 136.79 38.4 136.37C37.04 135.97 35.94 135.39 35.1 134.63L36.48 132.41C37.22 133.05 38.13 133.55 39.21 133.91C40.31 134.29 41.44 134.48 42.6 134.48C44.46 134.48 45.83 134.04 46.71 133.16C47.61 132.28 48.06 130.94 48.06 129.14V127.88C47.38 128.7 46.54 129.32 45.54 129.74C44.56 130.14 43.49 130.34 42.33 130.34C40.81 130.34 39.43 130.02 38.19 129.38C36.97 128.72 36.01 127.81 35.31 126.65C34.61 125.47 34.26 124.13 34.26 122.63C34.26 121.13 34.61 119.8 35.31 118.64C36.01 117.46 36.97 116.55 38.19 115.91C39.43 115.27 40.81 114.95 42.33 114.95C43.53 114.95 44.64 115.17 45.66 115.61C46.7 116.05 47.55 116.7 48.21 117.56V115.1H50.94ZM42.66 127.82C43.7 127.82 44.63 127.6 45.45 127.16C46.29 126.72 46.94 126.11 47.4 125.33C47.88 124.53 48.12 123.63 48.12 122.63C48.12 121.09 47.61 119.85 46.59 118.91C45.57 117.95 44.26 117.47 42.66 117.47C41.04 117.47 39.72 117.95 38.7 118.91C37.68 119.85 37.17 121.09 37.17 122.63C37.17 123.63 37.4 124.53 37.86 125.33C38.34 126.11 38.99 126.72 39.81 127.16C40.65 127.6 41.6 127.82 42.66 127.82ZM70.8129 123.14C70.8129 123.36 70.7929 123.65 70.7529 124.01H57.8529C58.0329 125.41 58.6429 126.54 59.6829 127.4C60.7429 128.24 62.0529 128.66 63.6129 128.66C65.5129 128.66 67.0429 128.02 68.2029 126.74L69.7929 128.6C69.0729 129.44 68.1729 130.08 67.0929 130.52C66.0329 130.96 64.8429 131.18 63.5229 131.18C61.8429 131.18 60.3529 130.84 59.0529 130.16C57.7529 129.46 56.7429 128.49 56.0229 127.25C55.3229 126.01 54.9729 124.61 54.9729 123.05C54.9729 121.51 55.3129 120.12 55.9929 118.88C56.6929 117.64 57.6429 116.68 58.8429 116C60.0629 115.3 61.4329 114.95 62.9529 114.95C64.4729 114.95 65.8229 115.3 67.0029 116C68.2029 116.68 69.1329 117.64 69.7929 118.88C70.4729 120.12 70.8129 121.54 70.8129 123.14ZM62.9529 117.38C61.5729 117.38 60.4129 117.8 59.4729 118.64C58.5529 119.48 58.0129 120.58 57.8529 121.94H68.0529C67.8929 120.6 67.3429 119.51 66.4029 118.67C65.4829 117.81 64.3329 117.38 62.9529 117.38ZM83.302 114.95C85.322 114.95 86.922 115.54 88.102 116.72C89.302 117.88 89.902 119.59 89.902 121.85V131H87.022V122.18C87.022 120.64 86.652 119.48 85.912 118.7C85.172 117.92 84.112 117.53 82.732 117.53C81.172 117.53 79.942 117.99 79.042 118.91C78.142 119.81 77.692 121.11 77.692 122.81V131H74.812V115.1H77.572V117.5C78.152 116.68 78.932 116.05 79.912 115.61C80.912 115.17 82.042 114.95 83.302 114.95ZM109.69 123.14C109.69 123.36 109.67 123.65 109.63 124.01H96.7298C96.9098 125.41 97.5198 126.54 98.5598 127.4C99.6198 128.24 100.93 128.66 102.49 128.66C104.39 128.66 105.92 128.02 107.08 126.74L108.67 128.6C107.95 129.44 107.05 130.08 105.97 130.52C104.91 130.96 103.72 131.18 102.4 131.18C100.72 131.18 99.2298 130.84 97.9298 130.16C96.6298 129.46 95.6198 128.49 94.8998 127.25C94.1998 126.01 93.8498 124.61 93.8498 123.05C93.8498 121.51 94.1898 120.12 94.8698 118.88C95.5698 117.64 96.5198 116.68 97.7198 116C98.9398 115.3 100.31 114.95 101.83 114.95C103.35 114.95 104.7 115.3 105.88 116C107.08 116.68 108.01 117.64 108.67 118.88C109.35 120.12 109.69 121.54 109.69 123.14ZM101.83 117.38C100.45 117.38 99.2898 117.8 98.3498 118.64C97.4298 119.48 96.8898 120.58 96.7298 121.94H106.93C106.77 120.6 106.22 119.51 105.28 118.67C104.36 117.81 103.21 117.38 101.83 117.38ZM116.449 117.77C116.949 116.85 117.689 116.15 118.669 115.67C119.649 115.19 120.839 114.95 122.239 114.95V117.74C122.079 117.72 121.859 117.71 121.579 117.71C120.019 117.71 118.789 118.18 117.889 119.12C117.009 120.04 116.569 121.36 116.569 123.08V131H113.689V115.1H116.449V117.77ZM131.549 114.95C133.749 114.95 135.429 115.49 136.589 116.57C137.769 117.65 138.359 119.26 138.359 121.4V131H135.629V128.9C135.149 129.64 134.459 130.21 133.559 130.61C132.679 130.99 131.629 131.18 130.409 131.18C128.629 131.18 127.199 130.75 126.119 129.89C125.059 129.03 124.529 127.9 124.529 126.5C124.529 125.1 125.039 123.98 126.059 123.14C127.079 122.28 128.699 121.85 130.919 121.85H135.479V121.28C135.479 120.04 135.119 119.09 134.399 118.43C133.679 117.77 132.619 117.44 131.219 117.44C130.279 117.44 129.359 117.6 128.459 117.92C127.559 118.22 126.799 118.63 126.179 119.15L124.979 116.99C125.799 116.33 126.779 115.83 127.919 115.49C129.059 115.13 130.269 114.95 131.549 114.95ZM130.889 128.96C131.989 128.96 132.939 128.72 133.739 128.24C134.539 127.74 135.119 127.04 135.479 126.14V123.92H131.039C128.599 123.92 127.379 124.74 127.379 126.38C127.379 127.18 127.689 127.81 128.309 128.27C128.929 128.73 129.789 128.96 130.889 128.96ZM152.629 130.07C152.209 130.43 151.689 130.71 151.069 130.91C150.449 131.09 149.809 131.18 149.149 131.18C147.549 131.18 146.309 130.75 145.429 129.89C144.549 129.03 144.109 127.8 144.109 126.2V117.47H141.409V115.1H144.109V111.62H146.989V115.1H151.549V117.47H146.989V126.08C146.989 126.94 147.199 127.6 147.619 128.06C148.059 128.52 148.679 128.75 149.479 128.75C150.359 128.75 151.109 128.5 151.729 128L152.629 130.07ZM169.954 123.14C169.954 123.36 169.934 123.65 169.894 124.01H156.994C157.174 125.41 157.784 126.54 158.824 127.4C159.884 128.24 161.194 128.66 162.754 128.66C164.654 128.66 166.184 128.02 167.344 126.74L168.934 128.6C168.214 129.44 167.314 130.08 166.234 130.52C165.174 130.96 163.984 131.18 162.664 131.18C160.984 131.18 159.494 130.84 158.194 130.16C156.894 129.46 155.884 128.49 155.164 127.25C154.464 126.01 154.114 124.61 154.114 123.05C154.114 121.51 154.454 120.12 155.134 118.88C155.834 117.64 156.784 116.68 157.984 116C159.204 115.3 160.574 114.95 162.094 114.95C163.614 114.95 164.964 115.3 166.144 116C167.344 116.68 168.274 117.64 168.934 118.88C169.614 120.12 169.954 121.54 169.954 123.14ZM162.094 117.38C160.714 117.38 159.554 117.8 158.614 118.64C157.694 119.48 157.154 120.58 156.994 121.94H167.194C167.034 120.6 166.484 119.51 165.544 118.67C164.624 117.81 163.474 117.38 162.094 117.38ZM42.54 168.18C40.96 168.18 39.54 167.83 38.28 167.13C37.02 166.43 36.03 165.47 35.31 164.25C34.61 163.01 34.26 161.61 34.26 160.05C34.26 158.49 34.61 157.1 35.31 155.88C36.03 154.64 37.02 153.68 38.28 153C39.54 152.3 40.96 151.95 42.54 151.95C44.12 151.95 45.53 152.3 46.77 153C48.03 153.68 49.01 154.64 49.71 155.88C50.43 157.1 50.79 158.49 50.79 160.05C50.79 161.61 50.43 163.01 49.71 164.25C49.01 165.47 48.03 166.43 46.77 167.13C45.53 167.83 44.12 168.18 42.54 168.18ZM42.54 165.66C43.56 165.66 44.47 165.43 45.27 164.97C46.09 164.49 46.73 163.83 47.19 162.99C47.65 162.13 47.88 161.15 47.88 160.05C47.88 158.95 47.65 157.98 47.19 157.14C46.73 156.28 46.09 155.62 45.27 155.16C44.47 154.7 43.56 154.47 42.54 154.47C41.52 154.47 40.6 154.7 39.78 155.16C38.98 155.62 38.34 156.28 37.86 157.14C37.4 157.98 37.17 158.95 37.17 160.05C37.17 161.15 37.4 162.13 37.86 162.99C38.34 163.83 38.98 164.49 39.78 164.97C40.6 165.43 41.52 165.66 42.54 165.66ZM63.203 151.95C64.743 151.95 66.123 152.29 67.343 152.97C68.563 153.65 69.513 154.6 70.193 155.82C70.893 157.04 71.243 158.45 71.243 160.05C71.243 161.65 70.893 163.07 70.193 164.31C69.513 165.53 68.563 166.48 67.343 167.16C66.123 167.84 64.743 168.18 63.203 168.18C62.063 168.18 61.013 167.96 60.053 167.52C59.113 167.08 58.313 166.44 57.653 165.6V173.82H54.773V152.1H57.533V154.62C58.173 153.74 58.983 153.08 59.963 152.64C60.943 152.18 62.023 151.95 63.203 151.95ZM62.963 165.66C63.983 165.66 64.893 165.43 65.693 164.97C66.513 164.49 67.153 163.83 67.613 162.99C68.093 162.13 68.333 161.15 68.333 160.05C68.333 158.95 68.093 157.98 67.613 157.14C67.153 156.28 66.513 155.62 65.693 155.16C64.893 154.7 63.983 154.47 62.963 154.47C61.963 154.47 61.053 154.71 60.233 155.19C59.433 155.65 58.793 156.3 58.313 157.14C57.853 157.98 57.623 158.95 57.623 160.05C57.623 161.15 57.853 162.13 58.313 162.99C58.773 163.83 59.413 164.49 60.233 164.97C61.053 165.43 61.963 165.66 62.963 165.66ZM84.1622 167.07C83.7422 167.43 83.2222 167.71 82.6022 167.91C81.9822 168.09 81.3422 168.18 80.6822 168.18C79.0822 168.18 77.8422 167.75 76.9622 166.89C76.0822 166.03 75.6422 164.8 75.6422 163.2V154.47H72.9422V152.1H75.6422V148.62H78.5222V152.1H83.0822V154.47H78.5222V163.08C78.5222 163.94 78.7322 164.6 79.1522 165.06C79.5922 165.52 80.2122 165.75 81.0122 165.75C81.8922 165.75 82.6422 165.5 83.2622 165L84.1622 167.07ZM87.6441 152.1H90.5241V168H87.6441V152.1ZM89.0841 149.04C88.5241 149.04 88.0541 148.86 87.6741 148.5C87.3141 148.14 87.1341 147.7 87.1341 147.18C87.1341 146.66 87.3141 146.22 87.6741 145.86C88.0541 145.48 88.5241 145.29 89.0841 145.29C89.6441 145.29 90.1041 145.47 90.4641 145.83C90.8441 146.17 91.0341 146.6 91.0341 147.12C91.0341 147.66 90.8441 148.12 90.4641 148.5C90.1041 148.86 89.6441 149.04 89.0841 149.04ZM102.833 168.18C101.253 168.18 99.833 167.83 98.573 167.13C97.313 166.43 96.323 165.47 95.603 164.25C94.903 163.01 94.553 161.61 94.553 160.05C94.553 158.49 94.903 157.1 95.603 155.88C96.323 154.64 97.313 153.68 98.573 153C99.833 152.3 101.253 151.95 102.833 151.95C104.413 151.95 105.823 152.3 107.063 153C108.323 153.68 109.303 154.64 110.003 155.88C110.723 157.1 111.083 158.49 111.083 160.05C111.083 161.61 110.723 163.01 110.003 164.25C109.303 165.47 108.323 166.43 107.063 167.13C105.823 167.83 104.413 168.18 102.833 168.18ZM102.833 165.66C103.853 165.66 104.763 165.43 105.563 164.97C106.383 164.49 107.023 163.83 107.483 162.99C107.943 162.13 108.173 161.15 108.173 160.05C108.173 158.95 107.943 157.98 107.483 157.14C107.023 156.28 106.383 155.62 105.563 155.16C104.763 154.7 103.853 154.47 102.833 154.47C101.813 154.47 100.893 154.7 100.073 155.16C99.273 155.62 98.633 156.28 98.153 157.14C97.693 157.98 97.463 158.95 97.463 160.05C97.463 161.15 97.693 162.13 98.153 162.99C98.633 163.83 99.273 164.49 100.073 164.97C100.893 165.43 101.813 165.66 102.833 165.66ZM123.556 151.95C125.576 151.95 127.176 152.54 128.356 153.72C129.556 154.88 130.156 156.59 130.156 158.85V168H127.276V159.18C127.276 157.64 126.906 156.48 126.166 155.7C125.426 154.92 124.366 154.53 122.986 154.53C121.426 154.53 120.196 154.99 119.296 155.91C118.396 156.81 117.946 158.11 117.946 159.81V168H115.066V152.1H117.826V154.5C118.406 153.68 119.186 153.05 120.166 152.61C121.166 152.17 122.296 151.95 123.556 151.95ZM140.046 168.18C138.746 168.18 137.496 168.01 136.296 167.67C135.096 167.31 134.156 166.86 133.476 166.32L134.676 164.04C135.376 164.54 136.226 164.94 137.226 165.24C138.226 165.54 139.236 165.69 140.256 165.69C142.776 165.69 144.036 164.97 144.036 163.53C144.036 163.05 143.866 162.67 143.526 162.39C143.186 162.11 142.756 161.91 142.236 161.79C141.736 161.65 141.016 161.5 140.076 161.34C138.796 161.14 137.746 160.91 136.926 160.65C136.126 160.39 135.436 159.95 134.856 159.33C134.276 158.71 133.986 157.84 133.986 156.72C133.986 155.28 134.586 154.13 135.786 153.27C136.986 152.39 138.596 151.95 140.616 151.95C141.676 151.95 142.736 152.08 143.796 152.34C144.856 152.6 145.726 152.95 146.406 153.39L145.176 155.67C143.876 154.83 142.346 154.41 140.586 154.41C139.366 154.41 138.436 154.61 137.796 155.01C137.156 155.41 136.836 155.94 136.836 156.6C136.836 157.12 137.016 157.53 137.376 157.83C137.736 158.13 138.176 158.35 138.696 158.49C139.236 158.63 139.986 158.79 140.946 158.97C142.226 159.19 143.256 159.43 144.036 159.69C144.836 159.93 145.516 160.35 146.076 160.95C146.636 161.55 146.916 162.39 146.916 163.47C146.916 164.91 146.296 166.06 145.056 166.92C143.836 167.76 142.166 168.18 140.046 168.18ZM151.235 164.07C151.795 164.07 152.255 164.27 152.615 164.67C152.995 165.05 153.185 165.53 153.185 166.11C153.185 166.41 153.145 166.7 153.065 166.98C153.005 167.26 152.875 167.69 152.675 168.27L151.265 172.44H149.375L150.485 167.97C150.105 167.83 149.795 167.6 149.555 167.28C149.335 166.94 149.225 166.55 149.225 166.11C149.225 165.51 149.415 165.02 149.795 164.64C150.175 164.26 150.655 164.07 151.235 164.07ZM172.179 168.18C170.599 168.18 169.179 167.83 167.919 167.13C166.659 166.43 165.669 165.47 164.949 164.25C164.249 163.01 163.899 161.61 163.899 160.05C163.899 158.49 164.249 157.1 164.949 155.88C165.669 154.64 166.659 153.68 167.919 153C169.179 152.3 170.599 151.95 172.179 151.95C173.759 151.95 175.169 152.3 176.409 153C177.669 153.68 178.649 154.64 179.349 155.88C180.069 157.1 180.429 158.49 180.429 160.05C180.429 161.61 180.069 163.01 179.349 164.25C178.649 165.47 177.669 166.43 176.409 167.13C175.169 167.83 173.759 168.18 172.179 168.18ZM172.179 165.66C173.199 165.66 174.109 165.43 174.909 164.97C175.729 164.49 176.369 163.83 176.829 162.99C177.289 162.13 177.519 161.15 177.519 160.05C177.519 158.95 177.289 157.98 176.829 157.14C176.369 156.28 175.729 155.62 174.909 155.16C174.109 154.7 173.199 154.47 172.179 154.47C171.159 154.47 170.239 154.7 169.419 155.16C168.619 155.62 167.979 156.28 167.499 157.14C167.039 157.98 166.809 158.95 166.809 160.05C166.809 161.15 167.039 162.13 167.499 162.99C167.979 163.83 168.619 164.49 169.419 164.97C170.239 165.43 171.159 165.66 172.179 165.66ZM187.172 154.77C187.672 153.85 188.412 153.15 189.392 152.67C190.372 152.19 191.562 151.95 192.962 151.95V154.74C192.802 154.72 192.582 154.71 192.302 154.71C190.742 154.71 189.512 155.18 188.612 156.12C187.732 157.04 187.292 158.36 187.292 160.08V168H184.412V152.1H187.172V154.77ZM44.16 188.95C45.7 188.95 47.08 189.29 48.3 189.97C49.52 190.65 50.47 191.6 51.15 192.82C51.85 194.04 52.2 195.45 52.2 197.05C52.2 198.65 51.85 200.07 51.15 201.31C50.47 202.53 49.52 203.48 48.3 204.16C47.08 204.84 45.7 205.18 44.16 205.18C43.02 205.18 41.97 204.96 41.01 204.52C40.07 204.08 39.27 203.44 38.61 202.6V210.82H35.73V189.1H38.49V191.62C39.13 190.74 39.94 190.08 40.92 189.64C41.9 189.18 42.98 188.95 44.16 188.95ZM43.92 202.66C44.94 202.66 45.85 202.43 46.65 201.97C47.47 201.49 48.11 200.83 48.57 199.99C49.05 199.13 49.29 198.15 49.29 197.05C49.29 195.95 49.05 194.98 48.57 194.14C48.11 193.28 47.47 192.62 46.65 192.16C45.85 191.7 44.94 191.47 43.92 191.47C42.92 191.47 42.01 191.71 41.19 192.19C40.39 192.65 39.75 193.3 39.27 194.14C38.81 194.98 38.58 195.95 38.58 197.05C38.58 198.15 38.81 199.13 39.27 199.99C39.73 200.83 40.37 201.49 41.19 201.97C42.01 202.43 42.92 202.66 43.92 202.66ZM58.9392 191.77C59.4392 190.85 60.1792 190.15 61.1592 189.67C62.1392 189.19 63.3292 188.95 64.7292 188.95V191.74C64.5692 191.72 64.3492 191.71 64.0692 191.71C62.5092 191.71 61.2792 192.18 60.3792 193.12C59.4992 194.04 59.0592 195.36 59.0592 197.08V205H56.1792V189.1H58.9392V191.77ZM82.5023 197.14C82.5023 197.36 82.4823 197.65 82.4423 198.01H69.5423C69.7223 199.41 70.3323 200.54 71.3723 201.4C72.4323 202.24 73.7423 202.66 75.3023 202.66C77.2023 202.66 78.7323 202.02 79.8923 200.74L81.4823 202.6C80.7623 203.44 79.8623 204.08 78.7823 204.52C77.7223 204.96 76.5323 205.18 75.2123 205.18C73.5323 205.18 72.0423 204.84 70.7423 204.16C69.4423 203.46 68.4323 202.49 67.7123 201.25C67.0123 200.01 66.6623 198.61 66.6623 197.05C66.6623 195.51 67.0023 194.12 67.6823 192.88C68.3823 191.64 69.3323 190.68 70.5323 190C71.7523 189.3 73.1223 188.95 74.6423 188.95C76.1623 188.95 77.5123 189.3 78.6923 190C79.8923 190.68 80.8223 191.64 81.4823 192.88C82.1623 194.12 82.5023 195.54 82.5023 197.14ZM74.6423 191.38C73.2623 191.38 72.1023 191.8 71.1623 192.64C70.2423 193.48 69.7023 194.58 69.5423 195.94H79.7423C79.5823 194.6 79.0323 193.51 78.0923 192.67C77.1723 191.81 76.0223 191.38 74.6423 191.38ZM91.0615 205.18C89.7615 205.18 88.5115 205.01 87.3115 204.67C86.1115 204.31 85.1715 203.86 84.4915 203.32L85.6915 201.04C86.3915 201.54 87.2415 201.94 88.2415 202.24C89.2415 202.54 90.2515 202.69 91.2715 202.69C93.7915 202.69 95.0515 201.97 95.0515 200.53C95.0515 200.05 94.8815 199.67 94.5415 199.39C94.2015 199.11 93.7715 198.91 93.2515 198.79C92.7515 198.65 92.0315 198.5 91.0915 198.34C89.8115 198.14 88.7615 197.91 87.9415 197.65C87.1415 197.39 86.4515 196.95 85.8715 196.33C85.2915 195.71 85.0015 194.84 85.0015 193.72C85.0015 192.28 85.6015 191.13 86.8015 190.27C88.0015 189.39 89.6115 188.95 91.6315 188.95C92.6915 188.95 93.7515 189.08 94.8115 189.34C95.8715 189.6 96.7415 189.95 97.4215 190.39L96.1915 192.67C94.8915 191.83 93.3615 191.41 91.6015 191.41C90.3815 191.41 89.4515 191.61 88.8115 192.01C88.1715 192.41 87.8515 192.94 87.8515 193.6C87.8515 194.12 88.0315 194.53 88.3915 194.83C88.7515 195.13 89.1915 195.35 89.7115 195.49C90.2515 195.63 91.0015 195.79 91.9615 195.97C93.2415 196.19 94.2715 196.43 95.0515 196.69C95.8515 196.93 96.5315 197.35 97.0915 197.95C97.6515 198.55 97.9315 199.39 97.9315 200.47C97.9315 201.91 97.3115 203.06 96.0715 203.92C94.8515 204.76 93.1815 205.18 91.0615 205.18ZM106.091 205.18C104.791 205.18 103.541 205.01 102.341 204.67C101.141 204.31 100.201 203.86 99.5208 203.32L100.721 201.04C101.421 201.54 102.271 201.94 103.271 202.24C104.271 202.54 105.281 202.69 106.301 202.69C108.821 202.69 110.081 201.97 110.081 200.53C110.081 200.05 109.911 199.67 109.571 199.39C109.231 199.11 108.801 198.91 108.281 198.79C107.781 198.65 107.061 198.5 106.121 198.34C104.841 198.14 103.791 197.91 102.971 197.65C102.171 197.39 101.481 196.95 100.901 196.33C100.321 195.71 100.031 194.84 100.031 193.72C100.031 192.28 100.631 191.13 101.831 190.27C103.031 189.39 104.641 188.95 106.661 188.95C107.721 188.95 108.781 189.08 109.841 189.34C110.901 189.6 111.771 189.95 112.451 190.39L111.221 192.67C109.921 191.83 108.391 191.41 106.631 191.41C105.411 191.41 104.481 191.61 103.841 192.01C103.201 192.41 102.881 192.94 102.881 193.6C102.881 194.12 103.061 194.53 103.421 194.83C103.781 195.13 104.221 195.35 104.741 195.49C105.281 195.63 106.031 195.79 106.991 195.97C108.271 196.19 109.301 196.43 110.081 196.69C110.881 196.93 111.561 197.35 112.121 197.95C112.681 198.55 112.961 199.39 112.961 200.47C112.961 201.91 112.341 203.06 111.101 203.92C109.881 204.76 108.211 205.18 106.091 205.18ZM127.377 191.77C127.877 190.85 128.617 190.15 129.597 189.67C130.577 189.19 131.767 188.95 133.167 188.95V191.74C133.007 191.72 132.787 191.71 132.507 191.71C130.947 191.71 129.717 192.18 128.817 193.12C127.937 194.04 127.497 195.36 127.497 197.08V205H124.617V189.1H127.377V191.77ZM150.94 197.14C150.94 197.36 150.92 197.65 150.88 198.01H137.98C138.16 199.41 138.77 200.54 139.81 201.4C140.87 202.24 142.18 202.66 143.74 202.66C145.64 202.66 147.17 202.02 148.33 200.74L149.92 202.6C149.2 203.44 148.3 204.08 147.22 204.52C146.16 204.96 144.97 205.18 143.65 205.18C141.97 205.18 140.48 204.84 139.18 204.16C137.88 203.46 136.87 202.49 136.15 201.25C135.45 200.01 135.1 198.61 135.1 197.05C135.1 195.51 135.44 194.12 136.12 192.88C136.82 191.64 137.77 190.68 138.97 190C140.19 189.3 141.56 188.95 143.08 188.95C144.6 188.95 145.95 189.3 147.13 190C148.33 190.68 149.26 191.64 149.92 192.88C150.6 194.12 150.94 195.54 150.94 197.14ZM143.08 191.38C141.7 191.38 140.54 191.8 139.6 192.64C138.68 193.48 138.14 194.58 137.98 195.94H148.18C148.02 194.6 147.47 193.51 146.53 192.67C145.61 191.81 144.46 191.38 143.08 191.38ZM163.879 204.07C163.459 204.43 162.939 204.71 162.319 204.91C161.699 205.09 161.059 205.18 160.399 205.18C158.799 205.18 157.559 204.75 156.679 203.89C155.799 203.03 155.359 201.8 155.359 200.2V191.47H152.659V189.1H155.359V185.62H158.239V189.1H162.799V191.47H158.239V200.08C158.239 200.94 158.449 201.6 158.869 202.06C159.309 202.52 159.929 202.75 160.729 202.75C161.609 202.75 162.359 202.5 162.979 202L163.879 204.07ZM182.181 189.1V205H179.451V202.6C178.871 203.42 178.101 204.06 177.141 204.52C176.201 204.96 175.171 205.18 174.051 205.18C171.931 205.18 170.261 204.6 169.041 203.44C167.821 202.26 167.211 200.53 167.211 198.25V189.1H170.091V197.92C170.091 199.46 170.461 200.63 171.201 201.43C171.941 202.21 173.001 202.6 174.381 202.6C175.901 202.6 177.101 202.14 177.981 201.22C178.861 200.3 179.301 199 179.301 197.32V189.1H182.181ZM190.424 191.77C190.924 190.85 191.664 190.15 192.644 189.67C193.624 189.19 194.814 188.95 196.214 188.95V191.74C196.054 191.72 195.834 191.71 195.554 191.71C193.994 191.71 192.764 192.18 191.864 193.12C190.984 194.04 190.544 195.36 190.544 197.08V205H187.664V189.1H190.424V191.77ZM208.253 188.95C210.273 188.95 211.873 189.54 213.053 190.72C214.253 191.88 214.853 193.59 214.853 195.85V205H211.973V196.18C211.973 194.64 211.603 193.48 210.863 192.7C210.123 191.92 209.063 191.53 207.683 191.53C206.123 191.53 204.893 191.99 203.993 192.91C203.093 193.81 202.643 195.11 202.643 196.81V205H199.763V189.1H202.523V191.5C203.103 190.68 203.883 190.05 204.863 189.61C205.863 189.17 206.993 188.95 208.253 188.95ZM237.18 204.07C236.76 204.43 236.24 204.71 235.62 204.91C235 205.09 234.36 205.18 233.7 205.18C232.1 205.18 230.86 204.75 229.98 203.89C229.1 203.03 228.66 201.8 228.66 200.2V191.47H225.96V189.1H228.66V185.62H231.54V189.1H236.1V191.47H231.54V200.08C231.54 200.94 231.75 201.6 232.17 202.06C232.61 202.52 233.23 202.75 234.03 202.75C234.91 202.75 235.66 202.5 236.28 202L237.18 204.07ZM246.944 205.18C245.364 205.18 243.944 204.83 242.684 204.13C241.424 203.43 240.434 202.47 239.714 201.25C239.014 200.01 238.664 198.61 238.664 197.05C238.664 195.49 239.014 194.1 239.714 192.88C240.434 191.64 241.424 190.68 242.684 190C243.944 189.3 245.364 188.95 246.944 188.95C248.524 188.95 249.934 189.3 251.174 190C252.434 190.68 253.414 191.64 254.114 192.88C254.834 194.1 255.194 195.49 255.194 197.05C255.194 198.61 254.834 200.01 254.114 201.25C253.414 202.47 252.434 203.43 251.174 204.13C249.934 204.83 248.524 205.18 246.944 205.18ZM246.944 202.66C247.964 202.66 248.874 202.43 249.674 201.97C250.494 201.49 251.134 200.83 251.594 199.99C252.054 199.13 252.284 198.15 252.284 197.05C252.284 195.95 252.054 194.98 251.594 194.14C251.134 193.28 250.494 192.62 249.674 192.16C248.874 191.7 247.964 191.47 246.944 191.47C245.924 191.47 245.004 191.7 244.184 192.16C243.384 192.62 242.744 193.28 242.264 194.14C241.804 194.98 241.574 195.95 241.574 197.05C241.574 198.15 241.804 199.13 242.264 199.99C242.744 200.83 243.384 201.49 244.184 201.97C245.004 202.43 245.924 202.66 246.944 202.66ZM50.94 226.1V239.84C50.94 242.62 50.25 244.67 48.87 245.99C47.49 247.33 45.43 248 42.69 248C41.19 248 39.76 247.79 38.4 247.37C37.04 246.97 35.94 246.39 35.1 245.63L36.48 243.41C37.22 244.05 38.13 244.55 39.21 244.91C40.31 245.29 41.44 245.48 42.6 245.48C44.46 245.48 45.83 245.04 46.71 244.16C47.61 243.28 48.06 241.94 48.06 240.14V238.88C47.38 239.7 46.54 240.32 45.54 240.74C44.56 241.14 43.49 241.34 42.33 241.34C40.81 241.34 39.43 241.02 38.19 240.38C36.97 239.72 36.01 238.81 35.31 237.65C34.61 236.47 34.26 235.13 34.26 233.63C34.26 232.13 34.61 230.8 35.31 229.64C36.01 228.46 36.97 227.55 38.19 226.91C39.43 226.27 40.81 225.95 42.33 225.95C43.53 225.95 44.64 226.17 45.66 226.61C46.7 227.05 47.55 227.7 48.21 228.56V226.1H50.94ZM42.66 238.82C43.7 238.82 44.63 238.6 45.45 238.16C46.29 237.72 46.94 237.11 47.4 236.33C47.88 235.53 48.12 234.63 48.12 233.63C48.12 232.09 47.61 230.85 46.59 229.91C45.57 228.95 44.26 228.47 42.66 228.47C41.04 228.47 39.72 228.95 38.7 229.91C37.68 230.85 37.17 232.09 37.17 233.63C37.17 234.63 37.4 235.53 37.86 236.33C38.34 237.11 38.99 237.72 39.81 238.16C40.65 238.6 41.6 238.82 42.66 238.82ZM63.2529 242.18C61.6729 242.18 60.2529 241.83 58.9929 241.13C57.7329 240.43 56.7429 239.47 56.0229 238.25C55.3229 237.01 54.9729 235.61 54.9729 234.05C54.9729 232.49 55.3229 231.1 56.0229 229.88C56.7429 228.64 57.7329 227.68 58.9929 227C60.2529 226.3 61.6729 225.95 63.2529 225.95C64.8329 225.95 66.2429 226.3 67.4829 227C68.7429 227.68 69.7229 228.64 70.4229 229.88C71.1429 231.1 71.5029 232.49 71.5029 234.05C71.5029 235.61 71.1429 237.01 70.4229 238.25C69.7229 239.47 68.7429 240.43 67.4829 241.13C66.2429 241.83 64.8329 242.18 63.2529 242.18ZM63.2529 239.66C64.2729 239.66 65.1829 239.43 65.9829 238.97C66.8029 238.49 67.4429 237.83 67.9029 236.99C68.3629 236.13 68.5929 235.15 68.5929 234.05C68.5929 232.95 68.3629 231.98 67.9029 231.14C67.4429 230.28 66.8029 229.62 65.9829 229.16C65.1829 228.7 64.2729 228.47 63.2529 228.47C62.2329 228.47 61.3129 228.7 60.4929 229.16C59.6929 229.62 59.0529 230.28 58.5729 231.14C58.1129 231.98 57.8829 232.95 57.8829 234.05C57.8829 235.15 58.1129 236.13 58.5729 236.99C59.0529 237.83 59.6929 238.49 60.4929 238.97C61.3129 239.43 62.2329 239.66 63.2529 239.66ZM91.9725 225.95C93.5125 225.95 94.8925 226.29 96.1125 226.97C97.3325 227.65 98.2825 228.6 98.9625 229.82C99.6625 231.04 100.013 232.45 100.013 234.05C100.013 235.65 99.6625 237.07 98.9625 238.31C98.2825 239.53 97.3325 240.48 96.1125 241.16C94.8925 241.84 93.5125 242.18 91.9725 242.18C90.7925 242.18 89.7125 241.95 88.7325 241.49C87.7525 241.03 86.9425 240.36 86.3025 239.48V242H83.5425V219.74H86.4225V228.5C87.0625 227.66 87.8625 227.03 88.8225 226.61C89.7825 226.17 90.8325 225.95 91.9725 225.95ZM91.7325 239.66C92.7525 239.66 93.6625 239.43 94.4625 238.97C95.2825 238.49 95.9225 237.83 96.3825 236.99C96.8625 236.13 97.1025 235.15 97.1025 234.05C97.1025 232.95 96.8625 231.98 96.3825 231.14C95.9225 230.28 95.2825 229.62 94.4625 229.16C93.6625 228.7 92.7525 228.47 91.7325 228.47C90.7325 228.47 89.8225 228.7 89.0025 229.16C88.1825 229.62 87.5425 230.28 87.0825 231.14C86.6225 231.98 86.3925 232.95 86.3925 234.05C86.3925 235.15 86.6225 236.13 87.0825 236.99C87.5425 237.83 88.1825 238.49 89.0025 238.97C89.8225 239.43 90.7325 239.66 91.7325 239.66ZM109.635 225.95C111.835 225.95 113.515 226.49 114.675 227.57C115.855 228.65 116.445 230.26 116.445 232.4V242H113.715V239.9C113.235 240.64 112.545 241.21 111.645 241.61C110.765 241.99 109.715 242.18 108.495 242.18C106.715 242.18 105.285 241.75 104.205 240.89C103.145 240.03 102.615 238.9 102.615 237.5C102.615 236.1 103.125 234.98 104.145 234.14C105.165 233.28 106.785 232.85 109.005 232.85H113.565V232.28C113.565 231.04 113.205 230.09 112.485 229.43C111.765 228.77 110.705 228.44 109.305 228.44C108.365 228.44 107.445 228.6 106.545 228.92C105.645 229.22 104.885 229.63 104.265 230.15L103.065 227.99C103.885 227.33 104.865 226.83 106.005 226.49C107.145 226.13 108.355 225.95 109.635 225.95ZM108.975 239.96C110.075 239.96 111.025 239.72 111.825 239.24C112.625 238.74 113.205 238.04 113.565 237.14V234.92H109.125C106.685 234.92 105.465 235.74 105.465 237.38C105.465 238.18 105.775 238.81 106.395 239.27C107.015 239.73 107.875 239.96 108.975 239.96ZM128.793 242.18C127.173 242.18 125.723 241.83 124.443 241.13C123.183 240.43 122.193 239.47 121.473 238.25C120.753 237.01 120.393 235.61 120.393 234.05C120.393 232.49 120.753 231.1 121.473 229.88C122.193 228.64 123.183 227.68 124.443 227C125.723 226.3 127.173 225.95 128.793 225.95C130.233 225.95 131.513 226.24 132.633 226.82C133.773 227.4 134.653 228.24 135.273 229.34L133.083 230.75C132.583 229.99 131.963 229.42 131.223 229.04C130.483 228.66 129.663 228.47 128.763 228.47C127.723 228.47 126.783 228.7 125.943 229.16C125.123 229.62 124.473 230.28 123.993 231.14C123.533 231.98 123.303 232.95 123.303 234.05C123.303 235.17 123.533 236.16 123.993 237.02C124.473 237.86 125.123 238.51 125.943 238.97C126.783 239.43 127.723 239.66 128.763 239.66C129.663 239.66 130.483 239.47 131.223 239.09C131.963 238.71 132.583 238.14 133.083 237.38L135.273 238.76C134.653 239.86 133.773 240.71 132.633 241.31C131.513 241.89 130.233 242.18 128.793 242.18ZM144.976 234.59L141.676 237.65V242H138.796V219.74H141.676V234.02L150.346 226.1H153.826L147.136 232.67L154.486 242H150.946L144.976 234.59ZM156.893 221H160.283L159.713 235.37H157.433L156.893 221ZM158.603 242.18C158.043 242.18 157.573 242 157.193 241.64C156.813 241.26 156.623 240.8 156.623 240.26C156.623 239.72 156.813 239.27 157.193 238.91C157.573 238.53 158.043 238.34 158.603 238.34C159.163 238.34 159.623 238.53 159.983 238.91C160.343 239.27 160.523 239.72 160.523 240.26C160.523 240.8 160.333 241.26 159.953 241.64C159.593 242 159.143 242.18 158.603 242.18Z" fill="#443534"/>
<path d="M200.775 278C202.761 281.834 206.137 292.62 203.754 305.088C201.371 317.556 191.592 331.558 187 337C200.155 335.392 228.922 328.169 238.751 312.138C248.58 296.108 249.548 282.7 248.803 278" stroke="#72B0F4" stroke-width="5"/>
<rect x="2" y="2" width="280" height="275" rx="31" stroke="#71B0F5" stroke-width="4"/>
</svg>
