<svg width="436" height="477" viewBox="0 0 436 477" fill="none" xmlns="http://www.w3.org/2000/svg">
<path d="M258 218.8C258 218.8 269.4 221.9 268.7 227C268 232.2 255 260.9 246.2 264.5" stroke="white" stroke-width="3.8" stroke-miterlimit="10" stroke-linecap="square"/>
<path d="M240 237.3C240 237.3 224.3 238.2 174.9 238.1C125.3 238 123 235.1 123 235.1" stroke="white" stroke-width="3.8" stroke-miterlimit="10" stroke-linecap="square"/>
<path d="M240 255.8C240 255.8 193.6 256.1 149.4 256C105.2 256 119 254.2 119 254.2" stroke="white" stroke-width="3.8" stroke-miterlimit="10" stroke-linecap="square"/>
<path d="M171.1 270.3C171.1 270.3 181.6 266.5 200.4 264.1C219.4 261.8 233.5 265.7 233.5 265.7" stroke="white" stroke-width="3.8" stroke-miterlimit="10" stroke-linecap="square"/>
<path d="M143.9 34.7C143.9 34.7 139.3 41.5 142.3 61.9C146.6 92.2 162.8 144 160.1 168.1C160.5 186.2 156.8 199.6 156.8 199.6" stroke="white" stroke-width="3.8" stroke-miterlimit="10" stroke-linecap="square"/>
<path d="M206.1 201C206.1 201 199.3 204.6 188.5 205.8C177.7 207 165 202.1 165 202.1" stroke="white" stroke-width="3.8" stroke-miterlimit="10" stroke-linecap="square"/>
<path d="M339.1 205.4C339.1 205.4 329.4 175.6 301.6 177.5C273.6 179.2 280.6 226 280.6 226" stroke="white" stroke-width="3.8" stroke-miterlimit="10" stroke-linecap="square"/>
<path d="M318.5 209.3C318.5 209.3 317.5 208.7 314.7 208C311.4 207.2 309.9 207.4 309.9 207.4" fill="white"/>
<path d="M318.5 209.3C318.5 209.3 317.5 208.7 314.7 208C311.4 207.2 309.9 207.4 309.9 207.4" stroke="white" stroke-width="3.8" stroke-miterlimit="10" stroke-linecap="square"/>
<path d="M315.2 222.4C315.2 222.4 314.2 221.8 311.4 221.1C308.1 220.3 306.6 220.5 306.6 220.5" fill="white"/>
<path d="M315.2 222.4C315.2 222.4 314.2 221.8 311.4 221.1C308.1 220.3 306.6 220.5 306.6 220.5" stroke="white" stroke-width="3.8" stroke-miterlimit="10" stroke-linecap="square"/>
<path d="M300.6 262.4C300.6 262.4 304.2 270.5 299.1 274.6C293.4 279 286.7 276.9 283.4 273.5C277.4 267.4 281.6 259.6 281.6 259.6" stroke="white" stroke-width="3.8" stroke-miterlimit="10" stroke-linecap="square"/>
<path d="M322.9 183.5C322.9 183.5 329.8 176 321 171.7C307.8 165.2 304.1 175.5 304.1 175.5" stroke="white" stroke-width="3.8" stroke-miterlimit="10" stroke-linecap="square"/>
<path d="M269.6 260.1L252.8 259.9" stroke="white" stroke-width="3.8" stroke-miterlimit="10" stroke-linecap="square"/>
<path d="M277.7 237.3L267.1 236" stroke="white" stroke-width="3.8" stroke-miterlimit="10" stroke-linecap="square"/>
<path d="M340.4 223.1L334.5 214.1" stroke="white" stroke-width="3.8" stroke-miterlimit="10" stroke-linecap="square"/>
<path d="M338.4 234.1L332.6 233.2" stroke="white" stroke-width="3.8" stroke-miterlimit="10" stroke-linecap="square"/>
<path d="M332.8 245.3L319 248.3" stroke="white" stroke-width="3.8" stroke-miterlimit="10" stroke-linecap="square"/>
<path d="M359.1 233.5C359.1 233.5 376.8 212.7 366.2 193.6C355.5 174.5 332.4 172.6 332.4 172.6" stroke="white" stroke-width="3.8" stroke-miterlimit="10" stroke-linecap="square"/>
<path d="M357 243.5C357 243.5 354 280.1 332.8 284.3C316.2 287.7 301.7 281.3 301.7 281.3" stroke="white" stroke-width="3.8" stroke-miterlimit="10" stroke-linecap="square"/>
<path d="M138.2 33.2C138.2 33.2 140.8 27.4 141.3 22C141.7 16.5 139.5 4.39995 135.1 2.79995C130.7 1.19995 125.6 9.59995 123.9 18.7C122.3 27.8 123.2 34.8 123.2 34.8" stroke="white" stroke-width="3.8" stroke-miterlimit="10" stroke-linecap="square"/>
<path d="M101.4 225.4C101.4 225.4 95.3 210.7 97.8 187.5C102.2 151 119.3 93.8999 116.6 65.2999C115.3 51.1999 111.9 34.2999 111.9 34.2999" stroke="white" stroke-width="3.8" stroke-miterlimit="10" stroke-linecap="square"/>
<path d="M111.8 234.9C111.8 234.9 104 231.3 92.7 233.7C81.4 236 81 238.4 80.8 242.1C80.6 245.8 123.9 247.6 123.9 247.6" stroke="white" stroke-width="3.8" stroke-miterlimit="10" stroke-linecap="square"/>
<path d="M104.5 250.6C104.5 250.6 107.1 255.1 111.3 255.1" stroke="white" stroke-width="3.6" stroke-miterlimit="10" stroke-linecap="square"/>
<path d="M214 197.1C214.8 197.1 222.6 193.5 229.5 195.6C236.3 197.7 252.7 212.9 252.7 212.9" stroke="white" stroke-width="3.8" stroke-miterlimit="10" stroke-linecap="square"/>
<path d="M160.4 207.8C160.4 207.8 157.5 211.6 156 216.9C154.5 222.2 154.5 236.7 154.5 236.7" stroke="white" stroke-width="3.8" stroke-miterlimit="10" stroke-linecap="square"/>
<path d="M321.6 408.4C321.6 408.4 333 411.5 332.3 416.6C331.6 421.8 318.6 450.5 309.8 454.1" stroke="white" stroke-width="3.8" stroke-miterlimit="10" stroke-linecap="square"/>
<path d="M303.7 427C303.7 427 288 427.9 238.6 427.8C189 427.7 186.7 424.8 186.7 424.8" stroke="white" stroke-width="3.8" stroke-miterlimit="10" stroke-linecap="square"/>
<path d="M303.7 445.5C303.7 445.5 257.3 445.8 213.1 445.7C168.9 445.7 182.7 443.9 182.7 443.9" stroke="white" stroke-width="3.8" stroke-miterlimit="10" stroke-linecap="square"/>
<path d="M234.8 459.9C234.8 459.9 245.3 456.1 264.1 453.7C283.1 451.4 297.2 455.3 297.2 455.3" stroke="white" stroke-width="3.8" stroke-miterlimit="10" stroke-linecap="square"/>
<path d="M269.7 390.7C269.7 390.7 262.9 394.3 252.1 395.5C241.3 396.7 228.6 391.8 228.6 391.8" stroke="white" stroke-width="3.8" stroke-miterlimit="10" stroke-linecap="square"/>
<path d="M402.8 395C402.8 395 393.1 365.2 365.3 367.1C337.3 368.8 344.3 415.6 344.3 415.6" stroke="white" stroke-width="3.8" stroke-miterlimit="10" stroke-linecap="square"/>
<path d="M382.1 399C382.1 399 381.1 398.4 378.3 397.7C375 396.9 373.5 397.1 373.5 397.1" fill="white"/>
<path d="M382.1 399C382.1 399 381.1 398.4 378.3 397.7C375 396.9 373.5 397.1 373.5 397.1" stroke="white" stroke-width="3.8" stroke-miterlimit="10" stroke-linecap="square"/>
<path d="M378.9 412.1C378.9 412.1 377.9 411.5 375.1 410.8C371.8 410 370.3 410.2 370.3 410.2" fill="white"/>
<path d="M378.9 412.1C378.9 412.1 377.9 411.5 375.1 410.8C371.8 410 370.3 410.2 370.3 410.2" stroke="white" stroke-width="3.8" stroke-miterlimit="10" stroke-linecap="square"/>
<path d="M364.3 452.1C364.3 452.1 367.9 460.2 362.8 464.3C357.1 468.7 350.4 466.6 347.1 463.2C341.1 457.1 345.3 449.3 345.3 449.3" stroke="white" stroke-width="3.8" stroke-miterlimit="10" stroke-linecap="square"/>
<path d="M386.6 373.1C386.6 373.1 393.5 365.6 384.7 361.3C371.5 354.8 367.8 365.1 367.8 365.1" stroke="white" stroke-width="3.8" stroke-miterlimit="10" stroke-linecap="square"/>
<path d="M333.3 449.8L316.5 449.5" stroke="white" stroke-width="3.8" stroke-miterlimit="10" stroke-linecap="square"/>
<path d="M341.4 427L330.8 425.6" stroke="white" stroke-width="3.8" stroke-miterlimit="10" stroke-linecap="square"/>
<path d="M404.1 412.8L398.1 403.8" stroke="white" stroke-width="3.8" stroke-miterlimit="10" stroke-linecap="square"/>
<path d="M402.1 423.8L396.3 422.9" stroke="white" stroke-width="3.8" stroke-miterlimit="10" stroke-linecap="square"/>
<path d="M396.5 435L382.7 437.9" stroke="white" stroke-width="3.8" stroke-miterlimit="10" stroke-linecap="square"/>
<path d="M422.8 423.2C422.8 423.2 440.5 402.4 429.9 383.3C419.2 364.2 396.1 362.3 396.1 362.3" stroke="white" stroke-width="3.8" stroke-miterlimit="10" stroke-linecap="square"/>
<path d="M420.7 433.1C420.7 433.1 417.7 469.7 396.5 473.9C379.9 477.3 365.4 470.9 365.4 470.9" stroke="white" stroke-width="3.8" stroke-miterlimit="10" stroke-linecap="square"/>
<path d="M175.5 424.6C175.5 424.6 167.7 421 156.4 423.4C145.1 425.7 144.7 428.1 144.5 431.8C144.3 435.5 187.6 437.3 187.6 437.3" stroke="white" stroke-width="3.8" stroke-miterlimit="10" stroke-linecap="square"/>
<path d="M168.1 440.2C168.1 440.2 170.7 444.7 174.9 444.7" stroke="white" stroke-width="3.6" stroke-miterlimit="10" stroke-linecap="square"/>
<path d="M277.7 386.8C278.5 386.8 286.3 383.2 293.2 385.3C300 387.4 316.4 402.6 316.4 402.6" stroke="white" stroke-width="3.8" stroke-miterlimit="10" stroke-linecap="square"/>
<path d="M224.1 397.5C224.1 397.5 221.2 401.3 219.7 406.6C218.2 411.9 218.2 426.4 218.2 426.4" stroke="white" stroke-width="3.8" stroke-miterlimit="10" stroke-linecap="square"/>
<path d="M216.2 393.2C216.2 393.2 200.2 388.4 175 388.3C149.8 388.3 107.1 402.5 67.3 402.5C27.5 402.5 25 390.6 25 390.6" stroke="white" stroke-width="3.8" stroke-miterlimit="10" stroke-linecap="square"/>
<path d="M24.9 427.8C24.9 427.8 50.9 424.9 64.5 424.8C78.1 424.7 113.1 430.5 131.4 429.9" stroke="white" stroke-width="3.8" stroke-miterlimit="10" stroke-linecap="square"/>
<path d="M24.9 404.9C24.9 404.9 13.2 394 12.4 382.6C11.6 371.2 4.9 368.2 3.4 390.7C1.9 413.2 3 417.5 7.7 417.5H23" stroke="white" stroke-width="3.8" stroke-miterlimit="10" stroke-linecap="square"/>
<path d="M179.4 303.1V341.9" stroke="white" stroke-width="3.5" stroke-miterlimit="10" stroke-linecap="square"/>
<path d="M163.9 333.2L179.1 345.1L195.5 333.2" stroke="white" stroke-width="3.5" stroke-miterlimit="10" stroke-linecap="square"/>
<path d="M224.7 341.3V302.5" stroke="white" stroke-width="3.5" stroke-miterlimit="10" stroke-linecap="square"/>
<path d="M209.1 311.3L224.3 299.3L240.8 311.3" stroke="white" stroke-width="3.5" stroke-miterlimit="10" stroke-linecap="square"/>
</svg>
