<svg width="335" height="465" viewBox="0 0 335 465" fill="none" xmlns="http://www.w3.org/2000/svg">
<path d="M149.5 264.4C149.5 264.4 155.7 260.8 157.8 246.2C159.7 231.5 153.7 220.2 153.7 220.2" stroke="white" stroke-width="5" stroke-miterlimit="10" stroke-linecap="square"/>
<path d="M160.3 161.5C160.3 161.5 148.3 178 154.9 203.6C162.2 230.7 181.1 231.9 187.5 258.4" stroke="white" stroke-width="5" stroke-miterlimit="10" stroke-linecap="square"/>
<path d="M235.6 261C235.6 261 223.9 266 213 265.9C202.2 265.9 194 263.7 194 263.7" stroke="white" stroke-width="5" stroke-miterlimit="10" stroke-linecap="square"/>
<path d="M127.8 434.6C127.8 434.6 99.5001 442.2 100 447.9C100.4 453.6 137.5 454.1 145.1 453.4C160.9 451.9 170.3 445.8 155.6 427.7" stroke="white" stroke-width="5" stroke-miterlimit="10" stroke-linecap="square"/>
<path d="M162.6 146.6C162.6 146.6 139.7 150.2 147.1 174.7" stroke="white" stroke-width="5" stroke-miterlimit="10" stroke-linecap="square"/>
<path d="M180.7 375.2C180.7 375.2 164.7 394.9 136.6 408.2C92 429.1 79.9 424.1 55.9 453.6" stroke="white" stroke-width="5" stroke-miterlimit="10" stroke-linecap="square"/>
<path d="M157.9 342.5C157.9 342.5 133.9 346.8 102.4 371.7C82.4 387.4 62.4 418.1 35.9 414.7" stroke="white" stroke-width="5" stroke-miterlimit="10" stroke-linecap="square"/>
<path d="M117.6 292.7C117.6 292.7 105.1 309.5 115.9 352.9" stroke="white" stroke-width="5" stroke-miterlimit="10" stroke-linecap="square"/>
<path d="M121.2 286.2C121.2 286.2 126.9 272.2 147.5 267.7C167.9 263.3 177 267.7 177 267.7" stroke="white" stroke-width="5" stroke-miterlimit="10" stroke-linecap="square"/>
<path d="M135.6 59.6C135.6 59.6 103.9 83.5 117.5 116.2C131.2 149.1 184.7 121.6 184.7 121.6" stroke="white" stroke-width="5" stroke-miterlimit="10" stroke-linecap="square"/>
<path d="M148.5 82.6C148.5 82.6 148.1 84.2 148.5 87.8C148.9 91.9 149.8 93.8 149.8 93.8" fill="white"/>
<path d="M148.5 82.6C148.5 82.6 148.1 84.2 148.5 87.8C148.9 91.9 149.8 93.8 149.8 93.8" stroke="white" stroke-width="5" stroke-miterlimit="10" stroke-linecap="square"/>
<path d="M165.8 81.1C165.8 81.1 165.4 82.7 165.8 86.3C166.2 90.4 167.1 92.3 167.1 92.3" fill="white"/>
<path d="M165.8 81.1C165.8 81.1 165.4 82.7 165.8 86.3C166.2 90.4 167.1 92.3 167.1 92.3" stroke="white" stroke-width="5" stroke-miterlimit="10" stroke-linecap="square"/>
<path d="M219.8 82.1C219.8 82.1 228.1 74.4 235.2 79.1C242.7 84.1 243.2 92.9 240.5 98.5C235.7 108.3 224.5 106.4 224.5 106.4" stroke="white" stroke-width="5" stroke-miterlimit="10" stroke-linecap="square"/>
<path d="M115.8 88C115.8 88 103.9 82.8 102.3 95.3C99.9 113.8 113.9 113.9 113.9 113.9" stroke="white" stroke-width="5" stroke-miterlimit="10" stroke-linecap="square"/>
<path d="M196 113.6L201.1 134.5" stroke="white" stroke-width="5" stroke-miterlimit="10" stroke-linecap="square"/>
<path d="M167.7 128.2L170.5 141.6" stroke="white" stroke-width="5" stroke-miterlimit="10" stroke-linecap="square"/>
<path d="M127 55.7C120.2 54.1 111.9 55.4 110 62.2C108 68.9 114 73.1 111.1 76.7C108.2 80.3 98.2001 79 98.2001 79" stroke="white" stroke-width="5" stroke-miterlimit="10" stroke-linecap="square"/>
<path d="M146.7 60.3C146.7 60.3 156.2 58.2 157.8 63.2C159.4 68.3 152.3 74.7 152.3 74.7" stroke="white" stroke-width="5" stroke-miterlimit="10" stroke-linecap="square"/>
<path d="M166.4 58.8C166.4 58.8 169.1 51.9 173.9 54.3C178.8 56.7 178.4 64.3 178.4 64.3" stroke="white" stroke-width="5" stroke-miterlimit="10" stroke-linecap="square"/>
<path d="M201.2 64.2C201.2 64.2 196.4 67.1 197.1 71.9C197.9 76.7 209.3 73.4 210.8 78.8C212.3 84.2 207.5 87.3 207.5 87.3" stroke="white" stroke-width="5" stroke-miterlimit="10" stroke-linecap="square"/>
<path d="M235.4 68.8999C235.4 68.8999 240.6 61.8999 245.2 64.6999C249.8 67.4999 245.9 78.5999 256 76.9999C266.1 75.3999 261.5 68.5999 261.5 68.5999" stroke="white" stroke-width="5" stroke-miterlimit="10" stroke-linecap="square"/>
<path d="M131.5 47.1C131.5 47.1 142.6 44 151.4 43.1C161.2 42.2 173.3 44.3 173.3 44.3" stroke="white" stroke-width="5" stroke-miterlimit="10" stroke-linecap="square"/>
<path d="M119.7 46.6C119.7 46.6 127.4 33.1 135.6 31.4C143.5 29.5 171.5 26.4 193.6 30.5C215.7 34.6 226.1 42.3 228.8 47.3C231.5 52.3 232.9 60.5 224.9 62.6C224.9 62.6 215.8 55.4 206.9 51.7C198.8 48.3 187.6 46.1 187.6 46.1" stroke="white" stroke-width="5" stroke-miterlimit="10" stroke-linecap="square"/>
<path d="M136.3 29.3C136.3 29.3 153.7 2.29999 179.6 2.89999C205.6 3.49999 226 34.1 226 34.1" stroke="white" stroke-width="5" stroke-miterlimit="10" stroke-linecap="square"/>
<path d="M209.2 283.6C211 282.5 182.7 297.4 182.8 302.4C182.8 307.1 225.4 298.9 232 292.8C238.8 286.8 233.8 280 233.8 280" stroke="white" stroke-width="5" stroke-miterlimit="10" stroke-linecap="square"/>
<path d="M216.8 186.3C216.8 186.3 234 202.9 247.9 222.9C258.5 238.4 232.9 267.3 232.9 267.3" stroke="white" stroke-width="5" stroke-miterlimit="10" stroke-linecap="square"/>
<path d="M222.2 158.8C222.2 158.8 268.5 192.6 271.2 225.7C274.2 251.4 258.1 268.4 258.1 268.4" stroke="white" stroke-width="5" stroke-miterlimit="10" stroke-linecap="square"/>
<path d="M208.5 139.4C208.5 139.4 230 139.8 237.2 160.5" stroke="white" stroke-width="5" stroke-miterlimit="10" stroke-linecap="square"/>
<path d="M168.4 152.5C168.4 152.5 172.3 162.6 183.2 160.9C194.1 159.2 198.1 145.7 198.1 145.7" stroke="white" stroke-width="5" stroke-miterlimit="10" stroke-linecap="square"/>
<path d="M38.6 426.9C38.6 426.9 10.2 403.4 4.20003 407.5C-1.89997 411.4 16.1 444 20.7 450.1C30.2 462.9 31.4 469.4 48.3 448.2" stroke="white" stroke-width="5" stroke-miterlimit="10" stroke-linecap="square"/>
<path d="M235.6 292.7C235.6 292.7 218.1 298.8 203.1 308.2C188.1 317.6 163.1 336.8 163.1 336.8" stroke="white" stroke-width="5" stroke-miterlimit="10" stroke-linecap="square"/>
<path d="M66.8 453.6H189.9" stroke="white" stroke-width="5" stroke-miterlimit="10" stroke-linecap="square"/>
<path d="M156.1 311.1C156.1 311.1 162.1 320.5 158.2 334.5" stroke="white" stroke-width="5" stroke-miterlimit="10" stroke-linecap="square"/>
<path d="M157.8 404C157.8 404 156.5 416.5 159.5 421.7" stroke="white" stroke-width="5" stroke-miterlimit="10" stroke-linecap="square"/>
<path d="M128.3 418.2C128.3 418.2 129.7 428.8 122.4 429.9" stroke="white" stroke-width="5" stroke-miterlimit="10" stroke-linecap="square"/>
<path d="M263 276C263 276 280 307.6 240.1 342.5C228.7 352.5 187.4 368.4 187.4 368.4" stroke="white" stroke-width="5" stroke-miterlimit="10" stroke-linecap="square"/>
<path d="M161.7 308C161.7 308 170.5 315.1 180.7 314.8" stroke="white" stroke-width="5" stroke-miterlimit="10" stroke-linecap="square"/>
<path d="M266.6 308.1H292.4L329.6 264.2H277.1" stroke="white" stroke-width="5" stroke-miterlimit="10" stroke-linecap="square"/>
<path d="M284.1 316.8V418.2H292.1V316.8" stroke="white" stroke-width="5" stroke-miterlimit="10" stroke-linecap="square"/>
<path d="M195.4 365.8V418.2H203.4V365.8" stroke="white" stroke-width="5" stroke-miterlimit="10" stroke-linecap="square"/>
<path d="M323.8 286.2V372.9H331.8V274.2" stroke="white" stroke-width="5" stroke-miterlimit="10" stroke-linecap="square"/>
</svg>
