<svg width="500" height="500" viewBox="0 0 500 500" fill="none" xmlns="http://www.w3.org/2000/svg">
<path d="M228.5 282.4C228.5 282.4 234.7 278.8 236.8 264.2C238.7 249.5 232.7 238.2 232.7 238.2" stroke="black" stroke-width="5" stroke-miterlimit="10" stroke-linecap="square"/>
<path d="M239.3 179.5C239.3 179.5 227.3 196 233.9 221.6C241.2 248.7 260.1 249.9 266.5 276.4" stroke="black" stroke-width="5" stroke-miterlimit="10" stroke-linecap="square"/>
<path d="M314.6 279C314.6 279 302.9 284 292 283.9C281.2 283.9 273 281.7 273 281.7" stroke="black" stroke-width="5" stroke-miterlimit="10" stroke-linecap="square"/>
<path d="M206.8 452.6C206.8 452.6 178.5 460.2 179 465.9C179.4 471.6 216.5 472.1 224.1 471.4C239.9 469.9 249.3 463.8 234.6 445.7" stroke="black" stroke-width="5" stroke-miterlimit="10" stroke-linecap="square"/>
<path d="M241.6 164.6C241.6 164.6 218.7 168.2 226.1 192.7" stroke="black" stroke-width="5" stroke-miterlimit="10" stroke-linecap="square"/>
<path d="M259.7 393.2C259.7 393.2 243.7 412.9 215.6 426.2C171 447.1 158.9 442.1 134.9 471.6" stroke="black" stroke-width="5" stroke-miterlimit="10" stroke-linecap="square"/>
<path d="M236.9 360.5C236.9 360.5 212.9 364.8 181.4 389.7C161.4 405.4 141.4 436.1 114.9 432.7" stroke="black" stroke-width="5" stroke-miterlimit="10" stroke-linecap="square"/>
<path d="M196.6 310.7C196.6 310.7 184.1 327.5 194.9 370.9" stroke="black" stroke-width="5" stroke-miterlimit="10" stroke-linecap="square"/>
<path d="M200.2 304.2C200.2 304.2 205.9 290.2 226.5 285.7C246.9 281.3 256 285.7 256 285.7" stroke="black" stroke-width="5" stroke-miterlimit="10" stroke-linecap="square"/>
<path d="M214.6 77.6C214.6 77.6 182.9 101.5 196.5 134.2C210.2 167.1 263.7 139.6 263.7 139.6" stroke="black" stroke-width="5" stroke-miterlimit="10" stroke-linecap="square"/>
<path d="M227.5 100.6C227.5 100.6 227.1 102.2 227.5 105.8C227.9 109.9 228.8 111.8 228.8 111.8" fill="white"/>
<path d="M227.5 100.6C227.5 100.6 227.1 102.2 227.5 105.8C227.9 109.9 228.8 111.8 228.8 111.8" stroke="black" stroke-width="5" stroke-miterlimit="10" stroke-linecap="square"/>
<path d="M244.8 99.1C244.8 99.1 244.4 100.7 244.8 104.3C245.2 108.4 246.1 110.3 246.1 110.3" fill="white"/>
<path d="M244.8 99.1C244.8 99.1 244.4 100.7 244.8 104.3C245.2 108.4 246.1 110.3 246.1 110.3" stroke="black" stroke-width="5" stroke-miterlimit="10" stroke-linecap="square"/>
<path d="M298.8 100.1C298.8 100.1 307.1 92.4 314.2 97.1C321.7 102.1 322.2 110.9 319.5 116.5C314.7 126.3 303.5 124.4 303.5 124.4" stroke="black" stroke-width="5" stroke-miterlimit="10" stroke-linecap="square"/>
<path d="M194.8 106C194.8 106 182.9 100.8 181.3 113.3C178.9 131.8 192.9 131.9 192.9 131.9" stroke="black" stroke-width="5" stroke-miterlimit="10" stroke-linecap="square"/>
<path d="M275 131.6L280.1 152.5" stroke="black" stroke-width="5" stroke-miterlimit="10" stroke-linecap="square"/>
<path d="M246.7 146.2L249.5 159.6" stroke="black" stroke-width="5" stroke-miterlimit="10" stroke-linecap="square"/>
<path d="M206 73.7C199.2 72.1 190.9 73.4 189 80.2C187 86.9 193 91.1 190.1 94.7C187.2 98.3 177.2 97 177.2 97" stroke="black" stroke-width="5" stroke-miterlimit="10" stroke-linecap="square"/>
<path d="M225.7 78.3C225.7 78.3 235.2 76.2 236.8 81.2C238.4 86.3 231.3 92.7 231.3 92.7" stroke="black" stroke-width="5" stroke-miterlimit="10" stroke-linecap="square"/>
<path d="M245.4 76.8C245.4 76.8 248.1 69.9 252.9 72.3C257.8 74.7 257.4 82.3 257.4 82.3" stroke="black" stroke-width="5" stroke-miterlimit="10" stroke-linecap="square"/>
<path d="M280.2 82.2C280.2 82.2 275.4 85.1 276.1 89.9C276.9 94.7 288.3 91.4 289.8 96.8C291.3 102.2 286.5 105.3 286.5 105.3" stroke="black" stroke-width="5" stroke-miterlimit="10" stroke-linecap="square"/>
<path d="M314.4 86.8999C314.4 86.8999 319.6 79.8999 324.2 82.6999C328.8 85.4999 324.9 96.5999 335 94.9999C345.1 93.3999 340.5 86.5999 340.5 86.5999" stroke="black" stroke-width="5" stroke-miterlimit="10" stroke-linecap="square"/>
<path d="M210.5 65.1C210.5 65.1 221.6 62 230.4 61.1C240.2 60.2 252.3 62.3 252.3 62.3" stroke="black" stroke-width="5" stroke-miterlimit="10" stroke-linecap="square"/>
<path d="M198.7 64.6C198.7 64.6 206.4 51.1 214.6 49.4C222.5 47.5 250.5 44.4 272.6 48.5C294.7 52.6 305.1 60.3 307.8 65.3C310.5 70.3 311.9 78.5 303.9 80.6C303.9 80.6 294.8 73.4 285.9 69.7C277.8 66.3 266.6 64.1 266.6 64.1" stroke="black" stroke-width="5" stroke-miterlimit="10" stroke-linecap="square"/>
<path d="M215.3 47.3C215.3 47.3 232.7 20.3 258.6 20.9C284.6 21.5 305 52.1 305 52.1" stroke="black" stroke-width="5" stroke-miterlimit="10" stroke-linecap="square"/>
<path d="M288.2 301.6C290 300.5 261.7 315.4 261.8 320.4C261.8 325.1 304.4 316.9 311 310.8C317.8 304.8 312.8 298 312.8 298" stroke="black" stroke-width="5" stroke-miterlimit="10" stroke-linecap="square"/>
<path d="M295.8 204.3C295.8 204.3 313 220.9 326.9 240.9C337.5 256.4 311.9 285.3 311.9 285.3" stroke="black" stroke-width="5" stroke-miterlimit="10" stroke-linecap="square"/>
<path d="M301.2 176.8C301.2 176.8 347.5 210.6 350.2 243.7C353.2 269.4 337.1 286.4 337.1 286.4" stroke="black" stroke-width="5" stroke-miterlimit="10" stroke-linecap="square"/>
<path d="M287.5 157.4C287.5 157.4 309 157.8 316.2 178.5" stroke="black" stroke-width="5" stroke-miterlimit="10" stroke-linecap="square"/>
<path d="M247.4 170.5C247.4 170.5 251.3 180.6 262.2 178.9C273.1 177.2 277.1 163.7 277.1 163.7" stroke="black" stroke-width="5" stroke-miterlimit="10" stroke-linecap="square"/>
<path d="M117.6 444.9C117.6 444.9 89.2 421.4 83.2 425.5C77.1 429.4 95.1 462 99.7 468.1C109.2 480.9 110.4 487.4 127.3 466.2" stroke="black" stroke-width="5" stroke-miterlimit="10" stroke-linecap="square"/>
<path d="M314.6 310.7C314.6 310.7 297.1 316.8 282.1 326.2C267.1 335.6 242.1 354.8 242.1 354.8" stroke="black" stroke-width="5" stroke-miterlimit="10" stroke-linecap="square"/>
<path d="M145.8 471.6H268.9" stroke="black" stroke-width="5" stroke-miterlimit="10" stroke-linecap="square"/>
<path d="M235.1 329.1C235.1 329.1 241.1 338.5 237.2 352.5" stroke="black" stroke-width="5" stroke-miterlimit="10" stroke-linecap="square"/>
<path d="M236.8 422C236.8 422 235.5 434.5 238.5 439.7" stroke="black" stroke-width="5" stroke-miterlimit="10" stroke-linecap="square"/>
<path d="M207.3 436.2C207.3 436.2 208.7 446.8 201.4 447.9" stroke="black" stroke-width="5" stroke-miterlimit="10" stroke-linecap="square"/>
<path d="M342 294C342 294 359 325.6 319.1 360.5C307.7 370.5 266.4 386.4 266.4 386.4" stroke="black" stroke-width="5" stroke-miterlimit="10" stroke-linecap="square"/>
<path d="M240.7 326C240.7 326 249.5 333.1 259.7 332.8" stroke="black" stroke-width="5" stroke-miterlimit="10" stroke-linecap="square"/>
<path d="M345.6 326.1H371.4L408.6 282.2H356.1" stroke="black" stroke-width="5" stroke-miterlimit="10" stroke-linecap="square"/>
<path d="M363.1 334.8V436.2H371.1V334.8" stroke="black" stroke-width="5" stroke-miterlimit="10" stroke-linecap="square"/>
<path d="M274.4 383.8V436.2H282.4V383.8" stroke="black" stroke-width="5" stroke-miterlimit="10" stroke-linecap="square"/>
<path d="M402.8 304.2V390.9H410.8V292.2" stroke="black" stroke-width="5" stroke-miterlimit="10" stroke-linecap="square"/>
</svg>
