<svg width="500" height="500" viewBox="0 0 500 500" fill="none" xmlns="http://www.w3.org/2000/svg">
<path d="M290 229.8C290 229.8 301.4 232.9 300.7 238C300 243.2 287 271.9 278.2 275.5" stroke="black" stroke-width="3.8" stroke-miterlimit="10" stroke-linecap="square"/>
<path d="M272 248.3C272 248.3 256.3 249.2 206.9 249.1C157.3 249 155 246.1 155 246.1" stroke="black" stroke-width="3.8" stroke-miterlimit="10" stroke-linecap="square"/>
<path d="M272 266.8C272 266.8 225.6 267.1 181.4 267C137.2 267 151 265.2 151 265.2" stroke="black" stroke-width="3.8" stroke-miterlimit="10" stroke-linecap="square"/>
<path d="M203.1 281.3C203.1 281.3 213.6 277.5 232.4 275.1C251.4 272.8 265.5 276.7 265.5 276.7" stroke="black" stroke-width="3.8" stroke-miterlimit="10" stroke-linecap="square"/>
<path d="M175.9 45.7C175.9 45.7 171.3 52.5 174.3 72.9C178.6 103.2 194.8 155 192.1 179.1C192.5 197.2 188.8 210.6 188.8 210.6" stroke="black" stroke-width="3.8" stroke-miterlimit="10" stroke-linecap="square"/>
<path d="M238.1 212C238.1 212 231.3 215.6 220.5 216.8C209.7 218 197 213.1 197 213.1" stroke="black" stroke-width="3.8" stroke-miterlimit="10" stroke-linecap="square"/>
<path d="M371.1 216.4C371.1 216.4 361.4 186.6 333.6 188.5C305.6 190.2 312.6 237 312.6 237" stroke="black" stroke-width="3.8" stroke-miterlimit="10" stroke-linecap="square"/>
<path d="M350.5 220.3C350.5 220.3 349.5 219.7 346.7 219C343.4 218.2 341.9 218.4 341.9 218.4" fill="white"/>
<path d="M350.5 220.3C350.5 220.3 349.5 219.7 346.7 219C343.4 218.2 341.9 218.4 341.9 218.4" stroke="black" stroke-width="3.8" stroke-miterlimit="10" stroke-linecap="square"/>
<path d="M347.2 233.4C347.2 233.4 346.2 232.8 343.4 232.1C340.1 231.3 338.6 231.5 338.6 231.5" fill="white"/>
<path d="M347.2 233.4C347.2 233.4 346.2 232.8 343.4 232.1C340.1 231.3 338.6 231.5 338.6 231.5" stroke="black" stroke-width="3.8" stroke-miterlimit="10" stroke-linecap="square"/>
<path d="M332.6 273.4C332.6 273.4 336.2 281.5 331.1 285.6C325.4 290 318.7 287.9 315.4 284.5C309.4 278.4 313.6 270.6 313.6 270.6" stroke="black" stroke-width="3.8" stroke-miterlimit="10" stroke-linecap="square"/>
<path d="M354.9 194.5C354.9 194.5 361.8 187 353 182.7C339.8 176.2 336.1 186.5 336.1 186.5" stroke="black" stroke-width="3.8" stroke-miterlimit="10" stroke-linecap="square"/>
<path d="M301.6 271.1L284.8 270.9" stroke="black" stroke-width="3.8" stroke-miterlimit="10" stroke-linecap="square"/>
<path d="M309.7 248.3L299.1 247" stroke="black" stroke-width="3.8" stroke-miterlimit="10" stroke-linecap="square"/>
<path d="M372.4 234.1L366.5 225.1" stroke="black" stroke-width="3.8" stroke-miterlimit="10" stroke-linecap="square"/>
<path d="M370.4 245.1L364.6 244.2" stroke="black" stroke-width="3.8" stroke-miterlimit="10" stroke-linecap="square"/>
<path d="M364.8 256.3L351 259.3" stroke="black" stroke-width="3.8" stroke-miterlimit="10" stroke-linecap="square"/>
<path d="M391.1 244.5C391.1 244.5 408.8 223.7 398.2 204.6C387.5 185.5 364.4 183.6 364.4 183.6" stroke="black" stroke-width="3.8" stroke-miterlimit="10" stroke-linecap="square"/>
<path d="M389 254.5C389 254.5 386 291.1 364.8 295.3C348.2 298.7 333.7 292.3 333.7 292.3" stroke="black" stroke-width="3.8" stroke-miterlimit="10" stroke-linecap="square"/>
<path d="M170.2 44.2C170.2 44.2 172.8 38.4 173.3 33C173.7 27.5 171.5 15.4 167.1 13.8C162.7 12.2 157.6 20.6 155.9 29.7C154.3 38.8 155.2 45.8 155.2 45.8" stroke="black" stroke-width="3.8" stroke-miterlimit="10" stroke-linecap="square"/>
<path d="M133.4 236.4C133.4 236.4 127.3 221.7 129.8 198.5C134.2 162 151.3 104.9 148.6 76.2999C147.3 62.1999 143.9 45.2999 143.9 45.2999" stroke="black" stroke-width="3.8" stroke-miterlimit="10" stroke-linecap="square"/>
<path d="M143.8 245.9C143.8 245.9 136 242.3 124.7 244.7C113.4 247 113 249.4 112.8 253.1C112.6 256.8 155.9 258.6 155.9 258.6" stroke="black" stroke-width="3.8" stroke-miterlimit="10" stroke-linecap="square"/>
<path d="M136.5 261.6C136.5 261.6 139.1 266.1 143.3 266.1" stroke="black" stroke-width="3.6" stroke-miterlimit="10" stroke-linecap="square"/>
<path d="M246 208.1C246.8 208.1 254.6 204.5 261.5 206.6C268.3 208.7 284.7 223.9 284.7 223.9" stroke="black" stroke-width="3.8" stroke-miterlimit="10" stroke-linecap="square"/>
<path d="M192.4 218.8C192.4 218.8 189.5 222.6 188 227.9C186.5 233.2 186.5 247.7 186.5 247.7" stroke="black" stroke-width="3.8" stroke-miterlimit="10" stroke-linecap="square"/>
<path d="M353.6 419.4C353.6 419.4 365 422.5 364.3 427.6C363.6 432.8 350.6 461.5 341.8 465.1" stroke="black" stroke-width="3.8" stroke-miterlimit="10" stroke-linecap="square"/>
<path d="M335.7 438C335.7 438 320 438.9 270.6 438.8C221 438.7 218.7 435.8 218.7 435.8" stroke="black" stroke-width="3.8" stroke-miterlimit="10" stroke-linecap="square"/>
<path d="M335.7 456.5C335.7 456.5 289.3 456.8 245.1 456.7C200.9 456.7 214.7 454.9 214.7 454.9" stroke="black" stroke-width="3.8" stroke-miterlimit="10" stroke-linecap="square"/>
<path d="M266.8 470.9C266.8 470.9 277.3 467.1 296.1 464.7C315.1 462.4 329.2 466.3 329.2 466.3" stroke="black" stroke-width="3.8" stroke-miterlimit="10" stroke-linecap="square"/>
<path d="M301.7 401.7C301.7 401.7 294.9 405.3 284.1 406.5C273.3 407.7 260.6 402.8 260.6 402.8" stroke="black" stroke-width="3.8" stroke-miterlimit="10" stroke-linecap="square"/>
<path d="M434.8 406C434.8 406 425.1 376.2 397.3 378.1C369.3 379.8 376.3 426.6 376.3 426.6" stroke="black" stroke-width="3.8" stroke-miterlimit="10" stroke-linecap="square"/>
<path d="M414.1 410C414.1 410 413.1 409.4 410.3 408.7C407 407.9 405.5 408.1 405.5 408.1" fill="white"/>
<path d="M414.1 410C414.1 410 413.1 409.4 410.3 408.7C407 407.9 405.5 408.1 405.5 408.1" stroke="black" stroke-width="3.8" stroke-miterlimit="10" stroke-linecap="square"/>
<path d="M410.9 423.1C410.9 423.1 409.9 422.5 407.1 421.8C403.8 421 402.3 421.2 402.3 421.2" fill="white"/>
<path d="M410.9 423.1C410.9 423.1 409.9 422.5 407.1 421.8C403.8 421 402.3 421.2 402.3 421.2" stroke="black" stroke-width="3.8" stroke-miterlimit="10" stroke-linecap="square"/>
<path d="M396.3 463.1C396.3 463.1 399.9 471.2 394.8 475.3C389.1 479.7 382.4 477.6 379.1 474.2C373.1 468.1 377.3 460.3 377.3 460.3" stroke="black" stroke-width="3.8" stroke-miterlimit="10" stroke-linecap="square"/>
<path d="M418.6 384.1C418.6 384.1 425.5 376.6 416.7 372.3C403.5 365.8 399.8 376.1 399.8 376.1" stroke="black" stroke-width="3.8" stroke-miterlimit="10" stroke-linecap="square"/>
<path d="M365.3 460.8L348.5 460.5" stroke="black" stroke-width="3.8" stroke-miterlimit="10" stroke-linecap="square"/>
<path d="M373.4 438L362.8 436.6" stroke="black" stroke-width="3.8" stroke-miterlimit="10" stroke-linecap="square"/>
<path d="M436.1 423.8L430.1 414.8" stroke="black" stroke-width="3.8" stroke-miterlimit="10" stroke-linecap="square"/>
<path d="M434.1 434.8L428.3 433.9" stroke="black" stroke-width="3.8" stroke-miterlimit="10" stroke-linecap="square"/>
<path d="M428.5 446L414.7 448.9" stroke="black" stroke-width="3.8" stroke-miterlimit="10" stroke-linecap="square"/>
<path d="M454.8 434.2C454.8 434.2 472.5 413.4 461.9 394.3C451.2 375.2 428.1 373.3 428.1 373.3" stroke="black" stroke-width="3.8" stroke-miterlimit="10" stroke-linecap="square"/>
<path d="M452.7 444.1C452.7 444.1 449.7 480.7 428.5 484.9C411.9 488.3 397.4 481.9 397.4 481.9" stroke="black" stroke-width="3.8" stroke-miterlimit="10" stroke-linecap="square"/>
<path d="M207.5 435.6C207.5 435.6 199.7 432 188.4 434.4C177.1 436.7 176.7 439.1 176.5 442.8C176.3 446.5 219.6 448.3 219.6 448.3" stroke="black" stroke-width="3.8" stroke-miterlimit="10" stroke-linecap="square"/>
<path d="M200.1 451.2C200.1 451.2 202.7 455.7 206.9 455.7" stroke="black" stroke-width="3.6" stroke-miterlimit="10" stroke-linecap="square"/>
<path d="M309.7 397.8C310.5 397.8 318.3 394.2 325.2 396.3C332 398.4 348.4 413.6 348.4 413.6" stroke="black" stroke-width="3.8" stroke-miterlimit="10" stroke-linecap="square"/>
<path d="M256.1 408.5C256.1 408.5 253.2 412.3 251.7 417.6C250.2 422.9 250.2 437.4 250.2 437.4" stroke="black" stroke-width="3.8" stroke-miterlimit="10" stroke-linecap="square"/>
<path d="M248.2 404.2C248.2 404.2 232.2 399.4 207 399.3C181.8 399.3 139.1 413.5 99.3 413.5C59.5 413.5 57 401.6 57 401.6" stroke="black" stroke-width="3.8" stroke-miterlimit="10" stroke-linecap="square"/>
<path d="M56.9 438.8C56.9 438.8 82.9 435.9 96.5 435.8C110.1 435.7 145.1 441.5 163.4 440.9" stroke="black" stroke-width="3.8" stroke-miterlimit="10" stroke-linecap="square"/>
<path d="M56.9 415.9C56.9 415.9 45.2 405 44.4 393.6C43.6 382.2 36.9 379.2 35.4 401.7C33.9 424.2 35 428.5 39.7 428.5H55" stroke="black" stroke-width="3.8" stroke-miterlimit="10" stroke-linecap="square"/>
<path d="M211.4 314.1V352.9" stroke="black" stroke-width="3.5" stroke-miterlimit="10" stroke-linecap="square"/>
<path d="M195.9 344.2L211.1 356.1L227.5 344.2" stroke="black" stroke-width="3.5" stroke-miterlimit="10" stroke-linecap="square"/>
<path d="M256.7 352.3V313.5" stroke="black" stroke-width="3.5" stroke-miterlimit="10" stroke-linecap="square"/>
<path d="M241.1 322.3L256.3 310.3L272.8 322.3" stroke="black" stroke-width="3.5" stroke-miterlimit="10" stroke-linecap="square"/>
</svg>
