<svg width="500" height="500" viewBox="0 0 500 500" fill="none" xmlns="http://www.w3.org/2000/svg">
<path d="M358.5 295.5C358.5 295.5 370.5 301.1 368.7 306.8C366.9 312.4 346.7 341.8 336.3 344" stroke="black" stroke-width="4.3" stroke-miterlimit="10" stroke-linecap="square"/>
<path d="M335.7 315.5C335.7 315.5 318 316.6 262.2 316.4C209 313.1 203.6 313.1 203.6 313.1" stroke="black" stroke-width="4.3" stroke-miterlimit="10" stroke-linecap="square"/>
<path d="M335.6 336.4C335.6 336.4 283.3 336.8 233.4 336.7C201.2 336.7 187.7 333.3 187.7 333.3" stroke="black" stroke-width="4.3" stroke-miterlimit="10" stroke-linecap="square"/>
<path d="M304.2 265.4C304.2 265.4 295.9 268.1 283.7 267.3C271.5 266.5 258.3 258.5 258.3 258.5" stroke="black" stroke-width="4.3" stroke-miterlimit="10" stroke-linecap="square"/>
<path d="M428.8 248.9C428.8 248.9 408.6 220 379.1 231.1C349.4 242.2 372.5 290.4 372.5 290.4" stroke="black" stroke-width="4.3" stroke-miterlimit="10" stroke-linecap="square"/>
<path d="M407.8 259.9C407.8 259.9 405.6 259.4 403.3 259.7C399.5 260 397.9 260.7 397.9 260.7" fill="white"/>
<path d="M407.8 259.9C407.8 259.9 405.6 259.4 403.3 259.7C399.5 260 397.9 260.7 397.9 260.7" stroke="black" stroke-width="4.3" stroke-miterlimit="10" stroke-linecap="square"/>
<path d="M408.6 275.2C408.6 275.2 406.5 275 404.1 275C400.3 275.3 398.7 276 398.7 276" fill="white"/>
<path d="M408.6 275.2C408.6 275.2 406.5 275 404.1 275C400.3 275.3 398.7 276 398.7 276" stroke="black" stroke-width="4.3" stroke-miterlimit="10" stroke-linecap="square"/>
<path d="M406.1 323.2C406.1 323.2 412.7 330.8 408.5 336.9C403.8 343.5 395.9 343.5 391.1 341C382.5 336.4 384.6 326.6 384.6 326.6" stroke="black" stroke-width="4.3" stroke-miterlimit="10" stroke-linecap="square"/>
<path d="M404.1 230.5C404.1 230.5 409.1 220.1 398.1 218.4C381.7 215.8 381.2 228.1 381.2 228.1" stroke="black" stroke-width="4.3" stroke-miterlimit="10" stroke-linecap="square"/>
<path d="M382.4 319.6L355.1 329.6" stroke="black" stroke-width="4.3" stroke-miterlimit="10" stroke-linecap="square"/>
<path d="M377.8 295.6L366.7 300.2" stroke="black" stroke-width="4.3" stroke-miterlimit="10" stroke-linecap="square"/>
<path d="M436.1 267.6L426.7 259.8" stroke="black" stroke-width="4.3" stroke-miterlimit="10" stroke-linecap="square"/>
<path d="M437.6 280.2L431 281.1" stroke="black" stroke-width="4.3" stroke-miterlimit="10" stroke-linecap="square"/>
<path d="M435.2 294.1L421.4 301.9" stroke="black" stroke-width="4.3" stroke-miterlimit="10" stroke-linecap="square"/>
<path d="M459.8 272.6C459.8 272.6 472.1 244.3 454.3 227.2C436.5 210.1 410.8 215.6 410.8 215.6" stroke="black" stroke-width="4.3" stroke-miterlimit="10" stroke-linecap="square"/>
<path d="M190.9 312.8C190.9 312.8 182 308.8 169.3 311.4C156.6 314 156 316.7 155.8 320.9C155.5 325.1 204.4 327.1 204.4 327.1" stroke="black" stroke-width="4.3" stroke-miterlimit="10" stroke-linecap="square"/>
<path d="M313.9 262.7C317.4 262.2 324.2 260.4 331.4 264.1C338.5 267.7 353.8 287.9 353.8 287.9" stroke="black" stroke-width="4.3" stroke-miterlimit="10" stroke-linecap="square"/>
<path d="M249.1 263.1C249.1 263.1 243.4 267.5 238.9 275C236.3 280.7 232.1 294.9 232.1 294.9" stroke="black" stroke-width="4.3" stroke-miterlimit="10" stroke-linecap="square"/>
<path d="M230.4 301.3C230.4 301.3 245.7 305.8 252.5 315.3" stroke="black" stroke-width="4.3" stroke-miterlimit="10" stroke-linecap="square"/>
<path d="M222 297.6C222 297.6 175.4 294.6 155.7 282.9C136 271.1 115.3 239 115.3 239" stroke="black" stroke-width="4.3" stroke-miterlimit="10" stroke-linecap="square"/>
<path d="M151.3 214.1C151.3 214.1 144.8 198.6 159.4 194.7C174 190.7 195.6 203.2 211.8 214C228.1 224.8 252.3 247.8 252.3 247.8" stroke="black" stroke-width="4.3" stroke-miterlimit="10" stroke-linecap="square"/>
<path d="M48.9 152.7C48.9 152.7 45 147.3 45.2 142.6C45.4 137.9 60.1 122.2 48.9 125.3C37.6 128.4 22.4 146.7 21 155.5C19.6 164.3 33.5 170.1 33.5 170.1" stroke="black" stroke-width="4.3" stroke-miterlimit="10" stroke-linecap="square"/>
<path d="M146.3 279C146.3 279 149.8 294.9 140.3 302.3C130.8 309.7 115.1 304.6 124.8 311C134.5 317.4 159.4 314.6 166.7 309.3C174 304 169 290 169 290" stroke="black" stroke-width="4.3" stroke-miterlimit="10" stroke-linecap="square"/>
<path d="M460.1 282.7C460.1 282.7 467.8 294.2 468.8 303.4C469.8 312.6 467.5 318.4 467.5 318.4" stroke="black" stroke-width="4.3" stroke-miterlimit="10" stroke-linecap="square"/>
<path d="M413.7 322.2C413.7 322.2 432.9 315.7 449.9 319C467 322.3 477.6 331.2 477.6 331.2C477.6 331.2 474.1 335.1 473.5 339.7C472.9 344.3 474 354 474 354C474 354 448.7 358.7 410.6 359C371.7 359.4 351.8 351.3 351.8 351.3C351.8 351.3 353.2 340.5 355.1 337.5" stroke="black" stroke-width="4.3" stroke-miterlimit="10" stroke-linecap="square"/>
<path d="M199.5 305V270.8" stroke="black" stroke-width="4.2" stroke-miterlimit="10" stroke-linecap="square"/>
<path d="M186.4 279.6L199.5 266.6L210.8 279.6" stroke="black" stroke-width="4.2" stroke-miterlimit="10" stroke-linecap="square"/>
<path d="M216.5 259.5C216.5 259.5 189 238.6 168.6 229.5C148.2 220.4 130.8 214.1 124.5 209.5C118.2 204.9 99 186.1 86.7 179.6C74.4 173.1 63.7 168.9 59 159.9C54.3 150.9 55.4 138.8 55.4 138.8" stroke="black" stroke-width="4.3" stroke-miterlimit="10" stroke-linecap="square"/>
<path d="M29.1 180.4C29.1 180.4 46 176.5 53.5 181.2C61 185.9 63.6 198.1 80.3 210.2C96.9 222.3 102.1 219.3 109.2 231.9" stroke="black" stroke-width="4.3" stroke-miterlimit="10" stroke-linecap="square"/>
</svg>
