<svg width="928" height="51" viewBox="0 0 928 51" fill="none" xmlns="http://www.w3.org/2000/svg">
<path d="M0.901953 40V5H16.802C20.602 5 23.952 5.73333 26.852 7.2C29.752 8.63333 32.0186 10.65 33.652 13.25C35.2853 15.85 36.102 18.9333 36.102 22.5C36.102 26.0333 35.2853 29.1167 33.652 31.75C32.0186 34.35 29.752 36.3833 26.852 37.85C23.952 39.2833 20.602 40 16.802 40H0.901953ZM9.00195 33.35H16.402C18.7353 33.35 20.752 32.9167 22.452 32.05C24.1853 31.15 25.5186 29.8833 26.452 28.25C27.4186 26.6167 27.902 24.7 27.902 22.5C27.902 20.2667 27.4186 18.35 26.452 16.75C25.5186 15.1167 24.1853 13.8667 22.452 13C20.752 12.1 18.7353 11.65 16.402 11.65H9.00195V33.35ZM54.4605 40.4C51.5939 40.4 49.0439 39.8 46.8105 38.6C44.6105 37.4 42.8605 35.7667 41.5605 33.7C40.2939 31.6 39.6605 29.2167 39.6605 26.55C39.6605 23.85 40.2939 21.4667 41.5605 19.4C42.8605 17.3 44.6105 15.6667 46.8105 14.5C49.0439 13.3 51.5939 12.7 54.4605 12.7C57.2939 12.7 59.8272 13.3 62.0605 14.5C64.2939 15.6667 66.0439 17.2833 67.3105 19.35C68.5772 21.4167 69.2105 23.8167 69.2105 26.55C69.2105 29.2167 68.5772 31.6 67.3105 33.7C66.0439 35.7667 64.2939 37.4 62.0605 38.6C59.8272 39.8 57.2939 40.4 54.4605 40.4ZM54.4605 34C55.7605 34 56.9272 33.7 57.9605 33.1C58.9939 32.5 59.8105 31.65 60.4105 30.55C61.0105 29.4167 61.3105 28.0833 61.3105 26.55C61.3105 24.9833 61.0105 23.65 60.4105 22.55C59.8105 21.45 58.9939 20.6 57.9605 20C56.9272 19.4 55.7605 19.1 54.4605 19.1C53.1605 19.1 51.9939 19.4 50.9605 20C49.9272 20.6 49.0939 21.45 48.4605 22.55C47.8605 23.65 47.5605 24.9833 47.5605 26.55C47.5605 28.0833 47.8605 29.4167 48.4605 30.55C49.0939 31.65 49.9272 32.5 50.9605 33.1C51.9939 33.7 53.1605 34 54.4605 34ZM91.9844 50.1C90.5844 50.1 89.201 49.8833 87.8344 49.45C86.4677 49.0167 85.351 48.4167 84.4844 47.65L87.3344 42.1C87.9344 42.6333 88.6177 43.05 89.3844 43.35C90.1844 43.65 90.9677 43.8 91.7344 43.8C92.8344 43.8 93.701 43.5333 94.3344 43C95.001 42.5 95.601 41.65 96.1344 40.45L97.5344 37.15L98.1344 36.3L107.784 13.1H115.284L103.134 41.65C102.268 43.8167 101.268 45.5167 100.134 46.75C99.0344 47.9833 97.801 48.85 96.4344 49.35C95.101 49.85 93.6177 50.1 91.9844 50.1ZM96.5844 41.05L84.5844 13.1H92.6344L101.934 35.6L96.5844 41.05ZM130.535 40.4C127.668 40.4 125.118 39.8 122.885 38.6C120.685 37.4 118.935 35.7667 117.635 33.7C116.368 31.6 115.735 29.2167 115.735 26.55C115.735 23.85 116.368 21.4667 117.635 19.4C118.935 17.3 120.685 15.6667 122.885 14.5C125.118 13.3 127.668 12.7 130.535 12.7C133.368 12.7 135.901 13.3 138.135 14.5C140.368 15.6667 142.118 17.2833 143.385 19.35C144.651 21.4167 145.285 23.8167 145.285 26.55C145.285 29.2167 144.651 31.6 143.385 33.7C142.118 35.7667 140.368 37.4 138.135 38.6C135.901 39.8 133.368 40.4 130.535 40.4ZM130.535 34C131.835 34 133.001 33.7 134.035 33.1C135.068 32.5 135.885 31.65 136.485 30.55C137.085 29.4167 137.385 28.0833 137.385 26.55C137.385 24.9833 137.085 23.65 136.485 22.55C135.885 21.45 135.068 20.6 134.035 20C133.001 19.4 131.835 19.1 130.535 19.1C129.235 19.1 128.068 19.4 127.035 20C126.001 20.6 125.168 21.45 124.535 22.55C123.935 23.65 123.635 24.9833 123.635 26.55C123.635 28.0833 123.935 29.4167 124.535 30.55C125.168 31.65 126.001 32.5 127.035 33.1C128.068 33.7 129.235 34 130.535 34ZM161.848 40.4C159.615 40.4 157.615 39.9667 155.848 39.1C154.115 38.2333 152.765 36.9167 151.798 35.15C150.832 33.35 150.348 31.0667 150.348 28.3V13.1H158.148V27.15C158.148 29.3833 158.615 31.0333 159.548 32.1C160.515 33.1333 161.865 33.65 163.598 33.65C164.798 33.65 165.865 33.4 166.798 32.9C167.732 32.3667 168.465 31.5667 168.998 30.5C169.532 29.4 169.798 28.0333 169.798 26.4V13.1H177.598V40H170.198V32.6L171.548 34.75C170.648 36.6167 169.315 38.0333 167.548 39C165.815 39.9333 163.915 40.4 161.848 40.4ZM215.335 12.7C217.468 12.7 219.368 13.1333 221.035 14C222.735 14.8333 224.068 16.1333 225.035 17.9C226.001 19.6333 226.485 21.8667 226.485 24.6V40H218.685V25.8C218.685 23.6333 218.201 22.0333 217.235 21C216.301 19.9667 214.968 19.45 213.235 19.45C212.001 19.45 210.885 19.7167 209.885 20.25C208.918 20.75 208.151 21.5333 207.585 22.6C207.051 23.6667 206.785 25.0333 206.785 26.7V40H198.985V2.9H206.785V20.55L205.035 18.3C206.001 16.5 207.385 15.1167 209.185 14.15C210.985 13.1833 213.035 12.7 215.335 12.7ZM250.055 40V34.75L249.555 33.6V24.2C249.555 22.5333 249.038 21.2333 248.005 20.3C247.005 19.3667 245.455 18.9 243.355 18.9C241.922 18.9 240.505 19.1333 239.105 19.6C237.738 20.0333 236.572 20.6333 235.605 21.4L232.805 15.95C234.272 14.9167 236.038 14.1167 238.105 13.55C240.172 12.9833 242.272 12.7 244.405 12.7C248.505 12.7 251.688 13.6667 253.955 15.6C256.222 17.5333 257.355 20.55 257.355 24.65V40H250.055ZM241.855 40.4C239.755 40.4 237.955 40.05 236.455 39.35C234.955 38.6167 233.805 37.6333 233.005 36.4C232.205 35.1667 231.805 33.7833 231.805 32.25C231.805 30.65 232.188 29.25 232.955 28.05C233.755 26.85 235.005 25.9167 236.705 25.25C238.405 24.55 240.622 24.2 243.355 24.2H250.505V28.75H244.205C242.372 28.75 241.105 29.05 240.405 29.65C239.738 30.25 239.405 31 239.405 31.9C239.405 32.9 239.788 33.7 240.555 34.3C241.355 34.8667 242.438 35.15 243.805 35.15C245.105 35.15 246.272 34.85 247.305 34.25C248.338 33.6167 249.088 32.7 249.555 31.5L250.755 35.1C250.188 36.8333 249.155 38.15 247.655 39.05C246.155 39.95 244.222 40.4 241.855 40.4ZM271.226 40L259.926 13.1H267.976L277.376 36.25H273.376L283.126 13.1H290.626L279.276 40H271.226ZM306.427 40.4C303.36 40.4 300.66 39.8 298.327 38.6C296.027 37.4 294.243 35.7667 292.977 33.7C291.71 31.6 291.077 29.2167 291.077 26.55C291.077 23.85 291.693 21.4667 292.927 19.4C294.193 17.3 295.91 15.6667 298.077 14.5C300.243 13.3 302.693 12.7 305.427 12.7C308.06 12.7 310.427 13.2667 312.527 14.4C314.66 15.5 316.343 17.1 317.577 19.2C318.81 21.2667 319.427 23.75 319.427 26.65C319.427 26.95 319.41 27.3 319.377 27.7C319.343 28.0667 319.31 28.4167 319.277 28.75H297.427V24.2H315.177L312.177 25.55C312.177 24.15 311.893 22.9333 311.327 21.9C310.76 20.8667 309.977 20.0667 308.977 19.5C307.977 18.9 306.81 18.6 305.477 18.6C304.143 18.6 302.96 18.9 301.927 19.5C300.927 20.0667 300.143 20.8833 299.577 21.95C299.01 22.9833 298.727 24.2167 298.727 25.65V26.85C298.727 28.3167 299.043 29.6167 299.677 30.75C300.343 31.85 301.26 32.7 302.427 33.3C303.627 33.8667 305.027 34.15 306.627 34.15C308.06 34.15 309.31 33.9333 310.377 33.5C311.477 33.0667 312.477 32.4167 313.377 31.55L317.527 36.05C316.293 37.45 314.743 38.5333 312.877 39.3C311.01 40.0333 308.86 40.4 306.427 40.4ZM355.28 40V34.75L354.78 33.6V24.2C354.78 22.5333 354.263 21.2333 353.23 20.3C352.23 19.3667 350.68 18.9 348.58 18.9C347.146 18.9 345.73 19.1333 344.33 19.6C342.963 20.0333 341.796 20.6333 340.83 21.4L338.03 15.95C339.496 14.9167 341.263 14.1167 343.33 13.55C345.396 12.9833 347.496 12.7 349.63 12.7C353.73 12.7 356.913 13.6667 359.18 15.6C361.446 17.5333 362.58 20.55 362.58 24.65V40H355.28ZM347.08 40.4C344.98 40.4 343.18 40.05 341.68 39.35C340.18 38.6167 339.03 37.6333 338.23 36.4C337.43 35.1667 337.03 33.7833 337.03 32.25C337.03 30.65 337.413 29.25 338.18 28.05C338.98 26.85 340.23 25.9167 341.93 25.25C343.63 24.55 345.846 24.2 348.58 24.2H355.73V28.75H349.43C347.596 28.75 346.33 29.05 345.63 29.65C344.963 30.25 344.63 31 344.63 31.9C344.63 32.9 345.013 33.7 345.78 34.3C346.58 34.8667 347.663 35.15 349.03 35.15C350.33 35.15 351.496 34.85 352.53 34.25C353.563 33.6167 354.313 32.7 354.78 31.5L355.98 35.1C355.413 36.8333 354.38 38.15 352.88 39.05C351.38 39.95 349.446 40.4 347.08 40.4ZM385.989 12.7C388.122 12.7 390.022 13.1333 391.689 14C393.389 14.8333 394.722 16.1333 395.689 17.9C396.656 19.6333 397.139 21.8667 397.139 24.6V40H389.339V25.8C389.339 23.6333 388.856 22.0333 387.889 21C386.956 19.9667 385.622 19.45 383.889 19.45C382.656 19.45 381.539 19.7167 380.539 20.25C379.572 20.75 378.806 21.5333 378.239 22.6C377.706 23.6667 377.439 25.0333 377.439 26.7V40H369.639V13.1H377.089V20.55L375.689 18.3C376.656 16.5 378.039 15.1167 379.839 14.15C381.639 13.1833 383.689 12.7 385.989 12.7ZM407.121 50.1C405.721 50.1 404.338 49.8833 402.971 49.45C401.604 49.0167 400.488 48.4167 399.621 47.65L402.471 42.1C403.071 42.6333 403.754 43.05 404.521 43.35C405.321 43.65 406.104 43.8 406.871 43.8C407.971 43.8 408.838 43.5333 409.471 43C410.138 42.5 410.738 41.65 411.271 40.45L412.671 37.15L413.271 36.3L422.921 13.1H430.421L418.271 41.65C417.404 43.8167 416.404 45.5167 415.271 46.75C414.171 47.9833 412.938 48.85 411.571 49.35C410.238 49.85 408.754 50.1 407.121 50.1ZM411.721 41.05L399.721 13.1H407.771L417.071 35.6L411.721 41.05ZM448.714 40V12.5C448.714 9.46667 449.614 7.05 451.414 5.25C453.214 3.41666 455.781 2.5 459.114 2.5C460.247 2.5 461.331 2.61666 462.364 2.85C463.431 3.08333 464.331 3.45 465.064 3.95L463.014 9.6C462.581 9.3 462.097 9.06666 461.564 8.9C461.031 8.73333 460.464 8.65 459.864 8.65C458.731 8.65 457.847 8.98333 457.214 9.65C456.614 10.2833 456.314 11.25 456.314 12.55V15.05L456.514 18.4V40H448.714ZM444.564 19.7V13.7H463.214V19.7H444.564ZM478.45 40.4C476.217 40.4 474.217 39.9667 472.45 39.1C470.717 38.2333 469.367 36.9167 468.4 35.15C467.433 33.35 466.95 31.0667 466.95 28.3V13.1H474.75V27.15C474.75 29.3833 475.217 31.0333 476.15 32.1C477.117 33.1333 478.467 33.65 480.2 33.65C481.4 33.65 482.467 33.4 483.4 32.9C484.333 32.3667 485.067 31.5667 485.6 30.5C486.133 29.4 486.4 28.0333 486.4 26.4V13.1H494.2V40H486.8V32.6L488.15 34.75C487.25 36.6167 485.917 38.0333 484.15 39C482.417 39.9333 480.517 40.4 478.45 40.4ZM501.426 40V13.1H508.876V20.7L507.826 18.5C508.626 16.6 509.91 15.1667 511.676 14.2C513.443 13.2 515.593 12.7 518.126 12.7V19.9C517.793 19.8667 517.493 19.85 517.226 19.85C516.96 19.8167 516.676 19.8 516.376 19.8C514.243 19.8 512.51 20.4167 511.176 21.65C509.876 22.85 509.226 24.7333 509.226 27.3V40H501.426ZM534.692 40.4C531.525 40.4 529.058 39.6 527.292 38C525.525 36.3667 524.642 33.95 524.642 30.75V7.15H532.442V30.65C532.442 31.7833 532.742 32.6667 533.342 33.3C533.942 33.9 534.758 34.2 535.792 34.2C537.025 34.2 538.075 33.8667 538.942 33.2L541.042 38.7C540.242 39.2667 539.275 39.7 538.142 40C537.042 40.2667 535.892 40.4 534.692 40.4ZM520.492 19.7V13.7H539.142V19.7H520.492ZM561.77 12.7C563.904 12.7 565.804 13.1333 567.47 14C569.17 14.8333 570.504 16.1333 571.47 17.9C572.437 19.6333 572.92 21.8667 572.92 24.6V40H565.12V25.8C565.12 23.6333 564.637 22.0333 563.67 21C562.737 19.9667 561.404 19.45 559.67 19.45C558.437 19.45 557.32 19.7167 556.32 20.25C555.354 20.75 554.587 21.5333 554.02 22.6C553.487 23.6667 553.22 25.0333 553.22 26.7V40H545.42V2.9H553.22V20.55L551.47 18.3C552.437 16.5 553.82 15.1167 555.62 14.15C557.42 13.1833 559.47 12.7 561.77 12.7ZM593.536 40.4C590.469 40.4 587.769 39.8 585.436 38.6C583.136 37.4 581.353 35.7667 580.086 33.7C578.819 31.6 578.186 29.2167 578.186 26.55C578.186 23.85 578.803 21.4667 580.036 19.4C581.303 17.3 583.019 15.6667 585.186 14.5C587.353 13.3 589.803 12.7 592.536 12.7C595.169 12.7 597.536 13.2667 599.636 14.4C601.769 15.5 603.453 17.1 604.686 19.2C605.919 21.2667 606.536 23.75 606.536 26.65C606.536 26.95 606.519 27.3 606.486 27.7C606.453 28.0667 606.419 28.4167 606.386 28.75H584.536V24.2H602.286L599.286 25.55C599.286 24.15 599.003 22.9333 598.436 21.9C597.869 20.8667 597.086 20.0667 596.086 19.5C595.086 18.9 593.919 18.6 592.586 18.6C591.253 18.6 590.069 18.9 589.036 19.5C588.036 20.0667 587.253 20.8833 586.686 21.95C586.119 22.9833 585.836 24.2167 585.836 25.65V26.85C585.836 28.3167 586.153 29.6167 586.786 30.75C587.453 31.85 588.369 32.7 589.536 33.3C590.736 33.8667 592.136 34.15 593.736 34.15C595.169 34.15 596.419 33.9333 597.486 33.5C598.586 33.0667 599.586 32.4167 600.486 31.55L604.636 36.05C603.403 37.45 601.853 38.5333 599.986 39.3C598.119 40.0333 595.969 40.4 593.536 40.4ZM611.729 40V13.1H619.179V20.7L618.129 18.5C618.929 16.6 620.212 15.1667 621.979 14.2C623.746 13.2 625.896 12.7 628.429 12.7V19.9C628.096 19.8667 627.796 19.85 627.529 19.85C627.262 19.8167 626.979 19.8 626.679 19.8C624.546 19.8 622.812 20.4167 621.479 21.65C620.179 22.85 619.529 24.7333 619.529 27.3V40H611.729ZM658.872 40.4C656.339 40.4 654.056 39.8333 652.022 38.7C649.989 37.5667 648.372 35.9667 647.172 33.9C646.006 31.8333 645.422 29.3833 645.422 26.55C645.422 23.75 646.006 21.3167 647.172 19.25C648.372 17.1833 649.989 15.5833 652.022 14.45C654.056 13.2833 656.339 12.7 658.872 12.7C661.239 12.7 663.256 13.2 664.922 14.2C666.622 15.2 667.922 16.7167 668.822 18.75C669.722 20.7833 670.172 23.3833 670.172 26.55C670.172 29.6833 669.706 32.2833 668.772 34.35C667.839 36.3833 666.522 37.9 664.822 38.9C663.122 39.9 661.139 40.4 658.872 40.4ZM660.222 34C661.489 34 662.639 33.7 663.672 33.1C664.706 32.5 665.522 31.65 666.122 30.55C666.756 29.4167 667.072 28.0833 667.072 26.55C667.072 24.9833 666.756 23.65 666.122 22.55C665.522 21.45 664.706 20.6 663.672 20C662.639 19.4 661.489 19.1 660.222 19.1C658.922 19.1 657.756 19.4 656.722 20C655.689 20.6 654.856 21.45 654.222 22.55C653.622 23.65 653.322 24.9833 653.322 26.55C653.322 28.0833 653.622 29.4167 654.222 30.55C654.856 31.65 655.689 32.5 656.722 33.1C657.756 33.7 658.922 34 660.222 34ZM666.922 49.7V34.55L667.422 26.6L667.272 18.6V13.1H674.722V49.7H666.922ZM693.294 40.4C691.06 40.4 689.06 39.9667 687.294 39.1C685.56 38.2333 684.21 36.9167 683.244 35.15C682.277 33.35 681.794 31.0667 681.794 28.3V13.1H689.594V27.15C689.594 29.3833 690.06 31.0333 690.994 32.1C691.96 33.1333 693.31 33.65 695.044 33.65C696.244 33.65 697.31 33.4 698.244 32.9C699.177 32.3667 699.91 31.5667 700.444 30.5C700.977 29.4 701.244 28.0333 701.244 26.4V13.1H709.044V40H701.644V32.6L702.994 34.75C702.094 36.6167 700.76 38.0333 698.994 39C697.26 39.9333 695.36 40.4 693.294 40.4ZM729.62 40.4C726.553 40.4 723.853 39.8 721.52 38.6C719.22 37.4 717.437 35.7667 716.17 33.7C714.903 31.6 714.27 29.2167 714.27 26.55C714.27 23.85 714.887 21.4667 716.12 19.4C717.387 17.3 719.103 15.6667 721.27 14.5C723.437 13.3 725.887 12.7 728.62 12.7C731.253 12.7 733.62 13.2667 735.72 14.4C737.853 15.5 739.537 17.1 740.77 19.2C742.003 21.2667 742.62 23.75 742.62 26.65C742.62 26.95 742.603 27.3 742.57 27.7C742.537 28.0667 742.503 28.4167 742.47 28.75H720.62V24.2H738.37L735.37 25.55C735.37 24.15 735.087 22.9333 734.52 21.9C733.953 20.8667 733.17 20.0667 732.17 19.5C731.17 18.9 730.003 18.6 728.67 18.6C727.337 18.6 726.153 18.9 725.12 19.5C724.12 20.0667 723.337 20.8833 722.77 21.95C722.203 22.9833 721.92 24.2167 721.92 25.65V26.85C721.92 28.3167 722.237 29.6167 722.87 30.75C723.537 31.85 724.453 32.7 725.62 33.3C726.82 33.8667 728.22 34.15 729.82 34.15C731.253 34.15 732.503 33.9333 733.57 33.5C734.67 33.0667 735.67 32.4167 736.57 31.55L740.72 36.05C739.487 37.45 737.937 38.5333 736.07 39.3C734.203 40.0333 732.053 40.4 729.62 40.4ZM756.863 40.4C754.563 40.4 752.346 40.1333 750.213 39.6C748.113 39.0333 746.446 38.3333 745.213 37.5L747.813 31.9C749.046 32.6667 750.496 33.3 752.163 33.8C753.863 34.2667 755.53 34.5 757.163 34.5C758.963 34.5 760.23 34.2833 760.963 33.85C761.73 33.4167 762.113 32.8167 762.113 32.05C762.113 31.4167 761.813 30.95 761.213 30.65C760.646 30.3167 759.88 30.0667 758.913 29.9C757.946 29.7333 756.88 29.5667 755.713 29.4C754.58 29.2333 753.43 29.0167 752.263 28.75C751.096 28.45 750.03 28.0167 749.063 27.45C748.096 26.8833 747.313 26.1167 746.713 25.15C746.146 24.1833 745.863 22.9333 745.863 21.4C745.863 19.7 746.346 18.2 747.313 16.9C748.313 15.6 749.746 14.5833 751.613 13.85C753.48 13.0833 755.713 12.7 758.313 12.7C760.146 12.7 762.013 12.9 763.913 13.3C765.813 13.7 767.396 14.2833 768.663 15.05L766.063 20.6C764.763 19.8333 763.446 19.3167 762.113 19.05C760.813 18.75 759.546 18.6 758.313 18.6C756.58 18.6 755.313 18.8333 754.513 19.3C753.713 19.7667 753.313 20.3667 753.313 21.1C753.313 21.7667 753.596 22.2667 754.163 22.6C754.763 22.9333 755.546 23.2 756.513 23.4C757.48 23.6 758.53 23.7833 759.663 23.95C760.83 24.0833 761.996 24.3 763.163 24.6C764.33 24.9 765.38 25.3333 766.313 25.9C767.28 26.4333 768.063 27.1833 768.663 28.15C769.263 29.0833 769.563 30.3167 769.563 31.85C769.563 33.5167 769.063 35 768.063 36.3C767.063 37.5667 765.613 38.5667 763.713 39.3C761.846 40.0333 759.563 40.4 756.863 40.4ZM785.375 40.4C782.209 40.4 779.742 39.6 777.975 38C776.209 36.3667 775.325 33.95 775.325 30.75V7.15H783.125V30.65C783.125 31.7833 783.425 32.6667 784.025 33.3C784.625 33.9 785.442 34.2 786.475 34.2C787.709 34.2 788.759 33.8667 789.625 33.2L791.725 38.7C790.925 39.2667 789.959 39.7 788.825 40C787.725 40.2667 786.575 40.4 785.375 40.4ZM771.175 19.7V13.7H789.825V19.7H771.175ZM796.104 40V13.1H803.904V40H796.104ZM800.004 9.35C798.571 9.35 797.404 8.93333 796.504 8.1C795.604 7.26666 795.154 6.23333 795.154 5C795.154 3.76666 795.604 2.73333 796.504 1.9C797.404 1.06666 798.571 0.649997 800.004 0.649997C801.437 0.649997 802.604 1.05 803.504 1.85C804.404 2.61667 804.854 3.61667 804.854 4.85C804.854 6.15 804.404 7.23333 803.504 8.1C802.637 8.93333 801.471 9.35 800.004 9.35ZM823.943 40.4C821.076 40.4 818.526 39.8 816.293 38.6C814.093 37.4 812.343 35.7667 811.043 33.7C809.776 31.6 809.143 29.2167 809.143 26.55C809.143 23.85 809.776 21.4667 811.043 19.4C812.343 17.3 814.093 15.6667 816.293 14.5C818.526 13.3 821.076 12.7 823.943 12.7C826.776 12.7 829.31 13.3 831.543 14.5C833.776 15.6667 835.526 17.2833 836.793 19.35C838.06 21.4167 838.693 23.8167 838.693 26.55C838.693 29.2167 838.06 31.6 836.793 33.7C835.526 35.7667 833.776 37.4 831.543 38.6C829.31 39.8 826.776 40.4 823.943 40.4ZM823.943 34C825.243 34 826.41 33.7 827.443 33.1C828.476 32.5 829.293 31.65 829.893 30.55C830.493 29.4167 830.793 28.0833 830.793 26.55C830.793 24.9833 830.493 23.65 829.893 22.55C829.293 21.45 828.476 20.6 827.443 20C826.41 19.4 825.243 19.1 823.943 19.1C822.643 19.1 821.476 19.4 820.443 20C819.41 20.6 818.576 21.45 817.943 22.55C817.343 23.65 817.043 24.9833 817.043 26.55C817.043 28.0833 817.343 29.4167 817.943 30.55C818.576 31.65 819.41 32.5 820.443 33.1C821.476 33.7 822.643 34 823.943 34ZM860.257 12.7C862.39 12.7 864.29 13.1333 865.957 14C867.657 14.8333 868.99 16.1333 869.957 17.9C870.923 19.6333 871.407 21.8667 871.407 24.6V40H863.607V25.8C863.607 23.6333 863.123 22.0333 862.157 21C861.223 19.9667 859.89 19.45 858.157 19.45C856.923 19.45 855.807 19.7167 854.807 20.25C853.84 20.75 853.073 21.5333 852.507 22.6C851.973 23.6667 851.707 25.0333 851.707 26.7V40H843.907V13.1H851.357V20.55L849.957 18.3C850.923 16.5 852.307 15.1167 854.107 14.15C855.907 13.1833 857.957 12.7 860.257 12.7ZM887.527 40.4C885.227 40.4 883.01 40.1333 880.877 39.6C878.777 39.0333 877.11 38.3333 875.877 37.5L878.477 31.9C879.71 32.6667 881.16 33.3 882.827 33.8C884.527 34.2667 886.194 34.5 887.827 34.5C889.627 34.5 890.894 34.2833 891.627 33.85C892.394 33.4167 892.777 32.8167 892.777 32.05C892.777 31.4167 892.477 30.95 891.877 30.65C891.31 30.3167 890.544 30.0667 889.577 29.9C888.61 29.7333 887.544 29.5667 886.377 29.4C885.244 29.2333 884.094 29.0167 882.927 28.75C881.76 28.45 880.694 28.0167 879.727 27.45C878.76 26.8833 877.977 26.1167 877.377 25.15C876.81 24.1833 876.527 22.9333 876.527 21.4C876.527 19.7 877.01 18.2 877.977 16.9C878.977 15.6 880.41 14.5833 882.277 13.85C884.144 13.0833 886.377 12.7 888.977 12.7C890.81 12.7 892.677 12.9 894.577 13.3C896.477 13.7 898.06 14.2833 899.327 15.05L896.727 20.6C895.427 19.8333 894.11 19.3167 892.777 19.05C891.477 18.75 890.21 18.6 888.977 18.6C887.244 18.6 885.977 18.8333 885.177 19.3C884.377 19.7667 883.977 20.3667 883.977 21.1C883.977 21.7667 884.26 22.2667 884.827 22.6C885.427 22.9333 886.21 23.2 887.177 23.4C888.144 23.6 889.194 23.7833 890.327 23.95C891.494 24.0833 892.66 24.3 893.827 24.6C894.994 24.9 896.044 25.3333 896.977 25.9C897.944 26.4333 898.727 27.1833 899.327 28.15C899.927 29.0833 900.227 30.3167 900.227 31.85C900.227 33.5167 899.727 35 898.727 36.3C897.727 37.5667 896.277 38.5667 894.377 39.3C892.51 40.0333 890.227 40.4 887.527 40.4ZM911.655 27.85C911.655 26.6833 911.838 25.65 912.205 24.75C912.605 23.85 913.088 23.05 913.655 22.35C914.255 21.65 914.888 21 915.555 20.4C916.221 19.8 916.838 19.2333 917.405 18.7C918.005 18.1333 918.488 17.55 918.855 16.95C919.255 16.35 919.455 15.6833 919.455 14.95C919.455 13.75 918.955 12.7833 917.955 12.05C916.988 11.3167 915.688 10.95 914.055 10.95C912.488 10.95 911.088 11.2833 909.855 11.95C908.621 12.5833 907.605 13.4833 906.805 14.65L900.755 11.1C902.088 9.06666 903.938 7.45 906.305 6.25C908.671 5.01667 911.538 4.4 914.905 4.4C917.405 4.4 919.605 4.76667 921.505 5.5C923.405 6.2 924.888 7.23333 925.955 8.6C927.055 9.96667 927.605 11.65 927.605 13.65C927.605 14.95 927.405 16.1 927.005 17.1C926.605 18.1 926.088 18.9667 925.455 19.7C924.821 20.4333 924.138 21.1167 923.405 21.75C922.705 22.3833 922.038 23 921.405 23.6C920.771 24.2 920.238 24.8333 919.805 25.5C919.405 26.1667 919.205 26.95 919.205 27.85H911.655ZM915.455 40.4C914.055 40.4 912.905 39.95 912.005 39.05C911.105 38.15 910.655 37.0833 910.655 35.85C910.655 34.5833 911.105 33.5333 912.005 32.7C912.905 31.8333 914.055 31.4 915.455 31.4C916.888 31.4 918.038 31.8333 918.905 32.7C919.805 33.5333 920.255 34.5833 920.255 35.85C920.255 37.0833 919.805 38.15 918.905 39.05C918.038 39.95 916.888 40.4 915.455 40.4Z" fill="#443534"/>
</svg>
