<svg width="271" height="53" viewBox="0 0 271 53" fill="none" xmlns="http://www.w3.org/2000/svg">
<rect x="0.495611" y="0.466314" width="269.067" height="52.0674" rx="26.0337" fill="#B9DDFF" stroke="#443534" stroke-width="0.932629"/>
<path d="M82.3875 26.38H85.2675V34.57C84.2275 35.43 83.0175 36.09 81.6375 36.55C80.2575 37.01 78.8175 37.24 77.3175 37.24C75.1975 37.24 73.2875 36.78 71.5875 35.86C69.8875 34.92 68.5475 33.64 67.5675 32.02C66.6075 30.38 66.1275 28.54 66.1275 26.5C66.1275 24.46 66.6075 22.62 67.5675 20.98C68.5475 19.34 69.8875 18.06 71.5875 17.14C73.3075 16.22 75.2375 15.76 77.3775 15.76C79.0575 15.76 80.5775 16.04 81.9375 16.6C83.3175 17.14 84.4875 17.94 85.4475 19L83.5875 20.86C81.9075 19.24 79.8775 18.43 77.4975 18.43C75.8975 18.43 74.4575 18.78 73.1775 19.48C71.9175 20.16 70.9275 21.12 70.2075 22.36C69.4875 23.58 69.1275 24.96 69.1275 26.5C69.1275 28.02 69.4875 29.4 70.2075 30.64C70.9275 31.86 71.9175 32.82 73.1775 33.52C74.4575 34.22 75.8875 34.57 77.4675 34.57C79.3475 34.57 80.9875 34.12 82.3875 33.22V26.38ZM104.961 29.14C104.961 29.36 104.941 29.65 104.901 30.01H92.0013C92.1813 31.41 92.7913 32.54 93.8313 33.4C94.8913 34.24 96.2013 34.66 97.7613 34.66C99.6613 34.66 101.191 34.02 102.351 32.74L103.941 34.6C103.221 35.44 102.321 36.08 101.241 36.52C100.181 36.96 98.9913 37.18 97.6713 37.18C95.9913 37.18 94.5013 36.84 93.2013 36.16C91.9013 35.46 90.8913 34.49 90.1713 33.25C89.4713 32.01 89.1213 30.61 89.1213 29.05C89.1213 27.51 89.4613 26.12 90.1413 24.88C90.8413 23.64 91.7913 22.68 92.9913 22C94.2113 21.3 95.5813 20.95 97.1013 20.95C98.6213 20.95 99.9713 21.3 101.151 22C102.351 22.68 103.281 23.64 103.941 24.88C104.621 26.12 104.961 27.54 104.961 29.14ZM97.1013 23.38C95.7213 23.38 94.5613 23.8 93.6213 24.64C92.7013 25.48 92.1613 26.58 92.0013 27.94H102.201C102.041 26.6 101.491 25.51 100.551 24.67C99.6313 23.81 98.4813 23.38 97.1013 23.38ZM117.45 20.95C119.47 20.95 121.07 21.54 122.25 22.72C123.45 23.88 124.05 25.59 124.05 27.85V37H121.17V28.18C121.17 26.64 120.8 25.48 120.06 24.7C119.32 23.92 118.26 23.53 116.88 23.53C115.32 23.53 114.09 23.99 113.19 24.91C112.29 25.81 111.84 27.11 111.84 28.81V37H108.96V21.1H111.72V23.5C112.3 22.68 113.08 22.05 114.06 21.61C115.06 21.17 116.19 20.95 117.45 20.95ZM143.838 29.14C143.838 29.36 143.818 29.65 143.778 30.01H130.878C131.058 31.41 131.668 32.54 132.708 33.4C133.768 34.24 135.078 34.66 136.638 34.66C138.538 34.66 140.068 34.02 141.228 32.74L142.818 34.6C142.098 35.44 141.198 36.08 140.118 36.52C139.058 36.96 137.868 37.18 136.548 37.18C134.868 37.18 133.378 36.84 132.078 36.16C130.778 35.46 129.768 34.49 129.048 33.25C128.348 32.01 127.998 30.61 127.998 29.05C127.998 27.51 128.338 26.12 129.018 24.88C129.718 23.64 130.668 22.68 131.868 22C133.088 21.3 134.458 20.95 135.978 20.95C137.498 20.95 138.848 21.3 140.028 22C141.228 22.68 142.158 23.64 142.818 24.88C143.498 26.12 143.838 27.54 143.838 29.14ZM135.978 23.38C134.598 23.38 133.438 23.8 132.498 24.64C131.578 25.48 131.038 26.58 130.878 27.94H141.078C140.918 26.6 140.368 25.51 139.428 24.67C138.508 23.81 137.358 23.38 135.978 23.38ZM150.597 23.77C151.097 22.85 151.837 22.15 152.817 21.67C153.797 21.19 154.987 20.95 156.387 20.95V23.74C156.227 23.72 156.007 23.71 155.727 23.71C154.167 23.71 152.937 24.18 152.037 25.12C151.157 26.04 150.717 27.36 150.717 29.08V37H147.837V21.1H150.597V23.77ZM165.698 20.95C167.898 20.95 169.578 21.49 170.738 22.57C171.918 23.65 172.508 25.26 172.508 27.4V37H169.778V34.9C169.298 35.64 168.608 36.21 167.708 36.61C166.828 36.99 165.778 37.18 164.558 37.18C162.778 37.18 161.348 36.75 160.268 35.89C159.208 35.03 158.678 33.9 158.678 32.5C158.678 31.1 159.188 29.98 160.208 29.14C161.228 28.28 162.848 27.85 165.068 27.85H169.628V27.28C169.628 26.04 169.268 25.09 168.548 24.43C167.828 23.77 166.768 23.44 165.368 23.44C164.428 23.44 163.508 23.6 162.608 23.92C161.708 24.22 160.948 24.63 160.328 25.15L159.128 22.99C159.948 22.33 160.928 21.83 162.068 21.49C163.208 21.13 164.418 20.95 165.698 20.95ZM165.038 34.96C166.138 34.96 167.088 34.72 167.888 34.24C168.688 33.74 169.268 33.04 169.628 32.14V29.92H165.188C162.748 29.92 161.528 30.74 161.528 32.38C161.528 33.18 161.838 33.81 162.458 34.27C163.078 34.73 163.938 34.96 165.038 34.96ZM186.777 36.07C186.357 36.43 185.837 36.71 185.217 36.91C184.597 37.09 183.957 37.18 183.297 37.18C181.697 37.18 180.457 36.75 179.577 35.89C178.697 35.03 178.257 33.8 178.257 32.2V23.47H175.557V21.1H178.257V17.62H181.137V21.1H185.697V23.47H181.137V32.08C181.137 32.94 181.347 33.6 181.767 34.06C182.207 34.52 182.827 34.75 183.627 34.75C184.507 34.75 185.257 34.5 185.877 34L186.777 36.07ZM204.102 29.14C204.102 29.36 204.082 29.65 204.042 30.01H191.142C191.322 31.41 191.932 32.54 192.972 33.4C194.032 34.24 195.342 34.66 196.902 34.66C198.802 34.66 200.332 34.02 201.492 32.74L203.082 34.6C202.362 35.44 201.462 36.08 200.382 36.52C199.322 36.96 198.132 37.18 196.812 37.18C195.132 37.18 193.642 36.84 192.342 36.16C191.042 35.46 190.032 34.49 189.312 33.25C188.612 32.01 188.262 30.61 188.262 29.05C188.262 27.51 188.602 26.12 189.282 24.88C189.982 23.64 190.932 22.68 192.132 22C193.352 21.3 194.722 20.95 196.242 20.95C197.762 20.95 199.112 21.3 200.292 22C201.492 22.68 202.422 23.64 203.082 24.88C203.762 26.12 204.102 27.54 204.102 29.14ZM196.242 23.38C194.862 23.38 193.702 23.8 192.762 24.64C191.842 25.48 191.302 26.58 191.142 27.94H201.342C201.182 26.6 200.632 25.51 199.692 24.67C198.772 23.81 197.622 23.38 196.242 23.38Z" fill="#443534"/>
</svg>
