<svg width="399" height="436" viewBox="0 0 399 436" fill="none" xmlns="http://www.w3.org/2000/svg">
<path d="M261.591 167.495C261.591 167.495 347.944 221.33 320.292 307.737C292.496 394.623 150.25 335.937 150.25 335.937" stroke="#443534" stroke-width="10.52" stroke-miterlimit="10" stroke-linecap="round"/>
<path d="M233.194 229.081C233.194 229.081 234.431 232.974 234.431 242.031C234.431 252.644 232.378 257.556 232.378 257.556" fill="#443534"/>
<path d="M233.194 229.081C233.194 229.081 234.431 232.974 234.431 242.031C234.431 252.644 232.378 257.556 232.378 257.556" stroke="#443534" stroke-width="10.52" stroke-miterlimit="10" stroke-linecap="round"/>
<path d="M189.124 229.081C189.124 229.081 190.36 232.974 190.36 242.031C190.36 252.644 188.308 257.556 188.308 257.556" fill="#443534"/>
<path d="M189.124 229.081C189.124 229.081 190.36 232.974 190.36 242.031C190.36 252.644 188.308 257.556 188.308 257.556" stroke="#443534" stroke-width="10.52" stroke-miterlimit="10" stroke-linecap="round"/>
<path d="M51.2942 243.576C51.2942 243.576 28.6467 225.655 11.5441 238.976C-6.60275 253.123 -5.90665 275.884 2.24261 289.337C16.5608 312.96 44.8012 305.928 44.8012 305.928" stroke="#443534" stroke-width="10.52" stroke-miterlimit="10" stroke-linecap="round"/>
<path d="M318.144 235.646C318.144 235.646 347.44 219.809 354.269 251.255C364.399 297.902 328.753 301.185 328.753 301.185" stroke="#443534" stroke-width="10.52" stroke-miterlimit="10" stroke-linecap="round"/>
<path d="M228.586 132.935C228.586 132.935 211.183 175.413 179.834 160.715C148.485 146.016 161.687 124.645 180.77 125.975C199.289 127.268 219.464 158.523 192.892 183.547C166.32 208.572 136.063 176.827 136.063 176.827" stroke="#443534" stroke-width="10.52" stroke-miterlimit="10" stroke-linecap="round"/>
<path d="M87.0237 144.195C87.0237 144.195 117.364 152.796 114.7 184.434C112.996 204.619 93.2527 212.118 72.1414 208.201C51.0301 204.284 41.7527 193.73 42.9529 183.619C44.8732 167.507 59.6715 165.986 75.4899 170.346C96.6852 176.192 112.336 197.755 104.018 227.08C97.6814 249.434 74.7458 223.307 70.1611 251.985C65.9485 278.316 96.7932 282.269 96.7932 282.269" stroke="#443534" stroke-width="10.52" stroke-miterlimit="10" stroke-linecap="round"/>
<path d="M365.779 242.055C365.779 242.055 392.687 228.111 392.687 201.169C392.687 174.227 360.846 158.81 360.846 158.81C360.846 158.81 377.541 126.526 366.067 114.678C354.593 102.831 329.545 103.921 322.236 89.9289C314.927 75.937 310.762 56.5664 297.188 53.332C283.614 50.0976 257.726 60.867 257.726 60.867" stroke="#443534" stroke-width="10.52" stroke-miterlimit="10" stroke-linecap="round"/>
<path d="M234.418 51.2836C234.418 51.2836 223.581 1.88078 191.44 6.6246C159.299 11.3684 157.223 40.61 157.223 40.61C157.223 40.61 129.63 18.4961 115.216 23.2399C100.802 27.9838 97.7533 81.0283 87.3237 81.8189C76.8941 82.6095 22.9338 56.279 6.04715 86.5627C-10.8395 116.847 1.54646 137.187 1.54646 137.187" stroke="#443534" stroke-width="10.52" stroke-miterlimit="10" stroke-linecap="round"/>
<path d="M-2.83411 160.727C-2.83411 160.727 -26.6698 153.383 -28.7821 168.202C-30.8824 183.02 -4.55037 204.344 -10.4433 216.898C-16.3362 229.44 -40.1479 219.198 -33.5349 267.558" stroke="#443534" stroke-width="10.52" stroke-miterlimit="10" stroke-linecap="round"/>
<path d="M360.846 158.81C360.846 158.81 333.206 156.642 330.001 167.555C326.797 178.468 338.379 201.181 355.757 187.896C386.722 164.225 325.117 105.406 290.551 128.538" stroke="#443534" stroke-width="10.52" stroke-miterlimit="10" stroke-linecap="round"/>
<path d="M119.069 318.782L110.656 372.869" stroke="#443534" stroke-width="10.52" stroke-miterlimit="10" stroke-linecap="round"/>
<path d="M194.56 349.449L190.36 384.034" stroke="#443534" stroke-width="10.52" stroke-miterlimit="10" stroke-linecap="round"/>
<path d="M234.431 355.319C234.431 355.319 277.049 382.704 260.919 406.207C244.788 429.711 128.982 429.699 128.982 429.699C128.982 429.699 43.8651 383.087 36.1359 355.319C28.3947 327.551 114.856 332.343 114.856 332.343" stroke="#443534" stroke-width="10.52" stroke-miterlimit="10" stroke-linecap="round"/>
</svg>
