<svg width="500" height="500" viewBox="0 0 500 500" fill="none" xmlns="http://www.w3.org/2000/svg">
<path d="M266.6 156.5C266.6 156.5 269.7 143.8 275.5 144.4C281.3 145 313.7 158.7 317.9 168.3" stroke="black" stroke-width="4.3" stroke-miterlimit="10" stroke-linecap="square"/>
<path d="M271.7 181C271.7 181 255.1 186.6 201.9 200.9C148.6 215.2 145.3 212.9 145.3 212.9" stroke="black" stroke-width="4.3" stroke-miterlimit="10" stroke-linecap="square"/>
<path d="M277.1 200.8C277.1 200.8 227.4 214.6 179.9 227.5C132.4 240.4 146.7 234.4 146.7 234.4" stroke="black" stroke-width="4.3" stroke-miterlimit="10" stroke-linecap="square"/>
<path d="M326.4 251.5C326.4 251.5 321.9 239.9 318.6 219.1C315.4 198 319.3 182.2 319.3 182.2" stroke="black" stroke-width="4.3" stroke-miterlimit="10" stroke-linecap="square"/>
<path d="M268.1 452.7C268.1 452.7 273.3 445.2 270.4 422.4C266.2 388.6 249 330.6 252.5 303.9C252.4 283.8 256.8 268.9 256.8 268.9" stroke="black" stroke-width="4.3" stroke-miterlimit="10" stroke-linecap="square"/>
<path d="M248.4 214.7C248.4 214.7 252.6 222.2 254.3 234.2C256 246.2 250.9 260.5 250.9 260.5" stroke="black" stroke-width="4.3" stroke-miterlimit="10" stroke-linecap="square"/>
<path d="M272.2 65.9001C272.2 65.9001 239.4 77.5001 242.2 108.4C244.9 139.5 296.8 130.3 296.8 130.3" stroke="black" stroke-width="4.3" stroke-miterlimit="10" stroke-linecap="square"/>
<path d="M277.2 88.7002C277.2 88.7002 276.5 89.8002 275.9 93.0002C275.2 96.6002 275.4 98.4002 275.4 98.4002" fill="white"/>
<path d="M277.2 88.7002C277.2 88.7002 276.5 89.8002 275.9 93.0002C275.2 96.6002 275.4 98.4002 275.4 98.4002" stroke="black" stroke-width="4.3" stroke-miterlimit="10" stroke-linecap="square"/>
<path d="M291.8 92C291.8 92 291.1 93.1 290.5 96.3C289.8 99.9 290 101.7 290 101.7" fill="white"/>
<path d="M291.8 92C291.8 92 291.1 93.1 290.5 96.3C289.8 99.9 290 101.7 290 101.7" stroke="black" stroke-width="4.3" stroke-miterlimit="10" stroke-linecap="square"/>
<path d="M336.8 107C336.8 107 345.7 102.7 350.4 108.3C355.5 114.5 353.4 122 349.7 125.8C343.1 132.7 334.3 128.2 334.3 128.2" stroke="black" stroke-width="4.3" stroke-miterlimit="10" stroke-linecap="square"/>
<path d="M248.3 84.6002C248.3 84.6002 239.7 77.2002 235.2 87.1002C228.4 101.9 240 105.7 240 105.7" stroke="black" stroke-width="4.3" stroke-miterlimit="10" stroke-linecap="square"/>
<path d="M312.2 142.2L312.4 161" stroke="black" stroke-width="4.3" stroke-miterlimit="10" stroke-linecap="square"/>
<path d="M281.1 131.7L279.9 143.6" stroke="black" stroke-width="4.3" stroke-miterlimit="10" stroke-linecap="square"/>
<path d="M291.9 63.9001L282 70.8001" stroke="black" stroke-width="4.3" stroke-miterlimit="10" stroke-linecap="square"/>
<path d="M304.2 65.7002L303.4 72.3002" stroke="black" stroke-width="4.3" stroke-miterlimit="10" stroke-linecap="square"/>
<path d="M316.8 71.7002L320.5 87.0002" stroke="black" stroke-width="4.3" stroke-miterlimit="10" stroke-linecap="square"/>
<path d="M302.9 42.8001C302.9 42.8001 279.3 23.7001 258.3 36.1001C237.3 48.5001 235.9 74.4001 235.9 74.4001" stroke="black" stroke-width="4.3" stroke-miterlimit="10" stroke-linecap="square"/>
<path d="M314 44.8C314 44.8 354.8 47.0001 360.1 70.4001C364.4 88.7001 357.7 105 357.7 105" stroke="black" stroke-width="4.3" stroke-miterlimit="10" stroke-linecap="square"/>
<path d="M258.7 155C258.7 155 247.9 160.3 245.4 171.4" stroke="black" stroke-width="4.3" stroke-miterlimit="10" stroke-linecap="square"/>
<path d="M311.3 251.5C311.3 251.5 325.4 254.7 346.5 281C367.4 307.2 388.6 360 408.7 378.3C428.8 396.7 437.1 398.8 437.1 398.8" stroke="black" stroke-width="4.3" stroke-miterlimit="10" stroke-linecap="square"/>
<path d="M426.4 414.2C426.4 414.2 425.9 421.2 427.5 427.1C429.2 433 436.1 444.8 441.3 444.8C446.5 444.8 448.7 434.1 447 424C445.1 413.9 441.5 406.9 441.5 406.9" stroke="black" stroke-width="4.3" stroke-miterlimit="10" stroke-linecap="square"/>
<path d="M304.6 269.4C304.6 269.4 309.9 291.2 307.2 330.1C304.3 368.8 291.3 390.5 293.7 422.4C294.9 438.2 298.4 457 298.4 457" stroke="black" stroke-width="4.3" stroke-miterlimit="10" stroke-linecap="square"/>
<path d="M308 324.8C308 324.8 305.2 327.4 325 345.6C344.8 363.8 393.4 388.8 413.3 415.9" stroke="black" stroke-width="4.3" stroke-miterlimit="10" stroke-linecap="square"/>
<path d="M133.3 215.8C133.3 215.8 123.9 214.3 112.4 220.1C101 225.9 101.2 228.6 102 232.6C102.8 236.6 149.9 226 149.9 226" stroke="black" stroke-width="4.3" stroke-miterlimit="10" stroke-linecap="square"/>
<path d="M276 457C276 457 253.9 462.7 250.3 465.7C246.7 468.7 284.7 473.7 293.5 471.5C302.3 469.3 291.8 456.9 291.8 456.9" stroke="black" stroke-width="4.3" stroke-miterlimit="10" stroke-linecap="square"/>
<path d="M133.5 240.5L122.5 352L122.9 465.4H111.4L111 354.2H56.3" stroke="black" stroke-width="4.3" stroke-miterlimit="10" stroke-linecap="square"/>
</svg>
