<svg width="692" height="836" viewBox="0 0 692 836" fill="none" xmlns="http://www.w3.org/2000/svg">
<g filter="url(#filter0_d_2188_65)">
<rect x="14" y="9" width="669.087" height="813" rx="38.6632" fill="#443534"/>
</g>
<path d="M123.914 74.28H115.314V68H140.394V74.28H131.834V96H123.914V74.28ZM157.105 73.96C159.798 73.96 161.958 74.76 163.585 76.36C165.238 77.96 166.065 80.3733 166.065 83.6V96H158.465V84.84C158.465 81.88 157.278 80.4 154.905 80.4C153.598 80.4 152.545 80.8267 151.745 81.68C150.972 82.5333 150.585 83.8133 150.585 85.52V96H142.985V66.32H150.585V76.32C151.412 75.5467 152.385 74.96 153.505 74.56C154.625 74.16 155.825 73.96 157.105 73.96ZM193.309 85.2C193.309 85.2533 193.269 85.88 193.189 87.08H177.429C177.749 88.2 178.362 89.0667 179.269 89.68C180.202 90.2667 181.362 90.56 182.749 90.56C183.789 90.56 184.682 90.4133 185.429 90.12C186.202 89.8267 186.976 89.3467 187.749 88.68L191.749 92.84C189.642 95.1867 186.562 96.36 182.509 96.36C179.976 96.36 177.749 95.88 175.829 94.92C173.909 93.96 172.416 92.6267 171.349 90.92C170.309 89.2133 169.789 87.28 169.789 85.12C169.789 82.9867 170.296 81.08 171.309 79.4C172.349 77.6933 173.776 76.36 175.589 75.4C177.402 74.44 179.442 73.96 181.709 73.96C183.869 73.96 185.829 74.4133 187.589 75.32C189.349 76.2 190.736 77.4933 191.749 79.2C192.789 80.88 193.309 82.88 193.309 85.2ZM181.749 79.36C180.576 79.36 179.589 79.6933 178.789 80.36C178.016 81.0267 177.522 81.9333 177.309 83.08H186.189C185.976 81.9333 185.469 81.0267 184.669 80.36C183.896 79.6933 182.922 79.36 181.749 79.36ZM204.693 96.36C202.88 96.36 201.093 96.16 199.333 95.76C197.573 95.3333 196.16 94.7867 195.093 94.12L197.373 88.92C198.36 89.5333 199.533 90.0267 200.893 90.4C202.253 90.7467 203.6 90.92 204.933 90.92C206.16 90.92 207.026 90.8 207.533 90.56C208.066 90.2933 208.333 89.92 208.333 89.44C208.333 88.96 208.013 88.6267 207.373 88.44C206.76 88.2267 205.773 88.0267 204.413 87.84C202.68 87.6267 201.2 87.3467 199.973 87C198.773 86.6533 197.733 86.0133 196.853 85.08C195.973 84.1467 195.533 82.84 195.533 81.16C195.533 79.7733 195.946 78.5467 196.773 77.48C197.6 76.3867 198.8 75.5333 200.373 74.92C201.973 74.28 203.88 73.96 206.093 73.96C207.666 73.96 209.226 74.12 210.773 74.44C212.32 74.76 213.613 75.2133 214.653 75.8L212.373 80.96C210.453 79.8933 208.373 79.36 206.133 79.36C204.933 79.36 204.053 79.5067 203.493 79.8C202.933 80.0667 202.653 80.4267 202.653 80.88C202.653 81.3867 202.96 81.7467 203.573 81.96C204.186 82.1467 205.2 82.3467 206.613 82.56C208.4 82.8267 209.88 83.1333 211.053 83.48C212.226 83.8267 213.24 84.4667 214.093 85.4C214.973 86.3067 215.413 87.5867 215.413 89.24C215.413 90.6 215 91.8267 214.173 92.92C213.346 93.9867 212.12 94.8267 210.493 95.44C208.893 96.0533 206.96 96.36 204.693 96.36ZM240.848 85.2C240.848 85.2533 240.808 85.88 240.728 87.08H224.968C225.288 88.2 225.901 89.0667 226.808 89.68C227.741 90.2667 228.901 90.56 230.288 90.56C231.328 90.56 232.221 90.4133 232.968 90.12C233.741 89.8267 234.515 89.3467 235.288 88.68L239.288 92.84C237.181 95.1867 234.101 96.36 230.048 96.36C227.515 96.36 225.288 95.88 223.368 94.92C221.448 93.96 219.955 92.6267 218.888 90.92C217.848 89.2133 217.328 87.28 217.328 85.12C217.328 82.9867 217.835 81.08 218.848 79.4C219.888 77.6933 221.315 76.36 223.128 75.4C224.941 74.44 226.981 73.96 229.248 73.96C231.408 73.96 233.368 74.4133 235.128 75.32C236.888 76.2 238.275 77.4933 239.288 79.2C240.328 80.88 240.848 82.88 240.848 85.2ZM229.288 79.36C228.115 79.36 227.128 79.6933 226.328 80.36C225.555 81.0267 225.061 81.9333 224.848 83.08H233.728C233.515 81.9333 233.008 81.0267 232.208 80.36C231.435 79.6933 230.461 79.36 229.288 79.36ZM278.153 85.2C278.153 85.2533 278.113 85.88 278.033 87.08H262.273C262.593 88.2 263.206 89.0667 264.113 89.68C265.046 90.2667 266.206 90.56 267.593 90.56C268.633 90.56 269.526 90.4133 270.273 90.12C271.046 89.8267 271.819 89.3467 272.593 88.68L276.593 92.84C274.486 95.1867 271.406 96.36 267.353 96.36C264.819 96.36 262.593 95.88 260.673 94.92C258.753 93.96 257.259 92.6267 256.193 90.92C255.153 89.2133 254.633 87.28 254.633 85.12C254.633 82.9867 255.139 81.08 256.153 79.4C257.193 77.6933 258.619 76.36 260.433 75.4C262.246 74.44 264.286 73.96 266.553 73.96C268.713 73.96 270.673 74.4133 272.433 75.32C274.193 76.2 275.579 77.4933 276.593 79.2C277.633 80.88 278.153 82.88 278.153 85.2ZM266.593 79.36C265.419 79.36 264.433 79.6933 263.633 80.36C262.859 81.0267 262.366 81.9333 262.153 83.08H271.033C270.819 81.9333 270.313 81.0267 269.513 80.36C268.739 79.6933 267.766 79.36 266.593 79.36ZM294.831 96L290.951 90.32L286.791 96H278.551L286.791 85.16L278.791 74.32H287.351L291.191 79.8L295.191 74.32H303.231L295.231 84.88L303.511 96H294.831ZM327.371 85.2C327.371 85.2533 327.331 85.88 327.251 87.08H311.491C311.811 88.2 312.425 89.0667 313.331 89.68C314.265 90.2667 315.425 90.56 316.811 90.56C317.851 90.56 318.745 90.4133 319.491 90.12C320.265 89.8267 321.038 89.3467 321.811 88.68L325.811 92.84C323.705 95.1867 320.625 96.36 316.571 96.36C314.038 96.36 311.811 95.88 309.891 94.92C307.971 93.96 306.478 92.6267 305.411 90.92C304.371 89.2133 303.851 87.28 303.851 85.12C303.851 82.9867 304.358 81.08 305.371 79.4C306.411 77.6933 307.838 76.36 309.651 75.4C311.465 74.44 313.505 73.96 315.771 73.96C317.931 73.96 319.891 74.4133 321.651 75.32C323.411 76.2 324.798 77.4933 325.811 79.2C326.851 80.88 327.371 82.88 327.371 85.2ZM315.811 79.36C314.638 79.36 313.651 79.6933 312.851 80.36C312.078 81.0267 311.585 81.9333 311.371 83.08H320.251C320.038 81.9333 319.531 81.0267 318.731 80.36C317.958 79.6933 316.985 79.36 315.811 79.36ZM338.116 76.92C338.889 75.9333 339.889 75.2 341.116 74.72C342.369 74.2133 343.796 73.96 345.396 73.96V80.8C344.702 80.72 344.129 80.68 343.676 80.68C342.049 80.68 340.769 81.12 339.836 82C338.929 82.88 338.476 84.2267 338.476 86.04V96H330.876V74.32H338.116V76.92ZM359.416 96.36C357.016 96.36 354.87 95.88 352.976 94.92C351.083 93.96 349.603 92.6267 348.536 90.92C347.496 89.2133 346.976 87.28 346.976 85.12C346.976 82.96 347.496 81.04 348.536 79.36C349.603 77.6533 351.083 76.3333 352.976 75.4C354.87 74.44 357.016 73.96 359.416 73.96C361.87 73.96 363.99 74.4933 365.776 75.56C367.563 76.6 368.83 78.0533 369.576 79.92L363.696 82.92C362.71 80.9733 361.27 80 359.376 80C358.016 80 356.883 80.4533 355.976 81.36C355.096 82.2667 354.656 83.52 354.656 85.12C354.656 86.7467 355.096 88.0267 355.976 88.96C356.883 89.8667 358.016 90.32 359.376 90.32C361.27 90.32 362.71 89.3467 363.696 87.4L369.576 90.4C368.83 92.2667 367.563 93.7333 365.776 94.8C363.99 95.84 361.87 96.36 359.416 96.36ZM372.438 74.32H380.038V96H372.438V74.32ZM376.238 71.92C374.851 71.92 373.731 71.5333 372.878 70.76C372.025 69.9867 371.598 69.0267 371.598 67.88C371.598 66.7333 372.025 65.7733 372.878 65C373.731 64.2267 374.851 63.84 376.238 63.84C377.625 63.84 378.745 64.2133 379.598 64.96C380.451 65.68 380.878 66.6133 380.878 67.76C380.878 68.96 380.451 69.96 379.598 70.76C378.745 71.5333 377.625 71.92 376.238 71.92ZM392.857 96.36C391.044 96.36 389.257 96.16 387.497 95.76C385.737 95.3333 384.324 94.7867 383.257 94.12L385.537 88.92C386.524 89.5333 387.697 90.0267 389.057 90.4C390.417 90.7467 391.764 90.92 393.097 90.92C394.324 90.92 395.19 90.8 395.697 90.56C396.23 90.2933 396.497 89.92 396.497 89.44C396.497 88.96 396.177 88.6267 395.537 88.44C394.924 88.2267 393.937 88.0267 392.577 87.84C390.844 87.6267 389.364 87.3467 388.137 87C386.937 86.6533 385.897 86.0133 385.017 85.08C384.137 84.1467 383.697 82.84 383.697 81.16C383.697 79.7733 384.11 78.5467 384.937 77.48C385.764 76.3867 386.964 75.5333 388.537 74.92C390.137 74.28 392.044 73.96 394.257 73.96C395.83 73.96 397.39 74.12 398.937 74.44C400.484 74.76 401.777 75.2133 402.817 75.8L400.537 80.96C398.617 79.8933 396.537 79.36 394.297 79.36C393.097 79.36 392.217 79.5067 391.657 79.8C391.097 80.0667 390.817 80.4267 390.817 80.88C390.817 81.3867 391.124 81.7467 391.737 81.96C392.35 82.1467 393.364 82.3467 394.777 82.56C396.564 82.8267 398.044 83.1333 399.217 83.48C400.39 83.8267 401.404 84.4667 402.257 85.4C403.137 86.3067 403.577 87.5867 403.577 89.24C403.577 90.6 403.164 91.8267 402.337 92.92C401.51 93.9867 400.284 94.8267 398.657 95.44C397.057 96.0533 395.124 96.36 392.857 96.36ZM429.012 85.2C429.012 85.2533 428.972 85.88 428.892 87.08H413.132C413.452 88.2 414.065 89.0667 414.972 89.68C415.905 90.2667 417.065 90.56 418.452 90.56C419.492 90.56 420.385 90.4133 421.132 90.12C421.905 89.8267 422.679 89.3467 423.452 88.68L427.452 92.84C425.345 95.1867 422.265 96.36 418.212 96.36C415.679 96.36 413.452 95.88 411.532 94.92C409.612 93.96 408.119 92.6267 407.052 90.92C406.012 89.2133 405.492 87.28 405.492 85.12C405.492 82.9867 405.999 81.08 407.012 79.4C408.052 77.6933 409.479 76.36 411.292 75.4C413.105 74.44 415.145 73.96 417.412 73.96C419.572 73.96 421.532 74.4133 423.292 75.32C425.052 76.2 426.439 77.4933 427.452 79.2C428.492 80.88 429.012 82.88 429.012 85.2ZM417.452 79.36C416.279 79.36 415.292 79.6933 414.492 80.36C413.719 81.0267 413.225 81.9333 413.012 83.08H421.892C421.679 81.9333 421.172 81.0267 420.372 80.36C419.599 79.6933 418.625 79.36 417.452 79.36ZM440.396 96.36C438.583 96.36 436.796 96.16 435.036 95.76C433.276 95.3333 431.863 94.7867 430.796 94.12L433.076 88.92C434.063 89.5333 435.236 90.0267 436.596 90.4C437.956 90.7467 439.303 90.92 440.636 90.92C441.863 90.92 442.73 90.8 443.236 90.56C443.77 90.2933 444.036 89.92 444.036 89.44C444.036 88.96 443.716 88.6267 443.076 88.44C442.463 88.2267 441.476 88.0267 440.116 87.84C438.383 87.6267 436.903 87.3467 435.676 87C434.476 86.6533 433.436 86.0133 432.556 85.08C431.676 84.1467 431.236 82.84 431.236 81.16C431.236 79.7733 431.65 78.5467 432.476 77.48C433.303 76.3867 434.503 75.5333 436.076 74.92C437.676 74.28 439.583 73.96 441.796 73.96C443.37 73.96 444.93 74.12 446.476 74.44C448.023 74.76 449.316 75.2133 450.356 75.8L448.076 80.96C446.156 79.8933 444.076 79.36 441.836 79.36C440.636 79.36 439.756 79.5067 439.196 79.8C438.636 80.0667 438.356 80.4267 438.356 80.88C438.356 81.3867 438.663 81.7467 439.276 81.96C439.89 82.1467 440.903 82.3467 442.316 82.56C444.103 82.8267 445.583 83.1333 446.756 83.48C447.93 83.8267 448.943 84.4667 449.796 85.4C450.676 86.3067 451.116 87.5867 451.116 89.24C451.116 90.6 450.703 91.8267 449.876 92.92C449.05 93.9867 447.823 94.8267 446.196 95.44C444.596 96.0533 442.663 96.36 440.396 96.36ZM477.112 96.36C474.712 96.36 472.565 95.88 470.672 94.92C468.778 93.96 467.298 92.6267 466.232 90.92C465.192 89.2133 464.672 87.28 464.672 85.12C464.672 82.96 465.192 81.04 466.232 79.36C467.298 77.6533 468.778 76.3333 470.672 75.4C472.565 74.44 474.712 73.96 477.112 73.96C479.565 73.96 481.685 74.4933 483.472 75.56C485.258 76.6 486.525 78.0533 487.272 79.92L481.392 82.92C480.405 80.9733 478.965 80 477.072 80C475.712 80 474.578 80.4533 473.672 81.36C472.792 82.2667 472.352 83.52 472.352 85.12C472.352 86.7467 472.792 88.0267 473.672 88.96C474.578 89.8667 475.712 90.32 477.072 90.32C478.965 90.32 480.405 89.3467 481.392 87.4L487.272 90.4C486.525 92.2667 485.258 93.7333 483.472 94.8C481.685 95.84 479.565 96.36 477.112 96.36ZM500.779 96.36C498.459 96.36 496.366 95.88 494.499 94.92C492.632 93.96 491.166 92.6267 490.099 90.92C489.059 89.2133 488.539 87.28 488.539 85.12C488.539 82.9867 489.059 81.0667 490.099 79.36C491.166 77.6533 492.619 76.3333 494.459 75.4C496.326 74.44 498.432 73.96 500.779 73.96C503.126 73.96 505.232 74.44 507.099 75.4C508.966 76.3333 510.419 77.6533 511.459 79.36C512.499 81.04 513.019 82.96 513.019 85.12C513.019 87.28 512.499 89.2133 511.459 90.92C510.419 92.6267 508.966 93.96 507.099 94.92C505.232 95.88 503.126 96.36 500.779 96.36ZM500.779 90.32C502.112 90.32 503.206 89.8667 504.059 88.96C504.912 88.0267 505.339 86.7467 505.339 85.12C505.339 83.52 504.912 82.2667 504.059 81.36C503.206 80.4533 502.112 80 500.779 80C499.446 80 498.352 80.4533 497.499 81.36C496.646 82.2667 496.219 83.52 496.219 85.12C496.219 86.7467 496.646 88.0267 497.499 88.96C498.352 89.8667 499.446 90.32 500.779 90.32ZM539.34 74.32V96H532.1V93.68C531.3 94.56 530.34 95.2267 529.22 95.68C528.1 96.1333 526.913 96.36 525.66 96.36C522.86 96.36 520.62 95.5333 518.94 93.88C517.286 92.2267 516.46 89.7467 516.46 86.44V74.32H524.06V85.2C524.06 86.8267 524.366 88.0133 524.98 88.76C525.593 89.5067 526.486 89.88 527.66 89.88C528.86 89.88 529.833 89.4667 530.58 88.64C531.353 87.7867 531.74 86.4933 531.74 84.76V74.32H539.34ZM544.235 66.32H551.835V96H544.235V66.32ZM579.814 66.32V96H572.574V93.84C571.161 95.52 569.041 96.36 566.214 96.36C564.241 96.36 562.441 95.9067 560.814 95C559.187 94.0667 557.894 92.7467 556.934 91.04C556.001 89.3333 555.534 87.36 555.534 85.12C555.534 82.88 556.001 80.92 556.934 79.24C557.894 77.5333 559.187 76.2267 560.814 75.32C562.441 74.4133 564.241 73.96 566.214 73.96C568.801 73.96 570.801 74.7067 572.214 76.2V66.32H579.814ZM567.814 90.32C569.121 90.32 570.201 89.8667 571.054 88.96C571.907 88.0267 572.334 86.7467 572.334 85.12C572.334 83.52 571.907 82.2667 571.054 81.36C570.227 80.4533 569.147 80 567.814 80C566.481 80 565.387 80.4533 564.534 81.36C563.681 82.2667 563.254 83.52 563.254 85.12C563.254 86.7467 563.681 88.0267 564.534 88.96C565.387 89.8667 566.481 90.32 567.814 90.32ZM203.628 122.96C206.322 122.96 208.482 123.76 210.108 125.36C211.762 126.96 212.588 129.373 212.588 132.6V145H204.988V133.84C204.988 130.88 203.802 129.4 201.428 129.4C200.122 129.4 199.068 129.827 198.268 130.68C197.495 131.533 197.108 132.813 197.108 134.52V145H189.508V115.32H197.108V125.32C197.935 124.547 198.908 123.96 200.028 123.56C201.148 123.16 202.348 122.96 203.628 122.96ZM239.832 134.2C239.832 134.253 239.792 134.88 239.712 136.08H223.952C224.272 137.2 224.886 138.067 225.792 138.68C226.726 139.267 227.886 139.56 229.272 139.56C230.312 139.56 231.206 139.413 231.952 139.12C232.726 138.827 233.499 138.347 234.272 137.68L238.272 141.84C236.166 144.187 233.086 145.36 229.032 145.36C226.499 145.36 224.272 144.88 222.352 143.92C220.432 142.96 218.939 141.627 217.872 139.92C216.832 138.213 216.312 136.28 216.312 134.12C216.312 131.987 216.819 130.08 217.832 128.4C218.872 126.693 220.299 125.36 222.112 124.4C223.926 123.44 225.966 122.96 228.232 122.96C230.392 122.96 232.352 123.413 234.112 124.32C235.872 125.2 237.259 126.493 238.272 128.2C239.312 129.88 239.832 131.88 239.832 134.2ZM228.272 128.36C227.099 128.36 226.112 128.693 225.312 129.36C224.539 130.027 224.046 130.933 223.832 132.08H232.712C232.499 130.933 231.992 130.027 231.192 129.36C230.419 128.693 229.446 128.36 228.272 128.36ZM243.336 115.32H250.936V145H243.336V115.32ZM269.516 122.96C271.489 122.96 273.276 123.427 274.876 124.36C276.502 125.267 277.782 126.573 278.716 128.28C279.676 129.96 280.156 131.92 280.156 134.16C280.156 136.4 279.676 138.373 278.716 140.08C277.782 141.76 276.502 143.067 274.876 144C273.276 144.907 271.489 145.36 269.516 145.36C266.982 145.36 264.969 144.6 263.476 143.08V152.76H255.876V123.32H263.116V125.48C264.529 123.8 266.662 122.96 269.516 122.96ZM267.916 139.32C269.249 139.32 270.342 138.867 271.196 137.96C272.049 137.027 272.476 135.76 272.476 134.16C272.476 132.56 272.049 131.307 271.196 130.4C270.342 129.467 269.249 129 267.916 129C266.582 129 265.489 129.467 264.636 130.4C263.782 131.307 263.356 132.56 263.356 134.16C263.356 135.76 263.782 137.027 264.636 137.96C265.489 138.867 266.582 139.32 267.916 139.32ZM318.169 123.32L308.809 145.88C307.715 148.547 306.382 150.413 304.809 151.48C303.235 152.573 301.315 153.12 299.049 153.12C297.902 153.12 296.742 152.933 295.569 152.56C294.422 152.213 293.489 151.747 292.769 151.16L295.409 145.84C295.835 146.24 296.342 146.547 296.929 146.76C297.542 147 298.155 147.12 298.769 147.12C299.489 147.12 300.075 146.973 300.529 146.68C301.009 146.387 301.409 145.92 301.729 145.28L292.449 123.32H300.249L305.569 136.56L310.929 123.32H318.169ZM330.427 145.36C328.107 145.36 326.014 144.88 324.147 143.92C322.281 142.96 320.814 141.627 319.747 139.92C318.707 138.213 318.187 136.28 318.187 134.12C318.187 131.987 318.707 130.067 319.747 128.36C320.814 126.653 322.267 125.333 324.107 124.4C325.974 123.44 328.081 122.96 330.427 122.96C332.774 122.96 334.881 123.44 336.747 124.4C338.614 125.333 340.067 126.653 341.107 128.36C342.147 130.04 342.667 131.96 342.667 134.12C342.667 136.28 342.147 138.213 341.107 139.92C340.067 141.627 338.614 142.96 336.747 143.92C334.881 144.88 332.774 145.36 330.427 145.36ZM330.427 139.32C331.761 139.32 332.854 138.867 333.707 137.96C334.561 137.027 334.987 135.747 334.987 134.12C334.987 132.52 334.561 131.267 333.707 130.36C332.854 129.453 331.761 129 330.427 129C329.094 129 328.001 129.453 327.147 130.36C326.294 131.267 325.867 132.52 325.867 134.12C325.867 135.747 326.294 137.027 327.147 137.96C328.001 138.867 329.094 139.32 330.427 139.32ZM368.988 123.32V145H361.748V142.68C360.948 143.56 359.988 144.227 358.868 144.68C357.748 145.133 356.561 145.36 355.308 145.36C352.508 145.36 350.268 144.533 348.588 142.88C346.935 141.227 346.108 138.747 346.108 135.44V123.32H353.708V134.2C353.708 135.827 354.015 137.013 354.628 137.76C355.241 138.507 356.135 138.88 357.308 138.88C358.508 138.88 359.481 138.467 360.228 137.64C361.001 136.787 361.388 135.493 361.388 133.76V123.32H368.988ZM381.123 125.92C381.897 124.933 382.897 124.2 384.123 123.72C385.377 123.213 386.803 122.96 388.403 122.96V129.8C387.71 129.72 387.137 129.68 386.683 129.68C385.057 129.68 383.777 130.12 382.843 131C381.937 131.88 381.483 133.227 381.483 135.04V145H373.883V123.32H381.123V125.92ZM432.925 122.96C435.619 122.96 437.779 123.76 439.405 125.36C441.059 126.96 441.885 129.373 441.885 132.6V145H434.285V133.84C434.285 130.88 433.099 129.4 430.725 129.4C429.419 129.4 428.365 129.827 427.565 130.68C426.792 131.533 426.405 132.813 426.405 134.52V145H418.805V115.32H426.405V125.32C427.232 124.547 428.205 123.96 429.325 123.56C430.445 123.16 431.645 122.96 432.925 122.96ZM446.657 123.32H454.257V145H446.657V123.32ZM450.457 120.92C449.07 120.92 447.95 120.533 447.097 119.76C446.243 118.987 445.817 118.027 445.817 116.88C445.817 115.733 446.243 114.773 447.097 114C447.95 113.227 449.07 112.84 450.457 112.84C451.843 112.84 452.963 113.213 453.817 113.96C454.67 114.68 455.097 115.613 455.097 116.76C455.097 117.96 454.67 118.96 453.817 119.76C452.963 120.533 451.843 120.92 450.457 120.92ZM472.836 122.96C474.809 122.96 476.596 123.427 478.196 124.36C479.823 125.267 481.103 126.573 482.036 128.28C482.996 129.96 483.476 131.92 483.476 134.16C483.476 136.4 482.996 138.373 482.036 140.08C481.103 141.76 479.823 143.067 478.196 144C476.596 144.907 474.809 145.36 472.836 145.36C470.303 145.36 468.289 144.6 466.796 143.08V152.76H459.196V123.32H466.436V125.48C467.849 123.8 469.983 122.96 472.836 122.96ZM471.236 139.32C472.569 139.32 473.663 138.867 474.516 137.96C475.369 137.027 475.796 135.76 475.796 134.16C475.796 132.56 475.369 131.307 474.516 130.4C473.663 129.467 472.569 129 471.236 129C469.903 129 468.809 129.467 467.956 130.4C467.103 131.307 466.676 132.56 466.676 134.16C466.676 135.76 467.103 137.027 467.956 137.96C468.809 138.867 469.903 139.32 471.236 139.32ZM494.888 145.36C493.075 145.36 491.288 145.16 489.528 144.76C487.768 144.333 486.355 143.787 485.288 143.12L487.568 137.92C488.555 138.533 489.728 139.027 491.088 139.4C492.448 139.747 493.795 139.92 495.128 139.92C496.355 139.92 497.222 139.8 497.728 139.56C498.262 139.293 498.528 138.92 498.528 138.44C498.528 137.96 498.208 137.627 497.568 137.44C496.955 137.227 495.968 137.027 494.608 136.84C492.875 136.627 491.395 136.347 490.168 136C488.968 135.653 487.928 135.013 487.048 134.08C486.168 133.147 485.728 131.84 485.728 130.16C485.728 128.773 486.142 127.547 486.968 126.48C487.795 125.387 488.995 124.533 490.568 123.92C492.168 123.28 494.075 122.96 496.288 122.96C497.862 122.96 499.422 123.12 500.968 123.44C502.515 123.76 503.808 124.213 504.848 124.8L502.568 129.96C500.648 128.893 498.568 128.36 496.328 128.36C495.128 128.36 494.248 128.507 493.688 128.8C493.128 129.067 492.848 129.427 492.848 129.88C492.848 130.387 493.155 130.747 493.768 130.96C494.382 131.147 495.395 131.347 496.808 131.56C498.595 131.827 500.075 132.133 501.248 132.48C502.422 132.827 503.435 133.467 504.288 134.4C505.168 135.307 505.608 136.587 505.608 138.24C505.608 139.6 505.195 140.827 504.368 141.92C503.542 142.987 502.315 143.827 500.688 144.44C499.088 145.053 497.155 145.36 494.888 145.36Z" fill="#FFFCF0"/>
<path d="M403.618 115.32H415.858V121.12H411.218V146.96H415.858V152.76H403.618V115.32ZM506.923 152.76V146.96H511.563V121.12H506.923V115.32H519.163V152.76H506.923Z" fill="#71B0F5"/>
<defs>
<filter id="filter0_d_2188_65" x="0.575295" y="0.945177" width="690.567" height="834.48" filterUnits="userSpaceOnUse" color-interpolation-filters="sRGB">
<feFlood flood-opacity="0" result="BackgroundImageFix"/>
<feColorMatrix in="SourceAlpha" type="matrix" values="0 0 0 0 0 0 0 0 0 0 0 0 0 0 0 0 0 0 127 0" result="hardAlpha"/>
<feOffset dx="-2.68494" dy="2.68494"/>
<feGaussianBlur stdDeviation="5.36988"/>
<feComposite in2="hardAlpha" operator="out"/>
<feColorMatrix type="matrix" values="0 0 0 0 0 0 0 0 0 0 0 0 0 0 0 0 0 0 0.3 0"/>
<feBlend mode="normal" in2="BackgroundImageFix" result="effect1_dropShadow_2188_65"/>
<feBlend mode="normal" in="SourceGraphic" in2="effect1_dropShadow_2188_65" result="shape"/>
</filter>
</defs>
</svg>
