<svg width="422" height="353" viewBox="0 0 422 353" fill="none" xmlns="http://www.w3.org/2000/svg">
<path d="M59.49 131.51C59.49 131.51 70.55 141.42 87.02 135.95C103.49 130.48 105.01 113.88 105.01 113.88" stroke="#F9F6F1" stroke-width="8.71" stroke-miterlimit="10"/>
<path d="M45.78 134.06L38.73 117.75" stroke="#F9F6F1" stroke-width="8.71" stroke-miterlimit="10"/>
<path d="M266.75 97.16C266.75 97.16 312.35 30.37 376.35 76.18C440.36 121.99 403.96 175.51 397.54 183.21C391.12 190.91 363.29 186.64 354.73 200.76C346.17 214.88 361.15 244.86 352.16 263.7C343.17 282.54 332.04 280.83 327.76 293.67C323.48 306.51 328.62 330.92 317.06 336.91C305.5 342.9 278.1 345.9 257.55 330.06C237 314.22 232.29 298.81 213.02 298.38C193.75 297.95 181.77 308.66 167.64 322.78C153.51 336.9 132.11 352.13 113.7 341.74C95.2899 331.35 101.71 306.94 95.7199 295.38C89.7299 283.82 70.0299 270.55 67.8899 252.14C65.7499 233.73 80.3099 216.18 70.8899 206.33C61.4699 196.48 49.4799 197.34 32.3599 187.92C15.2399 178.5 -22.0101 101.87 50.3399 71.47C122.69 41.07 145.81 81.32 150.52 94.16" stroke="#F9F6F1" stroke-width="8.71" stroke-miterlimit="10"/>
<path d="M155.44 107.32C155.44 107.32 150.83 119.82 149.38 130.47C148.07 140.13 146.55 153.55 149.38 159.22C152.21 164.89 172.86 170.65 177.32 176.07C181.78 181.49 195.69 208.62 209.99 208.21C224.29 207.8 234.81 180.77 242.5 176.07C250.19 171.37 269.22 165.7 271.25 156.39C273.28 147.08 274.89 113.88 266.39 105.38C257.89 96.88 230.91 97.52 209.99 96.88C178.05 95.9 158.65 100.12 158.65 100.12" stroke="#F9F6F1" stroke-width="8.71" stroke-miterlimit="10"/>
<path d="M181.7 5.76001V86.55" stroke="#F9F6F1" stroke-width="8.71" stroke-miterlimit="10"/>
<path d="M237.86 5.76001V86.55" stroke="#F9F6F1" stroke-width="8.71" stroke-miterlimit="10"/>
<path d="M191.13 120.96C191.13 120.96 200.17 127.28 209.99 127.28C219.81 127.28 230.09 120.96 230.09 120.96" stroke="#F9F6F1" stroke-width="8.71" stroke-miterlimit="10"/>
<path d="M191.72 156.08C191.72 156.08 200.76 162.4 210.58 162.4C220.4 162.4 230.68 156.08 230.68 156.08" stroke="#F9F6F1" stroke-width="8.71" stroke-miterlimit="10"/>
<path d="M142.93 165.38C142.93 165.38 132.67 172.71 126.81 186.64C120.95 200.57 118.75 211.93 121.68 217.42C124.61 222.91 142.19 253.7 210 253.7C277.81 253.7 296.13 225.48 300.16 216.32C304.19 207.16 296.86 191.77 291.36 181.87C285.86 171.97 277.07 165.38 277.07 165.38" stroke="#F9F6F1" stroke-width="8.71" stroke-miterlimit="10"/>
<path d="M132.84 272.61C127.58 278.58 129.49 305.88 134.76 307.08C140.03 308.28 168.51 287.69 167.08 279.79C165.65 271.89 140.03 264.47 132.85 272.61H132.84Z" stroke="#F9F6F1" stroke-width="8.71" stroke-miterlimit="10"/>
<path d="M288.45 275.13C293.71 281.1 291.8 308.4 286.53 309.6C281.26 310.8 252.78 290.21 254.21 282.31C255.64 274.41 281.26 266.99 288.44 275.13H288.45Z" stroke="#F9F6F1" stroke-width="8.71" stroke-miterlimit="10"/>
<path d="M93.1301 109.02L86.0801 92.72" stroke="#F9F6F1" stroke-width="8.71" stroke-miterlimit="10"/>
</svg>
