<svg width="431" height="29" viewBox="0 0 431 29" fill="none" xmlns="http://www.w3.org/2000/svg">
<path d="M0.771992 7.1H3.65199V23H0.771992V7.1ZM2.21199 4.04C1.65199 4.04 1.18199 3.86 0.801992 3.5C0.441992 3.14 0.261992 2.7 0.261992 2.18C0.261992 1.66 0.441992 1.22 0.801992 0.859999C1.18199 0.479999 1.65199 0.289999 2.21199 0.289999C2.77199 0.289999 3.23199 0.469999 3.59199 0.829999C3.97199 1.17 4.16199 1.6 4.16199 2.12C4.16199 2.66 3.97199 3.12 3.59199 3.5C3.23199 3.86 2.77199 4.04 2.21199 4.04ZM17.6409 6.95C19.6609 6.95 21.2609 7.54 22.4409 8.72C23.6409 9.88 24.2409 11.59 24.2409 13.85V23H21.3609V14.18C21.3609 12.64 20.9909 11.48 20.2509 10.7C19.5109 9.92 18.4509 9.53 17.0709 9.53C15.5109 9.53 14.2809 9.99 13.3809 10.91C12.4809 11.81 12.0309 13.11 12.0309 14.81V23H9.1509V7.1H11.9109V9.5C12.4909 8.68 13.2709 8.05 14.2509 7.61C15.2509 7.17 16.3809 6.95 17.6409 6.95ZM34.1308 23.18C32.8308 23.18 31.5808 23.01 30.3808 22.67C29.1808 22.31 28.2408 21.86 27.5608 21.32L28.7608 19.04C29.4608 19.54 30.3108 19.94 31.3108 20.24C32.3108 20.54 33.3208 20.69 34.3408 20.69C36.8608 20.69 38.1208 19.97 38.1208 18.53C38.1208 18.05 37.9508 17.67 37.6108 17.39C37.2708 17.11 36.8408 16.91 36.3208 16.79C35.8208 16.65 35.1008 16.5 34.1608 16.34C32.8808 16.14 31.8308 15.91 31.0108 15.65C30.2108 15.39 29.5208 14.95 28.9408 14.33C28.3608 13.71 28.0708 12.84 28.0708 11.72C28.0708 10.28 28.6708 9.13 29.8708 8.27C31.0708 7.39 32.6808 6.95 34.7008 6.95C35.7608 6.95 36.8208 7.08 37.8808 7.34C38.9408 7.6 39.8108 7.95 40.4908 8.39L39.2608 10.67C37.9608 9.83 36.4308 9.41 34.6708 9.41C33.4508 9.41 32.5208 9.61 31.8808 10.01C31.2408 10.41 30.9208 10.94 30.9208 11.6C30.9208 12.12 31.1008 12.53 31.4608 12.83C31.8208 13.13 32.2608 13.35 32.7808 13.49C33.3208 13.63 34.0708 13.79 35.0308 13.97C36.3108 14.19 37.3408 14.43 38.1208 14.69C38.9208 14.93 39.6008 15.35 40.1608 15.95C40.7208 16.55 41.0008 17.39 41.0008 18.47C41.0008 19.91 40.3808 21.06 39.1408 21.92C37.9208 22.76 36.2508 23.18 34.1308 23.18ZM53.5401 22.07C53.1201 22.43 52.6001 22.71 51.9801 22.91C51.3601 23.09 50.7201 23.18 50.0601 23.18C48.4601 23.18 47.2201 22.75 46.3401 21.89C45.4601 21.03 45.0201 19.8 45.0201 18.2V9.47H42.3201V7.1H45.0201V3.62H47.9001V7.1H52.4601V9.47H47.9001V18.08C47.9001 18.94 48.1101 19.6 48.5301 20.06C48.9701 20.52 49.5901 20.75 50.3901 20.75C51.2701 20.75 52.0201 20.5 52.6401 20L53.5401 22.07ZM59.782 9.77C60.282 8.85 61.022 8.15 62.002 7.67C62.982 7.19 64.172 6.95 65.572 6.95V9.74C65.412 9.72 65.192 9.71 64.912 9.71C63.352 9.71 62.122 10.18 61.222 11.12C60.342 12.04 59.902 13.36 59.902 15.08V23H57.022V7.1H59.782V9.77ZM84.1467 7.1V23H81.4167V20.6C80.8367 21.42 80.0667 22.06 79.1067 22.52C78.1667 22.96 77.1367 23.18 76.0167 23.18C73.8967 23.18 72.2267 22.6 71.0067 21.44C69.7867 20.26 69.1767 18.53 69.1767 16.25V7.1H72.0567V15.92C72.0567 17.46 72.4267 18.63 73.1667 19.43C73.9067 20.21 74.9667 20.6 76.3467 20.6C77.8667 20.6 79.0667 20.14 79.9467 19.22C80.8267 18.3 81.2667 17 81.2667 15.32V7.1H84.1467ZM96.5594 23.18C94.9394 23.18 93.4894 22.83 92.2094 22.13C90.9494 21.43 89.9594 20.47 89.2394 19.25C88.5194 18.01 88.1594 16.61 88.1594 15.05C88.1594 13.49 88.5194 12.1 89.2394 10.88C89.9594 9.64 90.9494 8.68 92.2094 8C93.4894 7.3 94.9394 6.95 96.5594 6.95C97.9994 6.95 99.2794 7.24 100.399 7.82C101.539 8.4 102.419 9.24 103.039 10.34L100.849 11.75C100.349 10.99 99.7294 10.42 98.9894 10.04C98.2494 9.66 97.4294 9.47 96.5294 9.47C95.4894 9.47 94.5494 9.7 93.7094 10.16C92.8894 10.62 92.2394 11.28 91.7594 12.14C91.2994 12.98 91.0694 13.95 91.0694 15.05C91.0694 16.17 91.2994 17.16 91.7594 18.02C92.2394 18.86 92.8894 19.51 93.7094 19.97C94.5494 20.43 95.4894 20.66 96.5294 20.66C97.4294 20.66 98.2494 20.47 98.9894 20.09C99.7294 19.71 100.349 19.14 100.849 18.38L103.039 19.76C102.419 20.86 101.539 21.71 100.399 22.31C99.2794 22.89 97.9994 23.18 96.5594 23.18ZM115.913 22.07C115.493 22.43 114.973 22.71 114.353 22.91C113.733 23.09 113.093 23.18 112.433 23.18C110.833 23.18 109.593 22.75 108.713 21.89C107.833 21.03 107.393 19.8 107.393 18.2V9.47H104.693V7.1H107.393V3.62H110.273V7.1H114.833V9.47H110.273V18.08C110.273 18.94 110.483 19.6 110.903 20.06C111.343 20.52 111.963 20.75 112.763 20.75C113.643 20.75 114.393 20.5 115.013 20L115.913 22.07ZM119.395 7.1H122.275V23H119.395V7.1ZM120.835 4.04C120.275 4.04 119.805 3.86 119.425 3.5C119.065 3.14 118.885 2.7 118.885 2.18C118.885 1.66 119.065 1.22 119.425 0.859999C119.805 0.479999 120.275 0.289999 120.835 0.289999C121.395 0.289999 121.855 0.469999 122.215 0.829999C122.595 1.17 122.785 1.6 122.785 2.12C122.785 2.66 122.595 3.12 122.215 3.5C121.855 3.86 121.395 4.04 120.835 4.04ZM134.584 23.18C133.004 23.18 131.584 22.83 130.324 22.13C129.064 21.43 128.074 20.47 127.354 19.25C126.654 18.01 126.304 16.61 126.304 15.05C126.304 13.49 126.654 12.1 127.354 10.88C128.074 9.64 129.064 8.68 130.324 8C131.584 7.3 133.004 6.95 134.584 6.95C136.164 6.95 137.574 7.3 138.814 8C140.074 8.68 141.054 9.64 141.754 10.88C142.474 12.1 142.834 13.49 142.834 15.05C142.834 16.61 142.474 18.01 141.754 19.25C141.054 20.47 140.074 21.43 138.814 22.13C137.574 22.83 136.164 23.18 134.584 23.18ZM134.584 20.66C135.604 20.66 136.514 20.43 137.314 19.97C138.134 19.49 138.774 18.83 139.234 17.99C139.694 17.13 139.924 16.15 139.924 15.05C139.924 13.95 139.694 12.98 139.234 12.14C138.774 11.28 138.134 10.62 137.314 10.16C136.514 9.7 135.604 9.47 134.584 9.47C133.564 9.47 132.644 9.7 131.824 10.16C131.024 10.62 130.384 11.28 129.904 12.14C129.444 12.98 129.214 13.95 129.214 15.05C129.214 16.15 129.444 17.13 129.904 17.99C130.384 18.83 131.024 19.49 131.824 19.97C132.644 20.43 133.564 20.66 134.584 20.66ZM155.307 6.95C157.327 6.95 158.927 7.54 160.107 8.72C161.307 9.88 161.907 11.59 161.907 13.85V23H159.027V14.18C159.027 12.64 158.657 11.48 157.917 10.7C157.177 9.92 156.117 9.53 154.737 9.53C153.177 9.53 151.947 9.99 151.047 10.91C150.147 11.81 149.697 13.11 149.697 14.81V23H146.817V7.1H149.577V9.5C150.157 8.68 150.937 8.05 151.917 7.61C152.917 7.17 154.047 6.95 155.307 6.95ZM171.797 23.18C170.497 23.18 169.247 23.01 168.047 22.67C166.847 22.31 165.907 21.86 165.227 21.32L166.427 19.04C167.127 19.54 167.977 19.94 168.977 20.24C169.977 20.54 170.987 20.69 172.007 20.69C174.527 20.69 175.787 19.97 175.787 18.53C175.787 18.05 175.617 17.67 175.277 17.39C174.937 17.11 174.507 16.91 173.987 16.79C173.487 16.65 172.767 16.5 171.827 16.34C170.547 16.14 169.497 15.91 168.677 15.65C167.877 15.39 167.187 14.95 166.607 14.33C166.027 13.71 165.737 12.84 165.737 11.72C165.737 10.28 166.337 9.13 167.537 8.27C168.737 7.39 170.347 6.95 172.367 6.95C173.427 6.95 174.487 7.08 175.547 7.34C176.607 7.6 177.477 7.95 178.157 8.39L176.927 10.67C175.627 9.83 174.097 9.41 172.337 9.41C171.117 9.41 170.187 9.61 169.547 10.01C168.907 10.41 168.587 10.94 168.587 11.6C168.587 12.12 168.767 12.53 169.127 12.83C169.487 13.13 169.927 13.35 170.447 13.49C170.987 13.63 171.737 13.79 172.697 13.97C173.977 14.19 175.007 14.43 175.787 14.69C176.587 14.93 177.267 15.35 177.827 15.95C178.387 16.55 178.667 17.39 178.667 18.47C178.667 19.91 178.047 21.06 176.807 21.92C175.587 22.76 173.917 23.18 171.797 23.18ZM214.383 7.1L208.443 23H205.683L201.093 10.94L196.443 23H193.683L187.773 7.1H190.503L195.123 19.76L199.923 7.1H202.353L207.063 19.82L211.803 7.1H214.383ZM217.305 7.1H220.185V23H217.305V7.1ZM218.745 4.04C218.185 4.04 217.715 3.86 217.335 3.5C216.975 3.14 216.795 2.7 216.795 2.18C216.795 1.66 216.975 1.22 217.335 0.859999C217.715 0.479999 218.185 0.289999 218.745 0.289999C219.305 0.289999 219.765 0.469999 220.125 0.829999C220.505 1.17 220.695 1.6 220.695 2.12C220.695 2.66 220.505 3.12 220.125 3.5C219.765 3.86 219.305 4.04 218.745 4.04ZM225.684 0.739999H228.564V23H225.684V0.739999ZM234.063 0.739999H236.943V23H234.063V0.739999ZM256.289 6.95C258.489 6.95 260.169 7.49 261.329 8.57C262.509 9.65 263.099 11.26 263.099 13.4V23H260.369V20.9C259.889 21.64 259.199 22.21 258.299 22.61C257.419 22.99 256.369 23.18 255.149 23.18C253.369 23.18 251.939 22.75 250.859 21.89C249.799 21.03 249.269 19.9 249.269 18.5C249.269 17.1 249.779 15.98 250.799 15.14C251.819 14.28 253.439 13.85 255.659 13.85H260.219V13.28C260.219 12.04 259.859 11.09 259.139 10.43C258.419 9.77 257.359 9.44 255.959 9.44C255.019 9.44 254.099 9.6 253.199 9.92C252.299 10.22 251.539 10.63 250.919 11.15L249.719 8.99C250.539 8.33 251.519 7.83 252.659 7.49C253.799 7.13 255.009 6.95 256.289 6.95ZM255.629 20.96C256.729 20.96 257.679 20.72 258.479 20.24C259.279 19.74 259.859 19.04 260.219 18.14V15.92H255.779C253.339 15.92 252.119 16.74 252.119 18.38C252.119 19.18 252.429 19.81 253.049 20.27C253.669 20.73 254.529 20.96 255.629 20.96ZM276.858 6.95C278.398 6.95 279.778 7.29 280.998 7.97C282.218 8.65 283.168 9.6 283.848 10.82C284.548 12.04 284.898 13.45 284.898 15.05C284.898 16.65 284.548 18.07 283.848 19.31C283.168 20.53 282.218 21.48 280.998 22.16C279.778 22.84 278.398 23.18 276.858 23.18C275.718 23.18 274.668 22.96 273.708 22.52C272.768 22.08 271.968 21.44 271.308 20.6V28.82H268.428V7.1H271.188V9.62C271.828 8.74 272.638 8.08 273.618 7.64C274.598 7.18 275.678 6.95 276.858 6.95ZM276.618 20.66C277.638 20.66 278.548 20.43 279.348 19.97C280.168 19.49 280.808 18.83 281.268 17.99C281.748 17.13 281.988 16.15 281.988 15.05C281.988 13.95 281.748 12.98 281.268 12.14C280.808 11.28 280.168 10.62 279.348 10.16C278.548 9.7 277.638 9.47 276.618 9.47C275.618 9.47 274.708 9.71 273.888 10.19C273.088 10.65 272.448 11.3 271.968 12.14C271.508 12.98 271.278 13.95 271.278 15.05C271.278 16.15 271.508 17.13 271.968 17.99C272.428 18.83 273.068 19.49 273.888 19.97C274.708 20.43 275.618 20.66 276.618 20.66ZM297.307 6.95C298.847 6.95 300.227 7.29 301.447 7.97C302.667 8.65 303.617 9.6 304.297 10.82C304.997 12.04 305.347 13.45 305.347 15.05C305.347 16.65 304.997 18.07 304.297 19.31C303.617 20.53 302.667 21.48 301.447 22.16C300.227 22.84 298.847 23.18 297.307 23.18C296.167 23.18 295.117 22.96 294.157 22.52C293.217 22.08 292.417 21.44 291.757 20.6V28.82H288.877V7.1H291.637V9.62C292.277 8.74 293.087 8.08 294.067 7.64C295.047 7.18 296.127 6.95 297.307 6.95ZM297.067 20.66C298.087 20.66 298.997 20.43 299.797 19.97C300.617 19.49 301.257 18.83 301.717 17.99C302.197 17.13 302.437 16.15 302.437 15.05C302.437 13.95 302.197 12.98 301.717 12.14C301.257 11.28 300.617 10.62 299.797 10.16C298.997 9.7 298.087 9.47 297.067 9.47C296.067 9.47 295.157 9.71 294.337 10.19C293.537 10.65 292.897 11.3 292.417 12.14C291.957 12.98 291.727 13.95 291.727 15.05C291.727 16.15 291.957 17.13 292.417 17.99C292.877 18.83 293.517 19.49 294.337 19.97C295.157 20.43 296.067 20.66 297.067 20.66ZM323.697 15.14C323.697 15.36 323.677 15.65 323.637 16.01H310.737C310.917 17.41 311.527 18.54 312.567 19.4C313.627 20.24 314.937 20.66 316.497 20.66C318.397 20.66 319.927 20.02 321.087 18.74L322.677 20.6C321.957 21.44 321.057 22.08 319.977 22.52C318.917 22.96 317.727 23.18 316.407 23.18C314.727 23.18 313.237 22.84 311.937 22.16C310.637 21.46 309.627 20.49 308.907 19.25C308.207 18.01 307.857 16.61 307.857 15.05C307.857 13.51 308.197 12.12 308.877 10.88C309.577 9.64 310.527 8.68 311.727 8C312.947 7.3 314.317 6.95 315.837 6.95C317.357 6.95 318.707 7.3 319.887 8C321.087 8.68 322.017 9.64 322.677 10.88C323.357 12.12 323.697 13.54 323.697 15.14ZM315.837 9.38C314.457 9.38 313.297 9.8 312.357 10.64C311.437 11.48 310.897 12.58 310.737 13.94H320.937C320.777 12.6 320.227 11.51 319.287 10.67C318.367 9.81 317.217 9.38 315.837 9.38ZM333.046 6.95C335.246 6.95 336.926 7.49 338.086 8.57C339.266 9.65 339.856 11.26 339.856 13.4V23H337.126V20.9C336.646 21.64 335.956 22.21 335.056 22.61C334.176 22.99 333.126 23.18 331.906 23.18C330.126 23.18 328.696 22.75 327.616 21.89C326.556 21.03 326.026 19.9 326.026 18.5C326.026 17.1 326.536 15.98 327.556 15.14C328.576 14.28 330.196 13.85 332.416 13.85H336.976V13.28C336.976 12.04 336.616 11.09 335.896 10.43C335.176 9.77 334.116 9.44 332.716 9.44C331.776 9.44 330.856 9.6 329.956 9.92C329.056 10.22 328.296 10.63 327.676 11.15L326.476 8.99C327.296 8.33 328.276 7.83 329.416 7.49C330.556 7.13 331.766 6.95 333.046 6.95ZM332.386 20.96C333.486 20.96 334.436 20.72 335.236 20.24C336.036 19.74 336.616 19.04 336.976 18.14V15.92H332.536C330.096 15.92 328.876 16.74 328.876 18.38C328.876 19.18 329.186 19.81 329.806 20.27C330.426 20.73 331.286 20.96 332.386 20.96ZM347.946 9.77C348.446 8.85 349.186 8.15 350.166 7.67C351.146 7.19 352.336 6.95 353.736 6.95V9.74C353.576 9.72 353.356 9.71 353.076 9.71C351.516 9.71 350.286 10.18 349.386 11.12C348.506 12.04 348.066 13.36 348.066 15.08V23H345.186V7.1H347.946V9.77ZM374.037 6.95C376.057 6.95 377.657 7.54 378.837 8.72C380.037 9.88 380.637 11.59 380.637 13.85V23H377.757V14.18C377.757 12.64 377.387 11.48 376.647 10.7C375.907 9.92 374.847 9.53 373.467 9.53C371.907 9.53 370.677 9.99 369.777 10.91C368.877 11.81 368.427 13.11 368.427 14.81V23H365.547V0.739999H368.427V9.35C369.027 8.59 369.807 8 370.767 7.58C371.747 7.16 372.837 6.95 374.037 6.95ZM400.425 15.14C400.425 15.36 400.405 15.65 400.365 16.01H387.465C387.645 17.41 388.255 18.54 389.295 19.4C390.355 20.24 391.665 20.66 393.225 20.66C395.125 20.66 396.655 20.02 397.815 18.74L399.405 20.6C398.685 21.44 397.785 22.08 396.705 22.52C395.645 22.96 394.455 23.18 393.135 23.18C391.455 23.18 389.965 22.84 388.665 22.16C387.365 21.46 386.355 20.49 385.635 19.25C384.935 18.01 384.585 16.61 384.585 15.05C384.585 13.51 384.925 12.12 385.605 10.88C386.305 9.64 387.255 8.68 388.455 8C389.675 7.3 391.045 6.95 392.565 6.95C394.085 6.95 395.435 7.3 396.615 8C397.815 8.68 398.745 9.64 399.405 10.88C400.085 12.12 400.425 13.54 400.425 15.14ZM392.565 9.38C391.185 9.38 390.025 9.8 389.085 10.64C388.165 11.48 387.625 12.58 387.465 13.94H397.665C397.505 12.6 396.955 11.51 396.015 10.67C395.095 9.81 393.945 9.38 392.565 9.38ZM407.184 9.77C407.684 8.85 408.424 8.15 409.404 7.67C410.384 7.19 411.574 6.95 412.974 6.95V9.74C412.814 9.72 412.594 9.71 412.314 9.71C410.754 9.71 409.524 10.18 408.624 11.12C407.744 12.04 407.304 13.36 407.304 15.08V23H404.424V7.1H407.184V9.77ZM430.747 15.14C430.747 15.36 430.727 15.65 430.687 16.01H417.787C417.967 17.41 418.577 18.54 419.617 19.4C420.677 20.24 421.987 20.66 423.547 20.66C425.447 20.66 426.977 20.02 428.137 18.74L429.727 20.6C429.007 21.44 428.107 22.08 427.027 22.52C425.967 22.96 424.777 23.18 423.457 23.18C421.777 23.18 420.287 22.84 418.987 22.16C417.687 21.46 416.677 20.49 415.957 19.25C415.257 18.01 414.907 16.61 414.907 15.05C414.907 13.51 415.247 12.12 415.927 10.88C416.627 9.64 417.577 8.68 418.777 8C419.997 7.3 421.367 6.95 422.887 6.95C424.407 6.95 425.757 7.3 426.937 8C428.137 8.68 429.067 9.64 429.727 10.88C430.407 12.12 430.747 13.54 430.747 15.14ZM422.887 9.38C421.507 9.38 420.347 9.8 419.407 10.64C418.487 11.48 417.947 12.58 417.787 13.94H427.987C427.827 12.6 427.277 11.51 426.337 10.67C425.417 9.81 424.267 9.38 422.887 9.38Z" fill="#FFFCF0"/>
</svg>
