<svg width="862" height="767" viewBox="0 0 862 767" fill="none" xmlns="http://www.w3.org/2000/svg">
<rect x="203" width="810" height="750" rx="90" fill="#3E3232"/>
<g filter="url(#filter0_d_2060_1166)">
<path d="M514 336L497.483 299.457H524.227C527.694 297.973 535.519 294.115 539.085 290.554C542.651 286.993 546.514 278.19 548 274.234V93.2228C547.009 89.7609 543.84 81.65 539.085 76.9022C534.331 72.1544 527.199 68.9891 524.227 68H48.7727C44.8106 69.4837 35.9949 73.3413 32.429 76.9022C28.863 80.4631 25.9905 88.2772 25 91.7391V275.717C25.9905 279.179 29.1602 287.29 33.9147 292.038C38.6693 296.786 48.7727 298.962 53.2301 299.457H467.767L514 336Z" fill="#F9F6F1"/>
</g>
<path d="M104.82 117L97.8 138H94.65L88.92 121.23L83.19 138H79.98L72.96 117H76.05L81.72 134.07L87.63 117H90.39L96.18 134.16L101.97 117H104.82ZM121.239 130.14C121.239 130.36 121.219 130.65 121.179 131.01H108.279C108.459 132.41 109.069 133.54 110.109 134.4C111.169 135.24 112.479 135.66 114.039 135.66C115.939 135.66 117.469 135.02 118.629 133.74L120.219 135.6C119.499 136.44 118.599 137.08 117.519 137.52C116.459 137.96 115.269 138.18 113.949 138.18C112.269 138.18 110.779 137.84 109.479 137.16C108.179 136.46 107.169 135.49 106.449 134.25C105.749 133.01 105.399 131.61 105.399 130.05C105.399 128.51 105.739 127.12 106.419 125.88C107.119 124.64 108.069 123.68 109.269 123C110.489 122.3 111.859 121.95 113.379 121.95C114.899 121.95 116.249 122.3 117.429 123C118.629 123.68 119.559 124.64 120.219 125.88C120.899 127.12 121.239 128.54 121.239 130.14ZM113.379 124.38C111.999 124.38 110.839 124.8 109.899 125.64C108.979 126.48 108.439 127.58 108.279 128.94H118.479C118.319 127.6 117.769 126.51 116.829 125.67C115.909 124.81 114.759 124.38 113.379 124.38ZM141.784 121.95C143.804 121.95 145.404 122.54 146.584 123.72C147.784 124.88 148.384 126.59 148.384 128.85V138H145.504V129.18C145.504 127.64 145.134 126.48 144.394 125.7C143.654 124.92 142.594 124.53 141.214 124.53C139.654 124.53 138.424 124.99 137.524 125.91C136.624 126.81 136.174 128.11 136.174 129.81V138H133.294V115.74H136.174V124.35C136.774 123.59 137.554 123 138.514 122.58C139.494 122.16 140.584 121.95 141.784 121.95ZM159.504 121.95C161.704 121.95 163.384 122.49 164.544 123.57C165.724 124.65 166.314 126.26 166.314 128.4V138H163.584V135.9C163.104 136.64 162.414 137.21 161.514 137.61C160.634 137.99 159.584 138.18 158.364 138.18C156.584 138.18 155.154 137.75 154.074 136.89C153.014 136.03 152.484 134.9 152.484 133.5C152.484 132.1 152.994 130.98 154.014 130.14C155.034 129.28 156.654 128.85 158.874 128.85H163.434V128.28C163.434 127.04 163.074 126.09 162.354 125.43C161.634 124.77 160.574 124.44 159.174 124.44C158.234 124.44 157.314 124.6 156.414 124.92C155.514 125.22 154.754 125.63 154.134 126.15L152.934 123.99C153.754 123.33 154.734 122.83 155.874 122.49C157.014 122.13 158.224 121.95 159.504 121.95ZM158.844 135.96C159.944 135.96 160.894 135.72 161.694 135.24C162.494 134.74 163.074 134.04 163.434 133.14V130.92H158.994C156.554 130.92 155.334 131.74 155.334 133.38C155.334 134.18 155.644 134.81 156.264 135.27C156.884 135.73 157.744 135.96 158.844 135.96ZM185.421 122.1L178.461 138H175.521L168.561 122.1H171.561L177.021 134.85L182.601 122.1H185.421ZM202.039 130.14C202.039 130.36 202.019 130.65 201.979 131.01H189.079C189.259 132.41 189.869 133.54 190.909 134.4C191.969 135.24 193.279 135.66 194.839 135.66C196.739 135.66 198.269 135.02 199.429 133.74L201.019 135.6C200.299 136.44 199.399 137.08 198.319 137.52C197.259 137.96 196.069 138.18 194.749 138.18C193.069 138.18 191.579 137.84 190.279 137.16C188.979 136.46 187.969 135.49 187.249 134.25C186.549 133.01 186.199 131.61 186.199 130.05C186.199 128.51 186.539 127.12 187.219 125.88C187.919 124.64 188.869 123.68 190.069 123C191.289 122.3 192.659 121.95 194.179 121.95C195.699 121.95 197.049 122.3 198.229 123C199.429 123.68 200.359 124.64 201.019 125.88C201.699 127.12 202.039 128.54 202.039 130.14ZM194.179 124.38C192.799 124.38 191.639 124.8 190.699 125.64C189.779 126.48 189.239 127.58 189.079 128.94H199.279C199.119 127.6 198.569 126.51 197.629 125.67C196.709 124.81 195.559 124.38 194.179 124.38ZM228.465 130.14C228.465 130.36 228.445 130.65 228.405 131.01H215.505C215.685 132.41 216.295 133.54 217.335 134.4C218.395 135.24 219.705 135.66 221.265 135.66C223.165 135.66 224.695 135.02 225.855 133.74L227.445 135.6C226.725 136.44 225.825 137.08 224.745 137.52C223.685 137.96 222.495 138.18 221.175 138.18C219.495 138.18 218.005 137.84 216.705 137.16C215.405 136.46 214.395 135.49 213.675 134.25C212.975 133.01 212.625 131.61 212.625 130.05C212.625 128.51 212.965 127.12 213.645 125.88C214.345 124.64 215.295 123.68 216.495 123C217.715 122.3 219.085 121.95 220.605 121.95C222.125 121.95 223.475 122.3 224.655 123C225.855 123.68 226.785 124.64 227.445 125.88C228.125 127.12 228.465 128.54 228.465 130.14ZM220.605 124.38C219.225 124.38 218.065 124.8 217.125 125.64C216.205 126.48 215.665 127.58 215.505 128.94H225.705C225.545 127.6 224.995 126.51 224.055 125.67C223.135 124.81 221.985 124.38 220.605 124.38ZM246.241 122.1L239.281 138H236.341L229.381 122.1H232.381L237.841 134.85L243.421 122.1H246.241ZM262.86 130.14C262.86 130.36 262.84 130.65 262.8 131.01H249.9C250.08 132.41 250.69 133.54 251.73 134.4C252.79 135.24 254.1 135.66 255.66 135.66C257.56 135.66 259.09 135.02 260.25 133.74L261.84 135.6C261.12 136.44 260.22 137.08 259.14 137.52C258.08 137.96 256.89 138.18 255.57 138.18C253.89 138.18 252.4 137.84 251.1 137.16C249.8 136.46 248.79 135.49 248.07 134.25C247.37 133.01 247.02 131.61 247.02 130.05C247.02 128.51 247.36 127.12 248.04 125.88C248.74 124.64 249.69 123.68 250.89 123C252.11 122.3 253.48 121.95 255 121.95C256.52 121.95 257.87 122.3 259.05 123C260.25 123.68 261.18 124.64 261.84 125.88C262.52 127.12 262.86 128.54 262.86 130.14ZM255 124.38C253.62 124.38 252.46 124.8 251.52 125.64C250.6 126.48 250.06 127.58 249.9 128.94H260.1C259.94 127.6 259.39 126.51 258.45 125.67C257.53 124.81 256.38 124.38 255 124.38ZM269.619 124.77C270.119 123.85 270.859 123.15 271.839 122.67C272.819 122.19 274.009 121.95 275.409 121.95V124.74C275.249 124.72 275.029 124.71 274.749 124.71C273.189 124.71 271.959 125.18 271.059 126.12C270.179 127.04 269.739 128.36 269.739 130.08V138H266.859V122.1H269.619V124.77ZM293.673 122.1L285.963 139.59C285.283 141.21 284.483 142.35 283.563 143.01C282.663 143.67 281.573 144 280.293 144C279.513 144 278.753 143.87 278.013 143.61C277.293 143.37 276.693 143.01 276.213 142.53L277.443 140.37C278.263 141.15 279.213 141.54 280.293 141.54C280.993 141.54 281.573 141.35 282.033 140.97C282.513 140.61 282.943 139.98 283.323 139.08L283.833 137.97L276.813 122.1H279.813L285.363 134.82L290.853 122.1H293.673ZM305.74 137.07C305.32 137.43 304.8 137.71 304.18 137.91C303.56 138.09 302.92 138.18 302.26 138.18C300.66 138.18 299.42 137.75 298.54 136.89C297.66 136.03 297.22 134.8 297.22 133.2V124.47H294.52V122.1H297.22V118.62H300.1V122.1H304.66V124.47H300.1V133.08C300.1 133.94 300.31 134.6 300.73 135.06C301.17 135.52 301.79 135.75 302.59 135.75C303.47 135.75 304.22 135.5 304.84 135L305.74 137.07ZM317.712 121.95C319.732 121.95 321.332 122.54 322.512 123.72C323.712 124.88 324.312 126.59 324.312 128.85V138H321.432V129.18C321.432 127.64 321.062 126.48 320.322 125.7C319.582 124.92 318.522 124.53 317.142 124.53C315.582 124.53 314.352 124.99 313.452 125.91C312.552 126.81 312.102 128.11 312.102 129.81V138H309.222V115.74H312.102V124.35C312.702 123.59 313.482 123 314.442 122.58C315.422 122.16 316.512 121.95 317.712 121.95ZM329.642 122.1H332.522V138H329.642V122.1ZM331.082 119.04C330.522 119.04 330.052 118.86 329.672 118.5C329.312 118.14 329.132 117.7 329.132 117.18C329.132 116.66 329.312 116.22 329.672 115.86C330.052 115.48 330.522 115.29 331.082 115.29C331.642 115.29 332.102 115.47 332.462 115.83C332.842 116.17 333.032 116.6 333.032 117.12C333.032 117.66 332.842 118.12 332.462 118.5C332.102 118.86 331.642 119.04 331.082 119.04ZM346.511 121.95C348.531 121.95 350.131 122.54 351.311 123.72C352.511 124.88 353.111 126.59 353.111 128.85V138H350.231V129.18C350.231 127.64 349.861 126.48 349.121 125.7C348.381 124.92 347.321 124.53 345.941 124.53C344.381 124.53 343.151 124.99 342.251 125.91C341.351 126.81 340.901 128.11 340.901 129.81V138H338.021V122.1H340.781V124.5C341.361 123.68 342.141 123.05 343.121 122.61C344.121 122.17 345.251 121.95 346.511 121.95ZM373.739 122.1V135.84C373.739 138.62 373.049 140.67 371.669 141.99C370.289 143.33 368.229 144 365.489 144C363.989 144 362.559 143.79 361.199 143.37C359.839 142.97 358.739 142.39 357.899 141.63L359.279 139.41C360.019 140.05 360.929 140.55 362.009 140.91C363.109 141.29 364.239 141.48 365.399 141.48C367.259 141.48 368.629 141.04 369.509 140.16C370.409 139.28 370.859 137.94 370.859 136.14V134.88C370.179 135.7 369.339 136.32 368.339 136.74C367.359 137.14 366.289 137.34 365.129 137.34C363.609 137.34 362.229 137.02 360.989 136.38C359.769 135.72 358.809 134.81 358.109 133.65C357.409 132.47 357.059 131.13 357.059 129.63C357.059 128.13 357.409 126.8 358.109 125.64C358.809 124.46 359.769 123.55 360.989 122.91C362.229 122.27 363.609 121.95 365.129 121.95C366.329 121.95 367.439 122.17 368.459 122.61C369.499 123.05 370.349 123.7 371.009 124.56V122.1H373.739ZM365.459 134.82C366.499 134.82 367.429 134.6 368.249 134.16C369.089 133.72 369.739 133.11 370.199 132.33C370.679 131.53 370.919 130.63 370.919 129.63C370.919 128.09 370.409 126.85 369.389 125.91C368.369 124.95 367.059 124.47 365.459 124.47C363.839 124.47 362.519 124.95 361.499 125.91C360.479 126.85 359.969 128.09 359.969 129.63C359.969 130.63 360.199 131.53 360.659 132.33C361.139 133.11 361.789 133.72 362.609 134.16C363.449 134.6 364.399 134.82 365.459 134.82ZM393.118 117.93C391.398 117.93 390.538 118.86 390.538 120.72V122.1H395.158V124.47H390.598V138H387.718V124.47H385.018V122.1H387.718V120.69C387.718 119.11 388.178 117.86 389.098 116.94C390.018 116.02 391.308 115.56 392.968 115.56C393.608 115.56 394.208 115.64 394.768 115.8C395.328 115.96 395.808 116.19 396.208 116.49L395.338 118.68C394.678 118.18 393.938 117.93 393.118 117.93ZM403.037 124.77C403.537 123.85 404.277 123.15 405.257 122.67C406.237 122.19 407.427 121.95 408.827 121.95V124.74C408.667 124.72 408.447 124.71 408.167 124.71C406.607 124.71 405.377 125.18 404.477 126.12C403.597 127.04 403.157 128.36 403.157 130.08V138H400.277V122.1H403.037V124.77ZM419.04 138.18C417.46 138.18 416.04 137.83 414.78 137.13C413.52 136.43 412.53 135.47 411.81 134.25C411.11 133.01 410.76 131.61 410.76 130.05C410.76 128.49 411.11 127.1 411.81 125.88C412.53 124.64 413.52 123.68 414.78 123C416.04 122.3 417.46 121.95 419.04 121.95C420.62 121.95 422.03 122.3 423.27 123C424.53 123.68 425.51 124.64 426.21 125.88C426.93 127.1 427.29 128.49 427.29 130.05C427.29 131.61 426.93 133.01 426.21 134.25C425.51 135.47 424.53 136.43 423.27 137.13C422.03 137.83 420.62 138.18 419.04 138.18ZM419.04 135.66C420.06 135.66 420.97 135.43 421.77 134.97C422.59 134.49 423.23 133.83 423.69 132.99C424.15 132.13 424.38 131.15 424.38 130.05C424.38 128.95 424.15 127.98 423.69 127.14C423.23 126.28 422.59 125.62 421.77 125.16C420.97 124.7 420.06 124.47 419.04 124.47C418.02 124.47 417.1 124.7 416.28 125.16C415.48 125.62 414.84 126.28 414.36 127.14C413.9 127.98 413.67 128.95 413.67 130.05C413.67 131.15 413.9 132.13 414.36 132.99C414.84 133.83 415.48 134.49 416.28 134.97C417.1 135.43 418.02 135.66 419.04 135.66ZM451.163 121.95C453.163 121.95 454.743 122.53 455.903 123.69C457.083 124.85 457.673 126.57 457.673 128.85V138H454.793V129.18C454.793 127.64 454.433 126.48 453.713 125.7C453.013 124.92 452.003 124.53 450.683 124.53C449.223 124.53 448.063 124.99 447.203 125.91C446.343 126.81 445.913 128.11 445.913 129.81V138H443.033V129.18C443.033 127.64 442.673 126.48 441.953 125.7C441.253 124.92 440.243 124.53 438.923 124.53C437.463 124.53 436.303 124.99 435.443 125.91C434.583 126.81 434.153 128.11 434.153 129.81V138H431.273V122.1H434.033V124.47C434.613 123.65 435.373 123.03 436.313 122.61C437.253 122.17 438.323 121.95 439.523 121.95C440.763 121.95 441.863 122.2 442.823 122.7C443.783 123.2 444.523 123.93 445.043 124.89C445.643 123.97 446.473 123.25 447.533 122.73C448.613 122.21 449.823 121.95 451.163 121.95ZM94.62 158.95C96.62 158.95 98.2 159.53 99.36 160.69C100.54 161.85 101.13 163.57 101.13 165.85V175H98.25V166.18C98.25 164.64 97.89 163.48 97.17 162.7C96.47 161.92 95.46 161.53 94.14 161.53C92.68 161.53 91.52 161.99 90.66 162.91C89.8 163.81 89.37 165.11 89.37 166.81V175H86.49V166.18C86.49 164.64 86.13 163.48 85.41 162.7C84.71 161.92 83.7 161.53 82.38 161.53C80.92 161.53 79.76 161.99 78.9 162.91C78.04 163.81 77.61 165.11 77.61 166.81V175H74.73V159.1H77.49V161.47C78.07 160.65 78.83 160.03 79.77 159.61C80.71 159.17 81.78 158.95 82.98 158.95C84.22 158.95 85.32 159.2 86.28 159.7C87.24 160.2 87.98 160.93 88.5 161.89C89.1 160.97 89.93 160.25 90.99 159.73C92.07 159.21 93.28 158.95 94.62 158.95ZM120.887 167.14C120.887 167.36 120.867 167.65 120.827 168.01H107.927C108.107 169.41 108.717 170.54 109.757 171.4C110.817 172.24 112.127 172.66 113.687 172.66C115.587 172.66 117.117 172.02 118.277 170.74L119.867 172.6C119.147 173.44 118.247 174.08 117.167 174.52C116.107 174.96 114.917 175.18 113.597 175.18C111.917 175.18 110.427 174.84 109.127 174.16C107.827 173.46 106.817 172.49 106.097 171.25C105.397 170.01 105.047 168.61 105.047 167.05C105.047 165.51 105.387 164.12 106.067 162.88C106.767 161.64 107.717 160.68 108.917 160C110.137 159.3 111.507 158.95 113.027 158.95C114.547 158.95 115.897 159.3 117.077 160C118.277 160.68 119.207 161.64 119.867 162.88C120.547 164.12 120.887 165.54 120.887 167.14ZM113.027 161.38C111.647 161.38 110.487 161.8 109.547 162.64C108.627 163.48 108.087 164.58 107.927 165.94H118.127C117.967 164.6 117.417 163.51 116.477 162.67C115.557 161.81 114.407 161.38 113.027 161.38ZM144.776 158.95C146.776 158.95 148.356 159.53 149.516 160.69C150.696 161.85 151.286 163.57 151.286 165.85V175H148.406V166.18C148.406 164.64 148.046 163.48 147.326 162.7C146.626 161.92 145.616 161.53 144.296 161.53C142.836 161.53 141.676 161.99 140.816 162.91C139.956 163.81 139.526 165.11 139.526 166.81V175H136.646V166.18C136.646 164.64 136.286 163.48 135.566 162.7C134.866 161.92 133.856 161.53 132.536 161.53C131.076 161.53 129.916 161.99 129.056 162.91C128.196 163.81 127.766 165.11 127.766 166.81V175H124.886V159.1H127.646V161.47C128.226 160.65 128.986 160.03 129.926 159.61C130.866 159.17 131.936 158.95 133.136 158.95C134.376 158.95 135.476 159.2 136.436 159.7C137.396 160.2 138.136 160.93 138.656 161.89C139.256 160.97 140.086 160.25 141.146 159.73C142.226 159.21 143.436 158.95 144.776 158.95ZM163.483 175.18C161.903 175.18 160.483 174.83 159.223 174.13C157.963 173.43 156.973 172.47 156.253 171.25C155.553 170.01 155.203 168.61 155.203 167.05C155.203 165.49 155.553 164.1 156.253 162.88C156.973 161.64 157.963 160.68 159.223 160C160.483 159.3 161.903 158.95 163.483 158.95C165.063 158.95 166.473 159.3 167.713 160C168.973 160.68 169.953 161.64 170.653 162.88C171.373 164.1 171.733 165.49 171.733 167.05C171.733 168.61 171.373 170.01 170.653 171.25C169.953 172.47 168.973 173.43 167.713 174.13C166.473 174.83 165.063 175.18 163.483 175.18ZM163.483 172.66C164.503 172.66 165.413 172.43 166.213 171.97C167.033 171.49 167.673 170.83 168.133 169.99C168.593 169.13 168.823 168.15 168.823 167.05C168.823 165.95 168.593 164.98 168.133 164.14C167.673 163.28 167.033 162.62 166.213 162.16C165.413 161.7 164.503 161.47 163.483 161.47C162.463 161.47 161.543 161.7 160.723 162.16C159.923 162.62 159.283 163.28 158.803 164.14C158.343 164.98 158.113 165.95 158.113 167.05C158.113 168.15 158.343 169.13 158.803 169.99C159.283 170.83 159.923 171.49 160.723 171.97C161.543 172.43 162.463 172.66 163.483 172.66ZM178.476 161.77C178.976 160.85 179.716 160.15 180.696 159.67C181.676 159.19 182.866 158.95 184.266 158.95V161.74C184.106 161.72 183.886 161.71 183.606 161.71C182.046 161.71 180.816 162.18 179.916 163.12C179.036 164.04 178.596 165.36 178.596 167.08V175H175.716V159.1H178.476V161.77ZM202.53 159.1L194.82 176.59C194.14 178.21 193.34 179.35 192.42 180.01C191.52 180.67 190.43 181 189.15 181C188.37 181 187.61 180.87 186.87 180.61C186.15 180.37 185.55 180.01 185.07 179.53L186.3 177.37C187.12 178.15 188.07 178.54 189.15 178.54C189.85 178.54 190.43 178.35 190.89 177.97C191.37 177.61 191.8 176.98 192.18 176.08L192.69 174.97L185.67 159.1H188.67L194.22 171.82L199.71 159.1H202.53ZM228.485 159.1V172.84C228.485 175.62 227.795 177.67 226.415 178.99C225.035 180.33 222.975 181 220.235 181C218.735 181 217.305 180.79 215.945 180.37C214.585 179.97 213.485 179.39 212.645 178.63L214.025 176.41C214.765 177.05 215.675 177.55 216.755 177.91C217.855 178.29 218.985 178.48 220.145 178.48C222.005 178.48 223.375 178.04 224.255 177.16C225.155 176.28 225.605 174.94 225.605 173.14V171.88C224.925 172.7 224.085 173.32 223.085 173.74C222.105 174.14 221.035 174.34 219.875 174.34C218.355 174.34 216.975 174.02 215.735 173.38C214.515 172.72 213.555 171.81 212.855 170.65C212.155 169.47 211.805 168.13 211.805 166.63C211.805 165.13 212.155 163.8 212.855 162.64C213.555 161.46 214.515 160.55 215.735 159.91C216.975 159.27 218.355 158.95 219.875 158.95C221.075 158.95 222.185 159.17 223.205 159.61C224.245 160.05 225.095 160.7 225.755 161.56V159.1H228.485ZM220.205 171.82C221.245 171.82 222.175 171.6 222.995 171.16C223.835 170.72 224.485 170.11 224.945 169.33C225.425 168.53 225.665 167.63 225.665 166.63C225.665 165.09 225.155 163.85 224.135 162.91C223.115 161.95 221.805 161.47 220.205 161.47C218.585 161.47 217.265 161.95 216.245 162.91C215.225 163.85 214.715 165.09 214.715 166.63C214.715 167.63 214.945 168.53 215.405 169.33C215.885 170.11 216.535 170.72 217.355 171.16C218.195 171.6 219.145 171.82 220.205 171.82ZM239.778 158.95C241.978 158.95 243.658 159.49 244.818 160.57C245.998 161.65 246.588 163.26 246.588 165.4V175H243.858V172.9C243.378 173.64 242.688 174.21 241.788 174.61C240.908 174.99 239.858 175.18 238.638 175.18C236.858 175.18 235.428 174.75 234.348 173.89C233.288 173.03 232.758 171.9 232.758 170.5C232.758 169.1 233.268 167.98 234.288 167.14C235.308 166.28 236.928 165.85 239.148 165.85H243.708V165.28C243.708 164.04 243.348 163.09 242.628 162.43C241.908 161.77 240.848 161.44 239.448 161.44C238.508 161.44 237.588 161.6 236.688 161.92C235.788 162.22 235.028 162.63 234.408 163.15L233.208 160.99C234.028 160.33 235.008 159.83 236.148 159.49C237.288 159.13 238.498 158.95 239.778 158.95ZM239.118 172.96C240.218 172.96 241.168 172.72 241.968 172.24C242.768 171.74 243.348 171.04 243.708 170.14V167.92H239.268C236.828 167.92 235.608 168.74 235.608 170.38C235.608 171.18 235.918 171.81 236.538 172.27C237.158 172.73 238.018 172.96 239.118 172.96ZM271.808 158.95C273.808 158.95 275.388 159.53 276.548 160.69C277.728 161.85 278.318 163.57 278.318 165.85V175H275.438V166.18C275.438 164.64 275.078 163.48 274.358 162.7C273.658 161.92 272.648 161.53 271.328 161.53C269.868 161.53 268.708 161.99 267.848 162.91C266.988 163.81 266.558 165.11 266.558 166.81V175H263.678V166.18C263.678 164.64 263.318 163.48 262.598 162.7C261.898 161.92 260.888 161.53 259.568 161.53C258.108 161.53 256.948 161.99 256.088 162.91C255.228 163.81 254.798 165.11 254.798 166.81V175H251.918V159.1H254.678V161.47C255.258 160.65 256.018 160.03 256.958 159.61C257.898 159.17 258.968 158.95 260.168 158.95C261.408 158.95 262.508 159.2 263.468 159.7C264.428 160.2 265.168 160.93 265.688 161.89C266.288 160.97 267.118 160.25 268.178 159.73C269.258 159.21 270.468 158.95 271.808 158.95ZM298.075 167.14C298.075 167.36 298.055 167.65 298.015 168.01H285.115C285.295 169.41 285.905 170.54 286.945 171.4C288.005 172.24 289.315 172.66 290.875 172.66C292.775 172.66 294.305 172.02 295.465 170.74L297.055 172.6C296.335 173.44 295.435 174.08 294.355 174.52C293.295 174.96 292.105 175.18 290.785 175.18C289.105 175.18 287.615 174.84 286.315 174.16C285.015 173.46 284.005 172.49 283.285 171.25C282.585 170.01 282.235 168.61 282.235 167.05C282.235 165.51 282.575 164.12 283.255 162.88C283.955 161.64 284.905 160.68 286.105 160C287.325 159.3 288.695 158.95 290.215 158.95C291.735 158.95 293.085 159.3 294.265 160C295.465 160.68 296.395 161.64 297.055 162.88C297.735 164.12 298.075 165.54 298.075 167.14ZM290.215 161.38C288.835 161.38 287.675 161.8 286.735 162.64C285.815 163.48 285.275 164.58 285.115 165.94H295.315C295.155 164.6 294.605 163.51 293.665 162.67C292.745 161.81 291.595 161.38 290.215 161.38ZM306.634 175.18C305.334 175.18 304.084 175.01 302.884 174.67C301.684 174.31 300.744 173.86 300.064 173.32L301.264 171.04C301.964 171.54 302.814 171.94 303.814 172.24C304.814 172.54 305.824 172.69 306.844 172.69C309.364 172.69 310.624 171.97 310.624 170.53C310.624 170.05 310.454 169.67 310.114 169.39C309.774 169.11 309.344 168.91 308.824 168.79C308.324 168.65 307.604 168.5 306.664 168.34C305.384 168.14 304.334 167.91 303.514 167.65C302.714 167.39 302.024 166.95 301.444 166.33C300.864 165.71 300.574 164.84 300.574 163.72C300.574 162.28 301.174 161.13 302.374 160.27C303.574 159.39 305.184 158.95 307.204 158.95C308.264 158.95 309.324 159.08 310.384 159.34C311.444 159.6 312.314 159.95 312.994 160.39L311.764 162.67C310.464 161.83 308.934 161.41 307.174 161.41C305.954 161.41 305.024 161.61 304.384 162.01C303.744 162.41 303.424 162.94 303.424 163.6C303.424 164.12 303.604 164.53 303.964 164.83C304.324 165.13 304.764 165.35 305.284 165.49C305.824 165.63 306.574 165.79 307.534 165.97C308.814 166.19 309.844 166.43 310.624 166.69C311.424 166.93 312.104 167.35 312.664 167.95C313.224 168.55 313.504 169.39 313.504 170.47C313.504 171.91 312.884 173.06 311.644 173.92C310.424 174.76 308.754 175.18 306.634 175.18ZM334.1 174.07C333.68 174.43 333.16 174.71 332.54 174.91C331.92 175.09 331.28 175.18 330.62 175.18C329.02 175.18 327.78 174.75 326.9 173.89C326.02 173.03 325.58 171.8 325.58 170.2V161.47H322.88V159.1H325.58V155.62H328.46V159.1H333.02V161.47H328.46V170.08C328.46 170.94 328.67 171.6 329.09 172.06C329.53 172.52 330.15 172.75 330.95 172.75C331.83 172.75 332.58 172.5 333.2 172L334.1 174.07ZM343.864 175.18C342.284 175.18 340.864 174.83 339.604 174.13C338.344 173.43 337.354 172.47 336.634 171.25C335.934 170.01 335.584 168.61 335.584 167.05C335.584 165.49 335.934 164.1 336.634 162.88C337.354 161.64 338.344 160.68 339.604 160C340.864 159.3 342.284 158.95 343.864 158.95C345.444 158.95 346.854 159.3 348.094 160C349.354 160.68 350.334 161.64 351.034 162.88C351.754 164.1 352.114 165.49 352.114 167.05C352.114 168.61 351.754 170.01 351.034 171.25C350.334 172.47 349.354 173.43 348.094 174.13C346.854 174.83 345.444 175.18 343.864 175.18ZM343.864 172.66C344.884 172.66 345.794 172.43 346.594 171.97C347.414 171.49 348.054 170.83 348.514 169.99C348.974 169.13 349.204 168.15 349.204 167.05C349.204 165.95 348.974 164.98 348.514 164.14C348.054 163.28 347.414 162.62 346.594 162.16C345.794 161.7 344.884 161.47 343.864 161.47C342.844 161.47 341.924 161.7 341.104 162.16C340.304 162.62 339.664 163.28 339.184 164.14C338.724 164.98 338.494 165.95 338.494 167.05C338.494 168.15 338.724 169.13 339.184 169.99C339.664 170.83 340.304 171.49 341.104 171.97C341.924 172.43 342.844 172.66 343.864 172.66ZM388.214 159.1L382.274 175H379.514L374.924 162.94L370.274 175H367.514L361.604 159.1H364.334L368.954 171.76L373.754 159.1H376.184L380.894 171.82L385.634 159.1H388.214ZM393.896 161.77C394.396 160.85 395.136 160.15 396.116 159.67C397.096 159.19 398.286 158.95 399.686 158.95V161.74C399.526 161.72 399.306 161.71 399.026 161.71C397.466 161.71 396.236 162.18 395.336 163.12C394.456 164.04 394.016 165.36 394.016 167.08V175H391.136V159.1H393.896V161.77ZM403.236 159.1H406.116V175H403.236V159.1ZM404.676 156.04C404.116 156.04 403.646 155.86 403.266 155.5C402.906 155.14 402.726 154.7 402.726 154.18C402.726 153.66 402.906 153.22 403.266 152.86C403.646 152.48 404.116 152.29 404.676 152.29C405.236 152.29 405.696 152.47 406.056 152.83C406.436 153.17 406.626 153.6 406.626 154.12C406.626 154.66 406.436 155.12 406.056 155.5C405.696 155.86 405.236 156.04 404.676 156.04ZM416.175 175.18C414.875 175.18 413.625 175.01 412.425 174.67C411.225 174.31 410.285 173.86 409.605 173.32L410.805 171.04C411.505 171.54 412.355 171.94 413.355 172.24C414.355 172.54 415.365 172.69 416.385 172.69C418.905 172.69 420.165 171.97 420.165 170.53C420.165 170.05 419.995 169.67 419.655 169.39C419.315 169.11 418.885 168.91 418.365 168.79C417.865 168.65 417.145 168.5 416.205 168.34C414.925 168.14 413.875 167.91 413.055 167.65C412.255 167.39 411.565 166.95 410.985 166.33C410.405 165.71 410.115 164.84 410.115 163.72C410.115 162.28 410.715 161.13 411.915 160.27C413.115 159.39 414.725 158.95 416.745 158.95C417.805 158.95 418.865 159.08 419.925 159.34C420.985 159.6 421.855 159.95 422.535 160.39L421.305 162.67C420.005 161.83 418.475 161.41 416.715 161.41C415.495 161.41 414.565 161.61 413.925 162.01C413.285 162.41 412.965 162.94 412.965 163.6C412.965 164.12 413.145 164.53 413.505 164.83C413.865 165.13 414.305 165.35 414.825 165.49C415.365 165.63 416.115 165.79 417.075 165.97C418.355 166.19 419.385 166.43 420.165 166.69C420.965 166.93 421.645 167.35 422.205 167.95C422.765 168.55 423.045 169.39 423.045 170.47C423.045 171.91 422.425 173.06 421.185 173.92C419.965 174.76 418.295 175.18 416.175 175.18ZM435.584 174.07C435.164 174.43 434.644 174.71 434.024 174.91C433.404 175.09 432.764 175.18 432.104 175.18C430.504 175.18 429.264 174.75 428.384 173.89C427.504 173.03 427.064 171.8 427.064 170.2V161.47H424.364V159.1H427.064V155.62H429.944V159.1H434.504V161.47H429.944V170.08C429.944 170.94 430.154 171.6 430.574 172.06C431.014 172.52 431.634 172.75 432.434 172.75C433.314 172.75 434.064 172.5 434.684 172L435.584 174.07ZM89.1 204.14C89.1 204.36 89.08 204.65 89.04 205.01H76.14C76.32 206.41 76.93 207.54 77.97 208.4C79.03 209.24 80.34 209.66 81.9 209.66C83.8 209.66 85.33 209.02 86.49 207.74L88.08 209.6C87.36 210.44 86.46 211.08 85.38 211.52C84.32 211.96 83.13 212.18 81.81 212.18C80.13 212.18 78.64 211.84 77.34 211.16C76.04 210.46 75.03 209.49 74.31 208.25C73.61 207.01 73.26 205.61 73.26 204.05C73.26 202.51 73.6 201.12 74.28 199.88C74.98 198.64 75.93 197.68 77.13 197C78.35 196.3 79.72 195.95 81.24 195.95C82.76 195.95 84.11 196.3 85.29 197C86.49 197.68 87.42 198.64 88.08 199.88C88.76 201.12 89.1 202.54 89.1 204.14ZM81.24 198.38C79.86 198.38 78.7 198.8 77.76 199.64C76.84 200.48 76.3 201.58 76.14 202.94H86.34C86.18 201.6 85.63 200.51 84.69 199.67C83.77 198.81 82.62 198.38 81.24 198.38ZM102.8 212L98.2097 205.91L93.5597 212H90.3497L96.6197 203.87L90.6497 196.1H93.8597L98.2397 201.83L102.59 196.1H105.74L99.7397 203.87L106.07 212H102.8ZM123.055 204.14C123.055 204.36 123.035 204.65 122.995 205.01H110.095C110.275 206.41 110.885 207.54 111.925 208.4C112.985 209.24 114.295 209.66 115.855 209.66C117.755 209.66 119.285 209.02 120.445 207.74L122.035 209.6C121.315 210.44 120.415 211.08 119.335 211.52C118.275 211.96 117.085 212.18 115.765 212.18C114.085 212.18 112.595 211.84 111.295 211.16C109.995 210.46 108.985 209.49 108.265 208.25C107.565 207.01 107.215 205.61 107.215 204.05C107.215 202.51 107.555 201.12 108.235 199.88C108.935 198.64 109.885 197.68 111.085 197C112.305 196.3 113.675 195.95 115.195 195.95C116.715 195.95 118.065 196.3 119.245 197C120.445 197.68 121.375 198.64 122.035 199.88C122.715 201.12 123.055 202.54 123.055 204.14ZM115.195 198.38C113.815 198.38 112.655 198.8 111.715 199.64C110.795 200.48 110.255 201.58 110.095 202.94H120.295C120.135 201.6 119.585 200.51 118.645 199.67C117.725 198.81 116.575 198.38 115.195 198.38ZM129.814 198.77C130.314 197.85 131.054 197.15 132.034 196.67C133.014 196.19 134.204 195.95 135.604 195.95V198.74C135.444 198.72 135.224 198.71 134.944 198.71C133.384 198.71 132.154 199.18 131.254 200.12C130.374 201.04 129.934 202.36 129.934 204.08V212H127.054V196.1H129.814V198.77ZM145.937 212.18C144.317 212.18 142.867 211.83 141.587 211.13C140.327 210.43 139.337 209.47 138.617 208.25C137.897 207.01 137.537 205.61 137.537 204.05C137.537 202.49 137.897 201.1 138.617 199.88C139.337 198.64 140.327 197.68 141.587 197C142.867 196.3 144.317 195.95 145.937 195.95C147.377 195.95 148.657 196.24 149.777 196.82C150.917 197.4 151.797 198.24 152.417 199.34L150.227 200.75C149.727 199.99 149.107 199.42 148.367 199.04C147.627 198.66 146.807 198.47 145.907 198.47C144.867 198.47 143.927 198.7 143.087 199.16C142.267 199.62 141.617 200.28 141.137 201.14C140.677 201.98 140.447 202.95 140.447 204.05C140.447 205.17 140.677 206.16 141.137 207.02C141.617 207.86 142.267 208.51 143.087 208.97C143.927 209.43 144.867 209.66 145.907 209.66C146.807 209.66 147.627 209.47 148.367 209.09C149.107 208.71 149.727 208.14 150.227 207.38L152.417 208.76C151.797 209.86 150.917 210.71 149.777 211.31C148.657 211.89 147.377 212.18 145.937 212.18ZM156.146 196.1H159.026V212H156.146V196.1ZM157.586 193.04C157.026 193.04 156.556 192.86 156.176 192.5C155.816 192.14 155.636 191.7 155.636 191.18C155.636 190.66 155.816 190.22 156.176 189.86C156.556 189.48 157.026 189.29 157.586 189.29C158.146 189.29 158.606 189.47 158.966 189.83C159.346 190.17 159.536 190.6 159.536 191.12C159.536 191.66 159.346 192.12 158.966 192.5C158.606 192.86 158.146 193.04 157.586 193.04ZM169.085 212.18C167.785 212.18 166.535 212.01 165.335 211.67C164.135 211.31 163.195 210.86 162.515 210.32L163.715 208.04C164.415 208.54 165.265 208.94 166.265 209.24C167.265 209.54 168.275 209.69 169.295 209.69C171.815 209.69 173.075 208.97 173.075 207.53C173.075 207.05 172.905 206.67 172.565 206.39C172.225 206.11 171.795 205.91 171.275 205.79C170.775 205.65 170.055 205.5 169.115 205.34C167.835 205.14 166.785 204.91 165.965 204.65C165.165 204.39 164.475 203.95 163.895 203.33C163.315 202.71 163.025 201.84 163.025 200.72C163.025 199.28 163.625 198.13 164.825 197.27C166.025 196.39 167.635 195.95 169.655 195.95C170.715 195.95 171.775 196.08 172.835 196.34C173.895 196.6 174.765 196.95 175.445 197.39L174.215 199.67C172.915 198.83 171.385 198.41 169.625 198.41C168.405 198.41 167.475 198.61 166.835 199.01C166.195 199.41 165.875 199.94 165.875 200.6C165.875 201.12 166.055 201.53 166.415 201.83C166.775 202.13 167.215 202.35 167.735 202.49C168.275 202.63 169.025 202.79 169.985 202.97C171.265 203.19 172.295 203.43 173.075 203.69C173.875 203.93 174.555 204.35 175.115 204.95C175.675 205.55 175.955 206.39 175.955 207.47C175.955 208.91 175.335 210.06 174.095 210.92C172.875 211.76 171.205 212.18 169.085 212.18ZM193.924 204.14C193.924 204.36 193.904 204.65 193.864 205.01H180.964C181.144 206.41 181.754 207.54 182.794 208.4C183.854 209.24 185.164 209.66 186.724 209.66C188.624 209.66 190.154 209.02 191.314 207.74L192.904 209.6C192.184 210.44 191.284 211.08 190.204 211.52C189.144 211.96 187.954 212.18 186.634 212.18C184.954 212.18 183.464 211.84 182.164 211.16C180.864 210.46 179.854 209.49 179.134 208.25C178.434 207.01 178.084 205.61 178.084 204.05C178.084 202.51 178.424 201.12 179.104 199.88C179.804 198.64 180.754 197.68 181.954 197C183.174 196.3 184.544 195.95 186.064 195.95C187.584 195.95 188.934 196.3 190.114 197C191.314 197.68 192.244 198.64 192.904 199.88C193.584 201.12 193.924 202.54 193.924 204.14ZM186.064 198.38C184.684 198.38 183.524 198.8 182.584 199.64C181.664 200.48 181.124 201.58 180.964 202.94H191.164C191.004 201.6 190.454 200.51 189.514 199.67C188.594 198.81 187.444 198.38 186.064 198.38ZM202.483 212.18C201.183 212.18 199.933 212.01 198.733 211.67C197.533 211.31 196.593 210.86 195.913 210.32L197.113 208.04C197.813 208.54 198.663 208.94 199.663 209.24C200.663 209.54 201.673 209.69 202.693 209.69C205.213 209.69 206.473 208.97 206.473 207.53C206.473 207.05 206.303 206.67 205.963 206.39C205.623 206.11 205.193 205.91 204.673 205.79C204.173 205.65 203.453 205.5 202.513 205.34C201.233 205.14 200.183 204.91 199.363 204.65C198.563 204.39 197.873 203.95 197.293 203.33C196.713 202.71 196.423 201.84 196.423 200.72C196.423 199.28 197.023 198.13 198.223 197.27C199.423 196.39 201.033 195.95 203.053 195.95C204.113 195.95 205.173 196.08 206.233 196.34C207.293 196.6 208.163 196.95 208.843 197.39L207.613 199.67C206.313 198.83 204.783 198.41 203.023 198.41C201.803 198.41 200.873 198.61 200.233 199.01C199.593 199.41 199.273 199.94 199.273 200.6C199.273 201.12 199.453 201.53 199.813 201.83C200.173 202.13 200.613 202.35 201.133 202.49C201.673 202.63 202.423 202.79 203.383 202.97C204.663 203.19 205.693 203.43 206.473 203.69C207.273 203.93 207.953 204.35 208.513 204.95C209.073 205.55 209.353 206.39 209.353 207.47C209.353 208.91 208.733 210.06 207.493 210.92C206.273 211.76 204.603 212.18 202.483 212.18ZM229.949 211.07C229.529 211.43 229.009 211.71 228.389 211.91C227.769 212.09 227.129 212.18 226.469 212.18C224.869 212.18 223.629 211.75 222.749 210.89C221.869 210.03 221.429 208.8 221.429 207.2V198.47H218.729V196.1H221.429V192.62H224.309V196.1H228.869V198.47H224.309V207.08C224.309 207.94 224.519 208.6 224.939 209.06C225.379 209.52 225.999 209.75 226.799 209.75C227.679 209.75 228.429 209.5 229.049 209L229.949 211.07ZM239.714 212.18C238.134 212.18 236.714 211.83 235.454 211.13C234.194 210.43 233.204 209.47 232.484 208.25C231.784 207.01 231.434 205.61 231.434 204.05C231.434 202.49 231.784 201.1 232.484 199.88C233.204 198.64 234.194 197.68 235.454 197C236.714 196.3 238.134 195.95 239.714 195.95C241.294 195.95 242.704 196.3 243.944 197C245.204 197.68 246.184 198.64 246.884 199.88C247.604 201.1 247.964 202.49 247.964 204.05C247.964 205.61 247.604 207.01 246.884 208.25C246.184 209.47 245.204 210.43 243.944 211.13C242.704 211.83 241.294 212.18 239.714 212.18ZM239.714 209.66C240.734 209.66 241.644 209.43 242.444 208.97C243.264 208.49 243.904 207.83 244.364 206.99C244.824 206.13 245.054 205.15 245.054 204.05C245.054 202.95 244.824 201.98 244.364 201.14C243.904 200.28 243.264 199.62 242.444 199.16C241.644 198.7 240.734 198.47 239.714 198.47C238.694 198.47 237.774 198.7 236.954 199.16C236.154 199.62 235.514 200.28 235.034 201.14C234.574 201.98 234.344 202.95 234.344 204.05C234.344 205.15 234.574 206.13 235.034 206.99C235.514 207.83 236.154 208.49 236.954 208.97C237.774 209.43 238.694 209.66 239.714 209.66ZM268.493 195.95C270.513 195.95 272.113 196.54 273.293 197.72C274.493 198.88 275.093 200.59 275.093 202.85V212H272.213V203.18C272.213 201.64 271.843 200.48 271.103 199.7C270.363 198.92 269.303 198.53 267.923 198.53C266.363 198.53 265.133 198.99 264.233 199.91C263.333 200.81 262.883 202.11 262.883 203.81V212H260.003V189.74H262.883V198.35C263.483 197.59 264.263 197 265.223 196.58C266.203 196.16 267.293 195.95 268.493 195.95ZM294.881 204.14C294.881 204.36 294.861 204.65 294.821 205.01H281.921C282.101 206.41 282.711 207.54 283.751 208.4C284.811 209.24 286.121 209.66 287.681 209.66C289.581 209.66 291.111 209.02 292.271 207.74L293.861 209.6C293.141 210.44 292.241 211.08 291.161 211.52C290.101 211.96 288.911 212.18 287.591 212.18C285.911 212.18 284.421 211.84 283.121 211.16C281.821 210.46 280.811 209.49 280.091 208.25C279.391 207.01 279.041 205.61 279.041 204.05C279.041 202.51 279.381 201.12 280.061 199.88C280.761 198.64 281.711 197.68 282.911 197C284.131 196.3 285.501 195.95 287.021 195.95C288.541 195.95 289.891 196.3 291.071 197C292.271 197.68 293.201 198.64 293.861 199.88C294.541 201.12 294.881 202.54 294.881 204.14ZM287.021 198.38C285.641 198.38 284.481 198.8 283.541 199.64C282.621 200.48 282.081 201.58 281.921 202.94H292.121C291.961 201.6 291.411 200.51 290.471 199.67C289.551 198.81 288.401 198.38 287.021 198.38ZM298.88 189.74H301.76V212H298.88V189.74ZM315.689 195.95C317.229 195.95 318.609 196.29 319.829 196.97C321.049 197.65 321.999 198.6 322.679 199.82C323.379 201.04 323.729 202.45 323.729 204.05C323.729 205.65 323.379 207.07 322.679 208.31C321.999 209.53 321.049 210.48 319.829 211.16C318.609 211.84 317.229 212.18 315.689 212.18C314.549 212.18 313.499 211.96 312.539 211.52C311.599 211.08 310.799 210.44 310.139 209.6V217.82H307.259V196.1H310.019V198.62C310.659 197.74 311.469 197.08 312.449 196.64C313.429 196.18 314.509 195.95 315.689 195.95ZM315.449 209.66C316.469 209.66 317.379 209.43 318.179 208.97C318.999 208.49 319.639 207.83 320.099 206.99C320.579 206.13 320.819 205.15 320.819 204.05C320.819 202.95 320.579 201.98 320.099 201.14C319.639 200.28 318.999 199.62 318.179 199.16C317.379 198.7 316.469 198.47 315.449 198.47C314.449 198.47 313.539 198.71 312.719 199.19C311.919 199.65 311.279 200.3 310.799 201.14C310.339 201.98 310.109 202.95 310.109 204.05C310.109 205.15 310.339 206.13 310.799 206.99C311.259 207.83 311.899 208.49 312.719 208.97C313.539 209.43 314.449 209.66 315.449 209.66ZM349.835 196.1L342.125 213.59C341.445 215.21 340.645 216.35 339.725 217.01C338.825 217.67 337.735 218 336.455 218C335.675 218 334.915 217.87 334.175 217.61C333.455 217.37 332.855 217.01 332.375 216.53L333.605 214.37C334.425 215.15 335.375 215.54 336.455 215.54C337.155 215.54 337.735 215.35 338.195 214.97C338.675 214.61 339.105 213.98 339.485 213.08L339.995 211.97L332.975 196.1H335.975L341.525 208.82L347.015 196.1H349.835ZM358.894 212.18C357.314 212.18 355.894 211.83 354.634 211.13C353.374 210.43 352.384 209.47 351.664 208.25C350.964 207.01 350.614 205.61 350.614 204.05C350.614 202.49 350.964 201.1 351.664 199.88C352.384 198.64 353.374 197.68 354.634 197C355.894 196.3 357.314 195.95 358.894 195.95C360.474 195.95 361.884 196.3 363.124 197C364.384 197.68 365.364 198.64 366.064 199.88C366.784 201.1 367.144 202.49 367.144 204.05C367.144 205.61 366.784 207.01 366.064 208.25C365.364 209.47 364.384 210.43 363.124 211.13C361.884 211.83 360.474 212.18 358.894 212.18ZM358.894 209.66C359.914 209.66 360.824 209.43 361.624 208.97C362.444 208.49 363.084 207.83 363.544 206.99C364.004 206.13 364.234 205.15 364.234 204.05C364.234 202.95 364.004 201.98 363.544 201.14C363.084 200.28 362.444 199.62 361.624 199.16C360.824 198.7 359.914 198.47 358.894 198.47C357.874 198.47 356.954 198.7 356.134 199.16C355.334 199.62 354.694 200.28 354.214 201.14C353.754 201.98 353.524 202.95 353.524 204.05C353.524 205.15 353.754 206.13 354.214 206.99C354.694 207.83 355.334 208.49 356.134 208.97C356.954 209.43 357.874 209.66 358.894 209.66ZM385.946 196.1V212H383.216V209.6C382.636 210.42 381.866 211.06 380.906 211.52C379.966 211.96 378.936 212.18 377.816 212.18C375.696 212.18 374.026 211.6 372.806 210.44C371.586 209.26 370.976 207.53 370.976 205.25V196.1H373.856V204.92C373.856 206.46 374.226 207.63 374.966 208.43C375.706 209.21 376.766 209.6 378.146 209.6C379.666 209.6 380.866 209.14 381.746 208.22C382.626 207.3 383.066 206 383.066 204.32V196.1H385.946ZM405.306 191.93C403.586 191.93 402.726 192.86 402.726 194.72V196.1H407.346V198.47H402.786V212H399.906V198.47H397.206V196.1H399.906V194.69C399.906 193.11 400.366 191.86 401.286 190.94C402.206 190.02 403.496 189.56 405.156 189.56C405.796 189.56 406.396 189.64 406.956 189.8C407.516 189.96 407.996 190.19 408.396 190.49L407.526 192.68C406.866 192.18 406.126 191.93 405.306 191.93ZM424.198 204.14C424.198 204.36 424.178 204.65 424.138 205.01H411.238C411.418 206.41 412.028 207.54 413.068 208.4C414.128 209.24 415.438 209.66 416.998 209.66C418.898 209.66 420.428 209.02 421.588 207.74L423.178 209.6C422.458 210.44 421.558 211.08 420.478 211.52C419.418 211.96 418.228 212.18 416.908 212.18C415.228 212.18 413.738 211.84 412.438 211.16C411.138 210.46 410.128 209.49 409.408 208.25C408.708 207.01 408.358 205.61 408.358 204.05C408.358 202.51 408.698 201.12 409.378 199.88C410.078 198.64 411.028 197.68 412.228 197C413.448 196.3 414.818 195.95 416.338 195.95C417.858 195.95 419.208 196.3 420.388 197C421.588 197.68 422.518 198.64 423.178 199.88C423.858 201.12 424.198 202.54 424.198 204.14ZM416.338 198.38C414.958 198.38 413.798 198.8 412.858 199.64C411.938 200.48 411.398 201.58 411.238 202.94H421.438C421.278 201.6 420.728 200.51 419.788 199.67C418.868 198.81 417.718 198.38 416.338 198.38ZM442.567 204.14C442.567 204.36 442.547 204.65 442.507 205.01H429.607C429.787 206.41 430.397 207.54 431.437 208.4C432.497 209.24 433.807 209.66 435.367 209.66C437.267 209.66 438.797 209.02 439.957 207.74L441.547 209.6C440.827 210.44 439.927 211.08 438.847 211.52C437.787 211.96 436.597 212.18 435.277 212.18C433.597 212.18 432.107 211.84 430.807 211.16C429.507 210.46 428.497 209.49 427.777 208.25C427.077 207.01 426.727 205.61 426.727 204.05C426.727 202.51 427.067 201.12 427.747 199.88C428.447 198.64 429.397 197.68 430.597 197C431.817 196.3 433.187 195.95 434.707 195.95C436.227 195.95 437.577 196.3 438.757 197C439.957 197.68 440.887 198.64 441.547 199.88C442.227 201.12 442.567 202.54 442.567 204.14ZM434.707 198.38C433.327 198.38 432.167 198.8 431.227 199.64C430.307 200.48 429.767 201.58 429.607 202.94H439.807C439.647 201.6 439.097 200.51 438.157 199.67C437.237 198.81 436.087 198.38 434.707 198.38ZM446.566 189.74H449.446V212H446.566V189.74ZM83.16 232.95C84.7 232.95 86.08 233.29 87.3 233.97C88.52 234.65 89.47 235.6 90.15 236.82C90.85 238.04 91.2 239.45 91.2 241.05C91.2 242.65 90.85 244.07 90.15 245.31C89.47 246.53 88.52 247.48 87.3 248.16C86.08 248.84 84.7 249.18 83.16 249.18C81.98 249.18 80.9 248.95 79.92 248.49C78.94 248.03 78.13 247.36 77.49 246.48V249H74.73V226.74H77.61V235.5C78.25 234.66 79.05 234.03 80.01 233.61C80.97 233.17 82.02 232.95 83.16 232.95ZM82.92 246.66C83.94 246.66 84.85 246.43 85.65 245.97C86.47 245.49 87.11 244.83 87.57 243.99C88.05 243.13 88.29 242.15 88.29 241.05C88.29 239.95 88.05 238.98 87.57 238.14C87.11 237.28 86.47 236.62 85.65 236.16C84.85 235.7 83.94 235.47 82.92 235.47C81.92 235.47 81.01 235.7 80.19 236.16C79.37 236.62 78.73 237.28 78.27 238.14C77.81 238.98 77.58 239.95 77.58 241.05C77.58 242.15 77.81 243.13 78.27 243.99C78.73 244.83 79.37 245.49 80.19 245.97C81.01 246.43 81.92 246.66 82.92 246.66ZM109.549 241.14C109.549 241.36 109.529 241.65 109.489 242.01H96.5892C96.7692 243.41 97.3792 244.54 98.4192 245.4C99.4792 246.24 100.789 246.66 102.349 246.66C104.249 246.66 105.779 246.02 106.939 244.74L108.529 246.6C107.809 247.44 106.909 248.08 105.829 248.52C104.769 248.96 103.579 249.18 102.259 249.18C100.579 249.18 99.0892 248.84 97.7892 248.16C96.4892 247.46 95.4792 246.49 94.7592 245.25C94.0592 244.01 93.7092 242.61 93.7092 241.05C93.7092 239.51 94.0492 238.12 94.7292 236.88C95.4292 235.64 96.3792 234.68 97.5792 234C98.7992 233.3 100.169 232.95 101.689 232.95C103.209 232.95 104.559 233.3 105.739 234C106.939 234.68 107.869 235.64 108.529 236.88C109.209 238.12 109.549 239.54 109.549 241.14ZM101.689 235.38C100.309 235.38 99.1492 235.8 98.2092 236.64C97.2892 237.48 96.7492 238.58 96.5892 239.94H106.789C106.629 238.6 106.079 237.51 105.139 236.67C104.219 235.81 103.069 235.38 101.689 235.38ZM122.488 248.07C122.068 248.43 121.548 248.71 120.928 248.91C120.308 249.09 119.668 249.18 119.008 249.18C117.408 249.18 116.168 248.75 115.288 247.89C114.408 247.03 113.968 245.8 113.968 244.2V235.47H111.268V233.1H113.968V229.62H116.848V233.1H121.408V235.47H116.848V244.08C116.848 244.94 117.058 245.6 117.478 246.06C117.918 246.52 118.538 246.75 119.338 246.75C120.218 246.75 120.968 246.5 121.588 246L122.488 248.07ZM134.529 248.07C134.109 248.43 133.589 248.71 132.969 248.91C132.349 249.09 131.709 249.18 131.049 249.18C129.449 249.18 128.209 248.75 127.329 247.89C126.449 247.03 126.009 245.8 126.009 244.2V235.47H123.309V233.1H126.009V229.62H128.889V233.1H133.449V235.47H128.889V244.08C128.889 244.94 129.099 245.6 129.519 246.06C129.959 246.52 130.579 246.75 131.379 246.75C132.259 246.75 133.009 246.5 133.629 246L134.529 248.07ZM151.854 241.14C151.854 241.36 151.834 241.65 151.794 242.01H138.894C139.074 243.41 139.684 244.54 140.724 245.4C141.784 246.24 143.094 246.66 144.654 246.66C146.554 246.66 148.084 246.02 149.244 244.74L150.834 246.6C150.114 247.44 149.214 248.08 148.134 248.52C147.074 248.96 145.884 249.18 144.564 249.18C142.884 249.18 141.394 248.84 140.094 248.16C138.794 247.46 137.784 246.49 137.064 245.25C136.364 244.01 136.014 242.61 136.014 241.05C136.014 239.51 136.354 238.12 137.034 236.88C137.734 235.64 138.684 234.68 139.884 234C141.104 233.3 142.474 232.95 143.994 232.95C145.514 232.95 146.864 233.3 148.044 234C149.244 234.68 150.174 235.64 150.834 236.88C151.514 238.12 151.854 239.54 151.854 241.14ZM143.994 235.38C142.614 235.38 141.454 235.8 140.514 236.64C139.594 237.48 139.054 238.58 138.894 239.94H149.094C148.934 238.6 148.384 237.51 147.444 236.67C146.524 235.81 145.374 235.38 143.994 235.38ZM158.613 235.77C159.113 234.85 159.853 234.15 160.833 233.67C161.813 233.19 163.003 232.95 164.403 232.95V235.74C164.243 235.72 164.023 235.71 163.743 235.71C162.183 235.71 160.953 236.18 160.053 237.12C159.173 238.04 158.733 239.36 158.733 241.08V249H155.853V233.1H158.613V235.77ZM167.768 228H171.158L170.588 242.37H168.308L167.768 228ZM169.478 249.18C168.918 249.18 168.448 249 168.068 248.64C167.688 248.26 167.498 247.8 167.498 247.26C167.498 246.72 167.688 246.27 168.068 245.91C168.448 245.53 168.918 245.34 169.478 245.34C170.038 245.34 170.498 245.53 170.858 245.91C171.218 246.27 171.398 246.72 171.398 247.26C171.398 247.8 171.208 248.26 170.828 248.64C170.468 249 170.018 249.18 169.478 249.18Z" fill="#443534"/>
<g clip-path="url(#clip0_2060_1166)">
<path d="M515.409 498.495C515.409 498.495 429.056 552.33 456.708 638.737C484.504 725.623 626.75 666.937 626.75 666.937" stroke="#F9F6F1" stroke-width="10.52" stroke-miterlimit="10" stroke-linecap="round"/>
<path d="M543.806 560.081C543.806 560.081 542.569 563.974 542.569 573.031C542.569 583.644 544.622 588.556 544.622 588.556" fill="#F9F6F1"/>
<path d="M543.806 560.081C543.806 560.081 542.569 563.974 542.569 573.031C542.569 583.644 544.622 588.556 544.622 588.556" stroke="#F9F6F1" stroke-width="10.52" stroke-miterlimit="10" stroke-linecap="round"/>
<path d="M587.876 560.081C587.876 560.081 586.64 563.974 586.64 573.031C586.64 583.644 588.693 588.556 588.693 588.556" fill="#F9F6F1"/>
<path d="M587.876 560.081C587.876 560.081 586.64 563.974 586.64 573.031C586.64 583.644 588.693 588.556 588.693 588.556" stroke="#F9F6F1" stroke-width="10.52" stroke-miterlimit="10" stroke-linecap="round"/>
<path d="M725.706 574.576C725.706 574.576 748.353 556.655 765.456 569.976C783.603 584.123 782.907 606.884 774.757 620.337C760.439 643.96 732.199 636.928 732.199 636.928" stroke="#F9F6F1" stroke-width="10.52" stroke-miterlimit="10" stroke-linecap="round"/>
<path d="M458.856 566.646C458.856 566.646 429.56 550.809 422.731 582.255C412.601 628.902 448.247 632.185 448.247 632.185" stroke="#F9F6F1" stroke-width="10.52" stroke-miterlimit="10" stroke-linecap="round"/>
<path d="M548.414 463.935C548.414 463.935 565.817 506.413 597.166 491.715C628.515 477.016 615.313 455.645 596.23 456.975C577.711 458.268 557.536 489.523 584.108 514.547C610.68 539.572 640.937 507.827 640.937 507.827" stroke="#F9F6F1" stroke-width="10.52" stroke-miterlimit="10" stroke-linecap="round"/>
<path d="M689.976 475.195C689.976 475.195 659.635 483.796 662.3 515.434C664.004 535.619 683.747 543.118 704.858 539.201C725.97 535.284 735.247 524.73 734.047 514.619C732.127 498.507 717.328 496.986 701.51 501.346C680.315 507.192 664.664 528.755 672.982 558.08C679.319 580.434 702.254 554.307 706.839 582.985C711.051 609.316 680.207 613.269 680.207 613.269" stroke="#F9F6F1" stroke-width="10.52" stroke-miterlimit="10" stroke-linecap="round"/>
<path d="M411.221 573.055C411.221 573.055 384.313 559.111 384.313 532.169C384.313 505.227 416.154 489.81 416.154 489.81C416.154 489.81 399.459 457.526 410.933 445.678C422.407 433.831 447.455 434.921 454.764 420.929C462.073 406.937 466.238 387.566 479.812 384.332C493.386 381.098 519.274 391.867 519.274 391.867" stroke="#F9F6F1" stroke-width="10.52" stroke-miterlimit="10" stroke-linecap="round"/>
<path d="M542.581 382.284C542.581 382.284 553.419 332.881 585.56 337.625C617.701 342.368 619.777 371.61 619.777 371.61C619.777 371.61 647.37 349.496 661.784 354.24C676.198 358.984 679.247 412.028 689.676 412.819C700.106 413.61 754.066 387.279 770.953 417.563C787.839 447.847 775.453 468.187 775.453 468.187" stroke="#F9F6F1" stroke-width="10.52" stroke-miterlimit="10" stroke-linecap="round"/>
<path d="M779.834 491.727C779.834 491.727 803.67 484.383 805.782 499.202C807.882 514.02 781.55 535.344 787.443 547.898C793.336 560.44 817.148 550.198 810.535 598.558" stroke="#F9F6F1" stroke-width="10.52" stroke-miterlimit="10" stroke-linecap="round"/>
<path d="M416.154 489.81C416.154 489.81 443.794 487.642 446.999 498.555C450.203 509.468 438.621 532.181 421.243 518.896C390.278 495.225 451.883 436.406 486.449 459.538" stroke="#F9F6F1" stroke-width="10.52" stroke-miterlimit="10" stroke-linecap="round"/>
<path d="M657.931 649.782L666.345 703.869" stroke="#F9F6F1" stroke-width="10.52" stroke-miterlimit="10" stroke-linecap="round"/>
<path d="M582.44 680.449L586.64 715.034" stroke="#F9F6F1" stroke-width="10.52" stroke-miterlimit="10" stroke-linecap="round"/>
<path d="M542.569 686.319C542.569 686.319 499.951 713.704 516.081 737.207C532.212 760.711 648.018 760.699 648.018 760.699C648.018 760.699 733.135 714.087 740.864 686.319C748.605 658.551 662.144 663.343 662.144 663.343" stroke="#F9F6F1" stroke-width="10.52" stroke-miterlimit="10" stroke-linecap="round"/>
</g>
<defs>
<filter id="filter0_d_2060_1166" x="0" y="53" width="563" height="308" filterUnits="userSpaceOnUse" color-interpolation-filters="sRGB">
<feFlood flood-opacity="0" result="BackgroundImageFix"/>
<feColorMatrix in="SourceAlpha" type="matrix" values="0 0 0 0 0 0 0 0 0 0 0 0 0 0 0 0 0 0 127 0" result="hardAlpha"/>
<feOffset dx="-5" dy="5"/>
<feGaussianBlur stdDeviation="10"/>
<feComposite in2="hardAlpha" operator="out"/>
<feColorMatrix type="matrix" values="0 0 0 0 0 0 0 0 0 0 0 0 0 0 0 0 0 0 0.25 0"/>
<feBlend mode="normal" in2="BackgroundImageFix" result="effect1_dropShadow_2060_1166"/>
<feBlend mode="normal" in="SourceGraphic" in2="effect1_dropShadow_2060_1166" result="shape"/>
</filter>
<clipPath id="clip0_2060_1166">
<rect width="440" height="436" fill="white" transform="translate(378 331)"/>
</clipPath>
</defs>
</svg>
