<svg width="387" height="368" viewBox="0 0 387 368" fill="none" xmlns="http://www.w3.org/2000/svg">
<rect width="387" height="368" rx="184" fill="#72B0F4"/>
<path d="M122.151 273.65L118.511 277.355V286H106.161V237.77H118.511V263.055L131.121 250.77H145.746L131.121 265.85L146.981 286H132.031L122.151 273.65ZM173.539 250.185C177.916 250.185 181.426 251.485 184.069 254.085C186.756 256.685 188.099 260.607 188.099 265.85V286H175.749V267.865C175.749 263.055 173.821 260.65 169.964 260.65C167.841 260.65 166.129 261.343 164.829 262.73C163.573 264.117 162.944 266.197 162.944 268.97V286H150.594V250.77H162.359V254.605C163.746 253.175 165.393 252.092 167.299 251.355C169.206 250.575 171.286 250.185 173.539 250.185ZM232.371 268.45C232.371 268.537 232.306 269.555 232.176 271.505H206.566C207.086 273.325 208.083 274.733 209.556 275.73C211.073 276.683 212.958 277.16 215.211 277.16C216.901 277.16 218.353 276.922 219.566 276.445C220.823 275.968 222.079 275.188 223.336 274.105L229.836 280.865C226.413 284.678 221.408 286.585 214.821 286.585C210.704 286.585 207.086 285.805 203.966 284.245C200.846 282.685 198.419 280.518 196.686 277.745C194.996 274.972 194.151 271.83 194.151 268.32C194.151 264.853 194.974 261.755 196.621 259.025C198.311 256.252 200.629 254.085 203.576 252.525C206.523 250.965 209.838 250.185 213.521 250.185C217.031 250.185 220.216 250.922 223.076 252.395C225.936 253.825 228.189 255.927 229.836 258.7C231.526 261.43 232.371 264.68 232.371 268.45ZM213.586 258.96C211.679 258.96 210.076 259.502 208.776 260.585C207.519 261.668 206.718 263.142 206.371 265.005H220.801C220.454 263.142 219.631 261.668 218.331 260.585C217.074 259.502 215.493 258.96 213.586 258.96ZM274.075 268.45C274.075 268.537 274.01 269.555 273.88 271.505H248.27C248.79 273.325 249.787 274.733 251.26 275.73C252.777 276.683 254.662 277.16 256.915 277.16C258.605 277.16 260.057 276.922 261.27 276.445C262.527 275.968 263.783 275.188 265.04 274.105L271.54 280.865C268.117 284.678 263.112 286.585 256.525 286.585C252.408 286.585 248.79 285.805 245.67 284.245C242.55 282.685 240.123 280.518 238.39 277.745C236.7 274.972 235.855 271.83 235.855 268.32C235.855 264.853 236.678 261.755 238.325 259.025C240.015 256.252 242.333 254.085 245.28 252.525C248.227 250.965 251.542 250.185 255.225 250.185C258.735 250.185 261.92 250.922 264.78 252.395C267.64 253.825 269.893 255.927 271.54 258.7C273.23 261.43 274.075 264.68 274.075 268.45ZM255.29 258.96C253.383 258.96 251.78 259.502 250.48 260.585C249.223 261.668 248.422 263.142 248.075 265.005H262.505C262.158 263.142 261.335 261.668 260.035 260.585C258.778 259.502 257.197 258.96 255.29 258.96Z" fill="#FFFCF0"/>
</svg>
