<svg width="875" height="784" viewBox="0 0 875 784" fill="none" xmlns="http://www.w3.org/2000/svg">
<path d="M187.948 408V328.8H220.828C224.348 328.8 227.668 329.12 230.788 329.76C233.988 330.32 236.868 331.2 239.428 332.4C242.068 333.6 244.348 335.12 246.268 336.96C248.188 338.8 249.668 341 250.708 343.56C251.748 346.04 252.268 348.88 252.268 352.08C252.268 354.56 251.828 356.92 250.948 359.16C250.148 361.32 248.828 363.28 246.988 365.04C245.228 366.8 242.908 368.28 240.028 369.48C237.228 370.6 233.868 371.4 229.948 371.88V372.84C235.068 373.08 239.028 374.08 241.828 375.84C244.628 377.6 246.708 379.84 248.068 382.56C249.508 385.2 250.588 388.08 251.308 391.2L255.508 408H234.028L231.028 392.28C230.548 389.56 229.788 387.36 228.748 385.68C227.788 384 226.388 382.76 224.548 381.96C222.708 381.16 220.268 380.76 217.228 380.76H207.388V408H187.948ZM207.388 365.76H218.668C223.068 365.76 226.428 364.92 228.748 363.24C231.068 361.56 232.228 359 232.228 355.56C232.228 351.8 231.148 349 228.988 347.16C226.828 345.32 223.548 344.4 219.148 344.4H207.388V365.76ZM288.721 409.68C282.721 409.68 277.681 408.84 273.601 407.16C269.601 405.4 266.361 403.04 263.881 400.08C261.401 397.04 259.601 393.6 258.481 389.76C257.441 385.92 256.921 381.88 256.921 377.64C256.921 373.08 257.481 368.72 258.601 364.56C259.801 360.4 261.601 356.72 264.001 353.52C266.481 350.24 269.641 347.68 273.481 345.84C277.401 343.92 282.081 342.96 287.521 342.96C292.961 342.96 297.601 343.92 301.441 345.84C305.361 347.68 308.481 350.28 310.801 353.64C313.121 357 314.601 360.88 315.241 365.28C315.961 369.68 315.881 374.44 315.001 379.56L269.041 380.28V369.72L300.121 369.12L297.601 375.24C298.081 371.56 298.001 368.48 297.361 366C296.801 363.44 295.721 361.52 294.121 360.24C292.521 358.88 290.321 358.2 287.521 358.2C284.561 358.2 282.201 358.96 280.441 360.48C278.681 362 277.441 364.16 276.721 366.96C276.001 369.68 275.641 372.92 275.641 376.68C275.641 383.16 276.721 387.88 278.881 390.84C281.041 393.8 284.361 395.28 288.841 395.28C290.761 395.28 292.361 395.04 293.641 394.56C294.921 394.08 295.961 393.4 296.761 392.52C297.561 391.56 298.121 390.44 298.441 389.16C298.761 387.8 298.881 386.28 298.801 384.6L316.561 385.56C316.801 388.2 316.521 390.92 315.721 393.72C315.001 396.52 313.601 399.12 311.521 401.52C309.441 403.92 306.521 405.88 302.761 407.4C299.081 408.92 294.401 409.68 288.721 409.68ZM328.814 408V369.24H320.054V355.32L339.374 356.64V355.68C334.494 355.12 330.814 353.96 328.334 352.2C325.854 350.44 324.174 348.44 323.294 346.2C322.494 343.96 322.094 341.92 322.094 340.08C322.094 336.48 323.054 333.36 324.974 330.72C326.974 328 329.694 325.92 333.134 324.48C336.654 323.04 340.614 322.32 345.014 322.32C348.614 322.32 351.814 322.8 354.614 323.76C357.494 324.72 360.094 326.12 362.414 327.96L360.854 345.72C358.694 344.2 356.614 343.08 354.614 342.36C352.614 341.56 350.574 341.16 348.494 341.16C346.094 341.16 344.094 341.68 342.494 342.72C340.974 343.76 340.214 345.4 340.214 347.64C340.214 348.84 340.534 349.96 341.174 351C341.814 352.04 342.814 352.88 344.174 353.52C345.614 354.08 347.534 354.36 349.934 354.36H361.934V369.24H348.014V408H328.814ZM368.172 408V373.56V344.64H384.972V369.84H385.932C386.412 363.12 387.332 357.84 388.692 354C390.132 350.08 391.892 347.32 393.972 345.72C396.132 344.04 398.532 343.2 401.172 343.2C402.612 343.2 404.092 343.4 405.612 343.8C407.212 344.2 408.772 344.84 410.292 345.72L409.332 367.32C407.572 366.28 405.852 365.52 404.172 365.04C402.492 364.48 400.892 364.2 399.372 364.2C396.812 364.2 394.652 364.92 392.892 366.36C391.132 367.8 389.772 369.92 388.812 372.72C387.932 375.52 387.492 378.92 387.492 382.92V408H368.172ZM444.932 409.68C438.932 409.68 433.892 408.84 429.812 407.16C425.812 405.4 422.572 403.04 420.092 400.08C417.612 397.04 415.812 393.6 414.692 389.76C413.652 385.92 413.132 381.88 413.132 377.64C413.132 373.08 413.692 368.72 414.812 364.56C416.012 360.4 417.812 356.72 420.212 353.52C422.692 350.24 425.852 347.68 429.692 345.84C433.612 343.92 438.292 342.96 443.732 342.96C449.172 342.96 453.812 343.92 457.652 345.84C461.572 347.68 464.692 350.28 467.012 353.64C469.332 357 470.812 360.88 471.452 365.28C472.172 369.68 472.092 374.44 471.212 379.56L425.252 380.28V369.72L456.332 369.12L453.812 375.24C454.292 371.56 454.212 368.48 453.572 366C453.012 363.44 451.932 361.52 450.332 360.24C448.732 358.88 446.532 358.2 443.732 358.2C440.772 358.2 438.412 358.96 436.652 360.48C434.892 362 433.652 364.16 432.932 366.96C432.212 369.68 431.852 372.92 431.852 376.68C431.852 383.16 432.932 387.88 435.092 390.84C437.252 393.8 440.572 395.28 445.052 395.28C446.972 395.28 448.572 395.04 449.852 394.56C451.132 394.08 452.172 393.4 452.972 392.52C453.772 391.56 454.332 390.44 454.652 389.16C454.972 387.8 455.092 386.28 455.012 384.6L472.772 385.56C473.012 388.2 472.732 390.92 471.932 393.72C471.212 396.52 469.812 399.12 467.732 401.52C465.652 403.92 462.732 405.88 458.972 407.4C455.292 408.92 450.612 409.68 444.932 409.68ZM506.985 409.68C502.745 409.68 498.785 409.24 495.105 408.36C491.505 407.56 488.345 406.24 485.625 404.4C482.985 402.56 480.945 400.12 479.505 397.08C478.145 393.96 477.585 390.2 477.825 385.8L494.745 384.36C494.905 387 495.505 389.2 496.545 390.96C497.585 392.64 499.025 393.88 500.865 394.68C502.705 395.48 504.945 395.88 507.585 395.88C510.065 395.88 512.185 395.48 513.945 394.68C515.785 393.8 516.705 392.36 516.705 390.36C516.705 389.32 516.385 388.48 515.745 387.84C515.105 387.12 513.905 386.48 512.145 385.92C510.465 385.28 507.985 384.56 504.705 383.76C500.625 382.72 496.945 381.68 493.665 380.64C490.385 379.6 487.585 378.36 485.265 376.92C482.945 375.48 481.185 373.72 479.985 371.64C478.785 369.48 478.185 366.84 478.185 363.72C478.185 359.32 479.345 355.6 481.665 352.56C484.065 349.44 487.345 347.08 491.505 345.48C495.665 343.8 500.465 342.96 505.905 342.96C510.785 342.96 515.345 343.72 519.585 345.24C523.825 346.76 527.145 349.24 529.545 352.68C532.025 356.12 532.945 360.68 532.305 366.36L515.745 367.92C515.985 365.6 515.665 363.64 514.785 362.04C513.905 360.36 512.625 359.12 510.945 358.32C509.265 357.44 507.225 357 504.825 357C502.105 357 499.985 357.52 498.465 358.56C497.025 359.52 496.305 360.76 496.305 362.28C496.305 363.48 496.745 364.52 497.625 365.4C498.585 366.2 500.025 366.92 501.945 367.56C503.945 368.12 506.505 368.76 509.625 369.48C512.345 370.04 515.185 370.76 518.145 371.64C521.105 372.52 523.865 373.72 526.425 375.24C528.985 376.68 531.065 378.6 532.665 381C534.265 383.4 535.065 386.44 535.065 390.12C535.065 394.04 533.985 397.48 531.825 400.44C529.665 403.4 526.505 405.68 522.345 407.28C518.185 408.88 513.065 409.68 506.985 409.68ZM541.258 408V374.52V324H560.698V339.84C560.698 341.52 560.578 343.76 560.338 346.56C560.178 349.28 559.898 352.2 559.498 355.32C559.178 358.44 558.818 361.44 558.418 364.32C558.098 367.12 557.818 369.48 557.578 371.4H558.658C559.378 364.76 560.618 359.36 562.378 355.2C564.138 350.96 566.538 347.88 569.578 345.96C572.618 343.96 576.298 342.96 580.618 342.96C587.418 342.96 592.458 345.4 595.738 350.28C599.018 355.08 600.658 362.36 600.658 372.12V408H581.218V372.96C581.218 368.48 580.618 365.2 579.418 363.12C578.218 361.04 576.258 360 573.538 360C571.138 360 568.978 360.92 567.058 362.76C565.138 364.52 563.578 367.36 562.378 371.28C561.258 375.2 560.698 380.28 560.698 386.52V408H541.258ZM618.96 409.56C614.88 409.56 611.8 408.68 609.72 406.92C607.72 405.16 606.72 402.44 606.72 398.76C606.72 395 607.72 392.24 609.72 390.48C611.8 388.72 614.88 387.84 618.96 387.84C623.12 387.84 626.24 388.72 628.32 390.48C630.4 392.24 631.44 395 631.44 398.76C631.44 405.96 627.28 409.56 618.96 409.56Z" fill="#443534"/>
<g opacity="0.8" filter="url(#filter0_d_2060_1165)">
<path d="M751 369.164C751 164.499 611.355 45 415.675 45C219.994 45 55 170.742 55 395.026C55 585.422 200.871 729 415.675 729C571.33 729 657.162 650.969 711.419 574.275" stroke="#B9DDFF" stroke-width="80"/>
</g>
<g filter="url(#filter1_d_2060_1165)">
<path d="M657 305.3L761.88 387L847 292" stroke="#71B0F5" stroke-width="60"/>
</g>
<g filter="url(#filter2_d_2060_1165)">
<path d="M749 511C744.039 520.565 733.216 537.087 726 551" stroke="#71B0F5" stroke-width="80"/>
</g>
<path d="M227.32 446.61H220.12V444H237.49V446.61H230.29V465H227.32V446.61ZM248.827 448.95C250.847 448.95 252.447 449.54 253.627 450.72C254.827 451.88 255.427 453.59 255.427 455.85V465H252.547V456.18C252.547 454.64 252.177 453.48 251.437 452.7C250.697 451.92 249.637 451.53 248.257 451.53C246.697 451.53 245.467 451.99 244.567 452.91C243.667 453.81 243.217 455.11 243.217 456.81V465H240.337V442.74H243.217V451.35C243.817 450.59 244.597 450 245.557 449.58C246.537 449.16 247.627 448.95 248.827 448.95ZM260.757 449.1H263.637V465H260.757V449.1ZM262.197 446.04C261.637 446.04 261.167 445.86 260.787 445.5C260.427 445.14 260.247 444.7 260.247 444.18C260.247 443.66 260.427 443.22 260.787 442.86C261.167 442.48 261.637 442.29 262.197 442.29C262.757 442.29 263.217 442.47 263.577 442.83C263.957 443.17 264.147 443.6 264.147 444.12C264.147 444.66 263.957 445.12 263.577 445.5C263.217 445.86 262.757 446.04 262.197 446.04ZM273.696 465.18C272.396 465.18 271.146 465.01 269.946 464.67C268.746 464.31 267.806 463.86 267.126 463.32L268.326 461.04C269.026 461.54 269.876 461.94 270.876 462.24C271.876 462.54 272.886 462.69 273.906 462.69C276.426 462.69 277.686 461.97 277.686 460.53C277.686 460.05 277.516 459.67 277.176 459.39C276.836 459.11 276.406 458.91 275.886 458.79C275.386 458.65 274.666 458.5 273.726 458.34C272.446 458.14 271.396 457.91 270.576 457.65C269.776 457.39 269.086 456.95 268.506 456.33C267.926 455.71 267.636 454.84 267.636 453.72C267.636 452.28 268.236 451.13 269.436 450.27C270.636 449.39 272.246 448.95 274.266 448.95C275.326 448.95 276.386 449.08 277.446 449.34C278.506 449.6 279.376 449.95 280.056 450.39L278.826 452.67C277.526 451.83 275.996 451.41 274.236 451.41C273.016 451.41 272.086 451.61 271.446 452.01C270.806 452.41 270.486 452.94 270.486 453.6C270.486 454.12 270.666 454.53 271.026 454.83C271.386 455.13 271.826 455.35 272.346 455.49C272.886 455.63 273.636 455.79 274.596 455.97C275.876 456.19 276.906 456.43 277.686 456.69C278.486 456.93 279.166 457.35 279.726 457.95C280.286 458.55 280.566 459.39 280.566 460.47C280.566 461.91 279.946 463.06 278.706 463.92C277.486 464.76 275.816 465.18 273.696 465.18ZM292.222 449.1H295.102V465H292.222V449.1ZM293.662 446.04C293.102 446.04 292.632 445.86 292.252 445.5C291.892 445.14 291.712 444.7 291.712 444.18C291.712 443.66 291.892 443.22 292.252 442.86C292.632 442.48 293.102 442.29 293.662 442.29C294.222 442.29 294.682 442.47 295.042 442.83C295.422 443.17 295.612 443.6 295.612 444.12C295.612 444.66 295.422 445.12 295.042 445.5C294.682 445.86 294.222 446.04 293.662 446.04ZM305.161 465.18C303.861 465.18 302.611 465.01 301.411 464.67C300.211 464.31 299.271 463.86 298.591 463.32L299.791 461.04C300.491 461.54 301.341 461.94 302.341 462.24C303.341 462.54 304.351 462.69 305.371 462.69C307.891 462.69 309.151 461.97 309.151 460.53C309.151 460.05 308.981 459.67 308.641 459.39C308.301 459.11 307.871 458.91 307.351 458.79C306.851 458.65 306.131 458.5 305.191 458.34C303.911 458.14 302.861 457.91 302.041 457.65C301.241 457.39 300.551 456.95 299.971 456.33C299.391 455.71 299.101 454.84 299.101 453.72C299.101 452.28 299.701 451.13 300.901 450.27C302.101 449.39 303.711 448.95 305.731 448.95C306.791 448.95 307.851 449.08 308.911 449.34C309.971 449.6 310.841 449.95 311.521 450.39L310.291 452.67C308.991 451.83 307.461 451.41 305.701 451.41C304.481 451.41 303.551 451.61 302.911 452.01C302.271 452.41 301.951 452.94 301.951 453.6C301.951 454.12 302.131 454.53 302.491 454.83C302.851 455.13 303.291 455.35 303.811 455.49C304.351 455.63 305.101 455.79 306.061 455.97C307.341 456.19 308.371 456.43 309.151 456.69C309.951 456.93 310.631 457.35 311.191 457.95C311.751 458.55 312.031 459.39 312.031 460.47C312.031 461.91 311.411 463.06 310.171 463.92C308.951 464.76 307.281 465.18 305.161 465.18ZM329.477 448.95C331.677 448.95 333.357 449.49 334.517 450.57C335.697 451.65 336.287 453.26 336.287 455.4V465H333.557V462.9C333.077 463.64 332.387 464.21 331.487 464.61C330.607 464.99 329.557 465.18 328.337 465.18C326.557 465.18 325.127 464.75 324.047 463.89C322.987 463.03 322.457 461.9 322.457 460.5C322.457 459.1 322.967 457.98 323.987 457.14C325.007 456.28 326.627 455.85 328.847 455.85H333.407V455.28C333.407 454.04 333.047 453.09 332.327 452.43C331.607 451.77 330.547 451.44 329.147 451.44C328.207 451.44 327.287 451.6 326.387 451.92C325.487 452.22 324.727 452.63 324.107 453.15L322.907 450.99C323.727 450.33 324.707 449.83 325.847 449.49C326.987 449.13 328.197 448.95 329.477 448.95ZM328.817 462.96C329.917 462.96 330.867 462.72 331.667 462.24C332.467 461.74 333.047 461.04 333.407 460.14V457.92H328.967C326.527 457.92 325.307 458.74 325.307 460.38C325.307 461.18 325.617 461.81 326.237 462.27C326.857 462.73 327.717 462.96 328.817 462.96ZM237.94 486.1V499.84C237.94 502.62 237.25 504.67 235.87 505.99C234.49 507.33 232.43 508 229.69 508C228.19 508 226.76 507.79 225.4 507.37C224.04 506.97 222.94 506.39 222.1 505.63L223.48 503.41C224.22 504.05 225.13 504.55 226.21 504.91C227.31 505.29 228.44 505.48 229.6 505.48C231.46 505.48 232.83 505.04 233.71 504.16C234.61 503.28 235.06 501.94 235.06 500.14V498.88C234.38 499.7 233.54 500.32 232.54 500.74C231.56 501.14 230.49 501.34 229.33 501.34C227.81 501.34 226.43 501.02 225.19 500.38C223.97 499.72 223.01 498.81 222.31 497.65C221.61 496.47 221.26 495.13 221.26 493.63C221.26 492.13 221.61 490.8 222.31 489.64C223.01 488.46 223.97 487.55 225.19 486.91C226.43 486.27 227.81 485.95 229.33 485.95C230.53 485.95 231.64 486.17 232.66 486.61C233.7 487.05 234.55 487.7 235.21 488.56V486.1H237.94ZM229.66 498.82C230.7 498.82 231.63 498.6 232.45 498.16C233.29 497.72 233.94 497.11 234.4 496.33C234.88 495.53 235.12 494.63 235.12 493.63C235.12 492.09 234.61 490.85 233.59 489.91C232.57 488.95 231.26 488.47 229.66 488.47C228.04 488.47 226.72 488.95 225.7 489.91C224.68 490.85 224.17 492.09 224.17 493.63C224.17 494.63 224.4 495.53 224.86 496.33C225.34 497.11 225.99 497.72 226.81 498.16C227.65 498.6 228.6 498.82 229.66 498.82ZM257.813 494.14C257.813 494.36 257.793 494.65 257.753 495.01H244.853C245.033 496.41 245.643 497.54 246.683 498.4C247.743 499.24 249.053 499.66 250.613 499.66C252.513 499.66 254.043 499.02 255.203 497.74L256.793 499.6C256.073 500.44 255.173 501.08 254.093 501.52C253.033 501.96 251.843 502.18 250.523 502.18C248.843 502.18 247.353 501.84 246.053 501.16C244.753 500.46 243.743 499.49 243.023 498.25C242.323 497.01 241.973 495.61 241.973 494.05C241.973 492.51 242.313 491.12 242.993 489.88C243.693 488.64 244.643 487.68 245.843 487C247.063 486.3 248.433 485.95 249.953 485.95C251.473 485.95 252.823 486.3 254.003 487C255.203 487.68 256.133 488.64 256.793 489.88C257.473 491.12 257.813 492.54 257.813 494.14ZM249.953 488.38C248.573 488.38 247.413 488.8 246.473 489.64C245.553 490.48 245.013 491.58 244.853 492.94H255.053C254.893 491.6 254.343 490.51 253.403 489.67C252.483 488.81 251.333 488.38 249.953 488.38ZM270.302 485.95C272.322 485.95 273.922 486.54 275.102 487.72C276.302 488.88 276.902 490.59 276.902 492.85V502H274.022V493.18C274.022 491.64 273.652 490.48 272.912 489.7C272.172 488.92 271.112 488.53 269.732 488.53C268.172 488.53 266.942 488.99 266.042 489.91C265.142 490.81 264.692 492.11 264.692 493.81V502H261.812V486.1H264.572V488.5C265.152 487.68 265.932 487.05 266.912 486.61C267.912 486.17 269.042 485.95 270.302 485.95ZM296.69 494.14C296.69 494.36 296.67 494.65 296.63 495.01H283.73C283.91 496.41 284.52 497.54 285.56 498.4C286.62 499.24 287.93 499.66 289.49 499.66C291.39 499.66 292.92 499.02 294.08 497.74L295.67 499.6C294.95 500.44 294.05 501.08 292.97 501.52C291.91 501.96 290.72 502.18 289.4 502.18C287.72 502.18 286.23 501.84 284.93 501.16C283.63 500.46 282.62 499.49 281.9 498.25C281.2 497.01 280.85 495.61 280.85 494.05C280.85 492.51 281.19 491.12 281.87 489.88C282.57 488.64 283.52 487.68 284.72 487C285.94 486.3 287.31 485.95 288.83 485.95C290.35 485.95 291.7 486.3 292.88 487C294.08 487.68 295.01 488.64 295.67 489.88C296.35 491.12 296.69 492.54 296.69 494.14ZM288.83 488.38C287.45 488.38 286.29 488.8 285.35 489.64C284.43 490.48 283.89 491.58 283.73 492.94H293.93C293.77 491.6 293.22 490.51 292.28 489.67C291.36 488.81 290.21 488.38 288.83 488.38ZM303.449 488.77C303.949 487.85 304.689 487.15 305.669 486.67C306.649 486.19 307.839 485.95 309.239 485.95V488.74C309.079 488.72 308.859 488.71 308.579 488.71C307.019 488.71 305.789 489.18 304.889 490.12C304.009 491.04 303.569 492.36 303.569 494.08V502H300.689V486.1H303.449V488.77ZM318.549 485.95C320.749 485.95 322.429 486.49 323.589 487.57C324.769 488.65 325.359 490.26 325.359 492.4V502H322.629V499.9C322.149 500.64 321.459 501.21 320.559 501.61C319.679 501.99 318.629 502.18 317.409 502.18C315.629 502.18 314.199 501.75 313.119 500.89C312.059 500.03 311.529 498.9 311.529 497.5C311.529 496.1 312.039 494.98 313.059 494.14C314.079 493.28 315.699 492.85 317.919 492.85H322.479V492.28C322.479 491.04 322.119 490.09 321.399 489.43C320.679 488.77 319.619 488.44 318.219 488.44C317.279 488.44 316.359 488.6 315.459 488.92C314.559 489.22 313.799 489.63 313.179 490.15L311.979 487.99C312.799 487.33 313.779 486.83 314.919 486.49C316.059 486.13 317.269 485.95 318.549 485.95ZM317.889 499.96C318.989 499.96 319.939 499.72 320.739 499.24C321.539 498.74 322.119 498.04 322.479 497.14V494.92H318.039C315.599 494.92 314.379 495.74 314.379 497.38C314.379 498.18 314.689 498.81 315.309 499.27C315.929 499.73 316.789 499.96 317.889 499.96ZM339.629 501.07C339.209 501.43 338.689 501.71 338.069 501.91C337.449 502.09 336.809 502.18 336.149 502.18C334.549 502.18 333.309 501.75 332.429 500.89C331.549 500.03 331.109 498.8 331.109 497.2V488.47H328.409V486.1H331.109V482.62H333.989V486.1H338.549V488.47H333.989V497.08C333.989 497.94 334.199 498.6 334.619 499.06C335.059 499.52 335.679 499.75 336.479 499.75C337.359 499.75 338.109 499.5 338.729 499L339.629 501.07ZM349.394 502.18C347.814 502.18 346.394 501.83 345.134 501.13C343.874 500.43 342.884 499.47 342.164 498.25C341.464 497.01 341.114 495.61 341.114 494.05C341.114 492.49 341.464 491.1 342.164 489.88C342.884 488.64 343.874 487.68 345.134 487C346.394 486.3 347.814 485.95 349.394 485.95C350.974 485.95 352.384 486.3 353.624 487C354.884 487.68 355.864 488.64 356.564 489.88C357.284 491.1 357.644 492.49 357.644 494.05C357.644 495.61 357.284 497.01 356.564 498.25C355.864 499.47 354.884 500.43 353.624 501.13C352.384 501.83 350.974 502.18 349.394 502.18ZM349.394 499.66C350.414 499.66 351.324 499.43 352.124 498.97C352.944 498.49 353.584 497.83 354.044 496.99C354.504 496.13 354.734 495.15 354.734 494.05C354.734 492.95 354.504 491.98 354.044 491.14C353.584 490.28 352.944 489.62 352.124 489.16C351.324 488.7 350.414 488.47 349.394 488.47C348.374 488.47 347.454 488.7 346.634 489.16C345.834 489.62 345.194 490.28 344.714 491.14C344.254 491.98 344.024 492.95 344.024 494.05C344.024 495.15 344.254 496.13 344.714 496.99C345.194 497.83 345.834 498.49 346.634 498.97C347.454 499.43 348.374 499.66 349.394 499.66ZM364.386 488.77C364.886 487.85 365.626 487.15 366.606 486.67C367.586 486.19 368.776 485.95 370.176 485.95V488.74C370.016 488.72 369.796 488.71 369.516 488.71C367.956 488.71 366.726 489.18 365.826 490.12C364.946 491.04 364.506 492.36 364.506 494.08V502H361.626V486.1H364.386V488.77ZM390.928 501.07C390.508 501.43 389.988 501.71 389.368 501.91C388.748 502.09 388.108 502.18 387.448 502.18C385.848 502.18 384.608 501.75 383.728 500.89C382.848 500.03 382.408 498.8 382.408 497.2V488.47H379.708V486.1H382.408V482.62H385.288V486.1H389.848V488.47H385.288V497.08C385.288 497.94 385.498 498.6 385.918 499.06C386.358 499.52 386.978 499.75 387.778 499.75C388.658 499.75 389.408 499.5 390.028 499L390.928 501.07ZM400.692 502.18C399.112 502.18 397.692 501.83 396.432 501.13C395.172 500.43 394.182 499.47 393.462 498.25C392.762 497.01 392.412 495.61 392.412 494.05C392.412 492.49 392.762 491.1 393.462 489.88C394.182 488.64 395.172 487.68 396.432 487C397.692 486.3 399.112 485.95 400.692 485.95C402.272 485.95 403.682 486.3 404.922 487C406.182 487.68 407.162 488.64 407.862 489.88C408.582 491.1 408.942 492.49 408.942 494.05C408.942 495.61 408.582 497.01 407.862 498.25C407.162 499.47 406.182 500.43 404.922 501.13C403.682 501.83 402.272 502.18 400.692 502.18ZM400.692 499.66C401.712 499.66 402.622 499.43 403.422 498.97C404.242 498.49 404.882 497.83 405.342 496.99C405.802 496.13 406.032 495.15 406.032 494.05C406.032 492.95 405.802 491.98 405.342 491.14C404.882 490.28 404.242 489.62 403.422 489.16C402.622 488.7 401.712 488.47 400.692 488.47C399.672 488.47 398.752 488.7 397.932 489.16C397.132 489.62 396.492 490.28 396.012 491.14C395.552 491.98 395.322 492.95 395.322 494.05C395.322 495.15 395.552 496.13 396.012 496.99C396.492 497.83 397.132 498.49 397.932 498.97C398.752 499.43 399.672 499.66 400.692 499.66ZM427.162 494.59L423.862 497.65V502H420.982V479.74H423.862V494.02L432.532 486.1H436.012L429.322 492.67L436.672 502H433.132L427.162 494.59ZM453.164 494.14C453.164 494.36 453.144 494.65 453.104 495.01H440.204C440.384 496.41 440.994 497.54 442.034 498.4C443.094 499.24 444.404 499.66 445.964 499.66C447.864 499.66 449.394 499.02 450.554 497.74L452.144 499.6C451.424 500.44 450.524 501.08 449.444 501.52C448.384 501.96 447.194 502.18 445.874 502.18C444.194 502.18 442.704 501.84 441.404 501.16C440.104 500.46 439.094 499.49 438.374 498.25C437.674 497.01 437.324 495.61 437.324 494.05C437.324 492.51 437.664 491.12 438.344 489.88C439.044 488.64 439.994 487.68 441.194 487C442.414 486.3 443.784 485.95 445.304 485.95C446.824 485.95 448.174 486.3 449.354 487C450.554 487.68 451.484 488.64 452.144 489.88C452.824 491.12 453.164 492.54 453.164 494.14ZM445.304 488.38C443.924 488.38 442.764 488.8 441.824 489.64C440.904 490.48 440.364 491.58 440.204 492.94H450.404C450.244 491.6 449.694 490.51 448.754 489.67C447.834 488.81 446.684 488.38 445.304 488.38ZM471.534 494.14C471.534 494.36 471.514 494.65 471.474 495.01H458.574C458.754 496.41 459.364 497.54 460.404 498.4C461.464 499.24 462.774 499.66 464.334 499.66C466.234 499.66 467.764 499.02 468.924 497.74L470.514 499.6C469.794 500.44 468.894 501.08 467.814 501.52C466.754 501.96 465.564 502.18 464.244 502.18C462.564 502.18 461.074 501.84 459.774 501.16C458.474 500.46 457.464 499.49 456.744 498.25C456.044 497.01 455.694 495.61 455.694 494.05C455.694 492.51 456.034 491.12 456.714 489.88C457.414 488.64 458.364 487.68 459.564 487C460.784 486.3 462.154 485.95 463.674 485.95C465.194 485.95 466.544 486.3 467.724 487C468.924 487.68 469.854 488.64 470.514 489.88C471.194 491.12 471.534 492.54 471.534 494.14ZM463.674 488.38C462.294 488.38 461.134 488.8 460.194 489.64C459.274 490.48 458.734 491.58 458.574 492.94H468.774C468.614 491.6 468.064 490.51 467.124 489.67C466.204 488.81 465.054 488.38 463.674 488.38ZM483.963 485.95C485.503 485.95 486.883 486.29 488.103 486.97C489.323 487.65 490.273 488.6 490.953 489.82C491.653 491.04 492.003 492.45 492.003 494.05C492.003 495.65 491.653 497.07 490.953 498.31C490.273 499.53 489.323 500.48 488.103 501.16C486.883 501.84 485.503 502.18 483.963 502.18C482.823 502.18 481.773 501.96 480.813 501.52C479.873 501.08 479.073 500.44 478.413 499.6V507.82H475.533V486.1H478.293V488.62C478.933 487.74 479.743 487.08 480.723 486.64C481.703 486.18 482.783 485.95 483.963 485.95ZM483.723 499.66C484.743 499.66 485.653 499.43 486.453 498.97C487.273 498.49 487.913 497.83 488.373 496.99C488.853 496.13 489.093 495.15 489.093 494.05C489.093 492.95 488.853 491.98 488.373 491.14C487.913 490.28 487.273 489.62 486.453 489.16C485.653 488.7 484.743 488.47 483.723 488.47C482.723 488.47 481.813 488.71 480.993 489.19C480.193 489.65 479.553 490.3 479.073 491.14C478.613 491.98 478.383 492.95 478.383 494.05C478.383 495.15 478.613 496.13 479.073 496.99C479.533 497.83 480.173 498.49 480.993 498.97C481.813 499.43 482.723 499.66 483.723 499.66ZM518.109 486.1L510.399 503.59C509.719 505.21 508.919 506.35 507.999 507.01C507.099 507.67 506.009 508 504.729 508C503.949 508 503.189 507.87 502.449 507.61C501.729 507.37 501.129 507.01 500.649 506.53L501.879 504.37C502.699 505.15 503.649 505.54 504.729 505.54C505.429 505.54 506.009 505.35 506.469 504.97C506.949 504.61 507.379 503.98 507.759 503.08L508.269 501.97L501.249 486.1H504.249L509.799 498.82L515.289 486.1H518.109ZM527.167 502.18C525.587 502.18 524.167 501.83 522.907 501.13C521.647 500.43 520.657 499.47 519.937 498.25C519.237 497.01 518.887 495.61 518.887 494.05C518.887 492.49 519.237 491.1 519.937 489.88C520.657 488.64 521.647 487.68 522.907 487C524.167 486.3 525.587 485.95 527.167 485.95C528.747 485.95 530.157 486.3 531.397 487C532.657 487.68 533.637 488.64 534.337 489.88C535.057 491.1 535.417 492.49 535.417 494.05C535.417 495.61 535.057 497.01 534.337 498.25C533.637 499.47 532.657 500.43 531.397 501.13C530.157 501.83 528.747 502.18 527.167 502.18ZM527.167 499.66C528.187 499.66 529.097 499.43 529.897 498.97C530.717 498.49 531.357 497.83 531.817 496.99C532.277 496.13 532.507 495.15 532.507 494.05C532.507 492.95 532.277 491.98 531.817 491.14C531.357 490.28 530.717 489.62 529.897 489.16C529.097 488.7 528.187 488.47 527.167 488.47C526.147 488.47 525.227 488.7 524.407 489.16C523.607 489.62 522.967 490.28 522.487 491.14C522.027 491.98 521.797 492.95 521.797 494.05C521.797 495.15 522.027 496.13 522.487 496.99C522.967 497.83 523.607 498.49 524.407 498.97C525.227 499.43 526.147 499.66 527.167 499.66ZM554.22 486.1V502H551.49V499.6C550.91 500.42 550.14 501.06 549.18 501.52C548.24 501.96 547.21 502.18 546.09 502.18C543.97 502.18 542.3 501.6 541.08 500.44C539.86 499.26 539.25 497.53 539.25 495.25V486.1H542.13V494.92C542.13 496.46 542.5 497.63 543.24 498.43C543.98 499.21 545.04 499.6 546.42 499.6C547.94 499.6 549.14 499.14 550.02 498.22C550.9 497.3 551.34 496 551.34 494.32V486.1H554.22ZM225.49 525.77C225.99 524.85 226.73 524.15 227.71 523.67C228.69 523.19 229.88 522.95 231.28 522.95V525.74C231.12 525.72 230.9 525.71 230.62 525.71C229.06 525.71 227.83 526.18 226.93 527.12C226.05 528.04 225.61 529.36 225.61 531.08V539H222.73V523.1H225.49V525.77ZM249.053 531.14C249.053 531.36 249.033 531.65 248.993 532.01H236.093C236.273 533.41 236.883 534.54 237.923 535.4C238.983 536.24 240.293 536.66 241.853 536.66C243.753 536.66 245.283 536.02 246.443 534.74L248.033 536.6C247.313 537.44 246.413 538.08 245.333 538.52C244.273 538.96 243.083 539.18 241.763 539.18C240.083 539.18 238.593 538.84 237.293 538.16C235.993 537.46 234.983 536.49 234.263 535.25C233.563 534.01 233.213 532.61 233.213 531.05C233.213 529.51 233.553 528.12 234.233 526.88C234.933 525.64 235.883 524.68 237.083 524C238.303 523.3 239.673 522.95 241.193 522.95C242.713 522.95 244.063 523.3 245.243 524C246.443 524.68 247.373 525.64 248.033 526.88C248.713 528.12 249.053 529.54 249.053 531.14ZM241.193 525.38C239.813 525.38 238.653 525.8 237.713 526.64C236.793 527.48 236.253 528.58 236.093 529.94H246.293C246.133 528.6 245.583 527.51 244.643 526.67C243.723 525.81 242.573 525.38 241.193 525.38ZM258.872 518.93C257.152 518.93 256.292 519.86 256.292 521.72V523.1H260.912V525.47H256.352V539H253.472V525.47H250.772V523.1H253.472V521.69C253.472 520.11 253.932 518.86 254.852 517.94C255.772 517.02 257.062 516.56 258.722 516.56C259.362 516.56 259.962 516.64 260.522 516.8C261.082 516.96 261.562 517.19 261.962 517.49L261.092 519.68C260.432 519.18 259.692 518.93 258.872 518.93ZM268.791 525.77C269.291 524.85 270.031 524.15 271.011 523.67C271.991 523.19 273.181 522.95 274.581 522.95V525.74C274.421 525.72 274.201 525.71 273.921 525.71C272.361 525.71 271.131 526.18 270.231 527.12C269.351 528.04 268.911 529.36 268.911 531.08V539H266.031V523.1H268.791V525.77ZM292.354 531.14C292.354 531.36 292.334 531.65 292.294 532.01H279.394C279.574 533.41 280.184 534.54 281.224 535.4C282.284 536.24 283.594 536.66 285.154 536.66C287.054 536.66 288.584 536.02 289.744 534.74L291.334 536.6C290.614 537.44 289.714 538.08 288.634 538.52C287.574 538.96 286.384 539.18 285.064 539.18C283.384 539.18 281.894 538.84 280.594 538.16C279.294 537.46 278.284 536.49 277.564 535.25C276.864 534.01 276.514 532.61 276.514 531.05C276.514 529.51 276.854 528.12 277.534 526.88C278.234 525.64 279.184 524.68 280.384 524C281.604 523.3 282.974 522.95 284.494 522.95C286.014 522.95 287.364 523.3 288.544 524C289.744 524.68 290.674 525.64 291.334 526.88C292.014 528.12 292.354 529.54 292.354 531.14ZM284.494 525.38C283.114 525.38 281.954 525.8 281.014 526.64C280.094 527.48 279.554 528.58 279.394 529.94H289.594C289.434 528.6 288.884 527.51 287.944 526.67C287.024 525.81 285.874 525.38 284.494 525.38ZM300.913 539.18C299.613 539.18 298.363 539.01 297.163 538.67C295.963 538.31 295.023 537.86 294.343 537.32L295.543 535.04C296.243 535.54 297.093 535.94 298.093 536.24C299.093 536.54 300.103 536.69 301.123 536.69C303.643 536.69 304.903 535.97 304.903 534.53C304.903 534.05 304.733 533.67 304.393 533.39C304.053 533.11 303.623 532.91 303.103 532.79C302.603 532.65 301.883 532.5 300.943 532.34C299.663 532.14 298.613 531.91 297.793 531.65C296.993 531.39 296.303 530.95 295.723 530.33C295.143 529.71 294.853 528.84 294.853 527.72C294.853 526.28 295.453 525.13 296.653 524.27C297.853 523.39 299.463 522.95 301.483 522.95C302.543 522.95 303.603 523.08 304.663 523.34C305.723 523.6 306.593 523.95 307.273 524.39L306.043 526.67C304.743 525.83 303.213 525.41 301.453 525.41C300.233 525.41 299.303 525.61 298.663 526.01C298.023 526.41 297.703 526.94 297.703 527.6C297.703 528.12 297.883 528.53 298.243 528.83C298.603 529.13 299.043 529.35 299.563 529.49C300.103 529.63 300.853 529.79 301.813 529.97C303.093 530.19 304.123 530.43 304.903 530.69C305.703 530.93 306.383 531.35 306.943 531.95C307.503 532.55 307.783 533.39 307.783 534.47C307.783 535.91 307.163 537.06 305.923 537.92C304.703 538.76 303.033 539.18 300.913 539.18ZM319.872 522.95C321.892 522.95 323.492 523.54 324.672 524.72C325.872 525.88 326.472 527.59 326.472 529.85V539H323.592V530.18C323.592 528.64 323.222 527.48 322.482 526.7C321.742 525.92 320.682 525.53 319.302 525.53C317.742 525.53 316.512 525.99 315.612 526.91C314.712 527.81 314.262 529.11 314.262 530.81V539H311.382V516.74H314.262V525.35C314.862 524.59 315.642 524 316.602 523.58C317.582 523.16 318.672 522.95 319.872 522.95ZM346.26 531.14C346.26 531.36 346.24 531.65 346.2 532.01H333.3C333.48 533.41 334.09 534.54 335.13 535.4C336.19 536.24 337.5 536.66 339.06 536.66C340.96 536.66 342.49 536.02 343.65 534.74L345.24 536.6C344.52 537.44 343.62 538.08 342.54 538.52C341.48 538.96 340.29 539.18 338.97 539.18C337.29 539.18 335.8 538.84 334.5 538.16C333.2 537.46 332.19 536.49 331.47 535.25C330.77 534.01 330.42 532.61 330.42 531.05C330.42 529.51 330.76 528.12 331.44 526.88C332.14 525.64 333.09 524.68 334.29 524C335.51 523.3 336.88 522.95 338.4 522.95C339.92 522.95 341.27 523.3 342.45 524C343.65 524.68 344.58 525.64 345.24 526.88C345.92 528.12 346.26 529.54 346.26 531.14ZM338.4 525.38C337.02 525.38 335.86 525.8 334.92 526.64C334 527.48 333.46 528.58 333.3 529.94H343.5C343.34 528.6 342.79 527.51 341.85 526.67C340.93 525.81 339.78 525.38 338.4 525.38ZM365.259 516.74V539H362.499V536.48C361.859 537.36 361.049 538.03 360.069 538.49C359.089 538.95 358.009 539.18 356.829 539.18C355.289 539.18 353.909 538.84 352.689 538.16C351.469 537.48 350.509 536.53 349.809 535.31C349.129 534.07 348.789 532.65 348.789 531.05C348.789 529.45 349.129 528.04 349.809 526.82C350.509 525.6 351.469 524.65 352.689 523.97C353.909 523.29 355.289 522.95 356.829 522.95C357.969 522.95 359.019 523.17 359.979 523.61C360.939 524.03 361.739 524.66 362.379 525.5V516.74H365.259ZM357.069 536.66C358.069 536.66 358.979 536.43 359.799 535.97C360.619 535.49 361.259 534.83 361.719 533.99C362.179 533.13 362.409 532.15 362.409 531.05C362.409 529.95 362.179 528.98 361.719 528.14C361.259 527.28 360.619 526.62 359.799 526.16C358.979 525.7 358.069 525.47 357.069 525.47C356.049 525.47 355.129 525.7 354.309 526.16C353.509 526.62 352.869 527.28 352.389 528.14C351.929 528.98 351.699 529.95 351.699 531.05C351.699 532.15 351.929 533.13 352.389 533.99C352.869 534.83 353.509 535.49 354.309 535.97C355.129 536.43 356.049 536.66 357.069 536.66ZM370.319 518H373.709L373.139 532.37H370.859L370.319 518ZM372.029 539.18C371.469 539.18 370.999 539 370.619 538.64C370.239 538.26 370.049 537.8 370.049 537.26C370.049 536.72 370.239 536.27 370.619 535.91C370.999 535.53 371.469 535.34 372.029 535.34C372.589 535.34 373.049 535.53 373.409 535.91C373.769 536.27 373.949 536.72 373.949 537.26C373.949 537.8 373.759 538.26 373.379 538.64C373.019 539 372.569 539.18 372.029 539.18Z" fill="black"/>
<path d="M353.573 450.99C354.133 450.21 354.883 449.62 355.823 449.22C356.783 448.82 357.883 448.62 359.123 448.62V452.94C358.603 452.9 358.253 452.88 358.073 452.88C356.733 452.88 355.683 453.26 354.923 454.02C354.163 454.76 353.783 455.88 353.783 457.38V465H349.103V448.86H353.573V450.99ZM368.328 448.62C370.828 448.62 372.748 449.22 374.088 450.42C375.428 451.6 376.098 453.39 376.098 455.79V465H371.718V462.99C370.838 464.49 369.198 465.24 366.798 465.24C365.558 465.24 364.478 465.03 363.558 464.61C362.658 464.19 361.968 463.61 361.488 462.87C361.008 462.13 360.768 461.29 360.768 460.35C360.768 458.85 361.328 457.67 362.448 456.81C363.588 455.95 365.338 455.52 367.698 455.52H371.418C371.418 454.5 371.108 453.72 370.488 453.18C369.868 452.62 368.938 452.34 367.698 452.34C366.838 452.34 365.988 452.48 365.148 452.76C364.328 453.02 363.628 453.38 363.048 453.84L361.368 450.57C362.248 449.95 363.298 449.47 364.518 449.13C365.758 448.79 367.028 448.62 368.328 448.62ZM367.968 462.09C368.768 462.09 369.478 461.91 370.098 461.55C370.718 461.17 371.158 460.62 371.418 459.9V458.25H368.208C366.288 458.25 365.328 458.88 365.328 460.14C365.328 460.74 365.558 461.22 366.018 461.58C366.498 461.92 367.148 462.09 367.968 462.09ZM390.144 448.62C392.144 448.62 393.754 449.22 394.974 450.42C396.214 451.62 396.834 453.4 396.834 455.76V465H392.154V456.48C392.154 455.2 391.874 454.25 391.314 453.63C390.754 452.99 389.944 452.67 388.884 452.67C387.704 452.67 386.764 453.04 386.064 453.78C385.364 454.5 385.014 455.58 385.014 457.02V465H380.334V448.86H384.804V450.75C385.424 450.07 386.194 449.55 387.114 449.19C388.034 448.81 389.044 448.62 390.144 448.62ZM417.692 442.74V465H413.222V463.14C412.062 464.54 410.382 465.24 408.182 465.24C406.662 465.24 405.282 464.9 404.042 464.22C402.822 463.54 401.862 462.57 401.162 461.31C400.462 460.05 400.112 458.59 400.112 456.93C400.112 455.27 400.462 453.81 401.162 452.55C401.862 451.29 402.822 450.32 404.042 449.64C405.282 448.96 406.662 448.62 408.182 448.62C410.242 448.62 411.852 449.27 413.012 450.57V442.74H417.692ZM408.992 461.4C410.172 461.4 411.152 461 411.932 460.2C412.712 459.38 413.102 458.29 413.102 456.93C413.102 455.57 412.712 454.49 411.932 453.69C411.152 452.87 410.172 452.46 408.992 452.46C407.792 452.46 406.802 452.87 406.022 453.69C405.242 454.49 404.852 455.57 404.852 456.93C404.852 458.29 405.242 459.38 406.022 460.2C406.802 461 407.792 461.4 408.992 461.4ZM429.703 465.24C428.003 465.24 426.473 464.89 425.113 464.19C423.773 463.47 422.723 462.48 421.963 461.22C421.203 459.96 420.823 458.53 420.823 456.93C420.823 455.33 421.203 453.9 421.963 452.64C422.723 451.38 423.773 450.4 425.113 449.7C426.473 448.98 428.003 448.62 429.703 448.62C431.403 448.62 432.923 448.98 434.263 449.7C435.603 450.4 436.653 451.38 437.413 452.64C438.173 453.9 438.553 455.33 438.553 456.93C438.553 458.53 438.173 459.96 437.413 461.22C436.653 462.48 435.603 463.47 434.263 464.19C432.923 464.89 431.403 465.24 429.703 465.24ZM429.703 461.4C430.903 461.4 431.883 461 432.643 460.2C433.423 459.38 433.813 458.29 433.813 456.93C433.813 455.57 433.423 454.49 432.643 453.69C431.883 452.87 430.903 452.46 429.703 452.46C428.503 452.46 427.513 452.87 426.733 453.69C425.953 454.49 425.563 455.57 425.563 456.93C425.563 458.29 425.953 459.38 426.733 460.2C427.513 461 428.503 461.4 429.703 461.4ZM462.351 448.62C464.371 448.62 465.971 449.22 467.151 450.42C468.351 451.6 468.951 453.38 468.951 455.76V465H464.271V456.48C464.271 455.2 464.001 454.25 463.461 453.63C462.941 452.99 462.191 452.67 461.211 452.67C460.111 452.67 459.241 453.03 458.601 453.75C457.961 454.45 457.641 455.5 457.641 456.9V465H452.961V456.48C452.961 453.94 451.941 452.67 449.901 452.67C448.821 452.67 447.961 453.03 447.321 453.75C446.681 454.45 446.361 455.5 446.361 456.9V465H441.681V448.86H446.151V450.72C446.751 450.04 447.481 449.52 448.341 449.16C449.221 448.8 450.181 448.62 451.221 448.62C452.361 448.62 453.391 448.85 454.311 449.31C455.231 449.75 455.971 450.4 456.531 451.26C457.191 450.42 458.021 449.77 459.021 449.31C460.041 448.85 461.151 448.62 462.351 448.62ZM497.452 456.99C497.452 457.05 497.422 457.47 497.362 458.25H485.152C485.372 459.25 485.892 460.04 486.712 460.62C487.532 461.2 488.552 461.49 489.772 461.49C490.612 461.49 491.352 461.37 491.992 461.13C492.652 460.87 493.262 460.47 493.822 459.93L496.312 462.63C494.792 464.37 492.572 465.24 489.652 465.24C487.832 465.24 486.222 464.89 484.822 464.19C483.422 463.47 482.342 462.48 481.582 461.22C480.822 459.96 480.442 458.53 480.442 456.93C480.442 455.35 480.812 453.93 481.552 452.67C482.312 451.39 483.342 450.4 484.642 449.7C485.962 448.98 487.432 448.62 489.052 448.62C490.632 448.62 492.062 448.96 493.342 449.64C494.622 450.32 495.622 451.3 496.342 452.58C497.082 453.84 497.452 455.31 497.452 456.99ZM489.082 452.16C488.022 452.16 487.132 452.46 486.412 453.06C485.692 453.66 485.252 454.48 485.092 455.52H493.042C492.882 454.5 492.442 453.69 491.722 453.09C491.002 452.47 490.122 452.16 489.082 452.16ZM510.389 465L506.849 460.05L503.189 465H498.089L504.299 456.87L498.299 448.86H503.549L506.969 453.57L510.479 448.86H515.459L509.459 456.75L515.699 465H510.389ZM533.283 456.99C533.283 457.05 533.253 457.47 533.193 458.25H520.983C521.203 459.25 521.723 460.04 522.543 460.62C523.363 461.2 524.383 461.49 525.603 461.49C526.443 461.49 527.183 461.37 527.823 461.13C528.483 460.87 529.093 460.47 529.653 459.93L532.143 462.63C530.623 464.37 528.403 465.24 525.483 465.24C523.663 465.24 522.053 464.89 520.653 464.19C519.253 463.47 518.173 462.48 517.413 461.22C516.653 459.96 516.273 458.53 516.273 456.93C516.273 455.35 516.643 453.93 517.383 452.67C518.143 451.39 519.173 450.4 520.473 449.7C521.793 448.98 523.263 448.62 524.883 448.62C526.463 448.62 527.893 448.96 529.173 449.64C530.453 450.32 531.453 451.3 532.173 452.58C532.913 453.84 533.283 455.31 533.283 456.99ZM524.913 452.16C523.853 452.16 522.963 452.46 522.243 453.06C521.523 453.66 521.083 454.48 520.923 455.52H528.873C528.713 454.5 528.273 453.69 527.553 453.09C526.833 452.47 525.953 452.16 524.913 452.16ZM540.868 450.99C541.428 450.21 542.178 449.62 543.118 449.22C544.078 448.82 545.178 448.62 546.418 448.62V452.94C545.898 452.9 545.548 452.88 545.368 452.88C544.028 452.88 542.978 453.26 542.218 454.02C541.458 454.76 541.078 455.88 541.078 457.38V465H536.398V448.86H540.868V450.99ZM556.855 465.24C555.135 465.24 553.585 464.89 552.205 464.19C550.845 463.47 549.775 462.48 548.995 461.22C548.235 459.96 547.855 458.53 547.855 456.93C547.855 455.33 548.235 453.9 548.995 452.64C549.775 451.38 550.845 450.4 552.205 449.7C553.585 448.98 555.135 448.62 556.855 448.62C558.555 448.62 560.035 448.98 561.295 449.7C562.575 450.4 563.505 451.41 564.085 452.73L560.455 454.68C559.615 453.2 558.405 452.46 556.825 452.46C555.605 452.46 554.595 452.86 553.795 453.66C552.995 454.46 552.595 455.55 552.595 456.93C552.595 458.31 552.995 459.4 553.795 460.2C554.595 461 555.605 461.4 556.825 461.4C558.425 461.4 559.635 460.66 560.455 459.18L564.085 461.16C563.505 462.44 562.575 463.44 561.295 464.16C560.035 464.88 558.555 465.24 556.855 465.24ZM566.779 448.86H571.459V465H566.779V448.86ZM569.119 446.61C568.259 446.61 567.559 446.36 567.019 445.86C566.479 445.36 566.209 444.74 566.209 444C566.209 443.26 566.479 442.64 567.019 442.14C567.559 441.64 568.259 441.39 569.119 441.39C569.979 441.39 570.679 441.63 571.219 442.11C571.759 442.59 572.029 443.19 572.029 443.91C572.029 444.69 571.759 445.34 571.219 445.86C570.679 446.36 569.979 446.61 569.119 446.61ZM581.233 465.24C579.893 465.24 578.583 465.08 577.303 464.76C576.023 464.42 575.003 464 574.243 463.5L575.803 460.14C576.523 460.6 577.393 460.98 578.413 461.28C579.433 461.56 580.433 461.7 581.413 461.7C583.393 461.7 584.383 461.21 584.383 460.23C584.383 459.77 584.113 459.44 583.573 459.24C583.033 459.04 582.203 458.87 581.083 458.73C579.763 458.53 578.673 458.3 577.813 458.04C576.953 457.78 576.203 457.32 575.563 456.66C574.943 456 574.633 455.06 574.633 453.84C574.633 452.82 574.923 451.92 575.503 451.14C576.103 450.34 576.963 449.72 578.083 449.28C579.223 448.84 580.563 448.62 582.103 448.62C583.243 448.62 584.373 448.75 585.493 449.01C586.633 449.25 587.573 449.59 588.313 450.03L586.753 453.36C585.333 452.56 583.783 452.16 582.103 452.16C581.103 452.16 580.353 452.3 579.853 452.58C579.353 452.86 579.103 453.22 579.103 453.66C579.103 454.16 579.373 454.51 579.913 454.71C580.453 454.91 581.313 455.1 582.493 455.28C583.813 455.5 584.893 455.74 585.733 456C586.573 456.24 587.303 456.69 587.923 457.35C588.543 458.01 588.853 458.93 588.853 460.11C588.853 461.11 588.553 462 587.953 462.78C587.353 463.56 586.473 464.17 585.313 464.61C584.173 465.03 582.813 465.24 581.233 465.24ZM607.55 456.99C607.55 457.05 607.52 457.47 607.46 458.25H595.25C595.47 459.25 595.99 460.04 596.81 460.62C597.63 461.2 598.65 461.49 599.87 461.49C600.71 461.49 601.45 461.37 602.09 461.13C602.75 460.87 603.36 460.47 603.92 459.93L606.41 462.63C604.89 464.37 602.67 465.24 599.75 465.24C597.93 465.24 596.32 464.89 594.92 464.19C593.52 463.47 592.44 462.48 591.68 461.22C590.92 459.96 590.54 458.53 590.54 456.93C590.54 455.35 590.91 453.93 591.65 452.67C592.41 451.39 593.44 450.4 594.74 449.7C596.06 448.98 597.53 448.62 599.15 448.62C600.73 448.62 602.16 448.96 603.44 449.64C604.72 450.32 605.72 451.3 606.44 452.58C607.18 453.84 607.55 455.31 607.55 456.99ZM599.18 452.16C598.12 452.16 597.23 452.46 596.51 453.06C595.79 453.66 595.35 454.48 595.19 455.52H603.14C602.98 454.5 602.54 453.69 601.82 453.09C601.1 452.47 600.22 452.16 599.18 452.16Z" fill="#D7629A"/>
<defs>
<filter id="filter0_d_2060_1165" x="0" y="0" width="796" height="784" filterUnits="userSpaceOnUse" color-interpolation-filters="sRGB">
<feFlood flood-opacity="0" result="BackgroundImageFix"/>
<feColorMatrix in="SourceAlpha" type="matrix" values="0 0 0 0 0 0 0 0 0 0 0 0 0 0 0 0 0 0 127 0" result="hardAlpha"/>
<feOffset dx="-5" dy="5"/>
<feGaussianBlur stdDeviation="5"/>
<feComposite in2="hardAlpha" operator="out"/>
<feColorMatrix type="matrix" values="0 0 0 0 0 0 0 0 0 0 0 0 0 0 0 0 0 0 0.25 0"/>
<feBlend mode="normal" in2="BackgroundImageFix" result="effect1_dropShadow_2060_1165"/>
<feBlend mode="normal" in="SourceGraphic" in2="effect1_dropShadow_2060_1165" result="shape"/>
</filter>
<filter id="filter1_d_2060_1165" x="623.564" y="266.98" width="250.779" height="175.896" filterUnits="userSpaceOnUse" color-interpolation-filters="sRGB">
<feFlood flood-opacity="0" result="BackgroundImageFix"/>
<feColorMatrix in="SourceAlpha" type="matrix" values="0 0 0 0 0 0 0 0 0 0 0 0 0 0 0 0 0 0 127 0" result="hardAlpha"/>
<feOffset dx="-5" dy="5"/>
<feGaussianBlur stdDeviation="5"/>
<feComposite in2="hardAlpha" operator="out"/>
<feColorMatrix type="matrix" values="0 0 0 0 0 0 0 0 0 0 0 0 0 0 0 0 0 0 0.25 0"/>
<feBlend mode="normal" in2="BackgroundImageFix" result="effect1_dropShadow_2060_1165"/>
<feBlend mode="normal" in="SourceGraphic" in2="effect1_dropShadow_2060_1165" result="shape"/>
</filter>
<filter id="filter2_d_2060_1165" x="675.491" y="487.584" width="114.017" height="96.8314" filterUnits="userSpaceOnUse" color-interpolation-filters="sRGB">
<feFlood flood-opacity="0" result="BackgroundImageFix"/>
<feColorMatrix in="SourceAlpha" type="matrix" values="0 0 0 0 0 0 0 0 0 0 0 0 0 0 0 0 0 0 127 0" result="hardAlpha"/>
<feOffset dx="-5" dy="5"/>
<feGaussianBlur stdDeviation="5"/>
<feComposite in2="hardAlpha" operator="out"/>
<feColorMatrix type="matrix" values="0 0 0 0 0 0 0 0 0 0 0 0 0 0 0 0 0 0 0.25 0"/>
<feBlend mode="normal" in2="BackgroundImageFix" result="effect1_dropShadow_2060_1165"/>
<feBlend mode="normal" in="SourceGraphic" in2="effect1_dropShadow_2060_1165" result="shape"/>
</filter>
</defs>
</svg>
