<svg width="692" height="836" viewBox="0 0 692 836" fill="none" xmlns="http://www.w3.org/2000/svg">
<g filter="url(#filter0_d_2188_64)">
<rect x="14" y="9" width="669.087" height="813" rx="38.6632" fill="#443534"/>
</g>
<path d="M123.914 74.28H115.314V68H140.394V74.28H131.834V96H123.914V74.28ZM157.105 73.96C159.798 73.96 161.958 74.76 163.585 76.36C165.238 77.96 166.065 80.3733 166.065 83.6V96H158.465V84.84C158.465 81.88 157.278 80.4 154.905 80.4C153.598 80.4 152.545 80.8267 151.745 81.68C150.972 82.5333 150.585 83.8133 150.585 85.52V96H142.985V66.32H150.585V76.32C151.412 75.5467 152.385 74.96 153.505 74.56C154.625 74.16 155.825 73.96 157.105 73.96ZM193.309 85.2C193.309 85.2533 193.269 85.88 193.189 87.08H177.429C177.749 88.2 178.362 89.0667 179.269 89.68C180.202 90.2667 181.362 90.56 182.749 90.56C183.789 90.56 184.682 90.4133 185.429 90.12C186.202 89.8267 186.976 89.3467 187.749 88.68L191.749 92.84C189.642 95.1867 186.562 96.36 182.509 96.36C179.976 96.36 177.749 95.88 175.829 94.92C173.909 93.96 172.416 92.6267 171.349 90.92C170.309 89.2133 169.789 87.28 169.789 85.12C169.789 82.9867 170.296 81.08 171.309 79.4C172.349 77.6933 173.776 76.36 175.589 75.4C177.402 74.44 179.442 73.96 181.709 73.96C183.869 73.96 185.829 74.4133 187.589 75.32C189.349 76.2 190.736 77.4933 191.749 79.2C192.789 80.88 193.309 82.88 193.309 85.2ZM181.749 79.36C180.576 79.36 179.589 79.6933 178.789 80.36C178.016 81.0267 177.522 81.9333 177.309 83.08H186.189C185.976 81.9333 185.469 81.0267 184.669 80.36C183.896 79.6933 182.922 79.36 181.749 79.36ZM204.693 96.36C202.88 96.36 201.093 96.16 199.333 95.76C197.573 95.3333 196.16 94.7867 195.093 94.12L197.373 88.92C198.36 89.5333 199.533 90.0267 200.893 90.4C202.253 90.7467 203.6 90.92 204.933 90.92C206.16 90.92 207.026 90.8 207.533 90.56C208.066 90.2933 208.333 89.92 208.333 89.44C208.333 88.96 208.013 88.6267 207.373 88.44C206.76 88.2267 205.773 88.0267 204.413 87.84C202.68 87.6267 201.2 87.3467 199.973 87C198.773 86.6533 197.733 86.0133 196.853 85.08C195.973 84.1467 195.533 82.84 195.533 81.16C195.533 79.7733 195.946 78.5467 196.773 77.48C197.6 76.3867 198.8 75.5333 200.373 74.92C201.973 74.28 203.88 73.96 206.093 73.96C207.666 73.96 209.226 74.12 210.773 74.44C212.32 74.76 213.613 75.2133 214.653 75.8L212.373 80.96C210.453 79.8933 208.373 79.36 206.133 79.36C204.933 79.36 204.053 79.5067 203.493 79.8C202.933 80.0667 202.653 80.4267 202.653 80.88C202.653 81.3867 202.96 81.7467 203.573 81.96C204.186 82.1467 205.2 82.3467 206.613 82.56C208.4 82.8267 209.88 83.1333 211.053 83.48C212.226 83.8267 213.24 84.4667 214.093 85.4C214.973 86.3067 215.413 87.5867 215.413 89.24C215.413 90.6 215 91.8267 214.173 92.92C213.346 93.9867 212.12 94.8267 210.493 95.44C208.893 96.0533 206.96 96.36 204.693 96.36ZM240.848 85.2C240.848 85.2533 240.808 85.88 240.728 87.08H224.968C225.288 88.2 225.901 89.0667 226.808 89.68C227.741 90.2667 228.901 90.56 230.288 90.56C231.328 90.56 232.221 90.4133 232.968 90.12C233.741 89.8267 234.515 89.3467 235.288 88.68L239.288 92.84C237.181 95.1867 234.101 96.36 230.048 96.36C227.515 96.36 225.288 95.88 223.368 94.92C221.448 93.96 219.955 92.6267 218.888 90.92C217.848 89.2133 217.328 87.28 217.328 85.12C217.328 82.9867 217.835 81.08 218.848 79.4C219.888 77.6933 221.315 76.36 223.128 75.4C224.941 74.44 226.981 73.96 229.248 73.96C231.408 73.96 233.368 74.4133 235.128 75.32C236.888 76.2 238.275 77.4933 239.288 79.2C240.328 80.88 240.848 82.88 240.848 85.2ZM229.288 79.36C228.115 79.36 227.128 79.6933 226.328 80.36C225.555 81.0267 225.061 81.9333 224.848 83.08H233.728C233.515 81.9333 233.008 81.0267 232.208 80.36C231.435 79.6933 230.461 79.36 229.288 79.36ZM278.153 85.2C278.153 85.2533 278.113 85.88 278.033 87.08H262.273C262.593 88.2 263.206 89.0667 264.113 89.68C265.046 90.2667 266.206 90.56 267.593 90.56C268.633 90.56 269.526 90.4133 270.273 90.12C271.046 89.8267 271.819 89.3467 272.593 88.68L276.593 92.84C274.486 95.1867 271.406 96.36 267.353 96.36C264.819 96.36 262.593 95.88 260.673 94.92C258.753 93.96 257.259 92.6267 256.193 90.92C255.153 89.2133 254.633 87.28 254.633 85.12C254.633 82.9867 255.139 81.08 256.153 79.4C257.193 77.6933 258.619 76.36 260.433 75.4C262.246 74.44 264.286 73.96 266.553 73.96C268.713 73.96 270.673 74.4133 272.433 75.32C274.193 76.2 275.579 77.4933 276.593 79.2C277.633 80.88 278.153 82.88 278.153 85.2ZM266.593 79.36C265.419 79.36 264.433 79.6933 263.633 80.36C262.859 81.0267 262.366 81.9333 262.153 83.08H271.033C270.819 81.9333 270.313 81.0267 269.513 80.36C268.739 79.6933 267.766 79.36 266.593 79.36ZM294.831 96L290.951 90.32L286.791 96H278.551L286.791 85.16L278.791 74.32H287.351L291.191 79.8L295.191 74.32H303.231L295.231 84.88L303.511 96H294.831ZM327.371 85.2C327.371 85.2533 327.331 85.88 327.251 87.08H311.491C311.811 88.2 312.425 89.0667 313.331 89.68C314.265 90.2667 315.425 90.56 316.811 90.56C317.851 90.56 318.745 90.4133 319.491 90.12C320.265 89.8267 321.038 89.3467 321.811 88.68L325.811 92.84C323.705 95.1867 320.625 96.36 316.571 96.36C314.038 96.36 311.811 95.88 309.891 94.92C307.971 93.96 306.478 92.6267 305.411 90.92C304.371 89.2133 303.851 87.28 303.851 85.12C303.851 82.9867 304.358 81.08 305.371 79.4C306.411 77.6933 307.838 76.36 309.651 75.4C311.465 74.44 313.505 73.96 315.771 73.96C317.931 73.96 319.891 74.4133 321.651 75.32C323.411 76.2 324.798 77.4933 325.811 79.2C326.851 80.88 327.371 82.88 327.371 85.2ZM315.811 79.36C314.638 79.36 313.651 79.6933 312.851 80.36C312.078 81.0267 311.585 81.9333 311.371 83.08H320.251C320.038 81.9333 319.531 81.0267 318.731 80.36C317.958 79.6933 316.985 79.36 315.811 79.36ZM338.116 76.92C338.889 75.9333 339.889 75.2 341.116 74.72C342.369 74.2133 343.796 73.96 345.396 73.96V80.8C344.702 80.72 344.129 80.68 343.676 80.68C342.049 80.68 340.769 81.12 339.836 82C338.929 82.88 338.476 84.2267 338.476 86.04V96H330.876V74.32H338.116V76.92ZM359.416 96.36C357.016 96.36 354.87 95.88 352.976 94.92C351.083 93.96 349.603 92.6267 348.536 90.92C347.496 89.2133 346.976 87.28 346.976 85.12C346.976 82.96 347.496 81.04 348.536 79.36C349.603 77.6533 351.083 76.3333 352.976 75.4C354.87 74.44 357.016 73.96 359.416 73.96C361.87 73.96 363.99 74.4933 365.776 75.56C367.563 76.6 368.83 78.0533 369.576 79.92L363.696 82.92C362.71 80.9733 361.27 80 359.376 80C358.016 80 356.883 80.4533 355.976 81.36C355.096 82.2667 354.656 83.52 354.656 85.12C354.656 86.7467 355.096 88.0267 355.976 88.96C356.883 89.8667 358.016 90.32 359.376 90.32C361.27 90.32 362.71 89.3467 363.696 87.4L369.576 90.4C368.83 92.2667 367.563 93.7333 365.776 94.8C363.99 95.84 361.87 96.36 359.416 96.36ZM372.438 74.32H380.038V96H372.438V74.32ZM376.238 71.92C374.851 71.92 373.731 71.5333 372.878 70.76C372.025 69.9867 371.598 69.0267 371.598 67.88C371.598 66.7333 372.025 65.7733 372.878 65C373.731 64.2267 374.851 63.84 376.238 63.84C377.625 63.84 378.745 64.2133 379.598 64.96C380.451 65.68 380.878 66.6133 380.878 67.76C380.878 68.96 380.451 69.96 379.598 70.76C378.745 71.5333 377.625 71.92 376.238 71.92ZM392.857 96.36C391.044 96.36 389.257 96.16 387.497 95.76C385.737 95.3333 384.324 94.7867 383.257 94.12L385.537 88.92C386.524 89.5333 387.697 90.0267 389.057 90.4C390.417 90.7467 391.764 90.92 393.097 90.92C394.324 90.92 395.19 90.8 395.697 90.56C396.23 90.2933 396.497 89.92 396.497 89.44C396.497 88.96 396.177 88.6267 395.537 88.44C394.924 88.2267 393.937 88.0267 392.577 87.84C390.844 87.6267 389.364 87.3467 388.137 87C386.937 86.6533 385.897 86.0133 385.017 85.08C384.137 84.1467 383.697 82.84 383.697 81.16C383.697 79.7733 384.11 78.5467 384.937 77.48C385.764 76.3867 386.964 75.5333 388.537 74.92C390.137 74.28 392.044 73.96 394.257 73.96C395.83 73.96 397.39 74.12 398.937 74.44C400.484 74.76 401.777 75.2133 402.817 75.8L400.537 80.96C398.617 79.8933 396.537 79.36 394.297 79.36C393.097 79.36 392.217 79.5067 391.657 79.8C391.097 80.0667 390.817 80.4267 390.817 80.88C390.817 81.3867 391.124 81.7467 391.737 81.96C392.35 82.1467 393.364 82.3467 394.777 82.56C396.564 82.8267 398.044 83.1333 399.217 83.48C400.39 83.8267 401.404 84.4667 402.257 85.4C403.137 86.3067 403.577 87.5867 403.577 89.24C403.577 90.6 403.164 91.8267 402.337 92.92C401.51 93.9867 400.284 94.8267 398.657 95.44C397.057 96.0533 395.124 96.36 392.857 96.36ZM429.012 85.2C429.012 85.2533 428.972 85.88 428.892 87.08H413.132C413.452 88.2 414.065 89.0667 414.972 89.68C415.905 90.2667 417.065 90.56 418.452 90.56C419.492 90.56 420.385 90.4133 421.132 90.12C421.905 89.8267 422.679 89.3467 423.452 88.68L427.452 92.84C425.345 95.1867 422.265 96.36 418.212 96.36C415.679 96.36 413.452 95.88 411.532 94.92C409.612 93.96 408.119 92.6267 407.052 90.92C406.012 89.2133 405.492 87.28 405.492 85.12C405.492 82.9867 405.999 81.08 407.012 79.4C408.052 77.6933 409.479 76.36 411.292 75.4C413.105 74.44 415.145 73.96 417.412 73.96C419.572 73.96 421.532 74.4133 423.292 75.32C425.052 76.2 426.439 77.4933 427.452 79.2C428.492 80.88 429.012 82.88 429.012 85.2ZM417.452 79.36C416.279 79.36 415.292 79.6933 414.492 80.36C413.719 81.0267 413.225 81.9333 413.012 83.08H421.892C421.679 81.9333 421.172 81.0267 420.372 80.36C419.599 79.6933 418.625 79.36 417.452 79.36ZM440.396 96.36C438.583 96.36 436.796 96.16 435.036 95.76C433.276 95.3333 431.863 94.7867 430.796 94.12L433.076 88.92C434.063 89.5333 435.236 90.0267 436.596 90.4C437.956 90.7467 439.303 90.92 440.636 90.92C441.863 90.92 442.73 90.8 443.236 90.56C443.77 90.2933 444.036 89.92 444.036 89.44C444.036 88.96 443.716 88.6267 443.076 88.44C442.463 88.2267 441.476 88.0267 440.116 87.84C438.383 87.6267 436.903 87.3467 435.676 87C434.476 86.6533 433.436 86.0133 432.556 85.08C431.676 84.1467 431.236 82.84 431.236 81.16C431.236 79.7733 431.65 78.5467 432.476 77.48C433.303 76.3867 434.503 75.5333 436.076 74.92C437.676 74.28 439.583 73.96 441.796 73.96C443.37 73.96 444.93 74.12 446.476 74.44C448.023 74.76 449.316 75.2133 450.356 75.8L448.076 80.96C446.156 79.8933 444.076 79.36 441.836 79.36C440.636 79.36 439.756 79.5067 439.196 79.8C438.636 80.0667 438.356 80.4267 438.356 80.88C438.356 81.3867 438.663 81.7467 439.276 81.96C439.89 82.1467 440.903 82.3467 442.316 82.56C444.103 82.8267 445.583 83.1333 446.756 83.48C447.93 83.8267 448.943 84.4667 449.796 85.4C450.676 86.3067 451.116 87.5867 451.116 89.24C451.116 90.6 450.703 91.8267 449.876 92.92C449.05 93.9867 447.823 94.8267 446.196 95.44C444.596 96.0533 442.663 96.36 440.396 96.36ZM477.112 96.36C474.712 96.36 472.565 95.88 470.672 94.92C468.778 93.96 467.298 92.6267 466.232 90.92C465.192 89.2133 464.672 87.28 464.672 85.12C464.672 82.96 465.192 81.04 466.232 79.36C467.298 77.6533 468.778 76.3333 470.672 75.4C472.565 74.44 474.712 73.96 477.112 73.96C479.565 73.96 481.685 74.4933 483.472 75.56C485.258 76.6 486.525 78.0533 487.272 79.92L481.392 82.92C480.405 80.9733 478.965 80 477.072 80C475.712 80 474.578 80.4533 473.672 81.36C472.792 82.2667 472.352 83.52 472.352 85.12C472.352 86.7467 472.792 88.0267 473.672 88.96C474.578 89.8667 475.712 90.32 477.072 90.32C478.965 90.32 480.405 89.3467 481.392 87.4L487.272 90.4C486.525 92.2667 485.258 93.7333 483.472 94.8C481.685 95.84 479.565 96.36 477.112 96.36ZM500.779 96.36C498.459 96.36 496.366 95.88 494.499 94.92C492.632 93.96 491.166 92.6267 490.099 90.92C489.059 89.2133 488.539 87.28 488.539 85.12C488.539 82.9867 489.059 81.0667 490.099 79.36C491.166 77.6533 492.619 76.3333 494.459 75.4C496.326 74.44 498.432 73.96 500.779 73.96C503.126 73.96 505.232 74.44 507.099 75.4C508.966 76.3333 510.419 77.6533 511.459 79.36C512.499 81.04 513.019 82.96 513.019 85.12C513.019 87.28 512.499 89.2133 511.459 90.92C510.419 92.6267 508.966 93.96 507.099 94.92C505.232 95.88 503.126 96.36 500.779 96.36ZM500.779 90.32C502.112 90.32 503.206 89.8667 504.059 88.96C504.912 88.0267 505.339 86.7467 505.339 85.12C505.339 83.52 504.912 82.2667 504.059 81.36C503.206 80.4533 502.112 80 500.779 80C499.446 80 498.352 80.4533 497.499 81.36C496.646 82.2667 496.219 83.52 496.219 85.12C496.219 86.7467 496.646 88.0267 497.499 88.96C498.352 89.8667 499.446 90.32 500.779 90.32ZM539.34 74.32V96H532.1V93.68C531.3 94.56 530.34 95.2267 529.22 95.68C528.1 96.1333 526.913 96.36 525.66 96.36C522.86 96.36 520.62 95.5333 518.94 93.88C517.286 92.2267 516.46 89.7467 516.46 86.44V74.32H524.06V85.2C524.06 86.8267 524.366 88.0133 524.98 88.76C525.593 89.5067 526.486 89.88 527.66 89.88C528.86 89.88 529.833 89.4667 530.58 88.64C531.353 87.7867 531.74 86.4933 531.74 84.76V74.32H539.34ZM544.235 66.32H551.835V96H544.235V66.32ZM579.814 66.32V96H572.574V93.84C571.161 95.52 569.041 96.36 566.214 96.36C564.241 96.36 562.441 95.9067 560.814 95C559.187 94.0667 557.894 92.7467 556.934 91.04C556.001 89.3333 555.534 87.36 555.534 85.12C555.534 82.88 556.001 80.92 556.934 79.24C557.894 77.5333 559.187 76.2267 560.814 75.32C562.441 74.4133 564.241 73.96 566.214 73.96C568.801 73.96 570.801 74.7067 572.214 76.2V66.32H579.814ZM567.814 90.32C569.121 90.32 570.201 89.8667 571.054 88.96C571.907 88.0267 572.334 86.7467 572.334 85.12C572.334 83.52 571.907 82.2667 571.054 81.36C570.227 80.4533 569.147 80 567.814 80C566.481 80 565.387 80.4533 564.534 81.36C563.681 82.2667 563.254 83.52 563.254 85.12C563.254 86.7467 563.681 88.0267 564.534 88.96C565.387 89.8667 566.481 90.32 567.814 90.32ZM158.843 122.96C161.537 122.96 163.697 123.76 165.323 125.36C166.977 126.96 167.803 129.373 167.803 132.6V145H160.203V133.84C160.203 130.88 159.017 129.4 156.643 129.4C155.337 129.4 154.283 129.827 153.483 130.68C152.71 131.533 152.323 132.813 152.323 134.52V145H144.723V115.32H152.323V125.32C153.15 124.547 154.123 123.96 155.243 123.56C156.363 123.16 157.563 122.96 158.843 122.96ZM195.047 134.2C195.047 134.253 195.007 134.88 194.927 136.08H179.167C179.487 137.2 180.101 138.067 181.007 138.68C181.941 139.267 183.101 139.56 184.487 139.56C185.527 139.56 186.421 139.413 187.167 139.12C187.941 138.827 188.714 138.347 189.487 137.68L193.487 141.84C191.381 144.187 188.301 145.36 184.247 145.36C181.714 145.36 179.487 144.88 177.567 143.92C175.647 142.96 174.154 141.627 173.087 139.92C172.047 138.213 171.527 136.28 171.527 134.12C171.527 131.987 172.034 130.08 173.047 128.4C174.087 126.693 175.514 125.36 177.327 124.4C179.141 123.44 181.181 122.96 183.447 122.96C185.607 122.96 187.567 123.413 189.327 124.32C191.087 125.2 192.474 126.493 193.487 128.2C194.527 129.88 195.047 131.88 195.047 134.2ZM183.487 128.36C182.314 128.36 181.327 128.693 180.527 129.36C179.754 130.027 179.261 130.933 179.047 132.08H187.927C187.714 130.933 187.207 130.027 186.407 129.36C185.634 128.693 184.661 128.36 183.487 128.36ZM198.551 115.32H206.151V145H198.551V115.32ZM224.73 122.96C226.704 122.96 228.49 123.427 230.09 124.36C231.717 125.267 232.997 126.573 233.93 128.28C234.89 129.96 235.37 131.92 235.37 134.16C235.37 136.4 234.89 138.373 233.93 140.08C232.997 141.76 231.717 143.067 230.09 144C228.49 144.907 226.704 145.36 224.73 145.36C222.197 145.36 220.184 144.6 218.69 143.08V152.76H211.09V123.32H218.33V125.48C219.744 123.8 221.877 122.96 224.73 122.96ZM223.13 139.32C224.464 139.32 225.557 138.867 226.41 137.96C227.264 137.027 227.69 135.76 227.69 134.16C227.69 132.56 227.264 131.307 226.41 130.4C225.557 129.467 224.464 129 223.13 129C221.797 129 220.704 129.467 219.85 130.4C218.997 131.307 218.57 132.56 218.57 134.16C218.57 135.76 218.997 137.027 219.85 137.96C220.704 138.867 221.797 139.32 223.13 139.32ZM273.384 123.32L264.024 145.88C262.93 148.547 261.597 150.413 260.024 151.48C258.45 152.573 256.53 153.12 254.264 153.12C253.117 153.12 251.957 152.933 250.784 152.56C249.637 152.213 248.704 151.747 247.984 151.16L250.624 145.84C251.05 146.24 251.557 146.547 252.144 146.76C252.757 147 253.37 147.12 253.984 147.12C254.704 147.12 255.29 146.973 255.744 146.68C256.224 146.387 256.624 145.92 256.944 145.28L247.664 123.32H255.464L260.784 136.56L266.144 123.32H273.384ZM285.642 145.36C283.322 145.36 281.229 144.88 279.362 143.92C277.496 142.96 276.029 141.627 274.962 139.92C273.922 138.213 273.402 136.28 273.402 134.12C273.402 131.987 273.922 130.067 274.962 128.36C276.029 126.653 277.482 125.333 279.322 124.4C281.189 123.44 283.296 122.96 285.642 122.96C287.989 122.96 290.096 123.44 291.962 124.4C293.829 125.333 295.282 126.653 296.322 128.36C297.362 130.04 297.882 131.96 297.882 134.12C297.882 136.28 297.362 138.213 296.322 139.92C295.282 141.627 293.829 142.96 291.962 143.92C290.096 144.88 287.989 145.36 285.642 145.36ZM285.642 139.32C286.976 139.32 288.069 138.867 288.922 137.96C289.776 137.027 290.202 135.747 290.202 134.12C290.202 132.52 289.776 131.267 288.922 130.36C288.069 129.453 286.976 129 285.642 129C284.309 129 283.216 129.453 282.362 130.36C281.509 131.267 281.082 132.52 281.082 134.12C281.082 135.747 281.509 137.027 282.362 137.96C283.216 138.867 284.309 139.32 285.642 139.32ZM324.203 123.32V145H316.963V142.68C316.163 143.56 315.203 144.227 314.083 144.68C312.963 145.133 311.776 145.36 310.523 145.36C307.723 145.36 305.483 144.533 303.803 142.88C302.15 141.227 301.323 138.747 301.323 135.44V123.32H308.923V134.2C308.923 135.827 309.23 137.013 309.843 137.76C310.456 138.507 311.35 138.88 312.523 138.88C313.723 138.88 314.696 138.467 315.443 137.64C316.216 136.787 316.603 135.493 316.603 133.76V123.32H324.203ZM336.338 125.92C337.112 124.933 338.112 124.2 339.338 123.72C340.592 123.213 342.018 122.96 343.618 122.96V129.8C342.925 129.72 342.352 129.68 341.898 129.68C340.272 129.68 338.992 130.12 338.058 131C337.152 131.88 336.698 133.227 336.698 135.04V145H329.098V123.32H336.338V125.92ZM402.26 122.96C404.927 122.96 407.047 123.76 408.62 125.36C410.22 126.96 411.02 129.373 411.02 132.6V145H403.42V133.84C403.42 132.32 403.127 131.2 402.54 130.48C401.98 129.76 401.18 129.4 400.14 129.4C398.993 129.4 398.073 129.8 397.38 130.6C396.687 131.4 396.34 132.613 396.34 134.24V145H388.74V133.84C388.74 130.88 387.647 129.4 385.46 129.4C384.287 129.4 383.353 129.8 382.66 130.6C381.967 131.4 381.62 132.613 381.62 134.24V145H374.02V123.32H381.26V125.6C382.06 124.72 383.007 124.067 384.1 123.64C385.22 123.187 386.433 122.96 387.74 122.96C389.26 122.96 390.62 123.24 391.82 123.8C393.02 124.36 393.993 125.213 394.74 126.36C395.593 125.267 396.673 124.427 397.98 123.84C399.287 123.253 400.713 122.96 402.26 122.96ZM438.289 134.2C438.289 134.253 438.249 134.88 438.169 136.08H422.409C422.729 137.2 423.343 138.067 424.249 138.68C425.183 139.267 426.343 139.56 427.729 139.56C428.769 139.56 429.663 139.413 430.409 139.12C431.183 138.827 431.956 138.347 432.729 137.68L436.729 141.84C434.623 144.187 431.543 145.36 427.489 145.36C424.956 145.36 422.729 144.88 420.809 143.92C418.889 142.96 417.396 141.627 416.329 139.92C415.289 138.213 414.769 136.28 414.769 134.12C414.769 131.987 415.276 130.08 416.289 128.4C417.329 126.693 418.756 125.36 420.569 124.4C422.383 123.44 424.423 122.96 426.689 122.96C428.849 122.96 430.809 123.413 432.569 124.32C434.329 125.2 435.716 126.493 436.729 128.2C437.769 129.88 438.289 131.88 438.289 134.2ZM426.729 128.36C425.556 128.36 424.569 128.693 423.769 129.36C422.996 130.027 422.503 130.933 422.289 132.08H431.169C430.956 130.933 430.449 130.027 429.649 129.36C428.876 128.693 427.903 128.36 426.729 128.36ZM470.034 122.96C472.7 122.96 474.82 123.76 476.394 125.36C477.994 126.96 478.794 129.373 478.794 132.6V145H471.194V133.84C471.194 132.32 470.9 131.2 470.314 130.48C469.754 129.76 468.954 129.4 467.914 129.4C466.767 129.4 465.847 129.8 465.154 130.6C464.46 131.4 464.114 132.613 464.114 134.24V145H456.514V133.84C456.514 130.88 455.42 129.4 453.234 129.4C452.06 129.4 451.127 129.8 450.434 130.6C449.74 131.4 449.394 132.613 449.394 134.24V145H441.794V123.32H449.034V125.6C449.834 124.72 450.78 124.067 451.874 123.64C452.994 123.187 454.207 122.96 455.514 122.96C457.034 122.96 458.394 123.24 459.594 123.8C460.794 124.36 461.767 125.213 462.514 126.36C463.367 125.267 464.447 124.427 465.754 123.84C467.06 123.253 468.487 122.96 470.034 122.96ZM494.783 145.36C492.463 145.36 490.37 144.88 488.503 143.92C486.636 142.96 485.17 141.627 484.103 139.92C483.063 138.213 482.543 136.28 482.543 134.12C482.543 131.987 483.063 130.067 484.103 128.36C485.17 126.653 486.623 125.333 488.463 124.4C490.33 123.44 492.436 122.96 494.783 122.96C497.13 122.96 499.236 123.44 501.103 124.4C502.97 125.333 504.423 126.653 505.463 128.36C506.503 130.04 507.023 131.96 507.023 134.12C507.023 136.28 506.503 138.213 505.463 139.92C504.423 141.627 502.97 142.96 501.103 143.92C499.236 144.88 497.13 145.36 494.783 145.36ZM494.783 139.32C496.116 139.32 497.21 138.867 498.063 137.96C498.916 137.027 499.343 135.747 499.343 134.12C499.343 132.52 498.916 131.267 498.063 130.36C497.21 129.453 496.116 129 494.783 129C493.45 129 492.356 129.453 491.503 130.36C490.65 131.267 490.223 132.52 490.223 134.12C490.223 135.747 490.65 137.027 491.503 137.96C492.356 138.867 493.45 139.32 494.783 139.32ZM517.784 125.92C518.557 124.933 519.557 124.2 520.784 123.72C522.037 123.213 523.464 122.96 525.064 122.96V129.8C524.37 129.72 523.797 129.68 523.344 129.68C521.717 129.68 520.437 130.12 519.504 131C518.597 131.88 518.144 133.227 518.144 135.04V145H510.544V123.32H517.784V125.92ZM551.704 123.32L542.344 145.88C541.25 148.547 539.917 150.413 538.344 151.48C536.77 152.573 534.85 153.12 532.584 153.12C531.437 153.12 530.277 152.933 529.104 152.56C527.957 152.213 527.024 151.747 526.304 151.16L528.944 145.84C529.37 146.24 529.877 146.547 530.464 146.76C531.077 147 531.69 147.12 532.304 147.12C533.024 147.12 533.61 146.973 534.064 146.68C534.544 146.387 534.944 145.92 535.264 145.28L525.984 123.32H533.784L539.104 136.56L544.464 123.32H551.704Z" fill="#FFFCF0"/>
<path d="M358.833 115.32H371.073V121.12H366.433V146.96H371.073V152.76H358.833V115.32ZM551.709 152.76V146.96H556.349V121.12H551.709V115.32H563.949V152.76H551.709Z" fill="#71B0F5"/>
<defs>
<filter id="filter0_d_2188_64" x="0.575295" y="0.945177" width="690.566" height="834.48" filterUnits="userSpaceOnUse" color-interpolation-filters="sRGB">
<feFlood flood-opacity="0" result="BackgroundImageFix"/>
<feColorMatrix in="SourceAlpha" type="matrix" values="0 0 0 0 0 0 0 0 0 0 0 0 0 0 0 0 0 0 127 0" result="hardAlpha"/>
<feOffset dx="-2.68494" dy="2.68494"/>
<feGaussianBlur stdDeviation="5.36988"/>
<feComposite in2="hardAlpha" operator="out"/>
<feColorMatrix type="matrix" values="0 0 0 0 0 0 0 0 0 0 0 0 0 0 0 0 0 0 0.3 0"/>
<feBlend mode="normal" in2="BackgroundImageFix" result="effect1_dropShadow_2188_64"/>
<feBlend mode="normal" in="SourceGraphic" in2="effect1_dropShadow_2188_64" result="shape"/>
</filter>
</defs>
</svg>
