<svg width="209" height="53" viewBox="0 0 209 53" fill="none" xmlns="http://www.w3.org/2000/svg">
<rect x="0.466314" y="0.466314" width="208.067" height="52.0674" rx="26.0337" fill="#D7629A" stroke="#443534" stroke-width="0.932629"/>
<path d="M57.6929 37L53.1629 30.55C52.6029 30.59 52.1629 30.61 51.8429 30.61H46.6529V37H43.6529V16H51.8429C54.5629 16 56.7029 16.65 58.2629 17.95C59.8229 19.25 60.6029 21.04 60.6029 23.32C60.6029 24.94 60.2029 26.32 59.4029 27.46C58.6029 28.6 57.4629 29.43 55.9829 29.95L60.9629 37H57.6929ZM51.7529 28.06C53.6529 28.06 55.1029 27.65 56.1029 26.83C57.1029 26.01 57.6029 24.84 57.6029 23.32C57.6029 21.8 57.1029 20.64 56.1029 19.84C55.1029 19.02 53.6529 18.61 51.7529 18.61H46.6529V28.06H51.7529ZM80.6898 34.39V37H65.4498V16H80.2698V18.61H68.4498V25.06H78.9798V27.61H68.4498V34.39H80.6898ZM89.7175 18.61H82.5175V16H99.8875V18.61H92.6875V37H89.7175V18.61ZM111.474 37.24C108.674 37.24 106.494 36.44 104.934 34.84C103.374 33.24 102.594 30.94 102.594 27.94V16H105.594V27.82C105.594 32.32 107.564 34.57 111.504 34.57C113.424 34.57 114.894 34.02 115.914 32.92C116.934 31.8 117.444 30.1 117.444 27.82V16H120.354V27.94C120.354 30.96 119.574 33.27 118.014 34.87C116.454 36.45 114.274 37.24 111.474 37.24ZM140.544 37L136.014 30.55C135.454 30.59 135.014 30.61 134.694 30.61H129.504V37H126.504V16H134.694C137.414 16 139.554 16.65 141.114 17.95C142.674 19.25 143.454 21.04 143.454 23.32C143.454 24.94 143.054 26.32 142.254 27.46C141.454 28.6 140.314 29.43 138.834 29.95L143.814 37H140.544ZM134.604 28.06C136.504 28.06 137.954 27.65 138.954 26.83C139.954 26.01 140.454 24.84 140.454 23.32C140.454 21.8 139.954 20.64 138.954 19.84C137.954 19.02 136.504 18.61 134.604 18.61H129.504V28.06H134.604ZM166.361 16V37H163.901L151.301 21.34V37H148.301V16H150.761L163.361 31.66V16H166.361Z" fill="#FFFCF0"/>
</svg>
