<svg width="1814" height="750" viewBox="0 0 1814 750" fill="none" xmlns="http://www.w3.org/2000/svg">
<rect x="-68" width="1882" height="750" rx="90" fill="#3E3232"/>
<path d="M605.737 77.36C604.077 77.36 602.487 77.14 600.967 76.7C599.447 76.26 598.227 75.7 597.307 75.02L599.287 71.27C600.247 71.97 601.327 72.51 602.527 72.89C603.727 73.27 604.957 73.46 606.217 73.46C607.557 73.46 608.617 73.24 609.397 72.8C610.177 72.36 610.567 71.76 610.567 71C610.567 70.38 610.257 69.91 609.637 69.59C609.017 69.25 608.027 68.89 606.667 68.51C605.307 68.11 604.197 67.73 603.337 67.37C602.477 66.99 601.727 66.43 601.087 65.69C600.467 64.95 600.157 63.97 600.157 62.75C600.157 61.33 600.547 60.08 601.327 59C602.127 57.92 603.247 57.09 604.687 56.51C606.147 55.93 607.837 55.64 609.757 55.64C611.177 55.64 612.517 55.8 613.777 56.12C615.037 56.42 616.117 56.86 617.017 57.44L615.187 61.16C614.407 60.62 613.527 60.22 612.547 59.96C611.567 59.68 610.547 59.54 609.487 59.54C608.107 59.54 607.017 59.78 606.217 60.26C605.417 60.74 605.017 61.36 605.017 62.12C605.017 62.58 605.187 62.97 605.527 63.29C605.867 63.59 606.297 63.84 606.817 64.04C607.337 64.22 608.067 64.44 609.007 64.7C610.347 65.06 611.447 65.43 612.307 65.81C613.167 66.17 613.897 66.71 614.497 67.43C615.117 68.13 615.427 69.06 615.427 70.22C615.427 71.66 615.027 72.92 614.227 74C613.427 75.06 612.297 75.89 610.837 76.49C609.377 77.07 607.677 77.36 605.737 77.36ZM625.768 77.24C624.108 77.24 622.658 76.94 621.418 76.34C620.178 75.74 619.218 74.9 618.538 73.82C617.878 72.72 617.548 71.45 617.548 70.01C617.548 68.23 617.968 66.63 618.808 65.21C619.648 63.79 620.818 62.67 622.318 61.85C623.818 61.03 625.508 60.62 627.388 60.62C629.108 60.62 630.588 60.98 631.828 61.7C633.088 62.4 634.028 63.4 634.648 64.7L630.688 66.68C629.988 65.22 628.788 64.49 627.088 64.49C626.168 64.49 625.338 64.72 624.598 65.18C623.878 65.62 623.308 66.24 622.888 67.04C622.488 67.84 622.288 68.75 622.288 69.77C622.288 70.87 622.618 71.75 623.278 72.41C623.938 73.05 624.858 73.37 626.038 73.37C627.758 73.37 629.078 72.65 629.998 71.21L633.448 73.37C632.668 74.59 631.598 75.54 630.238 76.22C628.898 76.9 627.408 77.24 625.768 77.24ZM642.232 62.78C642.932 62.02 643.772 61.47 644.752 61.13C645.752 60.79 646.922 60.62 648.262 60.62L647.422 64.94C646.862 64.9 646.502 64.88 646.342 64.88C644.922 64.88 643.782 65.23 642.922 65.93C642.082 66.63 641.512 67.72 641.212 69.2L639.652 77H634.972L638.182 60.86H642.622L642.232 62.78ZM656.059 77.24C654.439 77.24 653.009 76.94 651.769 76.34C650.549 75.74 649.599 74.9 648.919 73.82C648.259 72.72 647.929 71.45 647.929 70.01C647.929 68.23 648.349 66.63 649.189 65.21C650.029 63.79 651.189 62.67 652.669 61.85C654.149 61.03 655.819 60.62 657.679 60.62C659.319 60.62 660.749 60.92 661.969 61.52C663.189 62.12 664.129 62.97 664.789 64.07C665.469 65.15 665.809 66.41 665.809 67.85C665.809 69.63 665.389 71.23 664.549 72.65C663.729 74.07 662.569 75.19 661.069 76.01C659.589 76.83 657.919 77.24 656.059 77.24ZM656.359 73.37C657.259 73.37 658.069 73.15 658.789 72.71C659.509 72.25 660.069 71.62 660.469 70.82C660.869 70.02 661.069 69.1 661.069 68.06C661.069 66.96 660.749 66.09 660.109 65.45C659.469 64.81 658.569 64.49 657.409 64.49C656.489 64.49 655.669 64.72 654.949 65.18C654.229 65.62 653.669 66.24 653.269 67.04C652.869 67.84 652.669 68.76 652.669 69.8C652.669 70.9 652.989 71.77 653.629 72.41C654.289 73.05 655.199 73.37 656.359 73.37ZM671.698 54.74H676.378L671.938 77H667.258L671.698 54.74ZM680.721 54.74H685.401L680.961 77H676.281L680.721 54.74ZM1133.37 77.24C1131.71 77.24 1130.26 76.94 1129.02 76.34C1127.78 75.74 1126.82 74.9 1126.14 73.82C1125.48 72.72 1125.15 71.45 1125.15 70.01C1125.15 68.23 1125.57 66.63 1126.41 65.21C1127.25 63.79 1128.42 62.67 1129.92 61.85C1131.42 61.03 1133.11 60.62 1134.99 60.62C1136.71 60.62 1138.19 60.98 1139.43 61.7C1140.69 62.4 1141.63 63.4 1142.25 64.7L1138.29 66.68C1137.59 65.22 1136.39 64.49 1134.69 64.49C1133.77 64.49 1132.94 64.72 1132.2 65.18C1131.48 65.62 1130.91 66.24 1130.49 67.04C1130.09 67.84 1129.89 68.75 1129.89 69.77C1129.89 70.87 1130.22 71.75 1130.88 72.41C1131.54 73.05 1132.46 73.37 1133.64 73.37C1135.36 73.37 1136.68 72.65 1137.6 71.21L1141.05 73.37C1140.27 74.59 1139.2 75.54 1137.84 76.22C1136.5 76.9 1135.01 77.24 1133.37 77.24ZM1146.89 54.74H1151.57L1147.13 77H1142.45L1146.89 54.74ZM1154.69 60.86H1159.34L1156.13 77H1151.48L1154.69 60.86ZM1157.81 58.61C1157.01 58.61 1156.35 58.38 1155.83 57.92C1155.33 57.44 1155.08 56.86 1155.08 56.18C1155.08 55.38 1155.36 54.72 1155.92 54.2C1156.5 53.66 1157.25 53.39 1158.17 53.39C1158.99 53.39 1159.65 53.62 1160.15 54.08C1160.67 54.52 1160.93 55.07 1160.93 55.73C1160.93 56.59 1160.64 57.29 1160.06 57.83C1159.48 58.35 1158.73 58.61 1157.81 58.61ZM1168.99 77.24C1167.33 77.24 1165.88 76.94 1164.64 76.34C1163.4 75.74 1162.44 74.9 1161.76 73.82C1161.1 72.72 1160.77 71.45 1160.77 70.01C1160.77 68.23 1161.19 66.63 1162.03 65.21C1162.87 63.79 1164.04 62.67 1165.54 61.85C1167.04 61.03 1168.73 60.62 1170.61 60.62C1172.33 60.62 1173.81 60.98 1175.05 61.7C1176.31 62.4 1177.25 63.4 1177.87 64.7L1173.91 66.68C1173.21 65.22 1172.01 64.49 1170.31 64.49C1169.39 64.49 1168.56 64.72 1167.82 65.18C1167.1 65.62 1166.53 66.24 1166.11 67.04C1165.71 67.84 1165.51 68.75 1165.51 69.77C1165.51 70.87 1165.84 71.75 1166.5 72.41C1167.16 73.05 1168.08 73.37 1169.26 73.37C1170.98 73.37 1172.3 72.65 1173.22 71.21L1176.67 73.37C1175.89 74.59 1174.82 75.54 1173.46 76.22C1172.12 76.9 1170.63 77.24 1168.99 77.24ZM1190.11 67.88L1195.66 77H1190.23L1186.39 70.73L1183.54 73.1L1182.76 77H1178.08L1182.52 54.74H1187.2L1184.71 67.19L1192.45 60.86H1198.54L1190.11 67.88ZM1247.39 60.62C1248.65 60.62 1249.81 60.91 1250.87 61.49C1251.95 62.07 1252.8 62.91 1253.42 64.01C1254.06 65.09 1254.38 66.37 1254.38 67.85C1254.38 69.63 1253.98 71.24 1253.18 72.68C1252.4 74.1 1251.33 75.22 1249.97 76.04C1248.61 76.84 1247.1 77.24 1245.44 77.24C1244.18 77.24 1243.09 77.02 1242.17 76.58C1241.25 76.14 1240.54 75.48 1240.04 74.6L1239.56 77H1235.12L1239.56 54.74H1244.24L1242.74 62.24C1244.04 61.16 1245.59 60.62 1247.39 60.62ZM1244.9 73.37C1245.82 73.37 1246.64 73.15 1247.36 72.71C1248.08 72.25 1248.64 71.62 1249.04 70.82C1249.44 70.02 1249.64 69.1 1249.64 68.06C1249.64 66.96 1249.31 66.09 1248.65 65.45C1248.01 64.81 1247.11 64.49 1245.95 64.49C1245.05 64.49 1244.24 64.72 1243.52 65.18C1242.8 65.62 1242.24 66.24 1241.84 67.04C1241.44 67.84 1241.24 68.76 1241.24 69.8C1241.24 70.9 1241.56 71.77 1242.2 72.41C1242.84 73.05 1243.74 73.37 1244.9 73.37ZM1275.3 60.86L1272.09 77H1267.65L1267.98 75.26C1267.28 75.92 1266.48 76.42 1265.58 76.76C1264.68 77.08 1263.73 77.24 1262.73 77.24C1260.97 77.24 1259.56 76.76 1258.5 75.8C1257.46 74.84 1256.94 73.49 1256.94 71.75C1256.94 71.09 1257.01 70.44 1257.15 69.8L1258.92 60.86H1263.6L1261.89 69.5C1261.81 69.88 1261.77 70.27 1261.77 70.67C1261.77 72.35 1262.67 73.19 1264.47 73.19C1265.65 73.19 1266.62 72.85 1267.38 72.17C1268.16 71.47 1268.69 70.43 1268.97 69.05L1270.62 60.86H1275.3ZM1282.79 71.3C1282.75 71.46 1282.73 71.68 1282.73 71.96C1282.73 73 1283.3 73.52 1284.44 73.52C1285.06 73.52 1285.69 73.33 1286.33 72.95L1287.02 76.28C1285.98 76.92 1284.64 77.24 1283 77.24C1281.48 77.24 1280.26 76.84 1279.34 76.04C1278.42 75.24 1277.96 74.14 1277.96 72.74C1277.96 72.34 1278.01 71.87 1278.11 71.33L1279.4 64.82H1276.91L1277.63 61.22H1280.12L1280.9 57.29H1285.58L1284.8 61.22H1288.82L1288.1 64.82H1284.08L1282.79 71.3ZM1295.47 71.3C1295.43 71.46 1295.41 71.68 1295.41 71.96C1295.41 73 1295.98 73.52 1297.12 73.52C1297.74 73.52 1298.37 73.33 1299.01 72.95L1299.7 76.28C1298.66 76.92 1297.32 77.24 1295.68 77.24C1294.16 77.24 1292.94 76.84 1292.02 76.04C1291.1 75.24 1290.64 74.14 1290.64 72.74C1290.64 72.34 1290.69 71.87 1290.79 71.33L1292.08 64.82H1289.59L1290.31 61.22H1292.8L1293.58 57.29H1298.26L1297.48 61.22H1301.5L1300.78 64.82H1296.76L1295.47 71.3ZM1310.08 77.24C1308.46 77.24 1307.03 76.94 1305.79 76.34C1304.57 75.74 1303.62 74.9 1302.94 73.82C1302.28 72.72 1301.95 71.45 1301.95 70.01C1301.95 68.23 1302.37 66.63 1303.21 65.21C1304.05 63.79 1305.21 62.67 1306.69 61.85C1308.17 61.03 1309.84 60.62 1311.7 60.62C1313.34 60.62 1314.77 60.92 1315.99 61.52C1317.21 62.12 1318.15 62.97 1318.81 64.07C1319.49 65.15 1319.83 66.41 1319.83 67.85C1319.83 69.63 1319.41 71.23 1318.57 72.65C1317.75 74.07 1316.59 75.19 1315.09 76.01C1313.61 76.83 1311.94 77.24 1310.08 77.24ZM1310.38 73.37C1311.28 73.37 1312.09 73.15 1312.81 72.71C1313.53 72.25 1314.09 71.62 1314.49 70.82C1314.89 70.02 1315.09 69.1 1315.09 68.06C1315.09 66.96 1314.77 66.09 1314.13 65.45C1313.49 64.81 1312.59 64.49 1311.43 64.49C1310.51 64.49 1309.69 64.72 1308.97 65.18C1308.25 65.62 1307.69 66.24 1307.29 67.04C1306.89 67.84 1306.69 68.76 1306.69 69.8C1306.69 70.9 1307.01 71.77 1307.65 72.41C1308.31 73.05 1309.22 73.37 1310.38 73.37ZM1333.88 60.62C1335.68 60.62 1337.11 61.1 1338.17 62.06C1339.23 63 1339.76 64.35 1339.76 66.11C1339.76 66.77 1339.69 67.42 1339.55 68.06L1337.75 77H1333.07L1334.81 68.36C1334.89 68.02 1334.93 67.65 1334.93 67.25C1334.93 66.41 1334.7 65.77 1334.24 65.33C1333.78 64.89 1333.09 64.67 1332.17 64.67C1330.97 64.67 1329.97 65.02 1329.17 65.72C1328.39 66.4 1327.86 67.43 1327.58 68.81L1325.96 77H1321.28L1324.49 60.86H1328.93L1328.57 62.6C1330.01 61.28 1331.78 60.62 1333.88 60.62Z" fill="#F9F6F1"/>
<path d="M700.16 71.3C700.12 71.46 700.1 71.68 700.1 71.96C700.1 73 700.67 73.52 701.81 73.52C702.43 73.52 703.06 73.33 703.7 72.95L704.39 76.28C703.35 76.92 702.01 77.24 700.37 77.24C698.85 77.24 697.63 76.84 696.71 76.04C695.79 75.24 695.33 74.14 695.33 72.74C695.33 72.34 695.38 71.87 695.48 71.33L696.77 64.82H694.28L695 61.22H697.49L698.27 57.29H702.95L702.17 61.22H706.19L705.47 64.82H701.45L700.16 71.3ZM719.438 60.62C721.238 60.62 722.668 61.1 723.728 62.06C724.788 63.02 725.318 64.38 725.318 66.14C725.318 66.78 725.248 67.42 725.108 68.06L723.308 77H718.628L720.368 68.36C720.448 68.02 720.488 67.65 720.488 67.25C720.488 66.41 720.258 65.77 719.798 65.33C719.338 64.89 718.648 64.67 717.728 64.67C716.528 64.67 715.528 65.02 714.728 65.72C713.948 66.4 713.418 67.43 713.138 68.81L711.518 77H706.838L711.278 54.74H715.958L714.458 62.33C715.838 61.19 717.498 60.62 719.438 60.62ZM734.84 62.78C735.54 62.02 736.38 61.47 737.36 61.13C738.36 60.79 739.53 60.62 740.87 60.62L740.03 64.94C739.47 64.9 739.11 64.88 738.95 64.88C737.53 64.88 736.39 65.23 735.53 65.93C734.69 66.63 734.12 67.72 733.82 69.2L732.26 77H727.58L730.79 60.86H735.23L734.84 62.78ZM748.666 77.24C747.046 77.24 745.616 76.94 744.376 76.34C743.156 75.74 742.206 74.9 741.526 73.82C740.866 72.72 740.536 71.45 740.536 70.01C740.536 68.23 740.956 66.63 741.796 65.21C742.636 63.79 743.796 62.67 745.276 61.85C746.756 61.03 748.426 60.62 750.286 60.62C751.926 60.62 753.356 60.92 754.576 61.52C755.796 62.12 756.736 62.97 757.396 64.07C758.076 65.15 758.416 66.41 758.416 67.85C758.416 69.63 757.996 71.23 757.156 72.65C756.336 74.07 755.176 75.19 753.676 76.01C752.196 76.83 750.526 77.24 748.666 77.24ZM748.966 73.37C749.866 73.37 750.676 73.15 751.396 72.71C752.116 72.25 752.676 71.62 753.076 70.82C753.476 70.02 753.676 69.1 753.676 68.06C753.676 66.96 753.356 66.09 752.716 65.45C752.076 64.81 751.176 64.49 750.016 64.49C749.096 64.49 748.276 64.72 747.556 65.18C746.836 65.62 746.276 66.24 745.876 67.04C745.476 67.84 745.276 68.76 745.276 69.8C745.276 70.9 745.596 71.77 746.236 72.41C746.896 73.05 747.806 73.37 748.966 73.37ZM779.335 60.86L776.125 77H771.685L772.015 75.26C771.315 75.92 770.515 76.42 769.615 76.76C768.715 77.08 767.765 77.24 766.765 77.24C765.005 77.24 763.595 76.76 762.535 75.8C761.495 74.84 760.975 73.49 760.975 71.75C760.975 71.09 761.045 70.44 761.185 69.8L762.955 60.86H767.635L765.925 69.5C765.845 69.88 765.805 70.27 765.805 70.67C765.805 72.35 766.705 73.19 768.505 73.19C769.685 73.19 770.655 72.85 771.415 72.17C772.195 71.47 772.725 70.43 773.005 69.05L774.655 60.86H779.335ZM800.321 60.86L797.651 74.3C797.051 77.34 795.891 79.56 794.171 80.96C792.471 82.36 790.191 83.06 787.331 83.06C785.771 83.06 784.331 82.88 783.011 82.52C781.711 82.16 780.591 81.63 779.651 80.93L781.871 77.54C782.511 78.08 783.331 78.5 784.331 78.8C785.351 79.12 786.421 79.28 787.541 79.28C789.121 79.28 790.321 78.93 791.141 78.23C791.961 77.55 792.521 76.51 792.821 75.11L792.941 74.42C791.641 75.62 790.001 76.22 788.021 76.22C786.681 76.22 785.471 75.95 784.391 75.41C783.311 74.85 782.451 74.06 781.811 73.04C781.191 72.02 780.881 70.82 780.881 69.44C780.881 67.8 781.271 66.31 782.051 64.97C782.831 63.63 783.901 62.57 785.261 61.79C786.641 61.01 788.181 60.62 789.881 60.62C791.141 60.62 792.241 60.86 793.181 61.34C794.141 61.8 794.861 62.52 795.341 63.5L795.851 60.86H800.321ZM789.281 72.38C790.641 72.38 791.761 71.94 792.641 71.06C793.521 70.18 793.961 69.05 793.961 67.67C793.961 66.69 793.641 65.92 793.001 65.36C792.361 64.78 791.471 64.49 790.331 64.49C788.951 64.49 787.811 64.93 786.911 65.81C786.031 66.69 785.591 67.82 785.591 69.2C785.591 70.18 785.921 70.96 786.581 71.54C787.241 72.1 788.141 72.38 789.281 72.38ZM814.066 60.62C815.866 60.62 817.296 61.1 818.356 62.06C819.416 63.02 819.946 64.38 819.946 66.14C819.946 66.78 819.876 67.42 819.736 68.06L817.936 77H813.256L814.996 68.36C815.076 68.02 815.116 67.65 815.116 67.25C815.116 66.41 814.886 65.77 814.426 65.33C813.966 64.89 813.276 64.67 812.356 64.67C811.156 64.67 810.156 65.02 809.356 65.72C808.576 66.4 808.046 67.43 807.766 68.81L806.146 77H801.466L805.906 54.74H810.586L809.086 62.33C810.466 61.19 812.126 60.62 814.066 60.62ZM837.065 71.3C837.025 71.46 837.005 71.68 837.005 71.96C837.005 73 837.575 73.52 838.715 73.52C839.335 73.52 839.965 73.33 840.605 72.95L841.295 76.28C840.255 76.92 838.915 77.24 837.275 77.24C835.755 77.24 834.535 76.84 833.615 76.04C832.695 75.24 832.235 74.14 832.235 72.74C832.235 72.34 832.285 71.87 832.385 71.33L833.675 64.82H831.185L831.905 61.22H834.395L835.175 57.29H839.855L839.075 61.22H843.095L842.375 64.82H838.355L837.065 71.3ZM856.342 60.62C858.142 60.62 859.572 61.1 860.632 62.06C861.692 63.02 862.222 64.38 862.222 66.14C862.222 66.78 862.152 67.42 862.012 68.06L860.212 77H855.532L857.272 68.36C857.352 68.02 857.392 67.65 857.392 67.25C857.392 66.41 857.162 65.77 856.702 65.33C856.242 64.89 855.552 64.67 854.632 64.67C853.432 64.67 852.432 65.02 851.632 65.72C850.852 66.4 850.322 67.43 850.042 68.81L848.422 77H843.742L848.182 54.74H852.862L851.362 62.33C852.742 61.19 854.402 60.62 856.342 60.62ZM882.18 67.73C882.18 68.47 882.09 69.29 881.91 70.19H869.55C869.71 72.39 871.1 73.49 873.72 73.49C874.54 73.49 875.32 73.36 876.06 73.1C876.82 72.84 877.48 72.47 878.04 71.99L879.99 75.08C879.09 75.8 878.06 76.34 876.9 76.7C875.74 77.06 874.52 77.24 873.24 77.24C871.58 77.24 870.12 76.95 868.86 76.37C867.62 75.77 866.66 74.92 865.98 73.82C865.32 72.72 864.99 71.45 864.99 70.01C864.99 68.23 865.39 66.63 866.19 65.21C867.01 63.77 868.14 62.65 869.58 61.85C871.02 61.03 872.66 60.62 874.5 60.62C876.06 60.62 877.41 60.91 878.55 61.49C879.71 62.07 880.6 62.9 881.22 63.98C881.86 65.06 882.18 66.31 882.18 67.73ZM874.29 64.13C873.19 64.13 872.26 64.43 871.5 65.03C870.74 65.61 870.2 66.42 869.88 67.46H877.89C877.89 66.42 877.56 65.61 876.9 65.03C876.26 64.43 875.39 64.13 874.29 64.13ZM889.378 77.24C887.978 77.24 886.648 77.09 885.388 76.79C884.148 76.47 883.178 76.06 882.478 75.56L884.278 72.17C884.978 72.63 885.828 73 886.828 73.28C887.848 73.56 888.868 73.7 889.888 73.7C890.948 73.7 891.738 73.57 892.258 73.31C892.778 73.03 893.038 72.64 893.038 72.14C893.038 71.74 892.808 71.45 892.348 71.27C891.888 71.09 891.148 70.9 890.128 70.7C888.968 70.48 888.008 70.24 887.248 69.98C886.508 69.72 885.858 69.3 885.298 68.72C884.758 68.12 884.488 67.31 884.488 66.29C884.488 64.51 885.228 63.12 886.708 62.12C888.208 61.12 890.168 60.62 892.588 60.62C893.708 60.62 894.798 60.74 895.858 60.98C896.918 61.22 897.818 61.55 898.558 61.97L896.878 65.39C895.558 64.57 893.968 64.16 892.108 64.16C891.088 64.16 890.308 64.31 889.768 64.61C889.248 64.91 888.988 65.29 888.988 65.75C888.988 66.17 889.218 66.48 889.678 66.68C890.138 66.86 890.908 67.06 891.988 67.28C893.128 67.5 894.058 67.74 894.778 68C895.518 68.24 896.158 68.65 896.698 69.23C897.238 69.81 897.508 70.6 897.508 71.6C897.508 73.4 896.748 74.79 895.228 75.77C893.728 76.75 891.778 77.24 889.378 77.24ZM916.955 67.73C916.955 68.47 916.865 69.29 916.685 70.19H904.325C904.485 72.39 905.875 73.49 908.495 73.49C909.315 73.49 910.095 73.36 910.835 73.1C911.595 72.84 912.255 72.47 912.815 71.99L914.765 75.08C913.865 75.8 912.835 76.34 911.675 76.7C910.515 77.06 909.295 77.24 908.015 77.24C906.355 77.24 904.895 76.95 903.635 76.37C902.395 75.77 901.435 74.92 900.755 73.82C900.095 72.72 899.765 71.45 899.765 70.01C899.765 68.23 900.165 66.63 900.965 65.21C901.785 63.77 902.915 62.65 904.355 61.85C905.795 61.03 907.435 60.62 909.275 60.62C910.835 60.62 912.185 60.91 913.325 61.49C914.485 62.07 915.375 62.9 915.995 63.98C916.635 65.06 916.955 66.31 916.955 67.73ZM909.065 64.13C907.965 64.13 907.035 64.43 906.275 65.03C905.515 65.61 904.975 66.42 904.655 67.46H912.665C912.665 66.42 912.335 65.61 911.675 65.03C911.035 64.43 910.165 64.13 909.065 64.13ZM935.199 77.24C933.579 77.24 932.149 76.94 930.909 76.34C929.689 75.74 928.739 74.9 928.059 73.82C927.399 72.72 927.069 71.45 927.069 70.01C927.069 68.23 927.489 66.63 928.329 65.21C929.169 63.79 930.329 62.67 931.809 61.85C933.289 61.03 934.959 60.62 936.819 60.62C938.459 60.62 939.889 60.92 941.109 61.52C942.329 62.12 943.269 62.97 943.929 64.07C944.609 65.15 944.949 66.41 944.949 67.85C944.949 69.63 944.529 71.23 943.689 72.65C942.869 74.07 941.709 75.19 940.209 76.01C938.729 76.83 937.059 77.24 935.199 77.24ZM935.499 73.37C936.399 73.37 937.209 73.15 937.929 72.71C938.649 72.25 939.209 71.62 939.609 70.82C940.009 70.02 940.209 69.1 940.209 68.06C940.209 66.96 939.889 66.09 939.249 65.45C938.609 64.81 937.709 64.49 936.549 64.49C935.629 64.49 934.809 64.72 934.089 65.18C933.369 65.62 932.809 66.24 932.409 67.04C932.009 67.84 931.809 68.76 931.809 69.8C931.809 70.9 932.129 71.77 932.769 72.41C933.429 73.05 934.339 73.37 935.499 73.37ZM958.668 60.62C959.928 60.62 961.088 60.91 962.148 61.49C963.228 62.07 964.078 62.91 964.698 64.01C965.338 65.09 965.658 66.37 965.658 67.85C965.658 69.63 965.258 71.24 964.458 72.68C963.678 74.1 962.608 75.22 961.248 76.04C959.888 76.84 958.378 77.24 956.718 77.24C954.258 77.24 952.518 76.44 951.498 74.84L949.908 82.82H945.228L949.608 60.86H954.048L953.718 62.45C955.058 61.23 956.708 60.62 958.668 60.62ZM956.178 73.37C957.098 73.37 957.918 73.15 958.638 72.71C959.358 72.25 959.918 71.62 960.318 70.82C960.718 70.02 960.918 69.1 960.918 68.06C960.918 66.96 960.588 66.09 959.928 65.45C959.288 64.81 958.388 64.49 957.228 64.49C956.328 64.49 955.518 64.72 954.798 65.18C954.078 65.62 953.518 66.24 953.118 67.04C952.718 67.84 952.518 68.76 952.518 69.8C952.518 70.9 952.838 71.77 953.478 72.41C954.118 73.05 955.018 73.37 956.178 73.37ZM973.471 71.3C973.431 71.46 973.411 71.68 973.411 71.96C973.411 73 973.981 73.52 975.121 73.52C975.741 73.52 976.371 73.33 977.011 72.95L977.701 76.28C976.661 76.92 975.321 77.24 973.681 77.24C972.161 77.24 970.941 76.84 970.021 76.04C969.101 75.24 968.641 74.14 968.641 72.74C968.641 72.34 968.691 71.87 968.791 71.33L970.081 64.82H967.591L968.311 61.22H970.801L971.581 57.29H976.261L975.481 61.22H979.501L978.781 64.82H974.761L973.471 71.3ZM983.358 60.86H988.008L984.798 77H980.148L983.358 60.86ZM986.478 58.61C985.678 58.61 985.018 58.38 984.498 57.92C983.998 57.44 983.748 56.86 983.748 56.18C983.748 55.38 984.028 54.72 984.588 54.2C985.168 53.66 985.918 53.39 986.838 53.39C987.658 53.39 988.318 53.62 988.818 54.08C989.338 54.52 989.598 55.07 989.598 55.73C989.598 56.59 989.308 57.29 988.728 57.83C988.148 58.35 987.398 58.61 986.478 58.61ZM997.572 77.24C995.952 77.24 994.522 76.94 993.282 76.34C992.062 75.74 991.112 74.9 990.432 73.82C989.772 72.72 989.442 71.45 989.442 70.01C989.442 68.23 989.862 66.63 990.702 65.21C991.542 63.79 992.702 62.67 994.182 61.85C995.662 61.03 997.332 60.62 999.192 60.62C1000.83 60.62 1002.26 60.92 1003.48 61.52C1004.7 62.12 1005.64 62.97 1006.3 64.07C1006.98 65.15 1007.32 66.41 1007.32 67.85C1007.32 69.63 1006.9 71.23 1006.06 72.65C1005.24 74.07 1004.08 75.19 1002.58 76.01C1001.1 76.83 999.432 77.24 997.572 77.24ZM997.872 73.37C998.772 73.37 999.582 73.15 1000.3 72.71C1001.02 72.25 1001.58 71.62 1001.98 70.82C1002.38 70.02 1002.58 69.1 1002.58 68.06C1002.58 66.96 1002.26 66.09 1001.62 65.45C1000.98 64.81 1000.08 64.49 998.922 64.49C998.002 64.49 997.182 64.72 996.462 65.18C995.742 65.62 995.182 66.24 994.782 67.04C994.382 67.84 994.182 68.76 994.182 69.8C994.182 70.9 994.502 71.77 995.142 72.41C995.802 73.05 996.712 73.37 997.872 73.37ZM1021.37 60.62C1023.17 60.62 1024.6 61.1 1025.66 62.06C1026.72 63 1027.25 64.35 1027.25 66.11C1027.25 66.77 1027.18 67.42 1027.04 68.06L1025.24 77H1020.56L1022.3 68.36C1022.38 68.02 1022.42 67.65 1022.42 67.25C1022.42 66.41 1022.19 65.77 1021.73 65.33C1021.27 64.89 1020.58 64.67 1019.66 64.67C1018.46 64.67 1017.46 65.02 1016.66 65.72C1015.88 66.4 1015.35 67.43 1015.07 68.81L1013.45 77H1008.77L1011.98 60.86H1016.42L1016.06 62.6C1017.5 61.28 1019.27 60.62 1021.37 60.62ZM1035.39 77.24C1033.99 77.24 1032.66 77.09 1031.4 76.79C1030.16 76.47 1029.19 76.06 1028.49 75.56L1030.29 72.17C1030.99 72.63 1031.84 73 1032.84 73.28C1033.86 73.56 1034.88 73.7 1035.9 73.7C1036.96 73.7 1037.75 73.57 1038.27 73.31C1038.79 73.03 1039.05 72.64 1039.05 72.14C1039.05 71.74 1038.82 71.45 1038.36 71.27C1037.9 71.09 1037.16 70.9 1036.14 70.7C1034.98 70.48 1034.02 70.24 1033.26 69.98C1032.52 69.72 1031.87 69.3 1031.31 68.72C1030.77 68.12 1030.5 67.31 1030.5 66.29C1030.5 64.51 1031.24 63.12 1032.72 62.12C1034.22 61.12 1036.18 60.62 1038.6 60.62C1039.72 60.62 1040.81 60.74 1041.87 60.98C1042.93 61.22 1043.83 61.55 1044.57 61.97L1042.89 65.39C1041.57 64.57 1039.98 64.16 1038.12 64.16C1037.1 64.16 1036.32 64.31 1035.78 64.61C1035.26 64.91 1035 65.29 1035 65.75C1035 66.17 1035.23 66.48 1035.69 66.68C1036.15 66.86 1036.92 67.06 1038 67.28C1039.14 67.5 1040.07 67.74 1040.79 68C1041.53 68.24 1042.17 68.65 1042.71 69.23C1043.25 69.81 1043.52 70.6 1043.52 71.6C1043.52 73.4 1042.76 74.79 1041.24 75.77C1039.74 76.75 1037.79 77.24 1035.39 77.24ZM1073.54 60.86L1070.33 77H1065.89L1066.19 75.41C1064.85 76.63 1063.2 77.24 1061.24 77.24C1059.98 77.24 1058.82 76.95 1057.76 76.37C1056.7 75.79 1055.85 74.96 1055.21 73.88C1054.59 72.78 1054.28 71.49 1054.28 70.01C1054.28 68.23 1054.67 66.63 1055.45 65.21C1056.25 63.77 1057.33 62.65 1058.69 61.85C1060.05 61.03 1061.55 60.62 1063.19 60.62C1065.67 60.62 1067.42 61.43 1068.44 63.05L1068.86 60.86H1073.54ZM1062.68 73.37C1063.6 73.37 1064.42 73.15 1065.14 72.71C1065.86 72.25 1066.42 71.62 1066.82 70.82C1067.22 70.02 1067.42 69.1 1067.42 68.06C1067.42 66.96 1067.09 66.09 1066.43 65.45C1065.79 64.81 1064.89 64.49 1063.73 64.49C1062.81 64.49 1061.99 64.72 1061.27 65.18C1060.55 65.62 1059.99 66.24 1059.59 67.04C1059.19 67.84 1058.99 68.76 1058.99 69.8C1058.99 70.9 1059.31 71.77 1059.95 72.41C1060.61 73.05 1061.52 73.37 1062.68 73.37ZM1087.26 60.62C1089.06 60.62 1090.49 61.1 1091.55 62.06C1092.61 63 1093.14 64.35 1093.14 66.11C1093.14 66.77 1093.07 67.42 1092.93 68.06L1091.13 77H1086.45L1088.19 68.36C1088.27 68.02 1088.31 67.65 1088.31 67.25C1088.31 66.41 1088.08 65.77 1087.62 65.33C1087.16 64.89 1086.47 64.67 1085.55 64.67C1084.35 64.67 1083.35 65.02 1082.55 65.72C1081.77 66.4 1081.24 67.43 1080.96 68.81L1079.34 77H1074.66L1077.87 60.86H1082.31L1081.95 62.6C1083.39 61.28 1085.16 60.62 1087.26 60.62ZM1116.43 54.74L1111.99 77H1107.55L1107.88 75.38C1106.52 76.62 1104.87 77.24 1102.93 77.24C1101.67 77.24 1100.51 76.95 1099.45 76.37C1098.39 75.79 1097.54 74.96 1096.9 73.88C1096.28 72.78 1095.97 71.49 1095.97 70.01C1095.97 68.23 1096.36 66.63 1097.14 65.21C1097.94 63.77 1099.02 62.65 1100.38 61.85C1101.74 61.03 1103.24 60.62 1104.88 60.62C1106.06 60.62 1107.09 60.82 1107.97 61.22C1108.87 61.62 1109.58 62.21 1110.1 62.99L1111.75 54.74H1116.43ZM1104.37 73.37C1105.29 73.37 1106.11 73.15 1106.83 72.71C1107.55 72.25 1108.11 71.62 1108.51 70.82C1108.91 70.02 1109.11 69.1 1109.11 68.06C1109.11 66.96 1108.78 66.09 1108.12 65.45C1107.48 64.81 1106.58 64.49 1105.42 64.49C1104.5 64.49 1103.68 64.72 1102.96 65.18C1102.24 65.62 1101.68 66.24 1101.28 67.04C1100.88 67.84 1100.68 68.76 1100.68 69.8C1100.68 70.9 1101 71.77 1101.64 72.41C1102.3 73.05 1103.21 73.37 1104.37 73.37ZM1225.5 60.86L1222.29 77H1217.85L1218.15 75.41C1216.81 76.63 1215.16 77.24 1213.2 77.24C1211.94 77.24 1210.78 76.95 1209.72 76.37C1208.66 75.79 1207.81 74.96 1207.17 73.88C1206.55 72.78 1206.24 71.49 1206.24 70.01C1206.24 68.23 1206.63 66.63 1207.41 65.21C1208.21 63.77 1209.29 62.65 1210.65 61.85C1212.01 61.03 1213.51 60.62 1215.15 60.62C1217.63 60.62 1219.38 61.43 1220.4 63.05L1220.82 60.86H1225.5ZM1214.64 73.37C1215.56 73.37 1216.38 73.15 1217.1 72.71C1217.82 72.25 1218.38 71.62 1218.78 70.82C1219.18 70.02 1219.38 69.1 1219.38 68.06C1219.38 66.96 1219.05 66.09 1218.39 65.45C1217.75 64.81 1216.85 64.49 1215.69 64.49C1214.77 64.49 1213.95 64.72 1213.23 65.18C1212.51 65.62 1211.95 66.24 1211.55 67.04C1211.15 67.84 1210.95 68.76 1210.95 69.8C1210.95 70.9 1211.27 71.77 1211.91 72.41C1212.57 73.05 1213.48 73.37 1214.64 73.37Z" fill="#BBA7A6"/>
</svg>
