<svg width="500" height="500" viewBox="0 0 500 500" fill="none" xmlns="http://www.w3.org/2000/svg">
<path d="M364.2 293C364.2 293 376 298.5 374.3 304.1C372.5 309.6 352.6 338.6 342.4 340.8" stroke="black" stroke-width="4.3" stroke-miterlimit="10" stroke-linecap="square"/>
<path d="M329.7 311.1C329.7 311.1 292.4 307.1 277.8 297.7C255.4 283.3 267.5 237.4 267.5 237.4" stroke="black" stroke-width="4.3" stroke-miterlimit="10" stroke-linecap="square"/>
<path d="M329.7 329.8C329.7 329.8 296.9 332.4 263.1 313.6C231.9 297.9 247.2 233.6 247.2 233.6" stroke="black" stroke-width="4.3" stroke-miterlimit="10" stroke-linecap="square"/>
<path d="M313 264.3C313 264.3 302.8 265.9 287.9 264.8" stroke="black" stroke-width="4" stroke-miterlimit="10" stroke-linecap="square"/>
<path d="M433.6 247.2C433.6 247.2 413.6 218.7 384.6 229.6C355.4 240.6 378.2 288.1 378.2 288.1" stroke="black" stroke-width="4.3" stroke-miterlimit="10" stroke-linecap="square"/>
<path d="M412.9 258C412.9 258 410.7 257.5 408.5 257.8C404.8 258 403.1 258.8 403.1 258.8" fill="white"/>
<path d="M412.9 258C412.9 258 410.7 257.5 408.5 257.8C404.8 258 403.1 258.8 403.1 258.8" stroke="black" stroke-width="4.3" stroke-miterlimit="10" stroke-linecap="square"/>
<path d="M413.7 273.1C413.7 273.1 411.7 272.9 409.3 272.9C405.6 273.1 403.9 273.9 403.9 273.9" fill="white"/>
<path d="M413.7 273.1C413.7 273.1 411.7 272.9 409.3 272.9C405.6 273.1 403.9 273.9 403.9 273.9" stroke="black" stroke-width="4.3" stroke-miterlimit="10" stroke-linecap="square"/>
<path d="M411.2 320.3C411.2 320.3 417.6 327.8 413.6 333.8C408.9 340.2 401.3 340.2 396.4 337.8C387.9 333.3 390 323.6 390 323.6" stroke="black" stroke-width="4.3" stroke-miterlimit="10" stroke-linecap="square"/>
<path d="M409.3 229C409.3 229 414.2 218.7 403.4 217C387.2 214.4 386.7 226.6 386.7 226.6" stroke="black" stroke-width="4.3" stroke-miterlimit="10" stroke-linecap="square"/>
<path d="M387.8 316.9L361 326.7" stroke="black" stroke-width="4.3" stroke-miterlimit="10" stroke-linecap="square"/>
<path d="M383.3 293.2L372.4 297.7" stroke="black" stroke-width="4.3" stroke-miterlimit="10" stroke-linecap="square"/>
<path d="M440.8 265.6L431.6 257.9" stroke="black" stroke-width="4.3" stroke-miterlimit="10" stroke-linecap="square"/>
<path d="M442.3 277.9L435.8 278.9" stroke="black" stroke-width="4.3" stroke-miterlimit="10" stroke-linecap="square"/>
<path d="M439.9 291.7L426.3 299.4" stroke="black" stroke-width="4.3" stroke-miterlimit="10" stroke-linecap="square"/>
<path d="M464.1 270.4C464.1 270.4 476.2 242.5 458.7 225.7C441.1 208.9 415.8 214.3 415.8 214.3" stroke="black" stroke-width="4.3" stroke-miterlimit="10" stroke-linecap="square"/>
<path d="M320.3 260.8C323.8 260.3 330.5 258.5 337.5 262.1C344.6 265.6 359.6 285.6 359.6 285.6" stroke="black" stroke-width="4.3" stroke-miterlimit="10" stroke-linecap="square"/>
<path d="M181.6 303.7C181.6 303.7 157.1 256.4 235.5 240" stroke="black" stroke-width="4.3" stroke-miterlimit="10" stroke-linecap="square"/>
<path d="M231.4 230C219.9 229.5 212.8 227.7 205.5 232" stroke="black" stroke-width="4.3" stroke-miterlimit="10" stroke-linecap="square"/>
<path d="M316.8 230.4C316 253.5 289.6 261.9 265.9 272.7" stroke="black" stroke-width="4.3" stroke-miterlimit="10" stroke-linecap="square"/>
<path d="M210.3 200.4C210.3 200.4 203.9 199.2 200.9 195.6C197.9 192 198 170.8 192 180.6C185.9 190.4 187.3 213.8 192.2 221.1C197.1 228.4 211.1 223.3 211.1 223.3" stroke="black" stroke-width="4.3" stroke-miterlimit="10" stroke-linecap="square"/>
<path d="M464.4 280.4C464.4 280.4 472 291.7 472.9 300.8C473.9 309.9 471.7 315.6 471.7 315.6" stroke="black" stroke-width="4.3" stroke-miterlimit="10" stroke-linecap="square"/>
<path d="M418.7 319.3C418.7 319.3 437.6 312.9 454.4 316.2C471.2 319.5 481.7 328.2 481.7 328.2C481.7 328.2 478.2 332.1 477.7 336.6C477.2 341.1 478.2 350.7 478.2 350.7C478.2 350.7 453.3 355.4 415.8 355.6C377.4 355.9 357.8 348 357.8 348C357.8 348 359.3 337.4 361 334.4" stroke="black" stroke-width="4.3" stroke-miterlimit="10" stroke-linecap="square"/>
<path d="M248.2 228.2C248.2 228.2 248.4 217.7 244.2 213.3C239.9 208.9 238 204.4 238 204.4C238 204.4 238.7 199.4 248.3 199.9C257.9 200.4 265.1 205.9 266.8 214C268.5 222.1 266.8 229.4 266.8 229.4C266.8 229.4 262.8 227.3 259 227.3C255.2 227.3 248.3 228.2 248.3 228.2H248.2Z" stroke="black" stroke-width="4.3" stroke-miterlimit="10" stroke-linecap="square"/>
<path d="M184.4 310.1C185.7 313.3 187.4 322.4 214.7 329.2C252.8 330 264.2 321.7 264.2 321.7" stroke="black" stroke-width="4.3" stroke-miterlimit="10" stroke-linecap="square"/>
<path d="M265.9 201.4C265.9 201.4 293.6 206.4 304.8 211.2C316 215.9 315.9 223.7 315.9 223.7" stroke="black" stroke-width="4.3" stroke-miterlimit="10" stroke-linecap="square"/>
<path d="M203 168.5C203 168.5 198.7 189.5 232.7 197.4" stroke="black" stroke-width="4.3" stroke-miterlimit="10" stroke-linecap="square"/>
<path d="M41.7 290.3C41.7 290.3 35.5 289.6 32.5 286.5C29.4 283.3 27.9 263.3 22.8 273C17.9 282.8 20.8 304.8 26.1 311.4C31.4 318 44.1 312 44.1 312" stroke="black" stroke-width="4" stroke-miterlimit="10" stroke-linecap="square"/>
<path d="M171.5 290.7C171.5 290.7 145.5 286.4 127.2 288.1C108.9 289.8 86.1 299.1 64.4 295.9C42.7 292.7 40 279.4 40 279.4" stroke="black" stroke-width="3.8" stroke-miterlimit="10" stroke-linecap="square"/>
<path d="M190.6 326.4C190.6 326.4 164 327.1 144.3 324.8C124.6 322.5 86 318.4 72.8 318C59.6 317.6 36 323.7 36 323.7" stroke="black" stroke-width="3.8" stroke-miterlimit="10" stroke-linecap="square"/>
</svg>
