<svg width="268" height="260" viewBox="0 0 268 260" fill="none" xmlns="http://www.w3.org/2000/svg">
<g filter="url(#filter0_d_2060_274)">
<rect x="15" y="5" width="248" height="240" rx="120" fill="#F9F6F1"/>
</g>
<path d="M62.7987 102.874C62.7987 102.874 68.3387 107.838 76.5886 105.098C84.8384 102.358 85.5998 94.0427 85.5998 94.0427" stroke="#443534" stroke-width="4.36286" stroke-miterlimit="10"/>
<path d="M55.9314 104.151L52.4001 95.9812" stroke="#443534" stroke-width="4.36286" stroke-miterlimit="10"/>
<path d="M166.616 85.6676C166.616 85.6676 189.457 52.2123 221.514 75.1587C253.577 98.105 235.344 124.913 232.129 128.77C228.913 132.627 214.973 130.488 210.685 137.561C206.397 144.634 213.901 159.651 209.398 169.088C204.895 178.525 199.319 177.668 197.176 184.1C195.032 190.531 197.606 202.758 191.816 205.759C186.026 208.759 172.301 210.262 162.007 202.328C151.714 194.393 149.355 186.675 139.702 186.459C130.05 186.244 124.049 191.608 116.971 198.681C109.893 205.754 99.1741 213.383 89.9525 208.178C80.7309 202.974 83.9467 190.747 80.9463 184.956C77.9459 179.166 68.0781 172.519 67.0062 163.297C65.9343 154.076 73.2274 145.285 68.5089 140.351C63.7904 135.417 57.7846 135.848 49.2091 131.129C40.6337 126.411 21.9751 88.0268 58.2154 72.7994C94.4556 57.572 106.036 77.7333 108.396 84.1649" stroke="#443534" stroke-width="4.36286" stroke-miterlimit="10"/>
<path d="M110.86 90.7569C110.86 90.7569 108.551 97.0181 107.825 102.353C107.169 107.191 106.407 113.914 107.825 116.754C109.242 119.594 119.586 122.479 121.82 125.194C124.054 127.909 131.022 141.498 138.185 141.293C145.347 141.088 150.617 127.548 154.469 125.194C158.321 122.84 167.853 120 168.87 115.336C169.887 110.673 170.693 94.0428 166.435 89.7851C162.178 85.5274 148.663 85.848 138.185 85.5274C122.186 85.0366 112.468 87.1504 112.468 87.1504" stroke="#443534" stroke-width="4.36286" stroke-miterlimit="10"/>
<path d="M124.014 39.8853V80.3531" stroke="#443534" stroke-width="4.36286" stroke-miterlimit="10"/>
<path d="M152.145 39.8853V80.3531" stroke="#443534" stroke-width="4.36286" stroke-miterlimit="10"/>
<path d="M128.738 97.5891C128.738 97.5891 133.266 100.755 138.185 100.755C143.103 100.755 148.253 97.5891 148.253 97.5891" stroke="#443534" stroke-width="4.36286" stroke-miterlimit="10"/>
<path d="M129.033 115.181C129.033 115.181 133.561 118.347 138.48 118.347C143.399 118.347 148.548 115.181 148.548 115.181" stroke="#443534" stroke-width="4.36286" stroke-miterlimit="10"/>
<path d="M104.594 119.839C104.594 119.839 99.4544 123.511 96.5192 130.488C93.5839 137.466 92.4819 143.156 93.9495 145.906C95.4172 148.656 104.223 164.079 138.189 164.079C172.155 164.079 181.332 149.943 183.351 145.355C185.369 140.767 181.698 133.058 178.943 128.099C176.188 123.14 171.785 119.839 171.785 119.839" stroke="#443534" stroke-width="4.36286" stroke-miterlimit="10"/>
<path d="M99.5398 173.551C96.9051 176.541 97.8618 190.216 100.502 190.817C103.141 191.418 117.407 181.105 116.691 177.147C115.974 173.19 103.141 169.474 99.5448 173.551H99.5398Z" stroke="#443534" stroke-width="4.36286" stroke-miterlimit="10"/>
<path d="M177.485 174.813C180.12 177.804 179.163 191.478 176.524 192.079C173.884 192.68 159.618 182.367 160.334 178.41C161.051 174.452 173.884 170.736 177.48 174.813H177.485Z" stroke="#443534" stroke-width="4.36286" stroke-miterlimit="10"/>
<path d="M79.6489 91.6083L76.1176 83.4436" stroke="#443534" stroke-width="4.36286" stroke-miterlimit="10"/>
<defs>
<filter id="filter0_d_2060_274" x="0" y="0" width="268" height="260" filterUnits="userSpaceOnUse" color-interpolation-filters="sRGB">
<feFlood flood-opacity="0" result="BackgroundImageFix"/>
<feColorMatrix in="SourceAlpha" type="matrix" values="0 0 0 0 0 0 0 0 0 0 0 0 0 0 0 0 0 0 127 0" result="hardAlpha"/>
<feOffset dx="-5" dy="5"/>
<feGaussianBlur stdDeviation="5"/>
<feComposite in2="hardAlpha" operator="out"/>
<feColorMatrix type="matrix" values="0 0 0 0 0 0 0 0 0 0 0 0 0 0 0 0 0 0 0.25 0"/>
<feBlend mode="normal" in2="BackgroundImageFix" result="effect1_dropShadow_2060_274"/>
<feBlend mode="normal" in="SourceGraphic" in2="effect1_dropShadow_2060_274" result="shape"/>
</filter>
</defs>
</svg>
