<svg width="387" height="368" viewBox="0 0 387 368" fill="none" xmlns="http://www.w3.org/2000/svg">
<rect width="387" height="368" rx="184" fill="#72B0F4"/>
<path d="M142.722 250.185C147.098 250.185 150.608 251.485 153.252 254.085C155.938 256.685 157.282 260.607 157.282 265.85V286H144.932V267.865C144.932 263.055 143.003 260.65 139.147 260.65C137.023 260.65 135.312 261.343 134.012 262.73C132.755 264.117 132.127 266.197 132.127 268.97V286H119.777V237.77H132.127V254.02C133.47 252.763 135.052 251.81 136.872 251.16C138.692 250.51 140.642 250.185 142.722 250.185ZM165.035 250.77H177.385V286H165.035V250.77ZM171.21 246.87C168.957 246.87 167.137 246.242 165.75 244.985C164.364 243.728 163.67 242.168 163.67 240.305C163.67 238.442 164.364 236.882 165.75 235.625C167.137 234.368 168.957 233.74 171.21 233.74C173.464 233.74 175.284 234.347 176.67 235.56C178.057 236.73 178.75 238.247 178.75 240.11C178.75 242.06 178.057 243.685 176.67 244.985C175.284 246.242 173.464 246.87 171.21 246.87ZM207.576 250.185C210.783 250.185 213.686 250.943 216.286 252.46C218.93 253.933 221.01 256.057 222.526 258.83C224.086 261.56 224.866 264.745 224.866 268.385C224.866 272.025 224.086 275.232 222.526 278.005C221.01 280.735 218.93 282.858 216.286 284.375C213.686 285.848 210.783 286.585 207.576 286.585C203.46 286.585 200.188 285.35 197.761 282.88V298.61H185.411V250.77H197.176V254.28C199.473 251.55 202.94 250.185 207.576 250.185ZM204.976 276.77C207.143 276.77 208.92 276.033 210.306 274.56C211.693 273.043 212.386 270.985 212.386 268.385C212.386 265.785 211.693 263.748 210.306 262.275C208.92 260.758 207.143 260 204.976 260C202.81 260 201.033 260.758 199.646 262.275C198.26 263.748 197.566 265.785 197.566 268.385C197.566 270.985 198.26 273.043 199.646 274.56C201.033 276.033 202.81 276.77 204.976 276.77ZM243.412 286.585C240.465 286.585 237.562 286.26 234.702 285.61C231.842 284.917 229.545 284.028 227.812 282.945L231.517 274.495C233.12 275.492 235.027 276.293 237.237 276.9C239.447 277.463 241.635 277.745 243.802 277.745C245.795 277.745 247.203 277.55 248.027 277.16C248.893 276.727 249.327 276.12 249.327 275.34C249.327 274.56 248.807 274.018 247.767 273.715C246.77 273.368 245.167 273.043 242.957 272.74C240.14 272.393 237.735 271.938 235.742 271.375C233.792 270.812 232.102 269.772 230.672 268.255C229.242 266.738 228.527 264.615 228.527 261.885C228.527 259.632 229.198 257.638 230.542 255.905C231.885 254.128 233.835 252.742 236.392 251.745C238.992 250.705 242.09 250.185 245.687 250.185C248.243 250.185 250.778 250.445 253.292 250.965C255.805 251.485 257.907 252.222 259.597 253.175L255.892 261.56C252.772 259.827 249.392 258.96 245.752 258.96C243.802 258.96 242.372 259.198 241.462 259.675C240.552 260.108 240.097 260.693 240.097 261.43C240.097 262.253 240.595 262.838 241.592 263.185C242.588 263.488 244.235 263.813 246.532 264.16C249.435 264.593 251.84 265.092 253.747 265.655C255.653 266.218 257.3 267.258 258.687 268.775C260.117 270.248 260.832 272.328 260.832 275.015C260.832 277.225 260.16 279.218 258.817 280.995C257.473 282.728 255.48 284.093 252.837 285.09C250.237 286.087 247.095 286.585 243.412 286.585Z" fill="#FFFCF0"/>
</svg>
