<svg width="229" height="51" viewBox="0 0 229 51" fill="none" xmlns="http://www.w3.org/2000/svg">
<g filter="url(#filter0_d_2047_1225)">
<mask id="path-1-outside-1_2047_1225" maskUnits="userSpaceOnUse" x="4" y="0" width="221" height="43" fill="black">
<rect fill="white" x="4" width="221" height="43"/>
<path d="M29.2721 6H37.3721V41H29.2721V6ZM13.3721 41H5.27207V6H13.3721V41ZM29.8721 26.65H12.7721V19.8H29.8721V26.65ZM45.1029 41V14.1H52.9029V41H45.1029ZM49.0029 10.35C47.5696 10.35 46.4029 9.93333 45.5029 9.1C44.6029 8.26666 44.1529 7.23333 44.1529 6C44.1529 4.76666 44.6029 3.73333 45.5029 2.9C46.4029 2.06666 47.5696 1.65 49.0029 1.65C50.4363 1.65 51.6029 2.05 52.5029 2.85C53.4029 3.61667 53.8529 4.61667 53.8529 5.85C53.8529 7.15 53.4029 8.23333 52.5029 9.1C51.6363 9.93333 50.4696 10.35 49.0029 10.35ZM85.3021 41.4C82.1355 41.4 79.6688 40.6 77.9021 39C76.1355 37.3667 75.2521 34.95 75.2521 31.75V8.15H83.0521V31.65C83.0521 32.7833 83.3521 33.6667 83.9521 34.3C84.5521 34.9 85.3688 35.2 86.4021 35.2C87.6355 35.2 88.6855 34.8667 89.5521 34.2L91.6521 39.7C90.8521 40.2667 89.8855 40.7 88.7521 41C87.6521 41.2667 86.5021 41.4 85.3021 41.4ZM71.1021 20.7V14.7H89.7521V20.7H71.1021ZM112.381 13.7C114.514 13.7 116.414 14.1333 118.081 15C119.781 15.8333 121.114 17.1333 122.081 18.9C123.047 20.6333 123.531 22.8667 123.531 25.6V41H115.731V26.8C115.731 24.6333 115.247 23.0333 114.281 22C113.347 20.9667 112.014 20.45 110.281 20.45C109.047 20.45 107.931 20.7167 106.931 21.25C105.964 21.75 105.197 22.5333 104.631 23.6C104.097 24.6667 103.831 26.0333 103.831 27.7V41H96.0307V3.9H103.831V21.55L102.081 19.3C103.047 17.5 104.431 16.1167 106.231 15.15C108.031 14.1833 110.081 13.7 112.381 13.7ZM144.146 41.4C141.08 41.4 138.38 40.8 136.046 39.6C133.746 38.4 131.963 36.7667 130.696 34.7C129.43 32.6 128.796 30.2167 128.796 27.55C128.796 24.85 129.413 22.4667 130.646 20.4C131.913 18.3 133.63 16.6667 135.796 15.5C137.963 14.3 140.413 13.7 143.146 13.7C145.78 13.7 148.146 14.2667 150.246 15.4C152.38 16.5 154.063 18.1 155.296 20.2C156.53 22.2667 157.146 24.75 157.146 27.65C157.146 27.95 157.13 28.3 157.096 28.7C157.063 29.0667 157.03 29.4167 156.996 29.75H135.146V25.2H152.896L149.896 26.55C149.896 25.15 149.613 23.9333 149.046 22.9C148.48 21.8667 147.696 21.0667 146.696 20.5C145.696 19.9 144.53 19.6 143.196 19.6C141.863 19.6 140.68 19.9 139.646 20.5C138.646 21.0667 137.863 21.8833 137.296 22.95C136.73 23.9833 136.446 25.2167 136.446 26.65V27.85C136.446 29.3167 136.763 30.6167 137.396 31.75C138.063 32.85 138.98 33.7 140.146 34.3C141.346 34.8667 142.746 35.15 144.346 35.15C145.78 35.15 147.03 34.9333 148.096 34.5C149.196 34.0667 150.196 33.4167 151.096 32.55L155.246 37.05C154.013 38.45 152.463 39.5333 150.596 40.3C148.73 41.0333 146.58 41.4 144.146 41.4ZM162.339 41V14.1H169.789V21.7L168.739 19.5C169.539 17.6 170.823 16.1667 172.589 15.2C174.356 14.2 176.506 13.7 179.039 13.7V20.9C178.706 20.8667 178.406 20.85 178.139 20.85C177.873 20.8167 177.589 20.8 177.289 20.8C175.156 20.8 173.423 21.4167 172.089 22.65C170.789 23.85 170.139 25.7333 170.139 28.3V41H162.339ZM196.832 41.4C193.765 41.4 191.065 40.8 188.732 39.6C186.432 38.4 184.649 36.7667 183.382 34.7C182.115 32.6 181.482 30.2167 181.482 27.55C181.482 24.85 182.099 22.4667 183.332 20.4C184.599 18.3 186.315 16.6667 188.482 15.5C190.649 14.3 193.099 13.7 195.832 13.7C198.465 13.7 200.832 14.2667 202.932 15.4C205.065 16.5 206.749 18.1 207.982 20.2C209.215 22.2667 209.832 24.75 209.832 27.65C209.832 27.95 209.815 28.3 209.782 28.7C209.749 29.0667 209.715 29.4167 209.682 29.75H187.832V25.2H205.582L202.582 26.55C202.582 25.15 202.299 23.9333 201.732 22.9C201.165 21.8667 200.382 21.0667 199.382 20.5C198.382 19.9 197.215 19.6 195.882 19.6C194.549 19.6 193.365 19.9 192.332 20.5C191.332 21.0667 190.549 21.8833 189.982 22.95C189.415 23.9833 189.132 25.2167 189.132 26.65V27.85C189.132 29.3167 189.449 30.6167 190.082 31.75C190.749 32.85 191.665 33.7 192.832 34.3C194.032 34.8667 195.432 35.15 197.032 35.15C198.465 35.15 199.715 34.9333 200.782 34.5C201.882 34.0667 202.882 33.4167 203.782 32.55L207.932 37.05C206.699 38.45 205.149 39.5333 203.282 40.3C201.415 41.0333 199.265 41.4 196.832 41.4ZM215.575 28.85L214.025 6H223.325L221.775 28.85H215.575ZM218.675 41.4C217.275 41.4 216.125 40.95 215.225 40.05C214.325 39.15 213.875 38.0833 213.875 36.85C213.875 35.5833 214.325 34.5333 215.225 33.7C216.125 32.8333 217.275 32.4 218.675 32.4C220.108 32.4 221.258 32.8333 222.125 33.7C223.025 34.5333 223.475 35.5833 223.475 36.85C223.475 38.0833 223.025 39.15 222.125 40.05C221.258 40.95 220.108 41.4 218.675 41.4Z"/>
</mask>
<path d="M29.2721 6H37.3721V41H29.2721V6ZM13.3721 41H5.27207V6H13.3721V41ZM29.8721 26.65H12.7721V19.8H29.8721V26.65ZM45.1029 41V14.1H52.9029V41H45.1029ZM49.0029 10.35C47.5696 10.35 46.4029 9.93333 45.5029 9.1C44.6029 8.26666 44.1529 7.23333 44.1529 6C44.1529 4.76666 44.6029 3.73333 45.5029 2.9C46.4029 2.06666 47.5696 1.65 49.0029 1.65C50.4363 1.65 51.6029 2.05 52.5029 2.85C53.4029 3.61667 53.8529 4.61667 53.8529 5.85C53.8529 7.15 53.4029 8.23333 52.5029 9.1C51.6363 9.93333 50.4696 10.35 49.0029 10.35ZM85.3021 41.4C82.1355 41.4 79.6688 40.6 77.9021 39C76.1355 37.3667 75.2521 34.95 75.2521 31.75V8.15H83.0521V31.65C83.0521 32.7833 83.3521 33.6667 83.9521 34.3C84.5521 34.9 85.3688 35.2 86.4021 35.2C87.6355 35.2 88.6855 34.8667 89.5521 34.2L91.6521 39.7C90.8521 40.2667 89.8855 40.7 88.7521 41C87.6521 41.2667 86.5021 41.4 85.3021 41.4ZM71.1021 20.7V14.7H89.7521V20.7H71.1021ZM112.381 13.7C114.514 13.7 116.414 14.1333 118.081 15C119.781 15.8333 121.114 17.1333 122.081 18.9C123.047 20.6333 123.531 22.8667 123.531 25.6V41H115.731V26.8C115.731 24.6333 115.247 23.0333 114.281 22C113.347 20.9667 112.014 20.45 110.281 20.45C109.047 20.45 107.931 20.7167 106.931 21.25C105.964 21.75 105.197 22.5333 104.631 23.6C104.097 24.6667 103.831 26.0333 103.831 27.7V41H96.0307V3.9H103.831V21.55L102.081 19.3C103.047 17.5 104.431 16.1167 106.231 15.15C108.031 14.1833 110.081 13.7 112.381 13.7ZM144.146 41.4C141.08 41.4 138.38 40.8 136.046 39.6C133.746 38.4 131.963 36.7667 130.696 34.7C129.43 32.6 128.796 30.2167 128.796 27.55C128.796 24.85 129.413 22.4667 130.646 20.4C131.913 18.3 133.63 16.6667 135.796 15.5C137.963 14.3 140.413 13.7 143.146 13.7C145.78 13.7 148.146 14.2667 150.246 15.4C152.38 16.5 154.063 18.1 155.296 20.2C156.53 22.2667 157.146 24.75 157.146 27.65C157.146 27.95 157.13 28.3 157.096 28.7C157.063 29.0667 157.03 29.4167 156.996 29.75H135.146V25.2H152.896L149.896 26.55C149.896 25.15 149.613 23.9333 149.046 22.9C148.48 21.8667 147.696 21.0667 146.696 20.5C145.696 19.9 144.53 19.6 143.196 19.6C141.863 19.6 140.68 19.9 139.646 20.5C138.646 21.0667 137.863 21.8833 137.296 22.95C136.73 23.9833 136.446 25.2167 136.446 26.65V27.85C136.446 29.3167 136.763 30.6167 137.396 31.75C138.063 32.85 138.98 33.7 140.146 34.3C141.346 34.8667 142.746 35.15 144.346 35.15C145.78 35.15 147.03 34.9333 148.096 34.5C149.196 34.0667 150.196 33.4167 151.096 32.55L155.246 37.05C154.013 38.45 152.463 39.5333 150.596 40.3C148.73 41.0333 146.58 41.4 144.146 41.4ZM162.339 41V14.1H169.789V21.7L168.739 19.5C169.539 17.6 170.823 16.1667 172.589 15.2C174.356 14.2 176.506 13.7 179.039 13.7V20.9C178.706 20.8667 178.406 20.85 178.139 20.85C177.873 20.8167 177.589 20.8 177.289 20.8C175.156 20.8 173.423 21.4167 172.089 22.65C170.789 23.85 170.139 25.7333 170.139 28.3V41H162.339ZM196.832 41.4C193.765 41.4 191.065 40.8 188.732 39.6C186.432 38.4 184.649 36.7667 183.382 34.7C182.115 32.6 181.482 30.2167 181.482 27.55C181.482 24.85 182.099 22.4667 183.332 20.4C184.599 18.3 186.315 16.6667 188.482 15.5C190.649 14.3 193.099 13.7 195.832 13.7C198.465 13.7 200.832 14.2667 202.932 15.4C205.065 16.5 206.749 18.1 207.982 20.2C209.215 22.2667 209.832 24.75 209.832 27.65C209.832 27.95 209.815 28.3 209.782 28.7C209.749 29.0667 209.715 29.4167 209.682 29.75H187.832V25.2H205.582L202.582 26.55C202.582 25.15 202.299 23.9333 201.732 22.9C201.165 21.8667 200.382 21.0667 199.382 20.5C198.382 19.9 197.215 19.6 195.882 19.6C194.549 19.6 193.365 19.9 192.332 20.5C191.332 21.0667 190.549 21.8833 189.982 22.95C189.415 23.9833 189.132 25.2167 189.132 26.65V27.85C189.132 29.3167 189.449 30.6167 190.082 31.75C190.749 32.85 191.665 33.7 192.832 34.3C194.032 34.8667 195.432 35.15 197.032 35.15C198.465 35.15 199.715 34.9333 200.782 34.5C201.882 34.0667 202.882 33.4167 203.782 32.55L207.932 37.05C206.699 38.45 205.149 39.5333 203.282 40.3C201.415 41.0333 199.265 41.4 196.832 41.4ZM215.575 28.85L214.025 6H223.325L221.775 28.85H215.575ZM218.675 41.4C217.275 41.4 216.125 40.95 215.225 40.05C214.325 39.15 213.875 38.0833 213.875 36.85C213.875 35.5833 214.325 34.5333 215.225 33.7C216.125 32.8333 217.275 32.4 218.675 32.4C220.108 32.4 221.258 32.8333 222.125 33.7C223.025 34.5333 223.475 35.5833 223.475 36.85C223.475 38.0833 223.025 39.15 222.125 40.05C221.258 40.95 220.108 41.4 218.675 41.4Z" fill="#BBA7A6"/>
<path d="M29.2721 6V5H28.2721V6H29.2721ZM37.3721 6H38.3721V5H37.3721V6ZM37.3721 41V42H38.3721V41H37.3721ZM29.2721 41H28.2721V42H29.2721V41ZM13.3721 41V42H14.3721V41H13.3721ZM5.27206 41H4.27206V42H5.27206V41ZM5.27206 6V5H4.27206V6H5.27206ZM13.3721 6H14.3721V5H13.3721V6ZM29.8721 26.65V27.65H30.8721V26.65H29.8721ZM12.7721 26.65H11.7721V27.65H12.7721V26.65ZM12.7721 19.8V18.8H11.7721V19.8H12.7721ZM29.8721 19.8H30.8721V18.8H29.8721V19.8ZM29.2721 7H37.3721V5H29.2721V7ZM36.3721 6V41H38.3721V6H36.3721ZM37.3721 40H29.2721V42H37.3721V40ZM30.2721 41V6H28.2721V41H30.2721ZM13.3721 40H5.27206V42H13.3721V40ZM6.27206 41V6H4.27206V41H6.27206ZM5.27206 7H13.3721V5H5.27206V7ZM12.3721 6V41H14.3721V6H12.3721ZM29.8721 25.65H12.7721V27.65H29.8721V25.65ZM13.7721 26.65V19.8H11.7721V26.65H13.7721ZM12.7721 20.8H29.8721V18.8H12.7721V20.8ZM28.8721 19.8V26.65H30.8721V19.8H28.8721ZM45.1029 41H44.1029V42H45.1029V41ZM45.1029 14.1V13.1H44.1029V14.1H45.1029ZM52.9029 14.1H53.9029V13.1H52.9029V14.1ZM52.9029 41V42H53.9029V41H52.9029ZM45.5029 9.1L44.8235 9.83376V9.83376L45.5029 9.1ZM45.5029 2.9L46.1823 3.63376V3.63376L45.5029 2.9ZM52.5029 2.85L51.8386 3.59741L51.8464 3.60441L51.8545 3.61124L52.5029 2.85ZM52.5029 9.1L53.196 9.82083L53.1966 9.82032L52.5029 9.1ZM46.1029 41V14.1H44.1029V41H46.1029ZM45.1029 15.1H52.9029V13.1H45.1029V15.1ZM51.9029 14.1V41H53.9029V14.1H51.9029ZM52.9029 40H45.1029V42H52.9029V40ZM49.0029 9.35C47.7762 9.35 46.8667 8.99994 46.1823 8.36624L44.8235 9.83376C45.9391 10.8667 47.363 11.35 49.0029 11.35V9.35ZM46.1823 8.36624C45.488 7.72335 45.1529 6.95652 45.1529 6H43.1529C43.1529 7.51014 43.7178 8.80998 44.8235 9.83376L46.1823 8.36624ZM45.1529 6C45.1529 5.04347 45.488 4.27665 46.1823 3.63376L44.8235 2.16624C43.7178 3.19002 43.1529 4.48985 43.1529 6H45.1529ZM46.1823 3.63376C46.8667 3.00006 47.7762 2.65 49.0029 2.65V0.649997C47.363 0.649997 45.9391 1.13327 44.8235 2.16624L46.1823 3.63376ZM49.0029 2.65C50.2405 2.65 51.1553 2.99005 51.8386 3.59741L53.1673 2.10259C52.0506 1.10995 50.632 0.649997 49.0029 0.649997V2.65ZM51.8545 3.61124C52.5206 4.17872 52.8529 4.89517 52.8529 5.85H54.8529C54.8529 4.33816 54.2852 3.05462 53.1514 2.08876L51.8545 3.61124ZM52.8529 5.85C52.8529 6.89058 52.5048 7.70991 51.8093 8.37968L53.1966 9.82032C54.3011 8.75676 54.8529 7.40942 54.8529 5.85H52.8529ZM51.8098 8.37917C51.1687 8.99563 50.2713 9.35 49.0029 9.35V11.35C50.6679 11.35 52.1038 10.871 53.196 9.82083L51.8098 8.37917ZM77.9022 39L77.2233 39.7343L77.2309 39.7412L77.9022 39ZM75.2521 8.15V7.15H74.2521V8.15H75.2521ZM83.0522 8.15H84.0522V7.15H83.0522V8.15ZM83.9521 34.3L83.2262 34.9877L83.2355 34.9976L83.2451 35.0071L83.9521 34.3ZM89.5522 34.2L90.4864 33.8433L90.0072 32.5883L88.9424 33.4074L89.5522 34.2ZM91.6522 39.7L92.2302 40.516L92.863 40.0678L92.5864 39.3433L91.6522 39.7ZM88.7521 41L88.9878 41.9719L88.9979 41.9694L89.0081 41.9667L88.7521 41ZM71.1021 20.7H70.1021V21.7H71.1021V20.7ZM71.1021 14.7V13.7H70.1021V14.7H71.1021ZM89.7521 14.7H90.7521V13.7H89.7521V14.7ZM89.7521 20.7V21.7H90.7521V20.7H89.7521ZM85.3022 40.4C82.3005 40.4 80.1027 39.6438 78.5734 38.2588L77.2309 39.7412C79.2349 41.5562 81.9705 42.4 85.3022 42.4V40.4ZM78.581 38.2657C77.0805 36.8784 76.2521 34.7675 76.2521 31.75H74.2521C74.2521 35.1325 75.1905 37.8549 77.2233 39.7343L78.581 38.2657ZM76.2521 31.75V8.15H74.2521V31.75H76.2521ZM75.2521 9.15H83.0522V7.15H75.2521V9.15ZM82.0522 8.15V31.65H84.0522V8.15H82.0522ZM82.0522 31.65C82.0522 32.9601 82.4024 34.1182 83.2262 34.9877L84.6781 33.6123C84.3018 33.2151 84.0522 32.6066 84.0522 31.65H82.0522ZM83.2451 35.0071C84.072 35.8341 85.1651 36.2 86.4022 36.2V34.2C85.5725 34.2 85.0323 33.9659 84.6592 33.5929L83.2451 35.0071ZM86.4022 36.2C87.8264 36.2 89.0982 35.8108 90.1619 34.9926L88.9424 33.4074C88.2727 33.9225 87.4446 34.2 86.4022 34.2V36.2ZM88.6179 34.5567L90.7179 40.0567L92.5864 39.3433L90.4864 33.8433L88.6179 34.5567ZM91.0741 38.884C90.3887 39.3695 89.5361 39.758 88.4962 40.0333L89.0081 41.9667C90.2348 41.642 91.3156 41.1638 92.2302 40.516L91.0741 38.884ZM88.5165 40.0281C87.4982 40.275 86.4275 40.4 85.3022 40.4V42.4C86.5768 42.4 87.8061 42.2583 88.9878 41.9719L88.5165 40.0281ZM72.1021 20.7V14.7H70.1021V20.7H72.1021ZM71.1021 15.7H89.7521V13.7H71.1021V15.7ZM88.7521 14.7V20.7H90.7521V14.7H88.7521ZM89.7521 19.7H71.1021V21.7H89.7521V19.7ZM118.081 15L117.619 15.8872L117.63 15.8927L117.641 15.8979L118.081 15ZM122.081 18.9L121.203 19.38L121.207 19.3871L122.081 18.9ZM123.531 41V42H124.531V41H123.531ZM115.731 41H114.731V42H115.731V41ZM114.281 22L113.539 22.6703L113.544 22.6768L113.55 22.6832L114.281 22ZM106.931 21.25L107.39 22.1383L107.401 22.1324L106.931 21.25ZM104.631 23.6L103.748 23.1308L103.742 23.1417L103.736 23.1528L104.631 23.6ZM103.831 41V42H104.831V41H103.831ZM96.0307 41H95.0307V42H96.0307V41ZM96.0307 3.9V2.9H95.0307V3.9H96.0307ZM103.831 3.9H104.831V2.9H103.831V3.9ZM103.831 21.55L103.041 22.1639L104.831 24.4645V21.55H103.831ZM102.081 19.3L101.2 18.8269L100.892 19.4002L101.291 19.9139L102.081 19.3ZM106.231 15.15L106.704 16.031L106.231 15.15ZM112.381 14.7C114.375 14.7 116.113 15.1042 117.619 15.8872L118.542 14.1128C116.715 13.1625 114.653 12.7 112.381 12.7V14.7ZM117.641 15.8979C119.143 16.6345 120.329 17.7822 121.203 19.38L122.958 18.42C121.899 16.4844 120.418 15.0322 118.521 14.1021L117.641 15.8979ZM121.207 19.3871C122.065 20.9258 122.531 22.9759 122.531 25.6H124.531C124.531 22.7575 124.029 20.3408 122.954 18.4129L121.207 19.3871ZM122.531 25.6V41H124.531V25.6H122.531ZM123.531 40H115.731V42H123.531V40ZM116.731 41V26.8H114.731V41H116.731ZM116.731 26.8C116.731 24.5104 116.223 22.6128 115.011 21.3168L113.55 22.6832C114.271 23.4538 114.731 24.7562 114.731 26.8H116.731ZM115.023 21.3297C113.855 20.0369 112.222 19.45 110.281 19.45V21.45C111.806 21.45 112.84 21.8964 113.539 22.6703L115.023 21.3297ZM110.281 19.45C108.898 19.45 107.617 19.7504 106.46 20.3676L107.401 22.1324C108.244 21.6829 109.197 21.45 110.281 21.45V19.45ZM106.471 20.3618C105.304 20.9653 104.399 21.9052 103.748 23.1308L105.514 24.0692C105.996 23.1614 106.624 22.5347 107.39 22.1382L106.471 20.3618ZM103.736 23.1528C103.112 24.4023 102.831 25.9361 102.831 27.7H104.831C104.831 26.1306 105.083 24.9311 105.525 24.0472L103.736 23.1528ZM102.831 27.7V41H104.831V27.7H102.831ZM103.831 40H96.0307V42H103.831V40ZM97.0307 41V3.9H95.0307V41H97.0307ZM96.0307 4.9H103.831V2.9H96.0307V4.9ZM102.831 3.9V21.55H104.831V3.9H102.831ZM104.62 20.9361L102.87 18.6861L101.291 19.9139L103.041 22.1639L104.62 20.9361ZM102.962 19.7731C103.835 18.1462 105.077 16.9047 106.704 16.031L105.758 14.269C103.784 15.3286 102.259 16.8538 101.2 18.8269L102.962 19.7731ZM106.704 16.031C108.341 15.1518 110.225 14.7 112.381 14.7V12.7C109.937 12.7 107.72 13.2148 105.758 14.269L106.704 16.031ZM136.046 39.6L135.584 40.4866L135.589 40.4893L136.046 39.6ZM130.696 34.7L129.84 35.2165L129.844 35.2226L130.696 34.7ZM130.646 20.4L129.79 19.8835L129.788 19.8875L130.646 20.4ZM135.796 15.5L136.27 16.3805L136.281 16.3748L135.796 15.5ZM150.246 15.4L149.771 16.28L149.78 16.2845L149.788 16.2888L150.246 15.4ZM155.296 20.2L154.434 20.7064L154.438 20.7125L155.296 20.2ZM157.096 28.7L158.092 28.7905L158.093 28.783L157.096 28.7ZM156.996 29.75V30.75H157.901L157.991 29.8495L156.996 29.75ZM135.146 29.75H134.146V30.75H135.146V29.75ZM135.146 25.2V24.2H134.146V25.2H135.146ZM152.896 25.2L153.307 26.1119L152.896 24.2V25.2ZM149.896 26.55H148.896V28.0966L150.307 27.4619L149.896 26.55ZM149.046 22.9L148.169 23.3808V23.3808L149.046 22.9ZM146.696 20.5L146.182 21.3575L146.192 21.3639L146.203 21.37L146.696 20.5ZM139.646 20.5L140.139 21.3701L140.148 21.3648L139.646 20.5ZM137.296 22.95L138.173 23.4309L138.179 23.4192L137.296 22.95ZM137.396 31.75L136.523 32.2378L136.532 32.2532L136.541 32.2683L137.396 31.75ZM140.146 34.3L139.689 35.1893L139.704 35.197L139.719 35.2043L140.146 34.3ZM148.096 34.5L147.73 33.5695L147.72 33.5735L148.096 34.5ZM151.096 32.55L151.831 31.8721L151.139 31.1209L150.403 31.8297L151.096 32.55ZM155.246 37.05L155.997 37.711L156.592 37.0347L155.981 36.3721L155.246 37.05ZM150.596 40.3L150.962 41.2308L150.969 41.2279L150.976 41.225L150.596 40.3ZM144.146 40.4C141.212 40.4 138.673 39.8266 136.504 38.7107L135.589 40.4893C138.086 41.7734 140.947 42.4 144.146 42.4V40.4ZM136.509 38.7134C134.358 37.5911 132.714 36.0788 131.549 34.1774L129.844 35.2226C131.212 37.4545 133.135 39.2089 135.584 40.4866L136.509 38.7134ZM131.553 34.1835C130.388 32.2529 129.796 30.0511 129.796 27.55H127.796C127.796 30.3823 128.471 32.9471 129.84 35.2165L131.553 34.1835ZM129.796 27.55C129.796 25.0079 130.375 22.8059 131.505 20.9125L129.788 19.8875C128.451 22.1274 127.796 24.6921 127.796 27.55H129.796ZM131.503 20.9165C132.676 18.9704 134.261 17.4625 136.27 16.3805L135.322 14.6195C132.998 15.8708 131.149 17.6296 129.79 19.8835L131.503 20.9165ZM136.281 16.3748C138.284 15.2652 140.565 14.7 143.146 14.7V12.7C140.261 12.7 137.642 13.3348 135.312 14.6252L136.281 16.3748ZM143.146 14.7C145.631 14.7 147.832 15.2334 149.771 16.28L150.721 14.52C148.461 13.3 145.928 12.7 143.146 12.7V14.7ZM149.788 16.2888C151.751 17.3008 153.295 18.767 154.434 20.7064L156.159 19.6936C154.831 17.433 153.009 15.6992 150.705 14.5112L149.788 16.2888ZM154.438 20.7125C155.561 22.5952 156.146 24.8934 156.146 27.65H158.146C158.146 24.6066 157.498 21.9382 156.155 19.6875L154.438 20.7125ZM156.146 27.65C156.146 27.9148 156.131 28.236 156.1 28.617L158.093 28.783C158.128 28.364 158.146 27.9852 158.146 27.65H156.146ZM156.1 28.6095C156.067 28.9734 156.034 29.3204 156.001 29.6505L157.991 29.8495C158.025 29.5129 158.059 29.1599 158.092 28.7905L156.1 28.6095ZM156.996 28.75H135.146V30.75H156.996V28.75ZM136.146 29.75V25.2H134.146V29.75H136.146ZM135.146 26.2H152.896V24.2H135.146V26.2ZM152.486 24.2881L149.486 25.6381L150.307 27.4619L153.307 26.1119L152.486 24.2881ZM150.896 26.55C150.896 25.0135 150.585 23.6253 149.923 22.4192L148.169 23.3808C148.641 24.2414 148.896 25.2865 148.896 26.55H150.896ZM149.923 22.4192C149.27 21.2273 148.355 20.2906 147.189 19.63L146.203 21.37C147.037 21.8427 147.69 22.506 148.169 23.3808L149.923 22.4192ZM147.211 19.6425C146.034 18.9365 144.684 18.6 143.196 18.6V20.6C144.375 20.6 145.358 20.8635 146.182 21.3575L147.211 19.6425ZM143.196 18.6C141.708 18.6 140.347 18.9367 139.144 19.6352L140.148 21.3648C141.012 20.8633 142.018 20.6 143.196 20.6V18.6ZM139.153 19.63C137.979 20.2953 137.064 21.2551 136.413 22.4808L138.179 23.4192C138.662 22.5115 139.313 21.838 140.139 21.37L139.153 19.63ZM136.419 22.4692C135.756 23.6786 135.446 25.0847 135.446 26.65H137.446C137.446 25.3487 137.703 24.2881 138.173 23.4308L136.419 22.4692ZM135.446 26.65V27.85H137.446V26.65H135.446ZM135.446 27.85C135.446 29.4649 135.796 30.9369 136.523 32.2378L138.269 31.2622C137.73 30.2964 137.446 29.1684 137.446 27.85H135.446ZM136.541 32.2683C137.306 33.5296 138.361 34.5065 139.689 35.1893L140.604 33.4107C139.598 32.8935 138.82 32.1704 138.251 31.2317L136.541 32.2683ZM139.719 35.2043C141.077 35.8456 142.629 36.15 144.346 36.15V34.15C142.864 34.15 141.615 33.8877 140.573 33.3958L139.719 35.2043ZM144.346 36.15C145.878 36.15 147.261 35.9187 148.473 35.4265L147.72 33.5735C146.798 33.948 145.681 34.15 144.346 34.15V36.15ZM148.463 35.4304C149.691 34.9464 150.801 34.2225 151.79 33.2703L150.403 31.8297C149.591 32.6108 148.701 33.1869 147.73 33.5696L148.463 35.4304ZM150.361 33.2279L154.511 37.7279L155.981 36.3721L151.831 31.8721L150.361 33.2279ZM154.496 36.389C153.372 37.6645 151.953 38.6618 150.216 39.375L150.976 41.225C152.973 40.4048 154.654 39.2355 155.997 37.711L154.496 36.389ZM150.231 39.3692C148.502 40.0482 146.48 40.4 144.146 40.4V42.4C146.679 42.4 148.957 42.0185 150.962 41.2308L150.231 39.3692ZM162.339 41H161.339V42H162.339V41ZM162.339 14.1V13.1H161.339V14.1H162.339ZM169.789 14.1H170.789V13.1H169.789V14.1ZM169.789 21.7L168.887 22.1307L170.789 21.7H169.789ZM168.739 19.5L167.818 19.1119L167.643 19.5256L167.837 19.9307L168.739 19.5ZM172.589 15.2L173.069 16.0773L173.076 16.0738L173.082 16.0703L172.589 15.2ZM179.039 13.7H180.039V12.7H179.039V13.7ZM179.039 20.9L178.94 21.895L180.039 22.005V20.9H179.039ZM178.139 20.85L178.015 21.8423L178.077 21.85H178.139V20.85ZM172.089 22.65L172.768 23.3848L172.768 23.3841L172.089 22.65ZM170.139 41V42H171.139V41H170.139ZM163.339 41V14.1H161.339V41H163.339ZM162.339 15.1H169.789V13.1H162.339V15.1ZM168.789 14.1V21.7H170.789V14.1H168.789ZM170.692 21.2693L169.642 19.0693L167.837 19.9307L168.887 22.1307L170.692 21.2693ZM169.661 19.8881C170.375 18.191 171.506 16.9327 173.069 16.0773L172.109 14.3227C170.139 15.4006 168.703 17.009 167.818 19.1119L169.661 19.8881ZM173.082 16.0703C174.665 15.1739 176.636 14.7 179.039 14.7V12.7C176.376 12.7 174.047 13.2261 172.097 14.3297L173.082 16.0703ZM178.039 13.7V20.9H180.039V13.7H178.039ZM179.139 19.905C178.78 19.8691 178.446 19.85 178.139 19.85V21.85C178.366 21.85 178.632 21.8642 178.94 21.895L179.139 19.905ZM178.263 19.8577C177.951 19.8187 177.626 19.8 177.289 19.8V21.8C177.552 21.8 177.794 21.8146 178.015 21.8423L178.263 19.8577ZM177.289 19.8C174.951 19.8 172.96 20.4823 171.41 21.9159L172.768 23.3841C173.885 22.351 175.361 21.8 177.289 21.8V19.8ZM171.411 21.9152C169.828 23.3765 169.139 25.5818 169.139 28.3H171.139C171.139 25.8849 171.751 24.3235 172.768 23.3848L171.411 21.9152ZM169.139 28.3V41H171.139V28.3H169.139ZM170.139 40H162.339V42H170.139V40ZM188.732 39.6L188.269 40.4866L188.274 40.4893L188.732 39.6ZM183.382 34.7L182.526 35.2165L182.529 35.2226L183.382 34.7ZM183.332 20.4L182.476 19.8835L182.473 19.8875L183.332 20.4ZM188.482 15.5L188.956 16.3805L188.966 16.3748L188.482 15.5ZM202.932 15.4L202.457 16.28L202.465 16.2845L202.474 16.2888L202.932 15.4ZM207.982 20.2L207.12 20.7064L207.123 20.7125L207.982 20.2ZM209.782 28.7L210.778 28.7905L210.778 28.783L209.782 28.7ZM209.682 29.75V30.75H210.587L210.677 29.8495L209.682 29.75ZM187.832 29.75H186.832V30.75H187.832V29.75ZM187.832 25.2V24.2H186.832V25.2H187.832ZM205.582 25.2L205.992 26.1119L205.582 24.2V25.2ZM202.582 26.55H201.582V28.0966L202.992 27.4619L202.582 26.55ZM201.732 22.9L200.855 23.3808V23.3808L201.732 22.9ZM199.382 20.5L198.867 21.3575L198.878 21.3639L198.889 21.37L199.382 20.5ZM192.332 20.5L192.825 21.3701L192.834 21.3648L192.332 20.5ZM189.982 22.95L190.859 23.4309L190.865 23.4192L189.982 22.95ZM190.082 31.75L189.209 32.2378L189.217 32.2532L189.227 32.2683L190.082 31.75ZM192.832 34.3L192.375 35.1893L192.39 35.197L192.405 35.2043L192.832 34.3ZM200.782 34.5L200.415 33.5695L200.405 33.5735L200.782 34.5ZM203.782 32.55L204.517 31.8721L203.824 31.1209L203.088 31.8297L203.782 32.55ZM207.932 37.05L208.682 37.711L209.278 37.0347L208.667 36.3721L207.932 37.05ZM203.282 40.3L203.647 41.2308L203.655 41.2279L203.662 41.225L203.282 40.3ZM196.832 40.4C193.897 40.4 191.359 39.8266 189.189 38.7107L188.274 40.4893C190.771 41.7734 193.633 42.4 196.832 42.4V40.4ZM189.194 38.7134C187.043 37.5911 185.4 36.0788 184.234 34.1774L182.529 35.2226C183.897 37.4545 185.82 39.2089 188.269 40.4866L189.194 38.7134ZM184.238 34.1835C183.074 32.2529 182.482 30.0511 182.482 27.55H180.482C180.482 30.3823 181.157 32.9471 182.526 35.2165L184.238 34.1835ZM182.482 27.55C182.482 25.0079 183.061 22.8059 184.191 20.9125L182.473 19.8875C181.136 22.1274 180.482 24.6921 180.482 27.55H182.482ZM184.188 20.9165C185.362 18.9704 186.946 17.4625 188.956 16.3805L188.008 14.6195C185.684 15.8708 183.835 17.6296 182.476 19.8835L184.188 20.9165ZM188.966 16.3748C190.97 15.2652 193.25 14.7 195.832 14.7V12.7C192.947 12.7 190.327 13.3348 187.997 14.6252L188.966 16.3748ZM195.832 14.7C198.317 14.7 200.518 15.2334 202.457 16.28L203.407 14.52C201.146 13.3 198.613 12.7 195.832 12.7V14.7ZM202.474 16.2888C204.436 17.3008 205.981 18.767 207.12 20.7064L208.844 19.6936C207.516 17.433 205.694 15.6992 203.39 14.5112L202.474 16.2888ZM207.123 20.7125C208.247 22.5952 208.832 24.8934 208.832 27.65H210.832C210.832 24.6066 210.184 21.9382 208.841 19.6875L207.123 20.7125ZM208.832 27.65C208.832 27.9148 208.817 28.236 208.785 28.617L210.778 28.783C210.813 28.364 210.832 27.9852 210.832 27.65H208.832ZM208.786 28.6095C208.753 28.9734 208.72 29.3204 208.687 29.6505L210.677 29.8495C210.711 29.5129 210.744 29.1599 210.778 28.7905L208.786 28.6095ZM209.682 28.75H187.832V30.75H209.682V28.75ZM188.832 29.75V25.2H186.832V29.75H188.832ZM187.832 26.2H205.582V24.2H187.832V26.2ZM205.171 24.2881L202.171 25.6381L202.992 27.4619L205.992 26.1119L205.171 24.2881ZM203.582 26.55C203.582 25.0135 203.27 23.6253 202.609 22.4192L200.855 23.3808C201.327 24.2414 201.582 25.2865 201.582 26.55H203.582ZM202.609 22.4192C201.955 21.2273 201.041 20.2906 199.875 19.63L198.889 21.37C199.723 21.8427 200.375 22.506 200.855 23.3808L202.609 22.4192ZM199.896 19.6425C198.72 18.9365 197.37 18.6 195.882 18.6V20.6C197.06 20.6 198.044 20.8635 198.867 21.3575L199.896 19.6425ZM195.882 18.6C194.393 18.6 193.033 18.9367 191.83 19.6352L192.834 21.3648C193.698 20.8633 194.704 20.6 195.882 20.6V18.6ZM191.839 19.63C190.665 20.2953 189.75 21.2551 189.099 22.4808L190.865 23.4192C191.347 22.5115 191.999 21.838 192.825 21.37L191.839 19.63ZM189.105 22.4692C188.442 23.6786 188.132 25.0847 188.132 26.65H190.132C190.132 25.3487 190.389 24.2881 190.859 23.4308L189.105 22.4692ZM188.132 26.65V27.85H190.132V26.65H188.132ZM188.132 27.85C188.132 29.4649 188.482 30.9369 189.209 32.2378L190.955 31.2622C190.415 30.2964 190.132 29.1684 190.132 27.85H188.132ZM189.227 32.2683C189.991 33.5296 191.047 34.5065 192.375 35.1893L193.289 33.4107C192.283 32.8935 191.506 32.1704 190.937 31.2317L189.227 32.2683ZM192.405 35.2043C193.763 35.8456 195.314 36.15 197.032 36.15V34.15C195.55 34.15 194.301 33.8877 193.259 33.3958L192.405 35.2043ZM197.032 36.15C198.564 36.15 199.947 35.9187 201.158 35.4265L200.405 33.5735C199.484 33.948 198.367 34.15 197.032 34.15V36.15ZM201.148 35.4304C202.377 34.9464 203.487 34.2225 204.475 33.2703L203.088 31.8297C202.277 32.6108 201.387 33.1869 200.415 33.5696L201.148 35.4304ZM203.047 33.2279L207.197 37.7279L208.667 36.3721L204.517 31.8721L203.047 33.2279ZM207.181 36.389C206.058 37.6645 204.638 38.6618 202.902 39.375L203.662 41.225C205.659 40.4048 207.339 39.2355 208.682 37.711L207.181 36.389ZM202.916 39.3692C201.188 40.0482 199.166 40.4 196.832 40.4V42.4C199.364 42.4 201.642 42.0185 203.647 41.2308L202.916 39.3692ZM215.575 28.85L214.577 28.9177L214.64 29.85H215.575V28.85ZM214.025 6V5H212.955L213.027 6.06768L214.025 6ZM223.325 6L224.323 6.06768L224.395 5H223.325V6ZM221.775 28.85V29.85H222.709L222.773 28.9177L221.775 28.85ZM215.225 40.05L214.518 40.7571L215.225 40.05ZM215.225 33.7L215.904 34.4338L215.911 34.4271L215.918 34.4203L215.225 33.7ZM222.125 33.7L221.418 34.4071L221.431 34.4207L221.445 34.4338L222.125 33.7ZM222.125 40.05L221.418 39.3429L221.411 39.3496L221.404 39.3564L222.125 40.05ZM216.573 28.7823L215.023 5.93232L213.027 6.06768L214.577 28.9177L216.573 28.7823ZM214.025 7H223.325V5H214.025V7ZM222.327 5.93232L220.777 28.7823L222.773 28.9177L224.323 6.06768L222.327 5.93232ZM221.775 27.85H215.575V29.85H221.775V27.85ZM218.675 40.4C217.511 40.4 216.625 40.0357 215.932 39.3429L214.518 40.7571C215.625 41.8643 217.039 42.4 218.675 42.4V40.4ZM215.932 39.3429C215.213 38.6237 214.875 37.8088 214.875 36.85H212.875C212.875 38.3579 213.437 39.6763 214.518 40.7571L215.932 39.3429ZM214.875 36.85C214.875 35.8516 215.216 35.0709 215.904 34.4338L214.545 32.9662C213.434 33.9957 212.875 35.3151 212.875 36.85H214.875ZM215.918 34.4203C216.609 33.7553 217.5 33.4 218.675 33.4V31.4C217.05 31.4 215.641 31.9114 214.531 32.9797L215.918 34.4203ZM218.675 33.4C219.891 33.4 220.77 33.7597 221.418 34.4071L222.832 32.9929C221.746 31.907 220.325 31.4 218.675 31.4V33.4ZM221.445 34.4338C222.134 35.0709 222.475 35.8516 222.475 36.85H224.475C224.475 35.3151 223.916 33.9957 222.804 32.9662L221.445 34.4338ZM222.475 36.85C222.475 37.8088 222.137 38.6237 221.418 39.3429L222.832 40.7571C223.913 39.6763 224.475 38.3579 224.475 36.85H222.475ZM221.404 39.3564C220.755 40.0312 219.88 40.4 218.675 40.4V42.4C220.336 42.4 221.762 41.8688 222.845 40.7436L221.404 39.3564Z" fill="black" mask="url(#path-1-outside-1_2047_1225)"/>
</g>
<defs>
<filter id="filter0_d_2047_1225" x="0.272095" y="0.649902" width="228.203" height="49.75" filterUnits="userSpaceOnUse" color-interpolation-filters="sRGB">
<feFlood flood-opacity="0" result="BackgroundImageFix"/>
<feColorMatrix in="SourceAlpha" type="matrix" values="0 0 0 0 0 0 0 0 0 0 0 0 0 0 0 0 0 0 127 0" result="hardAlpha"/>
<feOffset dy="4"/>
<feGaussianBlur stdDeviation="2"/>
<feComposite in2="hardAlpha" operator="out"/>
<feColorMatrix type="matrix" values="0 0 0 0 0 0 0 0 0 0 0 0 0 0 0 0 0 0 0.25 0"/>
<feBlend mode="normal" in2="BackgroundImageFix" result="effect1_dropShadow_2047_1225"/>
<feBlend mode="normal" in="SourceGraphic" in2="effect1_dropShadow_2047_1225" result="shape"/>
</filter>
</defs>
</svg>
