<svg width="862" height="767" viewBox="0 0 862 767" fill="none" xmlns="http://www.w3.org/2000/svg">
<rect x="203" width="810" height="750" rx="90" fill="#3E3232"/>
<g filter="url(#filter0_d_2060_1166)">
<path d="M514 336L497.483 299.457H524.227C527.694 297.973 535.519 294.115 539.085 290.554C542.651 286.993 546.514 278.19 548 274.234V93.2228C547.009 89.7609 543.84 81.65 539.085 76.9022C534.331 72.1544 527.199 68.9891 524.227 68H48.7727C44.8106 69.4837 35.9949 73.3413 32.429 76.9022C28.863 80.4631 25.9905 88.2772 25 91.7391V275.717C25.9905 279.179 29.1602 287.29 33.9147 292.038C38.6693 296.786 48.7727 298.962 53.2301 299.457H467.767L514 336Z" fill="#F9F6F1"/>
</g>
<path d="M79.98 138L72.96 117H76.05L82.5 136.38H80.94L87.63 117H90.39L96.93 136.38H95.43L101.97 117H104.82L97.8 138H94.65L88.53 120.03H89.34L83.19 138H79.98ZM113.949 138.18C112.249 138.18 110.749 137.83 109.449 137.13C108.169 136.43 107.169 135.47 106.449 134.25C105.749 133.03 105.399 131.63 105.399 130.05C105.399 128.47 105.739 127.07 106.419 125.85C107.119 124.63 108.069 123.68 109.269 123C110.489 122.3 111.859 121.95 113.379 121.95C114.919 121.95 116.279 122.29 117.459 122.97C118.639 123.65 119.559 124.61 120.219 125.85C120.899 127.07 121.239 128.5 121.239 130.14C121.239 130.26 121.229 130.4 121.209 130.56C121.209 130.72 121.199 130.87 121.179 131.01H107.649V128.94H119.679L118.509 129.66C118.529 128.64 118.319 127.73 117.879 126.93C117.439 126.13 116.829 125.51 116.049 125.07C115.289 124.61 114.399 124.38 113.379 124.38C112.379 124.38 111.489 124.61 110.709 125.07C109.929 125.51 109.319 126.14 108.879 126.96C108.439 127.76 108.219 128.68 108.219 129.72V130.2C108.219 131.26 108.459 132.21 108.939 133.05C109.439 133.87 110.129 134.51 111.009 134.97C111.889 135.43 112.899 135.66 114.039 135.66C114.979 135.66 115.829 135.5 116.589 135.18C117.369 134.86 118.049 134.38 118.629 133.74L120.219 135.6C119.499 136.44 118.599 137.08 117.519 137.52C116.459 137.96 115.269 138.18 113.949 138.18ZM141.784 121.95C143.084 121.95 144.224 122.2 145.204 122.7C146.204 123.2 146.984 123.96 147.544 124.98C148.104 126 148.384 127.29 148.384 128.85V138H145.504V129.18C145.504 127.64 145.124 126.48 144.364 125.7C143.624 124.92 142.574 124.53 141.214 124.53C140.194 124.53 139.304 124.73 138.544 125.13C137.784 125.53 137.194 126.12 136.774 126.9C136.374 127.68 136.174 128.65 136.174 129.81V138H133.294V115.74H136.174V126.39L135.604 125.25C136.124 124.21 136.924 123.4 138.004 122.82C139.084 122.24 140.344 121.95 141.784 121.95ZM163.584 138V134.64L163.434 134.01V128.28C163.434 127.06 163.074 126.12 162.354 125.46C161.654 124.78 160.594 124.44 159.174 124.44C158.234 124.44 157.314 124.6 156.414 124.92C155.514 125.22 154.754 125.63 154.134 126.15L152.934 123.99C153.754 123.33 154.734 122.83 155.874 122.49C157.034 122.13 158.244 121.95 159.504 121.95C161.684 121.95 163.364 122.48 164.544 123.54C165.724 124.6 166.314 126.22 166.314 128.4V138H163.584ZM158.364 138.18C157.184 138.18 156.144 137.98 155.244 137.58C154.364 137.18 153.684 136.63 153.204 135.93C152.724 135.21 152.484 134.4 152.484 133.5C152.484 132.64 152.684 131.86 153.084 131.16C153.504 130.46 154.174 129.9 155.094 129.48C156.034 129.06 157.294 128.85 158.874 128.85H163.914V130.92H158.994C157.554 130.92 156.584 131.16 156.084 131.64C155.584 132.12 155.334 132.7 155.334 133.38C155.334 134.16 155.644 134.79 156.264 135.27C156.884 135.73 157.744 135.96 158.844 135.96C159.924 135.96 160.864 135.72 161.664 135.24C162.484 134.76 163.074 134.06 163.434 133.14L164.004 135.12C163.624 136.06 162.954 136.81 161.994 137.37C161.034 137.91 159.824 138.18 158.364 138.18ZM175.521 138L168.561 122.1H171.561L177.741 136.5H176.301L182.601 122.1H185.421L178.461 138H175.521ZM194.749 138.18C193.049 138.18 191.549 137.83 190.249 137.13C188.969 136.43 187.969 135.47 187.249 134.25C186.549 133.03 186.199 131.63 186.199 130.05C186.199 128.47 186.539 127.07 187.219 125.85C187.919 124.63 188.869 123.68 190.069 123C191.289 122.3 192.659 121.95 194.179 121.95C195.719 121.95 197.079 122.29 198.259 122.97C199.439 123.65 200.359 124.61 201.019 125.85C201.699 127.07 202.039 128.5 202.039 130.14C202.039 130.26 202.029 130.4 202.009 130.56C202.009 130.72 201.999 130.87 201.979 131.01H188.449V128.94H200.479L199.309 129.66C199.329 128.64 199.119 127.73 198.679 126.93C198.239 126.13 197.629 125.51 196.849 125.07C196.089 124.61 195.199 124.38 194.179 124.38C193.179 124.38 192.289 124.61 191.509 125.07C190.729 125.51 190.119 126.14 189.679 126.96C189.239 127.76 189.019 128.68 189.019 129.72V130.2C189.019 131.26 189.259 132.21 189.739 133.05C190.239 133.87 190.929 134.51 191.809 134.97C192.689 135.43 193.699 135.66 194.839 135.66C195.779 135.66 196.629 135.5 197.389 135.18C198.169 134.86 198.849 134.38 199.429 133.74L201.019 135.6C200.299 136.44 199.399 137.08 198.319 137.52C197.259 137.96 196.069 138.18 194.749 138.18ZM221.175 138.18C219.475 138.18 217.975 137.83 216.675 137.13C215.395 136.43 214.395 135.47 213.675 134.25C212.975 133.03 212.625 131.63 212.625 130.05C212.625 128.47 212.965 127.07 213.645 125.85C214.345 124.63 215.295 123.68 216.495 123C217.715 122.3 219.085 121.95 220.605 121.95C222.145 121.95 223.505 122.29 224.685 122.97C225.865 123.65 226.785 124.61 227.445 125.85C228.125 127.07 228.465 128.5 228.465 130.14C228.465 130.26 228.455 130.4 228.435 130.56C228.435 130.72 228.425 130.87 228.405 131.01H214.875V128.94H226.905L225.735 129.66C225.755 128.64 225.545 127.73 225.105 126.93C224.665 126.13 224.055 125.51 223.275 125.07C222.515 124.61 221.625 124.38 220.605 124.38C219.605 124.38 218.715 124.61 217.935 125.07C217.155 125.51 216.545 126.14 216.105 126.96C215.665 127.76 215.445 128.68 215.445 129.72V130.2C215.445 131.26 215.685 132.21 216.165 133.05C216.665 133.87 217.355 134.51 218.235 134.97C219.115 135.43 220.125 135.66 221.265 135.66C222.205 135.66 223.055 135.5 223.815 135.18C224.595 134.86 225.275 134.38 225.855 133.74L227.445 135.6C226.725 136.44 225.825 137.08 224.745 137.52C223.685 137.96 222.495 138.18 221.175 138.18ZM236.341 138L229.381 122.1H232.381L238.561 136.5H237.121L243.421 122.1H246.241L239.281 138H236.341ZM255.57 138.18C253.87 138.18 252.37 137.83 251.07 137.13C249.79 136.43 248.79 135.47 248.07 134.25C247.37 133.03 247.02 131.63 247.02 130.05C247.02 128.47 247.36 127.07 248.04 125.85C248.74 124.63 249.69 123.68 250.89 123C252.11 122.3 253.48 121.95 255 121.95C256.54 121.95 257.9 122.29 259.08 122.97C260.26 123.65 261.18 124.61 261.84 125.85C262.52 127.07 262.86 128.5 262.86 130.14C262.86 130.26 262.85 130.4 262.83 130.56C262.83 130.72 262.82 130.87 262.8 131.01H249.27V128.94H261.3L260.13 129.66C260.15 128.64 259.94 127.73 259.5 126.93C259.06 126.13 258.45 125.51 257.67 125.07C256.91 124.61 256.02 124.38 255 124.38C254 124.38 253.11 124.61 252.33 125.07C251.55 125.51 250.94 126.14 250.5 126.96C250.06 127.76 249.84 128.68 249.84 129.72V130.2C249.84 131.26 250.08 132.21 250.56 133.05C251.06 133.87 251.75 134.51 252.63 134.97C253.51 135.43 254.52 135.66 255.66 135.66C256.6 135.66 257.45 135.5 258.21 135.18C258.99 134.86 259.67 134.38 260.25 133.74L261.84 135.6C261.12 136.44 260.22 137.08 259.14 137.52C258.08 137.96 256.89 138.18 255.57 138.18ZM266.859 138V122.1H269.619V126.42L269.349 125.34C269.789 124.24 270.529 123.4 271.569 122.82C272.609 122.24 273.889 121.95 275.409 121.95V124.74C275.289 124.72 275.169 124.71 275.049 124.71C274.949 124.71 274.849 124.71 274.749 124.71C273.209 124.71 271.989 125.17 271.089 126.09C270.189 127.01 269.739 128.34 269.739 130.08V138H266.859ZM280.293 144C279.533 144 278.793 143.87 278.073 143.61C277.353 143.37 276.733 143.01 276.213 142.53L277.443 140.37C277.843 140.75 278.283 141.04 278.763 141.24C279.243 141.44 279.753 141.54 280.293 141.54C280.993 141.54 281.573 141.36 282.033 141C282.493 140.64 282.923 140 283.323 139.08L284.313 136.89L284.613 136.53L290.853 122.1H293.673L285.963 139.59C285.503 140.71 284.983 141.59 284.403 142.23C283.843 142.87 283.223 143.32 282.543 143.58C281.863 143.86 281.113 144 280.293 144ZM284.073 138.51L276.813 122.1H279.813L285.993 136.26L284.073 138.51ZM302.26 138.18C300.66 138.18 299.42 137.75 298.54 136.89C297.66 136.03 297.22 134.8 297.22 133.2V118.62H300.1V133.08C300.1 133.94 300.31 134.6 300.73 135.06C301.17 135.52 301.79 135.75 302.59 135.75C303.49 135.75 304.24 135.5 304.84 135L305.74 137.07C305.3 137.45 304.77 137.73 304.15 137.91C303.55 138.09 302.92 138.18 302.26 138.18ZM294.52 124.47V122.1H304.66V124.47H294.52ZM317.712 121.95C319.012 121.95 320.152 122.2 321.132 122.7C322.132 123.2 322.912 123.96 323.472 124.98C324.032 126 324.312 127.29 324.312 128.85V138H321.432V129.18C321.432 127.64 321.052 126.48 320.292 125.7C319.552 124.92 318.502 124.53 317.142 124.53C316.122 124.53 315.232 124.73 314.472 125.13C313.712 125.53 313.122 126.12 312.702 126.9C312.302 127.68 312.102 128.65 312.102 129.81V138H309.222V115.74H312.102V126.39L311.532 125.25C312.052 124.21 312.852 123.4 313.932 122.82C315.012 122.24 316.272 121.95 317.712 121.95ZM329.642 138V122.1H332.522V138H329.642ZM331.082 119.04C330.522 119.04 330.052 118.86 329.672 118.5C329.312 118.14 329.132 117.7 329.132 117.18C329.132 116.64 329.312 116.19 329.672 115.83C330.052 115.47 330.522 115.29 331.082 115.29C331.642 115.29 332.102 115.47 332.462 115.83C332.842 116.17 333.032 116.6 333.032 117.12C333.032 117.66 332.852 118.12 332.492 118.5C332.132 118.86 331.662 119.04 331.082 119.04ZM346.511 121.95C347.811 121.95 348.951 122.2 349.931 122.7C350.931 123.2 351.711 123.96 352.271 124.98C352.831 126 353.111 127.29 353.111 128.85V138H350.231V129.18C350.231 127.64 349.851 126.48 349.091 125.7C348.351 124.92 347.301 124.53 345.941 124.53C344.921 124.53 344.031 124.73 343.271 125.13C342.511 125.53 341.921 126.12 341.501 126.9C341.101 127.68 340.901 128.65 340.901 129.81V138H338.021V122.1H340.781V126.39L340.331 125.25C340.851 124.21 341.651 123.4 342.731 122.82C343.811 122.24 345.071 121.95 346.511 121.95ZM365.401 144C363.941 144 362.521 143.79 361.141 143.37C359.781 142.97 358.671 142.39 357.811 141.63L359.191 139.41C359.931 140.05 360.841 140.55 361.921 140.91C363.001 141.29 364.131 141.48 365.311 141.48C367.191 141.48 368.571 141.04 369.451 140.16C370.331 139.28 370.771 137.94 370.771 136.14V132.78L371.071 129.63L370.921 126.45V122.1H373.651V135.84C373.651 138.64 372.951 140.7 371.551 142.02C370.151 143.34 368.101 144 365.401 144ZM365.041 137.34C363.501 137.34 362.121 137.02 360.901 136.38C359.701 135.72 358.741 134.81 358.021 133.65C357.321 132.49 356.971 131.15 356.971 129.63C356.971 128.09 357.321 126.75 358.021 125.61C358.741 124.45 359.701 123.55 360.901 122.91C362.121 122.27 363.501 121.95 365.041 121.95C366.401 121.95 367.641 122.23 368.761 122.79C369.881 123.33 370.771 124.17 371.431 125.31C372.111 126.45 372.451 127.89 372.451 129.63C372.451 131.35 372.111 132.78 371.431 133.92C370.771 135.06 369.881 135.92 368.761 136.5C367.641 137.06 366.401 137.34 365.041 137.34ZM365.371 134.82C366.431 134.82 367.371 134.6 368.191 134.16C369.011 133.72 369.651 133.11 370.111 132.33C370.591 131.55 370.831 130.65 370.831 129.63C370.831 128.61 370.591 127.71 370.111 126.93C369.651 126.15 369.011 125.55 368.191 125.13C367.371 124.69 366.431 124.47 365.371 124.47C364.311 124.47 363.361 124.69 362.521 125.13C361.701 125.55 361.051 126.15 360.571 126.93C360.111 127.71 359.881 128.61 359.881 129.63C359.881 130.65 360.111 131.55 360.571 132.33C361.051 133.11 361.701 133.72 362.521 134.16C363.361 134.6 364.311 134.82 365.371 134.82ZM387.63 138V120.69C387.63 119.13 388.08 117.89 388.98 116.97C389.9 116.03 391.2 115.56 392.88 115.56C393.5 115.56 394.09 115.64 394.65 115.8C395.23 115.94 395.72 116.17 396.12 116.49L395.25 118.68C394.95 118.44 394.61 118.26 394.23 118.14C393.85 118 393.45 117.93 393.03 117.93C392.19 117.93 391.55 118.17 391.11 118.65C390.67 119.11 390.45 119.8 390.45 120.72V122.85L390.51 124.17V138H387.63ZM384.93 124.47V122.1H395.07V124.47H384.93ZM397.787 138V122.1H400.547V126.42L400.277 125.34C400.717 124.24 401.457 123.4 402.497 122.82C403.537 122.24 404.817 121.95 406.337 121.95V124.74C406.217 124.72 406.097 124.71 405.977 124.71C405.877 124.71 405.777 124.71 405.677 124.71C404.137 124.71 402.917 125.17 402.017 126.09C401.117 127.01 400.667 128.34 400.667 130.08V138H397.787ZM416.55 138.18C414.95 138.18 413.53 137.83 412.29 137.13C411.05 136.43 410.07 135.47 409.35 134.25C408.63 133.01 408.27 131.61 408.27 130.05C408.27 128.47 408.63 127.07 409.35 125.85C410.07 124.63 411.05 123.68 412.29 123C413.53 122.3 414.95 121.95 416.55 121.95C418.13 121.95 419.54 122.3 420.78 123C422.04 123.68 423.02 124.63 423.72 125.85C424.44 127.05 424.8 128.45 424.8 130.05C424.8 131.63 424.44 133.03 423.72 134.25C423.02 135.47 422.04 136.43 420.78 137.13C419.54 137.83 418.13 138.18 416.55 138.18ZM416.55 135.66C417.57 135.66 418.48 135.43 419.28 134.97C420.1 134.51 420.74 133.86 421.2 133.02C421.66 132.16 421.89 131.17 421.89 130.05C421.89 128.91 421.66 127.93 421.2 127.11C420.74 126.27 420.1 125.62 419.28 125.16C418.48 124.7 417.57 124.47 416.55 124.47C415.53 124.47 414.62 124.7 413.82 125.16C413.02 125.62 412.38 126.27 411.9 127.11C411.42 127.93 411.18 128.91 411.18 130.05C411.18 131.17 411.42 132.16 411.9 133.02C412.38 133.86 413.02 134.51 413.82 134.97C414.62 135.43 415.53 135.66 416.55 135.66ZM448.673 121.95C449.953 121.95 451.083 122.2 452.063 122.7C453.043 123.2 453.803 123.96 454.343 124.98C454.903 126 455.183 127.29 455.183 128.85V138H452.303V129.18C452.303 127.64 451.943 126.48 451.223 125.7C450.503 124.92 449.493 124.53 448.193 124.53C447.233 124.53 446.393 124.73 445.673 125.13C444.953 125.53 444.393 126.12 443.993 126.9C443.613 127.68 443.423 128.65 443.423 129.81V138H440.543V129.18C440.543 127.64 440.183 126.48 439.463 125.7C438.763 124.92 437.753 124.53 436.433 124.53C435.493 124.53 434.663 124.73 433.943 125.13C433.223 125.53 432.663 126.12 432.263 126.9C431.863 127.68 431.663 128.65 431.663 129.81V138H428.783V122.1H431.543V126.33L431.093 125.25C431.593 124.21 432.363 123.4 433.403 122.82C434.443 122.24 435.653 121.95 437.033 121.95C438.553 121.95 439.863 122.33 440.963 123.09C442.063 123.83 442.783 124.96 443.123 126.48L441.953 126C442.433 124.78 443.273 123.8 444.473 123.06C445.673 122.32 447.073 121.95 448.673 121.95ZM94.62 158.95C95.9 158.95 97.03 159.2 98.01 159.7C98.99 160.2 99.75 160.96 100.29 161.98C100.85 163 101.13 164.29 101.13 165.85V175H98.25V166.18C98.25 164.64 97.89 163.48 97.17 162.7C96.45 161.92 95.44 161.53 94.14 161.53C93.18 161.53 92.34 161.73 91.62 162.13C90.9 162.53 90.34 163.12 89.94 163.9C89.56 164.68 89.37 165.65 89.37 166.81V175H86.49V166.18C86.49 164.64 86.13 163.48 85.41 162.7C84.71 161.92 83.7 161.53 82.38 161.53C81.44 161.53 80.61 161.73 79.89 162.13C79.17 162.53 78.61 163.12 78.21 163.9C77.81 164.68 77.61 165.65 77.61 166.81V175H74.73V159.1H77.49V163.33L77.04 162.25C77.54 161.21 78.31 160.4 79.35 159.82C80.39 159.24 81.6 158.95 82.98 158.95C84.5 158.95 85.81 159.33 86.91 160.09C88.01 160.83 88.73 161.96 89.07 163.48L87.9 163C88.38 161.78 89.22 160.8 90.42 160.06C91.62 159.32 93.02 158.95 94.62 158.95ZM113.509 175.18C111.809 175.18 110.309 174.83 109.009 174.13C107.729 173.43 106.729 172.47 106.009 171.25C105.309 170.03 104.959 168.63 104.959 167.05C104.959 165.47 105.299 164.07 105.979 162.85C106.679 161.63 107.629 160.68 108.829 160C110.049 159.3 111.419 158.95 112.939 158.95C114.479 158.95 115.839 159.29 117.019 159.97C118.199 160.65 119.119 161.61 119.779 162.85C120.459 164.07 120.799 165.5 120.799 167.14C120.799 167.26 120.789 167.4 120.769 167.56C120.769 167.72 120.759 167.87 120.739 168.01H107.209V165.94H119.239L118.069 166.66C118.089 165.64 117.879 164.73 117.439 163.93C116.999 163.13 116.389 162.51 115.609 162.07C114.849 161.61 113.959 161.38 112.939 161.38C111.939 161.38 111.049 161.61 110.269 162.07C109.489 162.51 108.879 163.14 108.439 163.96C107.999 164.76 107.779 165.68 107.779 166.72V167.2C107.779 168.26 108.019 169.21 108.499 170.05C108.999 170.87 109.689 171.51 110.569 171.97C111.449 172.43 112.459 172.66 113.599 172.66C114.539 172.66 115.389 172.5 116.149 172.18C116.929 171.86 117.609 171.38 118.189 170.74L119.779 172.6C119.059 173.44 118.159 174.08 117.079 174.52C116.019 174.96 114.829 175.18 113.509 175.18ZM144.688 158.95C145.968 158.95 147.098 159.2 148.078 159.7C149.058 160.2 149.818 160.96 150.358 161.98C150.918 163 151.198 164.29 151.198 165.85V175H148.318V166.18C148.318 164.64 147.958 163.48 147.238 162.7C146.518 161.92 145.508 161.53 144.208 161.53C143.248 161.53 142.408 161.73 141.688 162.13C140.968 162.53 140.408 163.12 140.008 163.9C139.628 164.68 139.438 165.65 139.438 166.81V175H136.558V166.18C136.558 164.64 136.198 163.48 135.478 162.7C134.778 161.92 133.768 161.53 132.448 161.53C131.508 161.53 130.678 161.73 129.958 162.13C129.238 162.53 128.678 163.12 128.278 163.9C127.878 164.68 127.678 165.65 127.678 166.81V175H124.798V159.1H127.558V163.33L127.108 162.25C127.608 161.21 128.378 160.4 129.418 159.82C130.458 159.24 131.668 158.95 133.048 158.95C134.568 158.95 135.878 159.33 136.978 160.09C138.078 160.83 138.798 161.96 139.138 163.48L137.968 163C138.448 161.78 139.288 160.8 140.488 160.06C141.688 159.32 143.088 158.95 144.688 158.95ZM163.308 175.18C161.708 175.18 160.288 174.83 159.048 174.13C157.808 173.43 156.828 172.47 156.108 171.25C155.388 170.01 155.028 168.61 155.028 167.05C155.028 165.47 155.388 164.07 156.108 162.85C156.828 161.63 157.808 160.68 159.048 160C160.288 159.3 161.708 158.95 163.308 158.95C164.888 158.95 166.298 159.3 167.538 160C168.798 160.68 169.778 161.63 170.478 162.85C171.198 164.05 171.558 165.45 171.558 167.05C171.558 168.63 171.198 170.03 170.478 171.25C169.778 172.47 168.798 173.43 167.538 174.13C166.298 174.83 164.888 175.18 163.308 175.18ZM163.308 172.66C164.328 172.66 165.238 172.43 166.038 171.97C166.858 171.51 167.498 170.86 167.958 170.02C168.418 169.16 168.648 168.17 168.648 167.05C168.648 165.91 168.418 164.93 167.958 164.11C167.498 163.27 166.858 162.62 166.038 162.16C165.238 161.7 164.328 161.47 163.308 161.47C162.288 161.47 161.378 161.7 160.578 162.16C159.778 162.62 159.138 163.27 158.658 164.11C158.178 164.93 157.938 165.91 157.938 167.05C157.938 168.17 158.178 169.16 158.658 170.02C159.138 170.86 159.778 171.51 160.578 171.97C161.378 172.43 162.288 172.66 163.308 172.66ZM175.541 175V159.1H178.301V163.42L178.031 162.34C178.471 161.24 179.211 160.4 180.251 159.82C181.291 159.24 182.571 158.95 184.091 158.95V161.74C183.971 161.72 183.851 161.71 183.731 161.71C183.631 161.71 183.531 161.71 183.431 161.71C181.891 161.71 180.671 162.17 179.771 163.09C178.871 164.01 178.421 165.34 178.421 167.08V175H175.541ZM188.975 181C188.215 181 187.475 180.87 186.755 180.61C186.035 180.37 185.415 180.01 184.895 179.53L186.125 177.37C186.525 177.75 186.965 178.04 187.445 178.24C187.925 178.44 188.435 178.54 188.975 178.54C189.675 178.54 190.255 178.36 190.715 178C191.175 177.64 191.605 177 192.005 176.08L192.995 173.89L193.295 173.53L199.535 159.1H202.355L194.645 176.59C194.185 177.71 193.665 178.59 193.085 179.23C192.525 179.87 191.905 180.32 191.225 180.58C190.545 180.86 189.795 181 188.975 181ZM192.755 175.51L185.495 159.1H188.495L194.675 173.26L192.755 175.51ZM220.059 181C218.599 181 217.179 180.79 215.799 180.37C214.439 179.97 213.329 179.39 212.469 178.63L213.849 176.41C214.589 177.05 215.499 177.55 216.579 177.91C217.659 178.29 218.789 178.48 219.969 178.48C221.849 178.48 223.229 178.04 224.109 177.16C224.989 176.28 225.429 174.94 225.429 173.14V169.78L225.729 166.63L225.579 163.45V159.1H228.309V172.84C228.309 175.64 227.609 177.7 226.209 179.02C224.809 180.34 222.759 181 220.059 181ZM219.699 174.34C218.159 174.34 216.779 174.02 215.559 173.38C214.359 172.72 213.399 171.81 212.679 170.65C211.979 169.49 211.629 168.15 211.629 166.63C211.629 165.09 211.979 163.75 212.679 162.61C213.399 161.45 214.359 160.55 215.559 159.91C216.779 159.27 218.159 158.95 219.699 158.95C221.059 158.95 222.299 159.23 223.419 159.79C224.539 160.33 225.429 161.17 226.089 162.31C226.769 163.45 227.109 164.89 227.109 166.63C227.109 168.35 226.769 169.78 226.089 170.92C225.429 172.06 224.539 172.92 223.419 173.5C222.299 174.06 221.059 174.34 219.699 174.34ZM220.029 171.82C221.089 171.82 222.029 171.6 222.849 171.16C223.669 170.72 224.309 170.11 224.769 169.33C225.249 168.55 225.489 167.65 225.489 166.63C225.489 165.61 225.249 164.71 224.769 163.93C224.309 163.15 223.669 162.55 222.849 162.13C222.029 161.69 221.089 161.47 220.029 161.47C218.969 161.47 218.019 161.69 217.179 162.13C216.359 162.55 215.709 163.15 215.229 163.93C214.769 164.71 214.539 165.61 214.539 166.63C214.539 167.65 214.769 168.55 215.229 169.33C215.709 170.11 216.359 170.72 217.179 171.16C218.019 171.6 218.969 171.82 220.029 171.82ZM243.682 175V171.64L243.532 171.01V165.28C243.532 164.06 243.172 163.12 242.452 162.46C241.752 161.78 240.692 161.44 239.272 161.44C238.332 161.44 237.412 161.6 236.512 161.92C235.612 162.22 234.852 162.63 234.232 163.15L233.032 160.99C233.852 160.33 234.832 159.83 235.972 159.49C237.132 159.13 238.342 158.95 239.602 158.95C241.782 158.95 243.462 159.48 244.642 160.54C245.822 161.6 246.412 163.22 246.412 165.4V175H243.682ZM238.462 175.18C237.282 175.18 236.242 174.98 235.342 174.58C234.462 174.18 233.782 173.63 233.302 172.93C232.822 172.21 232.582 171.4 232.582 170.5C232.582 169.64 232.782 168.86 233.182 168.16C233.602 167.46 234.272 166.9 235.192 166.48C236.132 166.06 237.392 165.85 238.972 165.85H244.012V167.92H239.092C237.652 167.92 236.682 168.16 236.182 168.64C235.682 169.12 235.432 169.7 235.432 170.38C235.432 171.16 235.742 171.79 236.362 172.27C236.982 172.73 237.842 172.96 238.942 172.96C240.022 172.96 240.962 172.72 241.762 172.24C242.582 171.76 243.172 171.06 243.532 170.14L244.102 172.12C243.722 173.06 243.052 173.81 242.092 174.37C241.132 174.91 239.922 175.18 238.462 175.18ZM271.632 158.95C272.912 158.95 274.042 159.2 275.022 159.7C276.002 160.2 276.762 160.96 277.302 161.98C277.862 163 278.142 164.29 278.142 165.85V175H275.262V166.18C275.262 164.64 274.902 163.48 274.182 162.7C273.462 161.92 272.452 161.53 271.152 161.53C270.192 161.53 269.352 161.73 268.632 162.13C267.912 162.53 267.352 163.12 266.952 163.9C266.572 164.68 266.382 165.65 266.382 166.81V175H263.502V166.18C263.502 164.64 263.142 163.48 262.422 162.7C261.722 161.92 260.712 161.53 259.392 161.53C258.452 161.53 257.622 161.73 256.902 162.13C256.182 162.53 255.622 163.12 255.222 163.9C254.822 164.68 254.622 165.65 254.622 166.81V175H251.742V159.1H254.502V163.33L254.052 162.25C254.552 161.21 255.322 160.4 256.362 159.82C257.402 159.24 258.612 158.95 259.992 158.95C261.512 158.95 262.822 159.33 263.922 160.09C265.022 160.83 265.742 161.96 266.082 163.48L264.912 163C265.392 161.78 266.232 160.8 267.432 160.06C268.632 159.32 270.032 158.95 271.632 158.95ZM290.521 175.18C288.821 175.18 287.321 174.83 286.021 174.13C284.741 173.43 283.741 172.47 283.021 171.25C282.321 170.03 281.971 168.63 281.971 167.05C281.971 165.47 282.311 164.07 282.991 162.85C283.691 161.63 284.641 160.68 285.841 160C287.061 159.3 288.431 158.95 289.951 158.95C291.491 158.95 292.851 159.29 294.031 159.97C295.211 160.65 296.131 161.61 296.791 162.85C297.471 164.07 297.811 165.5 297.811 167.14C297.811 167.26 297.801 167.4 297.781 167.56C297.781 167.72 297.771 167.87 297.751 168.01H284.221V165.94H296.251L295.081 166.66C295.101 165.64 294.891 164.73 294.451 163.93C294.011 163.13 293.401 162.51 292.621 162.07C291.861 161.61 290.971 161.38 289.951 161.38C288.951 161.38 288.061 161.61 287.281 162.07C286.501 162.51 285.891 163.14 285.451 163.96C285.011 164.76 284.791 165.68 284.791 166.72V167.2C284.791 168.26 285.031 169.21 285.511 170.05C286.011 170.87 286.701 171.51 287.581 171.97C288.461 172.43 289.471 172.66 290.611 172.66C291.551 172.66 292.401 172.5 293.161 172.18C293.941 171.86 294.621 171.38 295.201 170.74L296.791 172.6C296.071 173.44 295.171 174.08 294.091 174.52C293.031 174.96 291.841 175.18 290.521 175.18ZM306.37 175.18C305.05 175.18 303.79 175 302.59 174.64C301.41 174.28 300.48 173.84 299.8 173.32L301 171.04C301.68 171.5 302.52 171.89 303.52 172.21C304.52 172.53 305.54 172.69 306.58 172.69C307.92 172.69 308.88 172.5 309.46 172.12C310.06 171.74 310.36 171.21 310.36 170.53C310.36 170.03 310.18 169.64 309.82 169.36C309.46 169.08 308.98 168.87 308.38 168.73C307.8 168.59 307.15 168.47 306.43 168.37C305.71 168.25 304.99 168.11 304.27 167.95C303.55 167.77 302.89 167.53 302.29 167.23C301.69 166.91 301.21 166.48 300.85 165.94C300.49 165.38 300.31 164.64 300.31 163.72C300.31 162.76 300.58 161.92 301.12 161.2C301.66 160.48 302.42 159.93 303.4 159.55C304.4 159.15 305.58 158.95 306.94 158.95C307.98 158.95 309.03 159.08 310.09 159.34C311.17 159.58 312.05 159.93 312.73 160.39L311.5 162.67C310.78 162.19 310.03 161.86 309.25 161.68C308.47 161.5 307.69 161.41 306.91 161.41C305.65 161.41 304.71 161.62 304.09 162.04C303.47 162.44 303.16 162.96 303.16 163.6C303.16 164.14 303.34 164.56 303.7 164.86C304.08 165.14 304.56 165.36 305.14 165.52C305.74 165.68 306.4 165.82 307.12 165.94C307.84 166.04 308.56 166.18 309.28 166.36C310 166.52 310.65 166.75 311.23 167.05C311.83 167.35 312.31 167.77 312.67 168.31C313.05 168.85 313.24 169.57 313.24 170.47C313.24 171.43 312.96 172.26 312.4 172.96C311.84 173.66 311.05 174.21 310.03 174.61C309.01 174.99 307.79 175.18 306.37 175.18ZM330.356 175.18C328.756 175.18 327.516 174.75 326.636 173.89C325.756 173.03 325.316 171.8 325.316 170.2V155.62H328.196V170.08C328.196 170.94 328.406 171.6 328.826 172.06C329.266 172.52 329.886 172.75 330.686 172.75C331.586 172.75 332.336 172.5 332.936 172L333.836 174.07C333.396 174.45 332.866 174.73 332.246 174.91C331.646 175.09 331.016 175.18 330.356 175.18ZM322.616 161.47V159.1H332.756V161.47H322.616ZM343.601 175.18C342.001 175.18 340.581 174.83 339.341 174.13C338.101 173.43 337.121 172.47 336.401 171.25C335.681 170.01 335.321 168.61 335.321 167.05C335.321 165.47 335.681 164.07 336.401 162.85C337.121 161.63 338.101 160.68 339.341 160C340.581 159.3 342.001 158.95 343.601 158.95C345.181 158.95 346.591 159.3 347.831 160C349.091 160.68 350.071 161.63 350.771 162.85C351.491 164.05 351.851 165.45 351.851 167.05C351.851 168.63 351.491 170.03 350.771 171.25C350.071 172.47 349.091 173.43 347.831 174.13C346.591 174.83 345.181 175.18 343.601 175.18ZM343.601 172.66C344.621 172.66 345.531 172.43 346.331 171.97C347.151 171.51 347.791 170.86 348.251 170.02C348.711 169.16 348.941 168.17 348.941 167.05C348.941 165.91 348.711 164.93 348.251 164.11C347.791 163.27 347.151 162.62 346.331 162.16C345.531 161.7 344.621 161.47 343.601 161.47C342.581 161.47 341.671 161.7 340.871 162.16C340.071 162.62 339.431 163.27 338.951 164.11C338.471 164.93 338.231 165.91 338.231 167.05C338.231 168.17 338.471 169.16 338.951 170.02C339.431 170.86 340.071 171.51 340.871 171.97C341.671 172.43 342.581 172.66 343.601 172.66ZM372.38 158.95C373.68 158.95 374.82 159.2 375.8 159.7C376.8 160.2 377.58 160.96 378.14 161.98C378.7 163 378.98 164.29 378.98 165.85V175H376.1V166.18C376.1 164.64 375.72 163.48 374.96 162.7C374.22 161.92 373.17 161.53 371.81 161.53C370.79 161.53 369.9 161.73 369.14 162.13C368.38 162.53 367.79 163.12 367.37 163.9C366.97 164.68 366.77 165.65 366.77 166.81V175H363.89V159.1H366.65V163.39L366.2 162.25C366.72 161.21 367.52 160.4 368.6 159.82C369.68 159.24 370.94 158.95 372.38 158.95ZM391.39 175.18C389.69 175.18 388.19 174.83 386.89 174.13C385.61 173.43 384.61 172.47 383.89 171.25C383.19 170.03 382.84 168.63 382.84 167.05C382.84 165.47 383.18 164.07 383.86 162.85C384.56 161.63 385.51 160.68 386.71 160C387.93 159.3 389.3 158.95 390.82 158.95C392.36 158.95 393.72 159.29 394.9 159.97C396.08 160.65 397 161.61 397.66 162.85C398.34 164.07 398.68 165.5 398.68 167.14C398.68 167.26 398.67 167.4 398.65 167.56C398.65 167.72 398.64 167.87 398.62 168.01H385.09V165.94H397.12L395.95 166.66C395.97 165.64 395.76 164.73 395.32 163.93C394.88 163.13 394.27 162.51 393.49 162.07C392.73 161.61 391.84 161.38 390.82 161.38C389.82 161.38 388.93 161.61 388.15 162.07C387.37 162.51 386.76 163.14 386.32 163.96C385.88 164.76 385.66 165.68 385.66 166.72V167.2C385.66 168.26 385.9 169.21 386.38 170.05C386.88 170.87 387.57 171.51 388.45 171.97C389.33 172.43 390.34 172.66 391.48 172.66C392.42 172.66 393.27 172.5 394.03 172.18C394.81 171.86 395.49 171.38 396.07 170.74L397.66 172.6C396.94 173.44 396.04 174.08 394.96 174.52C393.9 174.96 392.71 175.18 391.39 175.18ZM409.609 175.18C407.989 175.18 406.539 174.83 405.259 174.13C403.999 173.43 403.009 172.47 402.289 171.25C401.569 170.03 401.209 168.63 401.209 167.05C401.209 165.47 401.569 164.07 402.289 162.85C403.009 161.63 403.999 160.68 405.259 160C406.539 159.3 407.989 158.95 409.609 158.95C411.049 158.95 412.329 159.24 413.449 159.82C414.589 160.38 415.469 161.22 416.089 162.34L413.899 163.75C413.379 162.97 412.739 162.4 411.979 162.04C411.239 161.66 410.439 161.47 409.579 161.47C408.539 161.47 407.609 161.7 406.789 162.16C405.969 162.62 405.319 163.27 404.839 164.11C404.359 164.93 404.119 165.91 404.119 167.05C404.119 168.19 404.359 169.18 404.839 170.02C405.319 170.86 405.969 171.51 406.789 171.97C407.609 172.43 408.539 172.66 409.579 172.66C410.439 172.66 411.239 172.48 411.979 172.12C412.739 171.74 413.379 171.16 413.899 170.38L416.089 171.76C415.469 172.86 414.589 173.71 413.449 174.31C412.329 174.89 411.049 175.18 409.609 175.18ZM421.953 171.16L422.013 167.47L431.163 159.1H434.643L427.623 166L426.063 167.32L421.953 171.16ZM419.613 175V152.74H422.493V175H419.613ZM431.763 175L425.523 167.26L427.383 164.95L435.303 175H431.763ZM81.81 212.18C80.11 212.18 78.61 211.83 77.31 211.13C76.03 210.43 75.03 209.47 74.31 208.25C73.61 207.03 73.26 205.63 73.26 204.05C73.26 202.47 73.6 201.07 74.28 199.85C74.98 198.63 75.93 197.68 77.13 197C78.35 196.3 79.72 195.95 81.24 195.95C82.78 195.95 84.14 196.29 85.32 196.97C86.5 197.65 87.42 198.61 88.08 199.85C88.76 201.07 89.1 202.5 89.1 204.14C89.1 204.26 89.09 204.4 89.07 204.56C89.07 204.72 89.06 204.87 89.04 205.01H75.51V202.94H87.54L86.37 203.66C86.39 202.64 86.18 201.73 85.74 200.93C85.3 200.13 84.69 199.51 83.91 199.07C83.15 198.61 82.26 198.38 81.24 198.38C80.24 198.38 79.35 198.61 78.57 199.07C77.79 199.51 77.18 200.14 76.74 200.96C76.3 201.76 76.08 202.68 76.08 203.72V204.2C76.08 205.26 76.32 206.21 76.8 207.05C77.3 207.87 77.99 208.51 78.87 208.97C79.75 209.43 80.76 209.66 81.9 209.66C82.84 209.66 83.69 209.5 84.45 209.18C85.23 208.86 85.91 208.38 86.49 207.74L88.08 209.6C87.36 210.44 86.46 211.08 85.38 211.52C84.32 211.96 83.13 212.18 81.81 212.18ZM90.3497 212L97.1897 203.12L97.1597 204.59L90.6497 196.1H93.8597L98.8397 202.64H97.6097L102.59 196.1H105.74L99.1397 204.65L99.1697 203.12L106.07 212H102.8L97.5497 205.04L98.7197 205.22L93.5597 212H90.3497ZM115.765 212.18C114.065 212.18 112.565 211.83 111.265 211.13C109.985 210.43 108.985 209.47 108.265 208.25C107.565 207.03 107.215 205.63 107.215 204.05C107.215 202.47 107.555 201.07 108.235 199.85C108.935 198.63 109.885 197.68 111.085 197C112.305 196.3 113.675 195.95 115.195 195.95C116.735 195.95 118.095 196.29 119.275 196.97C120.455 197.65 121.375 198.61 122.035 199.85C122.715 201.07 123.055 202.5 123.055 204.14C123.055 204.26 123.045 204.4 123.025 204.56C123.025 204.72 123.015 204.87 122.995 205.01H109.465V202.94H121.495L120.325 203.66C120.345 202.64 120.135 201.73 119.695 200.93C119.255 200.13 118.645 199.51 117.865 199.07C117.105 198.61 116.215 198.38 115.195 198.38C114.195 198.38 113.305 198.61 112.525 199.07C111.745 199.51 111.135 200.14 110.695 200.96C110.255 201.76 110.035 202.68 110.035 203.72V204.2C110.035 205.26 110.275 206.21 110.755 207.05C111.255 207.87 111.945 208.51 112.825 208.97C113.705 209.43 114.715 209.66 115.855 209.66C116.795 209.66 117.645 209.5 118.405 209.18C119.185 208.86 119.865 208.38 120.445 207.74L122.035 209.6C121.315 210.44 120.415 211.08 119.335 211.52C118.275 211.96 117.085 212.18 115.765 212.18ZM127.054 212V196.1H129.814V200.42L129.544 199.34C129.984 198.24 130.724 197.4 131.764 196.82C132.804 196.24 134.084 195.95 135.604 195.95V198.74C135.484 198.72 135.364 198.71 135.244 198.71C135.144 198.71 135.044 198.71 134.944 198.71C133.404 198.71 132.184 199.17 131.284 200.09C130.384 201.01 129.934 202.34 129.934 204.08V212H127.054ZM145.937 212.18C144.317 212.18 142.867 211.83 141.587 211.13C140.327 210.43 139.337 209.47 138.617 208.25C137.897 207.03 137.537 205.63 137.537 204.05C137.537 202.47 137.897 201.07 138.617 199.85C139.337 198.63 140.327 197.68 141.587 197C142.867 196.3 144.317 195.95 145.937 195.95C147.377 195.95 148.657 196.24 149.777 196.82C150.917 197.38 151.797 198.22 152.417 199.34L150.227 200.75C149.707 199.97 149.067 199.4 148.307 199.04C147.567 198.66 146.767 198.47 145.907 198.47C144.867 198.47 143.937 198.7 143.117 199.16C142.297 199.62 141.647 200.27 141.167 201.11C140.687 201.93 140.447 202.91 140.447 204.05C140.447 205.19 140.687 206.18 141.167 207.02C141.647 207.86 142.297 208.51 143.117 208.97C143.937 209.43 144.867 209.66 145.907 209.66C146.767 209.66 147.567 209.48 148.307 209.12C149.067 208.74 149.707 208.16 150.227 207.38L152.417 208.76C151.797 209.86 150.917 210.71 149.777 211.31C148.657 211.89 147.377 212.18 145.937 212.18ZM155.941 212V196.1H158.821V212H155.941ZM157.381 193.04C156.821 193.04 156.351 192.86 155.971 192.5C155.611 192.14 155.431 191.7 155.431 191.18C155.431 190.64 155.611 190.19 155.971 189.83C156.351 189.47 156.821 189.29 157.381 189.29C157.941 189.29 158.401 189.47 158.761 189.83C159.141 190.17 159.331 190.6 159.331 191.12C159.331 191.66 159.151 192.12 158.791 192.5C158.431 192.86 157.961 193.04 157.381 193.04ZM168.88 212.18C167.56 212.18 166.3 212 165.1 211.64C163.92 211.28 162.99 210.84 162.31 210.32L163.51 208.04C164.19 208.5 165.03 208.89 166.03 209.21C167.03 209.53 168.05 209.69 169.09 209.69C170.43 209.69 171.39 209.5 171.97 209.12C172.57 208.74 172.87 208.21 172.87 207.53C172.87 207.03 172.69 206.64 172.33 206.36C171.97 206.08 171.49 205.87 170.89 205.73C170.31 205.59 169.66 205.47 168.94 205.37C168.22 205.25 167.5 205.11 166.78 204.95C166.06 204.77 165.4 204.53 164.8 204.23C164.2 203.91 163.72 203.48 163.36 202.94C163 202.38 162.82 201.64 162.82 200.72C162.82 199.76 163.09 198.92 163.63 198.2C164.17 197.48 164.93 196.93 165.91 196.55C166.91 196.15 168.09 195.95 169.45 195.95C170.49 195.95 171.54 196.08 172.6 196.34C173.68 196.58 174.56 196.93 175.24 197.39L174.01 199.67C173.29 199.19 172.54 198.86 171.76 198.68C170.98 198.5 170.2 198.41 169.42 198.41C168.16 198.41 167.22 198.62 166.6 199.04C165.98 199.44 165.67 199.96 165.67 200.6C165.67 201.14 165.85 201.56 166.21 201.86C166.59 202.14 167.07 202.36 167.65 202.52C168.25 202.68 168.91 202.82 169.63 202.94C170.35 203.04 171.07 203.18 171.79 203.36C172.51 203.52 173.16 203.75 173.74 204.05C174.34 204.35 174.82 204.77 175.18 205.31C175.56 205.85 175.75 206.57 175.75 207.47C175.75 208.43 175.47 209.26 174.91 209.96C174.35 210.66 173.56 211.21 172.54 211.61C171.52 211.99 170.3 212.18 168.88 212.18ZM186.429 212.18C184.729 212.18 183.229 211.83 181.929 211.13C180.649 210.43 179.649 209.47 178.929 208.25C178.229 207.03 177.879 205.63 177.879 204.05C177.879 202.47 178.219 201.07 178.899 199.85C179.599 198.63 180.549 197.68 181.749 197C182.969 196.3 184.339 195.95 185.859 195.95C187.399 195.95 188.759 196.29 189.939 196.97C191.119 197.65 192.039 198.61 192.699 199.85C193.379 201.07 193.719 202.5 193.719 204.14C193.719 204.26 193.709 204.4 193.689 204.56C193.689 204.72 193.679 204.87 193.659 205.01H180.129V202.94H192.159L190.989 203.66C191.009 202.64 190.799 201.73 190.359 200.93C189.919 200.13 189.309 199.51 188.529 199.07C187.769 198.61 186.879 198.38 185.859 198.38C184.859 198.38 183.969 198.61 183.189 199.07C182.409 199.51 181.799 200.14 181.359 200.96C180.919 201.76 180.699 202.68 180.699 203.72V204.2C180.699 205.26 180.939 206.21 181.419 207.05C181.919 207.87 182.609 208.51 183.489 208.97C184.369 209.43 185.379 209.66 186.519 209.66C187.459 209.66 188.309 209.5 189.069 209.18C189.849 208.86 190.529 208.38 191.109 207.74L192.699 209.6C191.979 210.44 191.079 211.08 189.999 211.52C188.939 211.96 187.749 212.18 186.429 212.18ZM202.278 212.18C200.958 212.18 199.698 212 198.498 211.64C197.318 211.28 196.388 210.84 195.708 210.32L196.908 208.04C197.588 208.5 198.428 208.89 199.428 209.21C200.428 209.53 201.448 209.69 202.488 209.69C203.828 209.69 204.788 209.5 205.368 209.12C205.968 208.74 206.268 208.21 206.268 207.53C206.268 207.03 206.088 206.64 205.728 206.36C205.368 206.08 204.888 205.87 204.288 205.73C203.708 205.59 203.058 205.47 202.338 205.37C201.618 205.25 200.898 205.11 200.178 204.95C199.458 204.77 198.798 204.53 198.198 204.23C197.598 203.91 197.118 203.48 196.758 202.94C196.398 202.38 196.218 201.64 196.218 200.72C196.218 199.76 196.488 198.92 197.028 198.2C197.568 197.48 198.328 196.93 199.308 196.55C200.308 196.15 201.488 195.95 202.848 195.95C203.888 195.95 204.938 196.08 205.998 196.34C207.078 196.58 207.958 196.93 208.638 197.39L207.408 199.67C206.688 199.19 205.938 198.86 205.158 198.68C204.378 198.5 203.598 198.41 202.818 198.41C201.558 198.41 200.618 198.62 199.998 199.04C199.378 199.44 199.068 199.96 199.068 200.6C199.068 201.14 199.248 201.56 199.608 201.86C199.988 202.14 200.468 202.36 201.048 202.52C201.648 202.68 202.308 202.82 203.028 202.94C203.748 203.04 204.468 203.18 205.188 203.36C205.908 203.52 206.558 203.75 207.138 204.05C207.738 204.35 208.218 204.77 208.578 205.31C208.958 205.85 209.148 206.57 209.148 207.47C209.148 208.43 208.868 209.26 208.308 209.96C207.748 210.66 206.958 211.21 205.938 211.61C204.918 211.99 203.698 212.18 202.278 212.18ZM226.264 212.18C224.664 212.18 223.424 211.75 222.544 210.89C221.664 210.03 221.224 208.8 221.224 207.2V192.62H224.104V207.08C224.104 207.94 224.314 208.6 224.734 209.06C225.174 209.52 225.794 209.75 226.594 209.75C227.494 209.75 228.244 209.5 228.844 209L229.744 211.07C229.304 211.45 228.774 211.73 228.154 211.91C227.554 212.09 226.924 212.18 226.264 212.18ZM218.524 198.47V196.1H228.664V198.47H218.524ZM239.509 212.18C237.909 212.18 236.489 211.83 235.249 211.13C234.009 210.43 233.029 209.47 232.309 208.25C231.589 207.01 231.229 205.61 231.229 204.05C231.229 202.47 231.589 201.07 232.309 199.85C233.029 198.63 234.009 197.68 235.249 197C236.489 196.3 237.909 195.95 239.509 195.95C241.089 195.95 242.499 196.3 243.739 197C244.999 197.68 245.979 198.63 246.679 199.85C247.399 201.05 247.759 202.45 247.759 204.05C247.759 205.63 247.399 207.03 246.679 208.25C245.979 209.47 244.999 210.43 243.739 211.13C242.499 211.83 241.089 212.18 239.509 212.18ZM239.509 209.66C240.529 209.66 241.439 209.43 242.239 208.97C243.059 208.51 243.699 207.86 244.159 207.02C244.619 206.16 244.849 205.17 244.849 204.05C244.849 202.91 244.619 201.93 244.159 201.11C243.699 200.27 243.059 199.62 242.239 199.16C241.439 198.7 240.529 198.47 239.509 198.47C238.489 198.47 237.579 198.7 236.779 199.16C235.979 199.62 235.339 200.27 234.859 201.11C234.379 201.93 234.139 202.91 234.139 204.05C234.139 205.17 234.379 206.16 234.859 207.02C235.339 207.86 235.979 208.51 236.779 208.97C237.579 209.43 238.489 209.66 239.509 209.66ZM268.288 195.95C269.588 195.95 270.728 196.2 271.708 196.7C272.708 197.2 273.488 197.96 274.048 198.98C274.608 200 274.888 201.29 274.888 202.85V212H272.008V203.18C272.008 201.64 271.628 200.48 270.868 199.7C270.128 198.92 269.078 198.53 267.718 198.53C266.698 198.53 265.808 198.73 265.048 199.13C264.288 199.53 263.698 200.12 263.278 200.9C262.878 201.68 262.678 202.65 262.678 203.81V212H259.798V189.74H262.678V200.39L262.108 199.25C262.628 198.21 263.428 197.4 264.508 196.82C265.588 196.24 266.848 195.95 268.288 195.95ZM287.298 212.18C285.598 212.18 284.098 211.83 282.798 211.13C281.518 210.43 280.518 209.47 279.798 208.25C279.098 207.03 278.748 205.63 278.748 204.05C278.748 202.47 279.088 201.07 279.768 199.85C280.468 198.63 281.418 197.68 282.618 197C283.838 196.3 285.208 195.95 286.728 195.95C288.268 195.95 289.628 196.29 290.808 196.97C291.988 197.65 292.908 198.61 293.568 199.85C294.248 201.07 294.588 202.5 294.588 204.14C294.588 204.26 294.578 204.4 294.558 204.56C294.558 204.72 294.548 204.87 294.528 205.01H280.998V202.94H293.028L291.858 203.66C291.878 202.64 291.668 201.73 291.228 200.93C290.788 200.13 290.178 199.51 289.398 199.07C288.638 198.61 287.748 198.38 286.728 198.38C285.728 198.38 284.838 198.61 284.058 199.07C283.278 199.51 282.668 200.14 282.228 200.96C281.788 201.76 281.568 202.68 281.568 203.72V204.2C281.568 205.26 281.808 206.21 282.288 207.05C282.788 207.87 283.478 208.51 284.358 208.97C285.238 209.43 286.248 209.66 287.388 209.66C288.328 209.66 289.178 209.5 289.938 209.18C290.718 208.86 291.398 208.38 291.978 207.74L293.568 209.6C292.848 210.44 291.948 211.08 290.868 211.52C289.808 211.96 288.618 212.18 287.298 212.18ZM298.587 212V189.74H301.467V212H298.587ZM315.396 212.18C314.076 212.18 312.866 211.88 311.766 211.28C310.686 210.66 309.816 209.75 309.156 208.55C308.516 207.35 308.196 205.85 308.196 204.05C308.196 202.25 308.506 200.75 309.126 199.55C309.766 198.35 310.626 197.45 311.706 196.85C312.806 196.25 314.036 195.95 315.396 195.95C316.956 195.95 318.336 196.29 319.536 196.97C320.736 197.65 321.686 198.6 322.386 199.82C323.086 201.02 323.436 202.43 323.436 204.05C323.436 205.67 323.086 207.09 322.386 208.31C321.686 209.53 320.736 210.48 319.536 211.16C318.336 211.84 316.956 212.18 315.396 212.18ZM306.966 217.82V196.1H309.726V200.39L309.546 204.08L309.846 207.77V217.82H306.966ZM315.156 209.66C316.176 209.66 317.086 209.43 317.886 208.97C318.706 208.51 319.346 207.86 319.806 207.02C320.286 206.16 320.526 205.17 320.526 204.05C320.526 202.91 320.286 201.93 319.806 201.11C319.346 200.27 318.706 199.62 317.886 199.16C317.086 198.7 316.176 198.47 315.156 198.47C314.156 198.47 313.246 198.7 312.426 199.16C311.626 199.62 310.986 200.27 310.506 201.11C310.046 201.93 309.816 202.91 309.816 204.05C309.816 205.17 310.046 206.16 310.506 207.02C310.986 207.86 311.626 208.51 312.426 208.97C313.246 209.43 314.156 209.66 315.156 209.66ZM336.162 218C335.402 218 334.662 217.87 333.942 217.61C333.222 217.37 332.602 217.01 332.082 216.53L333.312 214.37C333.712 214.75 334.152 215.04 334.632 215.24C335.112 215.44 335.622 215.54 336.162 215.54C336.862 215.54 337.442 215.36 337.902 215C338.362 214.64 338.792 214 339.192 213.08L340.182 210.89L340.482 210.53L346.722 196.1H349.542L341.832 213.59C341.372 214.71 340.852 215.59 340.272 216.23C339.712 216.87 339.092 217.32 338.412 217.58C337.732 217.86 336.982 218 336.162 218ZM339.942 212.51L332.682 196.1H335.682L341.862 210.26L339.942 212.51ZM358.601 212.18C357.001 212.18 355.581 211.83 354.341 211.13C353.101 210.43 352.121 209.47 351.401 208.25C350.681 207.01 350.321 205.61 350.321 204.05C350.321 202.47 350.681 201.07 351.401 199.85C352.121 198.63 353.101 197.68 354.341 197C355.581 196.3 357.001 195.95 358.601 195.95C360.181 195.95 361.591 196.3 362.831 197C364.091 197.68 365.071 198.63 365.771 199.85C366.491 201.05 366.851 202.45 366.851 204.05C366.851 205.63 366.491 207.03 365.771 208.25C365.071 209.47 364.091 210.43 362.831 211.13C361.591 211.83 360.181 212.18 358.601 212.18ZM358.601 209.66C359.621 209.66 360.531 209.43 361.331 208.97C362.151 208.51 362.791 207.86 363.251 207.02C363.711 206.16 363.941 205.17 363.941 204.05C363.941 202.91 363.711 201.93 363.251 201.11C362.791 200.27 362.151 199.62 361.331 199.16C360.531 198.7 359.621 198.47 358.601 198.47C357.581 198.47 356.671 198.7 355.871 199.16C355.071 199.62 354.431 200.27 353.951 201.11C353.471 201.93 353.231 202.91 353.231 204.05C353.231 205.17 353.471 206.16 353.951 207.02C354.431 207.86 355.071 208.51 355.871 208.97C356.671 209.43 357.581 209.66 358.601 209.66ZM377.524 212.18C376.164 212.18 374.964 211.93 373.924 211.43C372.904 210.93 372.104 210.17 371.524 209.15C370.964 208.11 370.684 206.81 370.684 205.25V196.1H373.564V204.92C373.564 206.48 373.934 207.65 374.674 208.43C375.434 209.21 376.494 209.6 377.854 209.6C378.854 209.6 379.724 209.4 380.464 209C381.204 208.58 381.774 207.98 382.174 207.2C382.574 206.4 382.774 205.44 382.774 204.32V196.1H385.654V212H382.924V207.71L383.374 208.85C382.854 209.91 382.074 210.73 381.034 211.31C379.994 211.89 378.824 212.18 377.524 212.18ZM171.589 242.37L171.049 228H174.439L173.869 242.37H171.589ZM172.759 249.18C172.199 249.18 171.729 248.99 171.349 248.61C170.969 248.23 170.779 247.78 170.779 247.26C170.779 246.7 170.969 246.24 171.349 245.88C171.729 245.52 172.199 245.34 172.759 245.34C173.319 245.34 173.779 245.52 174.139 245.88C174.499 246.24 174.679 246.7 174.679 247.26C174.679 247.78 174.499 248.23 174.139 248.61C173.779 248.99 173.319 249.18 172.759 249.18Z" fill="#443534"/>
<path d="M399.193 212V195.5C399.193 193.68 399.733 192.23 400.813 191.15C401.893 190.05 403.433 189.5 405.433 189.5C406.113 189.5 406.763 189.57 407.383 189.71C408.023 189.85 408.563 190.07 409.003 190.37L407.773 193.76C407.513 193.58 407.223 193.44 406.903 193.34C406.583 193.24 406.243 193.19 405.883 193.19C405.203 193.19 404.673 193.39 404.293 193.79C403.933 194.17 403.753 194.75 403.753 195.53V197.03L403.873 199.04V212H399.193ZM396.703 199.82V196.22H407.893V199.82H396.703ZM418.029 212.24C416.189 212.24 414.569 211.88 413.169 211.16C411.789 210.44 410.719 209.46 409.959 208.22C409.199 206.96 408.819 205.53 408.819 203.93C408.819 202.31 409.189 200.88 409.929 199.64C410.689 198.38 411.719 197.4 413.019 196.7C414.319 195.98 415.789 195.62 417.429 195.62C419.009 195.62 420.429 195.96 421.689 196.64C422.969 197.3 423.979 198.26 424.719 199.52C425.459 200.76 425.829 202.25 425.829 203.99C425.829 204.17 425.819 204.38 425.799 204.62C425.779 204.84 425.759 205.05 425.739 205.25H412.629V202.52H423.279L421.479 203.33C421.479 202.49 421.309 201.76 420.969 201.14C420.629 200.52 420.159 200.04 419.559 199.7C418.959 199.34 418.259 199.16 417.459 199.16C416.659 199.16 415.949 199.34 415.329 199.7C414.729 200.04 414.259 200.53 413.919 201.17C413.579 201.79 413.409 202.53 413.409 203.39V204.11C413.409 204.99 413.599 205.77 413.979 206.45C414.379 207.11 414.929 207.62 415.629 207.98C416.349 208.32 417.189 208.49 418.149 208.49C419.009 208.49 419.759 208.36 420.399 208.1C421.059 207.84 421.659 207.45 422.199 206.93L424.689 209.63C423.949 210.47 423.019 211.12 421.899 211.58C420.779 212.02 419.489 212.24 418.029 212.24ZM436.955 212.24C435.115 212.24 433.495 211.88 432.095 211.16C430.715 210.44 429.645 209.46 428.885 208.22C428.125 206.96 427.745 205.53 427.745 203.93C427.745 202.31 428.115 200.88 428.855 199.64C429.615 198.38 430.645 197.4 431.945 196.7C433.245 195.98 434.715 195.62 436.355 195.62C437.935 195.62 439.355 195.96 440.615 196.64C441.895 197.3 442.905 198.26 443.645 199.52C444.385 200.76 444.755 202.25 444.755 203.99C444.755 204.17 444.745 204.38 444.725 204.62C444.705 204.84 444.685 205.05 444.665 205.25H431.555V202.52H442.205L440.405 203.33C440.405 202.49 440.235 201.76 439.895 201.14C439.555 200.52 439.085 200.04 438.485 199.7C437.885 199.34 437.185 199.16 436.385 199.16C435.585 199.16 434.875 199.34 434.255 199.7C433.655 200.04 433.185 200.53 432.845 201.17C432.505 201.79 432.335 202.53 432.335 203.39V204.11C432.335 204.99 432.525 205.77 432.905 206.45C433.305 207.11 433.855 207.62 434.555 207.98C435.275 208.32 436.115 208.49 437.075 208.49C437.935 208.49 438.685 208.36 439.325 208.1C439.985 207.84 440.585 207.45 441.125 206.93L443.615 209.63C442.875 210.47 441.945 211.12 440.825 211.58C439.705 212.02 438.415 212.24 436.955 212.24ZM447.871 212V189.74H452.551V212H447.871ZM83.7 249.24C82.28 249.24 81.06 248.94 80.04 248.34C79.02 247.74 78.24 246.83 77.7 245.61C77.16 244.37 76.89 242.81 76.89 240.93C76.89 239.03 77.17 237.47 77.73 236.25C78.31 235.03 79.11 234.12 80.13 233.52C81.15 232.92 82.34 232.62 83.7 232.62C85.22 232.62 86.58 232.96 87.78 233.64C89 234.32 89.96 235.28 90.66 236.52C91.38 237.76 91.74 239.23 91.74 240.93C91.74 242.61 91.38 244.07 90.66 245.31C89.96 246.55 89 247.52 87.78 248.22C86.58 248.9 85.22 249.24 83.7 249.24ZM74.16 249V226.74H78.84V236.13L78.54 240.9L78.63 245.7V249H74.16ZM82.89 245.4C83.67 245.4 84.36 245.22 84.96 244.86C85.58 244.5 86.07 243.99 86.43 243.33C86.81 242.65 87 241.85 87 240.93C87 239.99 86.81 239.19 86.43 238.53C86.07 237.87 85.58 237.36 84.96 237C84.36 236.64 83.67 236.46 82.89 236.46C82.11 236.46 81.41 236.64 80.79 237C80.17 237.36 79.68 237.87 79.32 238.53C78.96 239.19 78.78 239.99 78.78 240.93C78.78 241.85 78.96 242.65 79.32 243.33C79.68 243.99 80.17 244.5 80.79 244.86C81.41 245.22 82.11 245.4 82.89 245.4ZM102.883 249.24C101.043 249.24 99.4229 248.88 98.0229 248.16C96.6429 247.44 95.5729 246.46 94.8129 245.22C94.0529 243.96 93.6729 242.53 93.6729 240.93C93.6729 239.31 94.0429 237.88 94.7829 236.64C95.5429 235.38 96.5729 234.4 97.8729 233.7C99.1729 232.98 100.643 232.62 102.283 232.62C103.863 232.62 105.283 232.96 106.543 233.64C107.823 234.3 108.833 235.26 109.573 236.52C110.313 237.76 110.683 239.25 110.683 240.99C110.683 241.17 110.673 241.38 110.653 241.62C110.633 241.84 110.613 242.05 110.593 242.25H97.4829V239.52H108.133L106.333 240.33C106.333 239.49 106.163 238.76 105.823 238.14C105.483 237.52 105.013 237.04 104.413 236.7C103.813 236.34 103.113 236.16 102.313 236.16C101.513 236.16 100.803 236.34 100.183 236.7C99.5829 237.04 99.1129 237.53 98.7729 238.17C98.4329 238.79 98.2629 239.53 98.2629 240.39V241.11C98.2629 241.99 98.4529 242.77 98.8329 243.45C99.2329 244.11 99.7829 244.62 100.483 244.98C101.203 245.32 102.043 245.49 103.003 245.49C103.863 245.49 104.613 245.36 105.253 245.1C105.913 244.84 106.513 244.45 107.053 243.93L109.543 246.63C108.803 247.47 107.873 248.12 106.753 248.58C105.633 249.02 104.343 249.24 102.883 249.24ZM120.399 249.24C118.499 249.24 117.019 248.76 115.959 247.8C114.899 246.82 114.369 245.37 114.369 243.45V229.29H119.049V243.39C119.049 244.07 119.229 244.6 119.589 244.98C119.949 245.34 120.439 245.52 121.059 245.52C121.799 245.52 122.429 245.32 122.949 244.92L124.209 248.22C123.729 248.56 123.149 248.82 122.469 249C121.809 249.16 121.119 249.24 120.399 249.24ZM111.879 236.82V233.22H123.069V236.82H111.879ZM133.084 249.24C131.184 249.24 129.704 248.76 128.644 247.8C127.584 246.82 127.054 245.37 127.054 243.45V229.29H131.734V243.39C131.734 244.07 131.914 244.6 132.274 244.98C132.634 245.34 133.124 245.52 133.744 245.52C134.484 245.52 135.114 245.32 135.634 244.92L136.894 248.22C136.414 248.56 135.834 248.82 135.154 249C134.494 249.16 133.804 249.24 133.084 249.24ZM124.564 236.82V233.22H135.754V236.82H124.564ZM147.033 249.24C145.193 249.24 143.573 248.88 142.173 248.16C140.793 247.44 139.723 246.46 138.963 245.22C138.203 243.96 137.823 242.53 137.823 240.93C137.823 239.31 138.193 237.88 138.933 236.64C139.693 235.38 140.723 234.4 142.023 233.7C143.323 232.98 144.793 232.62 146.433 232.62C148.013 232.62 149.433 232.96 150.693 233.64C151.973 234.3 152.983 235.26 153.723 236.52C154.463 237.76 154.833 239.25 154.833 240.99C154.833 241.17 154.823 241.38 154.803 241.62C154.783 241.84 154.763 242.05 154.743 242.25H141.633V239.52H152.283L150.483 240.33C150.483 239.49 150.313 238.76 149.973 238.14C149.633 237.52 149.163 237.04 148.563 236.7C147.963 236.34 147.263 236.16 146.463 236.16C145.663 236.16 144.953 236.34 144.333 236.7C143.733 237.04 143.263 237.53 142.923 238.17C142.583 238.79 142.413 239.53 142.413 240.39V241.11C142.413 241.99 142.603 242.77 142.983 243.45C143.383 244.11 143.933 244.62 144.633 244.98C145.353 245.32 146.193 245.49 147.153 245.49C148.013 245.49 148.763 245.36 149.403 245.1C150.063 244.84 150.663 244.45 151.203 243.93L153.693 246.63C152.953 247.47 152.023 248.12 150.903 248.58C149.783 249.02 148.493 249.24 147.033 249.24ZM157.949 249V232.86H162.419V237.42L161.789 236.1C162.269 234.96 163.039 234.1 164.099 233.52C165.159 232.92 166.449 232.62 167.969 232.62V236.94C167.769 236.92 167.589 236.91 167.429 236.91C167.269 236.89 167.099 236.88 166.919 236.88C165.639 236.88 164.599 237.25 163.799 237.99C163.019 238.71 162.629 239.84 162.629 241.38V249H157.949Z" fill="#D7629A"/>
<g clip-path="url(#clip0_2060_1166)">
<path d="M515.409 498.495C515.409 498.495 429.056 552.33 456.708 638.737C484.504 725.623 626.75 666.937 626.75 666.937" stroke="#F9F6F1" stroke-width="10.52" stroke-miterlimit="10" stroke-linecap="round"/>
<path d="M543.806 560.081C543.806 560.081 542.569 563.974 542.569 573.031C542.569 583.644 544.622 588.556 544.622 588.556" fill="#F9F6F1"/>
<path d="M543.806 560.081C543.806 560.081 542.569 563.974 542.569 573.031C542.569 583.644 544.622 588.556 544.622 588.556" stroke="#F9F6F1" stroke-width="10.52" stroke-miterlimit="10" stroke-linecap="round"/>
<path d="M587.876 560.081C587.876 560.081 586.64 563.974 586.64 573.031C586.64 583.644 588.693 588.556 588.693 588.556" fill="#F9F6F1"/>
<path d="M587.876 560.081C587.876 560.081 586.64 563.974 586.64 573.031C586.64 583.644 588.693 588.556 588.693 588.556" stroke="#F9F6F1" stroke-width="10.52" stroke-miterlimit="10" stroke-linecap="round"/>
<path d="M725.706 574.576C725.706 574.576 748.353 556.655 765.456 569.976C783.603 584.123 782.907 606.884 774.757 620.337C760.439 643.96 732.199 636.928 732.199 636.928" stroke="#F9F6F1" stroke-width="10.52" stroke-miterlimit="10" stroke-linecap="round"/>
<path d="M458.856 566.646C458.856 566.646 429.56 550.809 422.731 582.255C412.601 628.902 448.247 632.185 448.247 632.185" stroke="#F9F6F1" stroke-width="10.52" stroke-miterlimit="10" stroke-linecap="round"/>
<path d="M548.414 463.935C548.414 463.935 565.817 506.413 597.166 491.715C628.515 477.016 615.313 455.645 596.23 456.975C577.711 458.268 557.536 489.523 584.108 514.547C610.68 539.572 640.937 507.827 640.937 507.827" stroke="#F9F6F1" stroke-width="10.52" stroke-miterlimit="10" stroke-linecap="round"/>
<path d="M689.976 475.195C689.976 475.195 659.635 483.796 662.3 515.434C664.004 535.619 683.747 543.118 704.858 539.201C725.97 535.284 735.247 524.73 734.047 514.619C732.127 498.507 717.328 496.986 701.51 501.346C680.315 507.192 664.664 528.755 672.982 558.08C679.319 580.434 702.254 554.307 706.839 582.985C711.051 609.316 680.207 613.269 680.207 613.269" stroke="#F9F6F1" stroke-width="10.52" stroke-miterlimit="10" stroke-linecap="round"/>
<path d="M411.221 573.055C411.221 573.055 384.313 559.111 384.313 532.169C384.313 505.227 416.154 489.81 416.154 489.81C416.154 489.81 399.459 457.526 410.933 445.678C422.407 433.831 447.455 434.921 454.764 420.929C462.073 406.937 466.238 387.566 479.812 384.332C493.386 381.098 519.274 391.867 519.274 391.867" stroke="#F9F6F1" stroke-width="10.52" stroke-miterlimit="10" stroke-linecap="round"/>
<path d="M542.581 382.284C542.581 382.284 553.419 332.881 585.56 337.625C617.701 342.368 619.777 371.61 619.777 371.61C619.777 371.61 647.37 349.496 661.784 354.24C676.198 358.984 679.247 412.028 689.676 412.819C700.106 413.61 754.066 387.279 770.953 417.563C787.839 447.847 775.453 468.187 775.453 468.187" stroke="#F9F6F1" stroke-width="10.52" stroke-miterlimit="10" stroke-linecap="round"/>
<path d="M779.834 491.727C779.834 491.727 803.67 484.383 805.782 499.202C807.882 514.02 781.55 535.344 787.443 547.898C793.336 560.44 817.148 550.198 810.535 598.558" stroke="#F9F6F1" stroke-width="10.52" stroke-miterlimit="10" stroke-linecap="round"/>
<path d="M416.154 489.81C416.154 489.81 443.794 487.642 446.999 498.555C450.203 509.468 438.621 532.181 421.243 518.896C390.278 495.225 451.883 436.406 486.449 459.538" stroke="#F9F6F1" stroke-width="10.52" stroke-miterlimit="10" stroke-linecap="round"/>
<path d="M657.931 649.782L666.345 703.869" stroke="#F9F6F1" stroke-width="10.52" stroke-miterlimit="10" stroke-linecap="round"/>
<path d="M582.44 680.449L586.64 715.034" stroke="#F9F6F1" stroke-width="10.52" stroke-miterlimit="10" stroke-linecap="round"/>
<path d="M542.569 686.319C542.569 686.319 499.951 713.704 516.081 737.207C532.212 760.711 648.018 760.699 648.018 760.699C648.018 760.699 733.135 714.087 740.864 686.319C748.605 658.551 662.144 663.343 662.144 663.343" stroke="#F9F6F1" stroke-width="10.52" stroke-miterlimit="10" stroke-linecap="round"/>
</g>
<defs>
<filter id="filter0_d_2060_1166" x="0" y="53" width="563" height="308" filterUnits="userSpaceOnUse" color-interpolation-filters="sRGB">
<feFlood flood-opacity="0" result="BackgroundImageFix"/>
<feColorMatrix in="SourceAlpha" type="matrix" values="0 0 0 0 0 0 0 0 0 0 0 0 0 0 0 0 0 0 127 0" result="hardAlpha"/>
<feOffset dx="-5" dy="5"/>
<feGaussianBlur stdDeviation="10"/>
<feComposite in2="hardAlpha" operator="out"/>
<feColorMatrix type="matrix" values="0 0 0 0 0 0 0 0 0 0 0 0 0 0 0 0 0 0 0.25 0"/>
<feBlend mode="normal" in2="BackgroundImageFix" result="effect1_dropShadow_2060_1166"/>
<feBlend mode="normal" in="SourceGraphic" in2="effect1_dropShadow_2060_1166" result="shape"/>
</filter>
<clipPath id="clip0_2060_1166">
<rect width="440" height="436" fill="white" transform="translate(378 331)"/>
</clipPath>
</defs>
</svg>
