<svg width="387" height="368" viewBox="0 0 387 368" fill="none" xmlns="http://www.w3.org/2000/svg">
<rect width="387" height="368" rx="184" fill="#72B0F4"/>
<path d="M130.375 250.185C134.752 250.185 138.262 251.485 140.905 254.085C143.592 256.685 144.935 260.607 144.935 265.85V286H132.585V267.865C132.585 263.055 130.657 260.65 126.8 260.65C124.677 260.65 122.965 261.343 121.665 262.73C120.409 264.117 119.78 266.197 119.78 268.97V286H107.43V250.77H119.195V254.605C120.582 253.175 122.229 252.092 124.135 251.355C126.042 250.575 128.122 250.185 130.375 250.185ZM189.207 268.45C189.207 268.537 189.142 269.555 189.012 271.505H163.402C163.922 273.325 164.919 274.733 166.392 275.73C167.909 276.683 169.794 277.16 172.047 277.16C173.737 277.16 175.189 276.922 176.402 276.445C177.659 275.968 178.915 275.188 180.172 274.105L186.672 280.865C183.249 284.678 178.244 286.585 171.657 286.585C167.54 286.585 163.922 285.805 160.802 284.245C157.682 282.685 155.255 280.518 153.522 277.745C151.832 274.972 150.987 271.83 150.987 268.32C150.987 264.853 151.81 261.755 153.457 259.025C155.147 256.252 157.465 254.085 160.412 252.525C163.359 250.965 166.674 250.185 170.357 250.185C173.867 250.185 177.052 250.922 179.912 252.395C182.772 253.825 185.025 255.927 186.672 258.7C188.362 261.43 189.207 264.68 189.207 268.45ZM170.422 258.96C168.515 258.96 166.912 259.502 165.612 260.585C164.355 261.668 163.554 263.142 163.207 265.005H177.637C177.29 263.142 176.467 261.668 175.167 260.585C173.91 259.502 172.329 258.96 170.422 258.96ZM212.906 286.585C209.006 286.585 205.518 285.805 202.441 284.245C199.364 282.685 196.959 280.518 195.226 277.745C193.536 274.972 192.691 271.83 192.691 268.32C192.691 264.81 193.536 261.69 195.226 258.96C196.959 256.187 199.364 254.042 202.441 252.525C205.518 250.965 209.006 250.185 212.906 250.185C216.893 250.185 220.338 251.052 223.241 252.785C226.144 254.475 228.203 256.837 229.416 259.87L219.861 264.745C218.258 261.582 215.918 260 212.841 260C210.631 260 208.789 260.737 207.316 262.21C205.886 263.683 205.171 265.72 205.171 268.32C205.171 270.963 205.886 273.043 207.316 274.56C208.789 276.033 210.631 276.77 212.841 276.77C215.918 276.77 218.258 275.188 219.861 272.025L229.416 276.9C228.203 279.933 226.144 282.317 223.241 284.05C220.338 285.74 216.893 286.585 212.906 286.585ZM249.929 273.65L246.289 277.355V286H233.939V237.77H246.289V263.055L258.899 250.77H273.524L258.899 265.85L274.759 286H259.809L249.929 273.65Z" fill="#FFFCF0"/>
</svg>
