<svg width="268" height="260" viewBox="0 0 268 260" fill="none" xmlns="http://www.w3.org/2000/svg">
<g filter="url(#filter0_d_2150_78)">
<rect x="15" y="5" width="248" height="240" rx="120" fill="#F9F6F1"/>
</g>
<g clip-path="url(#clip0_2150_78)">
<path d="M127.582 181.732C127.582 181.732 130.606 188.759 139.488 189.774C148.37 190.789 152.677 183.36 152.677 183.36" stroke="#443534" stroke-width="4.48735" stroke-miterlimit="10"/>
<path d="M116.166 175.184L125.305 175.57" stroke="#443534" stroke-width="4.48735" stroke-miterlimit="10"/>
<path d="M73.3681 34.2416C73.3681 34.2416 71.0342 81.0986 75.4082 91.011C79.7823 100.923 112.714 139.584 138.648 138.759C164.583 137.935 202.182 99.7538 204.516 89.2645C206.85 78.7751 204.516 34.2467 204.516 34.2467" stroke="#443534" stroke-width="4.48735" stroke-miterlimit="10"/>
<path d="M97.1652 126.74C97.1652 126.74 101.74 168.378 97.1652 172.953C92.5902 177.528 68.7933 184.622 68.7933 184.622" stroke="#443534" stroke-width="4.48735" stroke-miterlimit="10"/>
<path d="M65.0889 185.163L50.1997 189.872" stroke="#443534" stroke-width="4.48735" stroke-miterlimit="10"/>
<path d="M179.833 125.163C179.833 125.163 178.077 164.298 182.693 171.99C187.309 179.687 207.535 184.617 207.535 184.617" stroke="#443534" stroke-width="4.48735" stroke-miterlimit="10"/>
<path d="M213.47 185.843L235.232 193.756" stroke="#443534" stroke-width="4.48735" stroke-miterlimit="10"/>
<path d="M159.174 215.894C159.174 215.894 167.113 206.106 172.404 206.106C177.695 206.106 213.471 207.43 213.471 207.43" stroke="#443534" stroke-width="4.48735" stroke-miterlimit="10"/>
<path d="M119.386 215.864C119.386 215.864 111.446 206.075 106.155 206.075C100.864 206.075 65.0891 207.399 65.0891 207.399" stroke="#443534" stroke-width="4.48735" stroke-miterlimit="10"/>
<path d="M159.772 179.98C161.729 179.98 163.316 178.393 163.316 176.436C163.316 174.478 161.729 172.891 159.772 172.891C157.814 172.891 156.227 174.478 156.227 176.436C156.227 178.393 157.814 179.98 159.772 179.98Z" fill="#443534"/>
</g>
<defs>
<filter id="filter0_d_2150_78" x="0" y="0" width="268" height="260" filterUnits="userSpaceOnUse" color-interpolation-filters="sRGB">
<feFlood flood-opacity="0" result="BackgroundImageFix"/>
<feColorMatrix in="SourceAlpha" type="matrix" values="0 0 0 0 0 0 0 0 0 0 0 0 0 0 0 0 0 0 127 0" result="hardAlpha"/>
<feOffset dx="-5" dy="5"/>
<feGaussianBlur stdDeviation="5"/>
<feComposite in2="hardAlpha" operator="out"/>
<feColorMatrix type="matrix" values="0 0 0 0 0 0 0 0 0 0 0 0 0 0 0 0 0 0 0.25 0"/>
<feBlend mode="normal" in2="BackgroundImageFix" result="effect1_dropShadow_2150_78"/>
<feBlend mode="normal" in="SourceGraphic" in2="effect1_dropShadow_2150_78" result="shape"/>
</filter>
<clipPath id="clip0_2150_78">
<rect width="188" height="190.55" fill="white" transform="translate(48 26.7559)"/>
</clipPath>
</defs>
</svg>
