<svg width="396" height="446" viewBox="0 0 396 446" fill="none" xmlns="http://www.w3.org/2000/svg">
<path d="M212.6 127.5C212.6 127.5 215.7 114.8 221.5 115.4C227.3 116 259.7 129.7 263.9 139.3" stroke="white" stroke-width="4.3" stroke-miterlimit="10" stroke-linecap="square"/>
<path d="M217.7 152C217.7 152 201.1 157.6 147.9 171.9C94.6 186.2 91.3 183.9 91.3 183.9" stroke="white" stroke-width="4.3" stroke-miterlimit="10" stroke-linecap="square"/>
<path d="M223.1 171.8C223.1 171.8 173.4 185.6 125.9 198.5C78.4 211.4 92.7 205.4 92.7 205.4" stroke="white" stroke-width="4.3" stroke-miterlimit="10" stroke-linecap="square"/>
<path d="M272.4 222.5C272.4 222.5 267.9 210.9 264.6 190.1C261.4 169 265.3 153.2 265.3 153.2" stroke="white" stroke-width="4.3" stroke-miterlimit="10" stroke-linecap="square"/>
<path d="M214.1 423.7C214.1 423.7 219.3 416.2 216.4 393.4C212.2 359.6 195 301.6 198.5 274.9C198.4 254.8 202.8 239.9 202.8 239.9" stroke="white" stroke-width="4.3" stroke-miterlimit="10" stroke-linecap="square"/>
<path d="M194.4 185.7C194.4 185.7 198.6 193.2 200.3 205.2C202 217.2 196.9 231.5 196.9 231.5" stroke="white" stroke-width="4.3" stroke-miterlimit="10" stroke-linecap="square"/>
<path d="M218.2 36.9001C218.2 36.9001 185.4 48.5001 188.2 79.4001C190.9 110.5 242.8 101.3 242.8 101.3" stroke="white" stroke-width="4.3" stroke-miterlimit="10" stroke-linecap="square"/>
<path d="M223.2 59.7002C223.2 59.7002 222.5 60.8002 221.9 64.0002C221.2 67.6002 221.4 69.4002 221.4 69.4002" fill="white"/>
<path d="M223.2 59.7002C223.2 59.7002 222.5 60.8002 221.9 64.0002C221.2 67.6002 221.4 69.4002 221.4 69.4002" stroke="white" stroke-width="4.3" stroke-miterlimit="10" stroke-linecap="square"/>
<path d="M237.8 63C237.8 63 237.1 64.1 236.5 67.3C235.8 70.9 236 72.7 236 72.7" fill="white"/>
<path d="M237.8 63C237.8 63 237.1 64.1 236.5 67.3C235.8 70.9 236 72.7 236 72.7" stroke="white" stroke-width="4.3" stroke-miterlimit="10" stroke-linecap="square"/>
<path d="M282.8 78.0001C282.8 78.0001 291.7 73.7001 296.4 79.3001C301.5 85.5001 299.4 93.0001 295.7 96.8001C289.1 103.7 280.3 99.2001 280.3 99.2001" stroke="white" stroke-width="4.3" stroke-miterlimit="10" stroke-linecap="square"/>
<path d="M194.3 55.6002C194.3 55.6002 185.7 48.2002 181.2 58.1002C174.4 72.9002 186 76.7002 186 76.7002" stroke="white" stroke-width="4.3" stroke-miterlimit="10" stroke-linecap="square"/>
<path d="M258.2 113.2L258.4 132" stroke="white" stroke-width="4.3" stroke-miterlimit="10" stroke-linecap="square"/>
<path d="M227.1 102.7L225.9 114.6" stroke="white" stroke-width="4.3" stroke-miterlimit="10" stroke-linecap="square"/>
<path d="M237.9 34.9001L228 41.8001" stroke="white" stroke-width="4.3" stroke-miterlimit="10" stroke-linecap="square"/>
<path d="M250.2 36.7002L249.4 43.3002" stroke="white" stroke-width="4.3" stroke-miterlimit="10" stroke-linecap="square"/>
<path d="M262.8 42.7002L266.5 58.0002" stroke="white" stroke-width="4.3" stroke-miterlimit="10" stroke-linecap="square"/>
<path d="M248.9 13.8001C248.9 13.8001 225.3 -5.29993 204.3 7.10007C183.3 19.5001 181.9 45.4001 181.9 45.4001" stroke="white" stroke-width="4.3" stroke-miterlimit="10" stroke-linecap="square"/>
<path d="M260 15.8C260 15.8 300.8 18.0001 306.1 41.4001C310.4 59.7001 303.7 76 303.7 76" stroke="white" stroke-width="4.3" stroke-miterlimit="10" stroke-linecap="square"/>
<path d="M204.7 126C204.7 126 193.9 131.3 191.4 142.4" stroke="white" stroke-width="4.3" stroke-miterlimit="10" stroke-linecap="square"/>
<path d="M257.3 222.5C257.3 222.5 271.4 225.7 292.5 252C313.4 278.2 334.6 331 354.7 349.3C374.8 367.7 383.1 369.8 383.1 369.8" stroke="white" stroke-width="4.3" stroke-miterlimit="10" stroke-linecap="square"/>
<path d="M372.4 385.2C372.4 385.2 371.9 392.2 373.5 398.1C375.2 404 382.1 415.8 387.3 415.8C392.5 415.8 394.7 405.1 393 395C391.1 384.9 387.5 377.9 387.5 377.9" stroke="white" stroke-width="4.3" stroke-miterlimit="10" stroke-linecap="square"/>
<path d="M250.6 240.4C250.6 240.4 255.9 262.2 253.2 301.1C250.3 339.8 237.3 361.5 239.7 393.4C240.9 409.2 244.4 428 244.4 428" stroke="white" stroke-width="4.3" stroke-miterlimit="10" stroke-linecap="square"/>
<path d="M254 295.8C254 295.8 251.2 298.4 271 316.6C290.8 334.8 339.4 359.8 359.3 386.9" stroke="white" stroke-width="4.3" stroke-miterlimit="10" stroke-linecap="square"/>
<path d="M79.3 186.8C79.3 186.8 69.9 185.3 58.4 191.1C47 196.9 47.2 199.6 48 203.6C48.8 207.6 95.9 197 95.9 197" stroke="white" stroke-width="4.3" stroke-miterlimit="10" stroke-linecap="square"/>
<path d="M222 428C222 428 199.9 433.7 196.3 436.7C192.7 439.7 230.7 444.7 239.5 442.5C248.3 440.3 237.8 427.9 237.8 427.9" stroke="white" stroke-width="4.3" stroke-miterlimit="10" stroke-linecap="square"/>
<path d="M79.5 211.5L68.5 323L68.9 436.4H57.4L57 325.2H2.29999" stroke="white" stroke-width="4.3" stroke-miterlimit="10" stroke-linecap="square"/>
</svg>
