<svg xmlns="http://www.w3.org/2000/svg" fill="none" viewBox="72.4 24.4 377 464" style="max-height: 500px" width="377" height="464">
<path stroke-linecap="square" stroke-miterlimit="10" stroke-width="4" stroke="white" d="M293.9 159.5C293.9 159.5 276.6 154.3 259.4 164.7"/>
<path stroke-linecap="square" stroke-miterlimit="10" stroke-width="4" stroke="white" d="M263.6 255.9C263.6 255.9 269.9 242.4 273 229.7C276.1 217.1 274.6 203.2 274.6 203.2"/>
<path stroke-linecap="square" stroke-miterlimit="10" stroke-width="4" stroke="white" d="M396.7 297.6C396.7 297.6 388.7 274.1 384.2 253C379.8 231.8 374.7 195.6 374.7 195.6"/>
<path stroke-linecap="square" stroke-miterlimit="10" stroke-width="4" stroke="white" d="M378.6 291.4C378.6 291.4 367.7 269.1 360.6 248.6C353.5 228.1 350.9 206.5 350.9 206.5"/>
<path stroke-linecap="square" stroke-miterlimit="10" stroke-width="4" stroke="white" d="M355.1 259.4C355.1 259.4 351.5 245.7 348.7 233C345.9 220.3 347.7 206.5 347.7 206.5"/>
<path stroke-linecap="square" stroke-miterlimit="10" stroke-width="4" stroke="white" d="M270.8 258.7C270.8 258.7 311.3 254 328.8 255.3C346.2 256.6 351 263.8 351 263.8"/>
<path stroke-linecap="square" stroke-miterlimit="10" stroke-width="4" stroke="white" d="M300.9 162.4C300.9 162.4 305.6 165.5 314 164.5C322.4 163.5 325.2 157.5 325.2 157.5"/>
<path stroke-linecap="square" stroke-miterlimit="10" stroke-width="4" stroke="white" d="M281.4 455.5C281.4 455.5 258.5 462.8 258.9 468C259.3 473.2 289.5 473.3 295.7 472.5C308.6 470.9 316 465.2 303.9 448.9"/>
<path stroke-linecap="square" stroke-miterlimit="10" stroke-width="4" stroke="white" d="M274.1 453.2C274.1 453.2 278.8 445.9 276.9 422.9C273.9 388.7 259.9 329.6 263.7 303C267.5 276.3 270.6 268.5 270.6 268.5"/>
<path stroke-linecap="square" stroke-miterlimit="10" stroke-width="4" stroke="white" d="M309.9 289.9C309.9 289.9 312.7 299.6 310.1 324.9C307.2 354.6 296.9 396 299 416.5C300.3 428.7 307.4 446 307.4 446"/>
<path stroke-linecap="square" stroke-miterlimit="10" stroke-width="4" stroke="white" d="M404.1 446.4C404.1 446.4 428.1 447.7 429 452.8C430 457.9 400.8 465.7 394.5 466.5C381.6 468.2 373 464.6 380.6 445.8"/>
<path stroke-linecap="square" stroke-miterlimit="10" stroke-width="4" stroke="white" d="M407.5 437.7C407.5 437.7 400.5 432.5 394.3 410.3C385.2 377.2 377.8 316.9 364.9 293.3C352 269.6 346.5 263.4 346.5 263.4"/>
<path stroke-linecap="square" stroke-miterlimit="10" stroke-width="4" stroke="white" d="M317 297.1C317 297.1 317.8 307.1 329 330C342 356.8 366.1 392 371.3 412C374.3 423.9 373.7 442.5 373.7 442.5"/>
<path stroke-linecap="square" stroke-miterlimit="10" stroke-width="4" stroke="white" d="M285.9 82.3C285.9 82.3 258 96.5 264.1 123.7C270.3 151.1 315.4 136.9 315.4 136.9"/>
<path fill="white" d="M292.9 101.9C292.9 101.9 292.4 103 292.2 105.8C292 108.6 292.4 110.6 292.4 110.6"/>
<path stroke-linecap="square" stroke-miterlimit="10" stroke-width="4" stroke="white" d="M292.9 101.9C292.9 101.9 292.4 103 292.2 105.8C292 108.6 292.4 110.6 292.4 110.6"/>
<path fill="white" d="M306.4 103.1C306.4 103.1 305.9 104.2 305.7 107C305.5 109.8 305.9 111.8 305.9 111.8"/>
<path stroke-linecap="square" stroke-miterlimit="10" stroke-width="4" stroke="white" d="M306.4 103.1C306.4 103.1 305.9 104.2 305.7 107C305.5 109.8 305.9 111.8 305.9 111.8"/>
<path stroke-linecap="square" stroke-miterlimit="10" stroke-width="4" stroke="white" d="M348.2 111.3C348.2 111.3 355.7 106.4 360.5 111C365.7 115.8 364.9 122.8 362 126.7C356.9 133.6 348.6 130.6 348.6 130.6"/>
<path stroke-linecap="square" stroke-miterlimit="10" stroke-width="4" stroke="white" d="M266.7 101.7C266.7 101.7 258.2 96.1 255.2 105.5C250.8 119.5 261.6 121.5 261.6 121.5"/>
<path stroke-linecap="square" stroke-miterlimit="10" stroke-width="4" stroke="white" d="M296.9 72.5C296.9 72.5 301 86 311.1 82.4C321.1 78.7 317.6 71.8 311.8 71.7C306.1 71.7 299.1 80.7 306.5 89C314 97.4 324.1 88.4 324.1 88.4"/>
<path stroke-linecap="square" stroke-miterlimit="10" stroke-width="4" stroke="white" d="M339.9 79.8999C339.9 79.8999 330.4 81.6999 330.4 91.4999C330.4 101.3 336.3 100.6 342.8 99.9999C349.3 99.2999 352.4 96.2999 352.4 93.1999C352.3 88.0999 347.8 87.2999 342.8 88.2999C336.1 89.5999 330.7 95.7999 332.6 104.9C334 111.9 341.7 104.6 342.2 113.5C342.8 121.6 333.2 122.1 333.2 122.1"/>
<path stroke-linecap="square" stroke-miterlimit="10" stroke-width="4" stroke="white" d="M251.9 102.4C251.9 102.4 244 97.3 244.8 89.1C245.5 80.8 255.7 76.9 255.7 76.9C255.7 76.9 251.5 66.6 255.2 63.2C258.9 59.8 266.7 60.9 269.3 56.8C271.9 52.7 273.7 46.9 277.9 46.2C282.1 45.6 289.7 49.5 289.7 49.5"/>
<path stroke-linecap="square" stroke-miterlimit="10" stroke-width="4" stroke="white" d="M297.3 47.4C297.3 47.4 302 32.6 311.6 34.9C321.4 37.2 321.1 46.3 321.1 46.3C321.1 46.3 330.2 40.2 334.4 42.1C338.6 44 338.2 60.4 341.4 60.8C344.6 61.2 361.8 54.7 366.2 64.5C370.6 74.3 366.2 80.1 366.2 80.1"/>
<path stroke-linecap="square" stroke-miterlimit="10" stroke-width="4" stroke="white" d="M367 87.3001C367 87.3001 374.5 85.7001 374.7 90.3001C374.9 94.9001 366.3 100.7 367.8 104.8C369.3 108.9 376.9 106.3 373.5 121"/>
<path stroke-linecap="square" stroke-miterlimit="10" stroke-width="4" stroke="white" d="M255.7 76.9001C255.7 76.9001 264.2 76.9001 264.9 80.5001C265.6 84.1001 261.5 90.6001 256.5 86.0001C247.7 77.9001 268.1 61.6001 278.1 69.6001"/>
<path stroke-linecap="square" stroke-miterlimit="10" stroke-width="4" stroke="white" d="M325.3 132.6L326.5 149.3"/>
<path stroke-linecap="square" stroke-miterlimit="10" stroke-width="4" stroke="white" d="M301.5 139.9L301.8 150.6"/>
<path stroke-linecap="square" stroke-miterlimit="10" stroke-width="4" stroke="white" d="M169.9 203.9C169.9 203.9 193.9 197.8 214.1 189.9C234.3 182 252.4 169.8 252.4 169.8"/>
<path stroke-linecap="square" stroke-miterlimit="10" stroke-width="4" stroke="white" d="M183.9 221.9C183.9 221.9 208.5 218.7 229.6 213.5C250.6 208.3 270.2 198.4 270.2 198.4"/>
<path stroke-linecap="square" stroke-miterlimit="10" stroke-width="3.5" stroke="white" d="M157.7 210C157.7 210 163.4 209.1 168 212C177.3 217.8 177 225.1 177 225.1"/>
<path stroke-linecap="square" stroke-miterlimit="10" stroke-width="3.5" stroke="white" d="M152.6 212C152.6 212 135.4 219.1 131.6 223.4C127.8 227.7 120.8 240.7 124.3 245.1C127.8 249.5 131.4 243.3 131.4 243.3"/>
<path stroke-linecap="square" stroke-miterlimit="10" stroke-width="3.5" stroke="white" d="M176.6 240.5C180.3 244.3 184.6 240.7 180.5 231.2"/>
<path stroke-linecap="square" stroke-miterlimit="10" stroke-width="4" stroke="white" d="M379.9 299.6C379.9 299.6 379 304.2 379.9 310.2C380.8 316.2 384.9 341.1 388.3 341.1C391.7 341.1 399.6 321.1 399 313.2C398.4 305.3 385.6 296.2 379.9 299.6Z"/>
<path stroke-linecap="square" stroke-miterlimit="10" stroke-width="4" stroke="white" d="M332.7 157.5C332.7 157.5 348.8 153.3 357.5 160.1C366.2 166.9 371.9 172.6 374.7 187.4"/>
<path stroke-linecap="square" stroke-miterlimit="10" stroke-width="4" stroke="white" d="M143.1 353.3V239.2H152.6V472.9H143.1V374.9H86.8"/>
<path stroke-linecap="square" stroke-miterlimit="10" stroke-width="4" stroke="white" d="M134.4 351.9H86.8"/>
</svg>