<svg width="467" height="193" viewBox="0 0 467 193" fill="none" xmlns="http://www.w3.org/2000/svg">
<path d="M346.2 128C346.2 128 358 133.5 356.3 139.1C354.5 144.6 334.6 173.6 324.4 175.8" stroke="white" stroke-width="4.3" stroke-miterlimit="10" stroke-linecap="square"/>
<path d="M311.7 146.1C311.7 146.1 274.4 142.1 259.8 132.7C237.4 118.3 249.5 72.3999 249.5 72.3999" stroke="white" stroke-width="4.3" stroke-miterlimit="10" stroke-linecap="square"/>
<path d="M311.7 164.8C311.7 164.8 278.9 167.4 245.1 148.6C213.9 132.9 229.2 68.6001 229.2 68.6001" stroke="white" stroke-width="4.3" stroke-miterlimit="10" stroke-linecap="square"/>
<path d="M295 99.3C295 99.3 284.8 100.9 269.9 99.8" stroke="white" stroke-width="4" stroke-miterlimit="10" stroke-linecap="square"/>
<path d="M415.6 82.1999C415.6 82.1999 395.6 53.6999 366.6 64.5999C337.4 75.5999 360.2 123.1 360.2 123.1" stroke="white" stroke-width="4.3" stroke-miterlimit="10" stroke-linecap="square"/>
<path d="M394.9 93C394.9 93 392.7 92.5 390.5 92.8C386.8 93 385.1 93.8 385.1 93.8" fill="white"/>
<path d="M394.9 93C394.9 93 392.7 92.5 390.5 92.8C386.8 93 385.1 93.8 385.1 93.8" stroke="white" stroke-width="4.3" stroke-miterlimit="10" stroke-linecap="square"/>
<path d="M395.7 108.1C395.7 108.1 393.7 107.9 391.3 107.9C387.6 108.1 385.9 108.9 385.9 108.9" fill="white"/>
<path d="M395.7 108.1C395.7 108.1 393.7 107.9 391.3 107.9C387.6 108.1 385.9 108.9 385.9 108.9" stroke="white" stroke-width="4.3" stroke-miterlimit="10" stroke-linecap="square"/>
<path d="M393.2 155.3C393.2 155.3 399.6 162.8 395.6 168.8C390.9 175.2 383.3 175.2 378.4 172.8C369.9 168.3 372 158.6 372 158.6" stroke="white" stroke-width="4.3" stroke-miterlimit="10" stroke-linecap="square"/>
<path d="M391.3 64C391.3 64 396.2 53.7 385.4 52C369.2 49.4 368.7 61.6 368.7 61.6" stroke="white" stroke-width="4.3" stroke-miterlimit="10" stroke-linecap="square"/>
<path d="M369.8 151.9L343 161.7" stroke="white" stroke-width="4.3" stroke-miterlimit="10" stroke-linecap="square"/>
<path d="M365.3 128.2L354.4 132.7" stroke="white" stroke-width="4.3" stroke-miterlimit="10" stroke-linecap="square"/>
<path d="M422.8 100.6L413.6 92.8999" stroke="white" stroke-width="4.3" stroke-miterlimit="10" stroke-linecap="square"/>
<path d="M424.3 112.9L417.8 113.9" stroke="white" stroke-width="4.3" stroke-miterlimit="10" stroke-linecap="square"/>
<path d="M421.9 126.7L408.3 134.4" stroke="white" stroke-width="4.3" stroke-miterlimit="10" stroke-linecap="square"/>
<path d="M446.1 105.4C446.1 105.4 458.2 77.5 440.7 60.7C423.1 43.9 397.8 49.3 397.8 49.3" stroke="white" stroke-width="4.3" stroke-miterlimit="10" stroke-linecap="square"/>
<path d="M302.3 95.8C305.8 95.3 312.5 93.5 319.5 97.1C326.6 100.6 341.6 120.6 341.6 120.6" stroke="white" stroke-width="4.3" stroke-miterlimit="10" stroke-linecap="square"/>
<path d="M163.6 138.7C163.6 138.7 139.1 91.4 217.5 75" stroke="white" stroke-width="4.3" stroke-miterlimit="10" stroke-linecap="square"/>
<path d="M213.4 65C201.9 64.5 194.8 62.7 187.5 67" stroke="white" stroke-width="4.3" stroke-miterlimit="10" stroke-linecap="square"/>
<path d="M298.8 65.3999C298 88.4999 271.6 96.8999 247.9 107.7" stroke="white" stroke-width="4.3" stroke-miterlimit="10" stroke-linecap="square"/>
<path d="M192.3 35.3999C192.3 35.3999 185.9 34.1999 182.9 30.5999C179.9 26.9999 180 5.79993 174 15.5999C167.9 25.3999 169.3 48.7999 174.2 56.0999C179.1 63.3999 193.1 58.2999 193.1 58.2999" stroke="white" stroke-width="4.3" stroke-miterlimit="10" stroke-linecap="square"/>
<path d="M446.4 115.4C446.4 115.4 454 126.7 454.9 135.8C455.9 144.9 453.7 150.6 453.7 150.6" stroke="white" stroke-width="4.3" stroke-miterlimit="10" stroke-linecap="square"/>
<path d="M400.7 154.3C400.7 154.3 419.6 147.9 436.4 151.2C453.2 154.5 463.7 163.2 463.7 163.2C463.7 163.2 460.2 167.1 459.7 171.6C459.2 176.1 460.2 185.7 460.2 185.7C460.2 185.7 435.3 190.4 397.8 190.6C359.4 190.9 339.8 183 339.8 183C339.8 183 341.3 172.4 343 169.4" stroke="white" stroke-width="4.3" stroke-miterlimit="10" stroke-linecap="square"/>
<path d="M230.2 63.1999C230.2 63.1999 230.4 52.6999 226.2 48.2999C221.9 43.8999 220 39.3999 220 39.3999C220 39.3999 220.7 34.3999 230.3 34.8999C239.9 35.3999 247.1 40.8999 248.8 48.9999C250.5 57.0999 248.8 64.3999 248.8 64.3999C248.8 64.3999 244.8 62.2999 241 62.2999C237.2 62.2999 230.3 63.1999 230.3 63.1999H230.2Z" stroke="white" stroke-width="4.3" stroke-miterlimit="10" stroke-linecap="square"/>
<path d="M166.4 145.1C167.7 148.3 169.4 157.4 196.7 164.2C234.8 165 246.2 156.7 246.2 156.7" stroke="white" stroke-width="4.3" stroke-miterlimit="10" stroke-linecap="square"/>
<path d="M247.9 36.3999C247.9 36.3999 275.6 41.3999 286.8 46.1999C298 50.8999 297.9 58.6999 297.9 58.6999" stroke="white" stroke-width="4.3" stroke-miterlimit="10" stroke-linecap="square"/>
<path d="M185 3.5C185 3.5 180.7 24.5 214.7 32.4" stroke="white" stroke-width="4.3" stroke-miterlimit="10" stroke-linecap="square"/>
<path d="M23.7 125.3C23.7 125.3 17.5 124.6 14.5 121.5C11.4 118.3 9.9 98.2999 4.8 108C-0.0999987 117.8 2.8 139.8 8.1 146.4C13.4 153 26.1 147 26.1 147" stroke="white" stroke-width="4" stroke-miterlimit="10" stroke-linecap="square"/>
<path d="M153.5 125.7C153.5 125.7 127.5 121.4 109.2 123.1C90.9 124.8 68.1 134.1 46.4 130.9C24.7 127.7 22 114.4 22 114.4" stroke="white" stroke-width="3.8" stroke-miterlimit="10" stroke-linecap="square"/>
<path d="M172.6 161.4C172.6 161.4 146 162.1 126.3 159.8C106.6 157.5 68 153.4 54.8 153C41.6 152.6 18 158.7 18 158.7" stroke="white" stroke-width="3.8" stroke-miterlimit="10" stroke-linecap="square"/>
</svg>
